<svg width="673" height="299" viewBox="0 0 673 299" fill="none" xmlns="http://www.w3.org/2000/svg">
<path d="M19.5795 247.21V246.273H26.125V247.21H23.3807V255H22.3239V247.21H19.5795ZM28.0288 249.835V248.915H33.2788V249.835H28.0288ZM28.0288 252.358V251.438H33.2788V252.358H28.0288ZM38.3594 255.119C37.7173 255.119 37.1705 254.945 36.7188 254.595C36.267 254.243 35.9219 253.733 35.6832 253.065C35.4446 252.395 35.3253 251.585 35.3253 250.636C35.3253 249.693 35.4446 248.888 35.6832 248.22C35.9247 247.55 36.2713 247.038 36.723 246.686C37.1776 246.331 37.723 246.153 38.3594 246.153C38.9957 246.153 39.5398 246.331 39.9915 246.686C40.446 247.038 40.7926 247.55 41.0312 248.22C41.2727 248.888 41.3935 249.693 41.3935 250.636C41.3935 251.585 41.2741 252.395 41.0355 253.065C40.7969 253.733 40.4517 254.243 40 254.595C39.5483 254.945 39.0014 255.119 38.3594 255.119ZM38.3594 254.182C38.9957 254.182 39.4901 253.875 39.8423 253.261C40.1946 252.648 40.3707 251.773 40.3707 250.636C40.3707 249.881 40.2898 249.237 40.1278 248.706C39.9688 248.175 39.7386 247.77 39.4375 247.491C39.1392 247.213 38.7798 247.074 38.3594 247.074C37.7287 247.074 37.2358 247.385 36.8807 248.007C36.5256 248.626 36.348 249.503 36.348 250.636C36.348 251.392 36.4276 252.034 36.5866 252.562C36.7457 253.091 36.9744 253.493 37.2727 253.768C37.5739 254.044 37.9361 254.182 38.3594 254.182Z" fill="black"/>
<path d="M435.58 247.21V246.273H442.125V247.21H439.381V255H438.324V247.21H435.58ZM444.029 249.835V248.915H449.279V249.835H444.029ZM444.029 252.358V251.438H449.279V252.358H444.029ZM454.359 255.119C453.717 255.119 453.17 254.945 452.719 254.595C452.267 254.243 451.922 253.733 451.683 253.065C451.445 252.395 451.325 251.585 451.325 250.636C451.325 249.693 451.445 248.888 451.683 248.22C451.925 247.55 452.271 247.038 452.723 246.686C453.178 246.331 453.723 246.153 454.359 246.153C454.996 246.153 455.54 246.331 455.991 246.686C456.446 247.038 456.793 247.55 457.031 248.22C457.273 248.888 457.393 249.693 457.393 250.636C457.393 251.585 457.274 252.395 457.036 253.065C456.797 253.733 456.452 254.243 456 254.595C455.548 254.945 455.001 255.119 454.359 255.119ZM454.359 254.182C454.996 254.182 455.49 253.875 455.842 253.261C456.195 252.648 456.371 251.773 456.371 250.636C456.371 249.881 456.29 249.237 456.128 248.706C455.969 248.175 455.739 247.77 455.438 247.491C455.139 247.213 454.78 247.074 454.359 247.074C453.729 247.074 453.236 247.385 452.881 248.007C452.526 248.626 452.348 249.503 452.348 250.636C452.348 251.392 452.428 252.034 452.587 252.562C452.746 253.091 452.974 253.493 453.273 253.768C453.574 254.044 453.936 254.182 454.359 254.182Z" fill="black"/>
<path d="M190.58 247.21V246.273H197.125V247.21H194.381V255H193.324V247.21H190.58ZM199.029 250.79V249.869H204.279V250.79H199.029ZM199.029 253.312V252.392H204.279V253.312H199.029ZM209.001 255.136C208.456 255.136 207.974 254.999 207.557 254.723C207.139 254.445 206.813 254.053 206.577 253.547C206.341 253.038 206.223 252.438 206.223 251.744C206.223 251.057 206.341 250.46 206.577 249.955C206.813 249.449 207.141 249.058 207.561 248.783C207.982 248.507 208.467 248.369 209.018 248.369C209.445 248.369 209.781 248.44 210.028 248.582C210.278 248.722 210.469 248.881 210.599 249.06C210.733 249.236 210.837 249.381 210.911 249.494H210.996V246.273H212.001V255H211.03V253.994H210.911C210.837 254.114 210.732 254.264 210.595 254.446C210.459 254.625 210.264 254.786 210.011 254.928C209.759 255.067 209.422 255.136 209.001 255.136ZM209.138 254.233C209.541 254.233 209.882 254.128 210.161 253.918C210.439 253.705 210.651 253.411 210.795 253.036C210.94 252.658 211.013 252.222 211.013 251.727C211.013 251.239 210.942 250.811 210.8 250.445C210.658 250.075 210.447 249.788 210.169 249.584C209.891 249.376 209.547 249.273 209.138 249.273C208.712 249.273 208.357 249.382 208.072 249.601C207.791 249.817 207.58 250.111 207.438 250.483C207.298 250.852 207.229 251.267 207.229 251.727C207.229 252.193 207.3 252.616 207.442 252.997C207.587 253.375 207.8 253.676 208.081 253.901C208.365 254.122 208.717 254.233 209.138 254.233ZM216.83 248.455V249.307H213.438V248.455H216.83ZM214.426 246.886H215.432V253.125C215.432 253.409 215.473 253.622 215.555 253.764C215.641 253.903 215.749 253.997 215.879 254.045C216.013 254.091 216.153 254.114 216.301 254.114C216.412 254.114 216.503 254.108 216.574 254.097C216.645 254.082 216.702 254.071 216.744 254.062L216.949 254.966C216.881 254.991 216.786 255.017 216.663 255.043C216.541 255.071 216.386 255.085 216.199 255.085C215.915 255.085 215.636 255.024 215.364 254.902C215.094 254.78 214.869 254.594 214.69 254.344C214.514 254.094 214.426 253.778 214.426 253.398V246.886Z" fill="black"/>
<path d="M606.58 247.21V246.273H613.125V247.21H610.381V255H609.324V247.21H606.58ZM615.029 250.79V249.869H620.279V250.79H615.029ZM615.029 253.312V252.392H620.279V253.312H615.029ZM625.001 255.136C624.456 255.136 623.974 254.999 623.557 254.723C623.139 254.445 622.813 254.053 622.577 253.547C622.341 253.038 622.223 252.438 622.223 251.744C622.223 251.057 622.341 250.46 622.577 249.955C622.813 249.449 623.141 249.058 623.561 248.783C623.982 248.507 624.467 248.369 625.018 248.369C625.445 248.369 625.781 248.44 626.028 248.582C626.278 248.722 626.469 248.881 626.599 249.06C626.733 249.236 626.837 249.381 626.911 249.494H626.996V246.273H628.001V255H627.03V253.994H626.911C626.837 254.114 626.732 254.264 626.595 254.446C626.459 254.625 626.264 254.786 626.011 254.928C625.759 255.067 625.422 255.136 625.001 255.136ZM625.138 254.233C625.541 254.233 625.882 254.128 626.161 253.918C626.439 253.705 626.651 253.411 626.795 253.036C626.94 252.658 627.013 252.222 627.013 251.727C627.013 251.239 626.942 250.811 626.8 250.445C626.658 250.075 626.447 249.788 626.169 249.584C625.891 249.376 625.547 249.273 625.138 249.273C624.712 249.273 624.357 249.382 624.072 249.601C623.791 249.817 623.58 250.111 623.438 250.483C623.298 250.852 623.229 251.267 623.229 251.727C623.229 252.193 623.3 252.616 623.442 252.997C623.587 253.375 623.8 253.676 624.081 253.901C624.365 254.122 624.717 254.233 625.138 254.233ZM632.83 248.455V249.307H629.438V248.455H632.83ZM630.426 246.886H631.432V253.125C631.432 253.409 631.473 253.622 631.555 253.764C631.641 253.903 631.749 253.997 631.879 254.045C632.013 254.091 632.153 254.114 632.301 254.114C632.412 254.114 632.503 254.108 632.574 254.097C632.645 254.082 632.702 254.071 632.744 254.062L632.949 254.966C632.881 254.991 632.786 255.017 632.663 255.043C632.541 255.071 632.386 255.085 632.199 255.085C631.915 255.085 631.636 255.024 631.364 254.902C631.094 254.78 630.869 254.594 630.69 254.344C630.514 254.094 630.426 253.778 630.426 253.398V246.886Z" fill="black"/>
<path d="M559.767 115.455V116.307H556.375V115.455H559.767ZM557.364 113.886H558.369V120.125C558.369 120.409 558.411 120.622 558.493 120.764C558.578 120.903 558.686 120.997 558.817 121.045C558.95 121.091 559.091 121.114 559.239 121.114C559.349 121.114 559.44 121.108 559.511 121.097C559.582 121.082 559.639 121.071 559.682 121.062L559.886 121.966C559.818 121.991 559.723 122.017 559.601 122.043C559.479 122.071 559.324 122.085 559.136 122.085C558.852 122.085 558.574 122.024 558.301 121.902C558.031 121.78 557.807 121.594 557.628 121.344C557.452 121.094 557.364 120.778 557.364 120.398V113.886ZM565.405 119.324V115.455H566.411V122H565.405V120.892H565.337C565.183 121.224 564.945 121.507 564.621 121.74C564.297 121.97 563.888 122.085 563.393 122.085C562.984 122.085 562.621 121.996 562.303 121.817C561.984 121.635 561.734 121.362 561.553 120.999C561.371 120.632 561.28 120.17 561.28 119.614V115.455H562.286V119.545C562.286 120.023 562.419 120.403 562.686 120.688C562.956 120.972 563.3 121.114 563.717 121.114C563.967 121.114 564.222 121.05 564.48 120.922C564.741 120.794 564.96 120.598 565.136 120.334C565.315 120.07 565.405 119.733 565.405 119.324ZM568.389 122V113.273H569.395V116.494H569.48C569.554 116.381 569.656 116.236 569.787 116.06C569.92 115.881 570.11 115.722 570.358 115.582C570.608 115.44 570.946 115.369 571.372 115.369C571.923 115.369 572.409 115.507 572.829 115.783C573.25 116.058 573.578 116.449 573.814 116.955C574.049 117.46 574.167 118.057 574.167 118.744C574.167 119.438 574.049 120.038 573.814 120.547C573.578 121.053 573.251 121.445 572.833 121.723C572.416 121.999 571.934 122.136 571.389 122.136C570.968 122.136 570.632 122.067 570.379 121.928C570.126 121.786 569.931 121.625 569.795 121.446C569.659 121.264 569.554 121.114 569.48 120.994H569.36V122H568.389ZM569.377 118.727C569.377 119.222 569.45 119.658 569.595 120.036C569.74 120.411 569.951 120.705 570.23 120.918C570.508 121.128 570.849 121.233 571.252 121.233C571.673 121.233 572.024 121.122 572.305 120.901C572.589 120.676 572.802 120.375 572.944 119.997C573.089 119.616 573.162 119.193 573.162 118.727C573.162 118.267 573.091 117.852 572.949 117.483C572.809 117.111 572.598 116.817 572.314 116.601C572.032 116.382 571.679 116.273 571.252 116.273C570.843 116.273 570.5 116.376 570.221 116.584C569.943 116.788 569.733 117.075 569.591 117.445C569.449 117.811 569.377 118.239 569.377 118.727ZM578.45 122.136C577.819 122.136 577.275 121.997 576.818 121.719C576.363 121.438 576.012 121.045 575.765 120.543C575.521 120.037 575.399 119.449 575.399 118.778C575.399 118.108 575.521 117.517 575.765 117.006C576.012 116.491 576.356 116.091 576.797 115.804C577.24 115.514 577.757 115.369 578.348 115.369C578.689 115.369 579.025 115.426 579.358 115.54C579.69 115.653 579.993 115.838 580.265 116.094C580.538 116.347 580.755 116.682 580.917 117.099C581.079 117.517 581.16 118.031 581.16 118.642V119.068H576.115V118.199H580.137C580.137 117.83 580.064 117.5 579.916 117.21C579.771 116.92 579.564 116.692 579.294 116.524C579.027 116.357 578.711 116.273 578.348 116.273C577.947 116.273 577.6 116.372 577.308 116.571C577.018 116.767 576.795 117.023 576.639 117.338C576.483 117.653 576.404 117.991 576.404 118.352V118.932C576.404 119.426 576.49 119.845 576.66 120.189C576.833 120.53 577.074 120.79 577.38 120.969C577.687 121.145 578.044 121.233 578.45 121.233C578.714 121.233 578.953 121.196 579.166 121.122C579.382 121.045 579.568 120.932 579.724 120.781C579.88 120.628 580.001 120.437 580.086 120.21L581.058 120.483C580.956 120.812 580.784 121.102 580.542 121.352C580.301 121.599 580.002 121.793 579.647 121.932C579.292 122.068 578.893 122.136 578.45 122.136Z" fill="black"/>
<path d="M164.057 278V269.273H165.114V277.062H169.17V278H164.057ZM172.597 278.153C172.182 278.153 171.805 278.075 171.467 277.919C171.129 277.76 170.861 277.531 170.662 277.233C170.463 276.932 170.364 276.568 170.364 276.142C170.364 275.767 170.438 275.463 170.585 275.23C170.733 274.994 170.93 274.81 171.178 274.676C171.425 274.543 171.697 274.443 171.996 274.378C172.297 274.31 172.599 274.256 172.903 274.216C173.301 274.165 173.624 274.126 173.871 274.101C174.121 274.072 174.303 274.026 174.416 273.96C174.533 273.895 174.591 273.781 174.591 273.619V273.585C174.591 273.165 174.476 272.838 174.246 272.605C174.018 272.372 173.673 272.256 173.21 272.256C172.73 272.256 172.354 272.361 172.081 272.571C171.808 272.781 171.616 273.006 171.506 273.244L170.551 272.903C170.722 272.506 170.949 272.196 171.233 271.974C171.52 271.75 171.832 271.594 172.17 271.506C172.511 271.415 172.847 271.369 173.176 271.369C173.386 271.369 173.628 271.395 173.901 271.446C174.176 271.494 174.442 271.595 174.697 271.749C174.956 271.902 175.17 272.134 175.341 272.443C175.511 272.753 175.597 273.168 175.597 273.688V278H174.591V277.114H174.54C174.472 277.256 174.358 277.408 174.199 277.57C174.04 277.732 173.828 277.869 173.564 277.983C173.3 278.097 172.977 278.153 172.597 278.153ZM172.75 277.25C173.148 277.25 173.483 277.172 173.756 277.016C174.031 276.859 174.239 276.658 174.378 276.411C174.52 276.163 174.591 275.903 174.591 275.631V274.71C174.548 274.761 174.455 274.808 174.31 274.851C174.168 274.891 174.003 274.926 173.815 274.957C173.631 274.986 173.45 275.011 173.274 275.034C173.101 275.054 172.96 275.071 172.852 275.085C172.591 275.119 172.347 275.175 172.119 275.251C171.895 275.325 171.713 275.437 171.574 275.588C171.438 275.736 171.369 275.937 171.369 276.193C171.369 276.543 171.499 276.807 171.757 276.986C172.018 277.162 172.349 277.25 172.75 277.25ZM183.722 271.455V272.307H180.194V271.455H183.722ZM181.25 278V270.551C181.25 270.176 181.338 269.864 181.515 269.614C181.691 269.364 181.919 269.176 182.201 269.051C182.482 268.926 182.779 268.864 183.091 268.864C183.338 268.864 183.54 268.884 183.696 268.923C183.853 268.963 183.969 269 184.046 269.034L183.756 269.903C183.705 269.886 183.634 269.865 183.543 269.839C183.455 269.814 183.338 269.801 183.194 269.801C182.861 269.801 182.621 269.885 182.473 270.053C182.328 270.22 182.256 270.466 182.256 270.79V278H181.25ZM185.131 278V271.455H186.103V272.443H186.171C186.29 272.119 186.506 271.857 186.819 271.655C187.131 271.453 187.484 271.352 187.876 271.352C187.95 271.352 188.042 271.354 188.153 271.357C188.263 271.359 188.347 271.364 188.404 271.369V272.392C188.37 272.384 188.292 272.371 188.17 272.354C188.05 272.334 187.924 272.324 187.79 272.324C187.472 272.324 187.188 272.391 186.938 272.524C186.691 272.655 186.495 272.837 186.35 273.07C186.208 273.3 186.137 273.562 186.137 273.858V278H185.131ZM191.522 278.153C191.108 278.153 190.731 278.075 190.393 277.919C190.055 277.76 189.787 277.531 189.588 277.233C189.389 276.932 189.289 276.568 189.289 276.142C189.289 275.767 189.363 275.463 189.511 275.23C189.659 274.994 189.856 274.81 190.103 274.676C190.35 274.543 190.623 274.443 190.922 274.378C191.223 274.31 191.525 274.256 191.829 274.216C192.227 274.165 192.549 274.126 192.797 274.101C193.047 274.072 193.228 274.026 193.342 273.96C193.458 273.895 193.517 273.781 193.517 273.619V273.585C193.517 273.165 193.402 272.838 193.172 272.605C192.944 272.372 192.599 272.256 192.136 272.256C191.656 272.256 191.279 272.361 191.007 272.571C190.734 272.781 190.542 273.006 190.431 273.244L189.477 272.903C189.647 272.506 189.875 272.196 190.159 271.974C190.446 271.75 190.758 271.594 191.096 271.506C191.437 271.415 191.772 271.369 192.102 271.369C192.312 271.369 192.554 271.395 192.826 271.446C193.102 271.494 193.368 271.595 193.623 271.749C193.882 271.902 194.096 272.134 194.267 272.443C194.437 272.753 194.522 273.168 194.522 273.688V278H193.517V277.114H193.466C193.397 277.256 193.284 277.408 193.125 277.57C192.966 277.732 192.754 277.869 192.49 277.983C192.225 278.097 191.903 278.153 191.522 278.153ZM191.676 277.25C192.074 277.25 192.409 277.172 192.681 277.016C192.957 276.859 193.164 276.658 193.304 276.411C193.446 276.163 193.517 275.903 193.517 275.631V274.71C193.474 274.761 193.38 274.808 193.235 274.851C193.093 274.891 192.929 274.926 192.741 274.957C192.556 274.986 192.376 275.011 192.2 275.034C192.027 275.054 191.886 275.071 191.778 275.085C191.517 275.119 191.272 275.175 191.045 275.251C190.821 275.325 190.639 275.437 190.5 275.588C190.363 275.736 190.295 275.937 190.295 276.193C190.295 276.543 190.424 276.807 190.683 276.986C190.944 277.162 191.275 277.25 191.676 277.25ZM196.358 278V271.455H197.33V272.477H197.415C197.551 272.128 197.771 271.857 198.075 271.663C198.379 271.467 198.744 271.369 199.17 271.369C199.602 271.369 199.962 271.467 200.249 271.663C200.538 271.857 200.764 272.128 200.926 272.477H200.994C201.162 272.139 201.413 271.871 201.749 271.672C202.084 271.47 202.486 271.369 202.955 271.369C203.54 271.369 204.018 271.553 204.391 271.919C204.763 272.283 204.949 272.849 204.949 273.619V278H203.943V273.619C203.943 273.136 203.811 272.791 203.547 272.584C203.283 272.376 202.972 272.273 202.614 272.273C202.153 272.273 201.797 272.412 201.544 272.69C201.291 272.966 201.165 273.315 201.165 273.739V278H200.142V273.517C200.142 273.145 200.021 272.845 199.78 272.618C199.538 272.388 199.227 272.273 198.847 272.273C198.585 272.273 198.341 272.342 198.114 272.482C197.889 272.621 197.707 272.814 197.568 273.061C197.432 273.305 197.364 273.588 197.364 273.909V278H196.358ZM209.532 278.136C208.901 278.136 208.357 277.997 207.9 277.719C207.445 277.438 207.094 277.045 206.847 276.543C206.603 276.037 206.481 275.449 206.481 274.778C206.481 274.108 206.603 273.517 206.847 273.006C207.094 272.491 207.438 272.091 207.879 271.804C208.322 271.514 208.839 271.369 209.43 271.369C209.771 271.369 210.107 271.426 210.44 271.54C210.772 271.653 211.075 271.838 211.347 272.094C211.62 272.347 211.837 272.682 211.999 273.099C212.161 273.517 212.242 274.031 212.242 274.642V275.068H207.197V274.199H211.219C211.219 273.83 211.146 273.5 210.998 273.21C210.853 272.92 210.646 272.692 210.376 272.524C210.109 272.357 209.793 272.273 209.43 272.273C209.029 272.273 208.683 272.372 208.39 272.571C208.1 272.767 207.877 273.023 207.721 273.338C207.565 273.653 207.487 273.991 207.487 274.352V274.932C207.487 275.426 207.572 275.845 207.742 276.189C207.915 276.53 208.156 276.79 208.462 276.969C208.769 277.145 209.126 277.233 209.532 277.233C209.796 277.233 210.035 277.196 210.248 277.122C210.464 277.045 210.65 276.932 210.806 276.781C210.962 276.628 211.083 276.437 211.168 276.21L212.14 276.483C212.038 276.812 211.866 277.102 211.624 277.352C211.383 277.599 211.085 277.793 210.729 277.932C210.374 278.068 209.975 278.136 209.532 278.136ZM219.619 278.136C219.073 278.136 218.592 277.999 218.174 277.723C217.756 277.445 217.43 277.053 217.194 276.547C216.958 276.038 216.84 275.438 216.84 274.744C216.84 274.057 216.958 273.46 217.194 272.955C217.43 272.449 217.758 272.058 218.178 271.783C218.599 271.507 219.085 271.369 219.636 271.369C220.062 271.369 220.398 271.44 220.646 271.582C220.896 271.722 221.086 271.881 221.217 272.06C221.35 272.236 221.454 272.381 221.528 272.494H221.613V269.273H222.619V278H221.647V276.994H221.528C221.454 277.114 221.349 277.264 221.212 277.446C221.076 277.625 220.881 277.786 220.629 277.928C220.376 278.067 220.039 278.136 219.619 278.136ZM219.755 277.233C220.158 277.233 220.499 277.128 220.778 276.918C221.056 276.705 221.268 276.411 221.413 276.036C221.558 275.658 221.63 275.222 221.63 274.727C221.63 274.239 221.559 273.811 221.417 273.445C221.275 273.075 221.065 272.788 220.786 272.584C220.508 272.376 220.164 272.273 219.755 272.273C219.329 272.273 218.974 272.382 218.69 272.601C218.408 272.817 218.197 273.111 218.055 273.483C217.915 273.852 217.846 274.267 217.846 274.727C217.846 275.193 217.917 275.616 218.059 275.997C218.204 276.375 218.417 276.676 218.698 276.901C218.982 277.122 219.335 277.233 219.755 277.233ZM225.487 269.273V270.04C225.487 270.273 225.444 270.521 225.359 270.786C225.276 271.047 225.154 271.301 224.992 271.548C224.833 271.793 224.64 272.006 224.413 272.188L223.867 271.744C224.046 271.489 224.201 271.223 224.332 270.947C224.465 270.669 224.532 270.372 224.532 270.057V269.273H225.487ZM228.061 278.153C227.647 278.153 227.27 278.075 226.932 277.919C226.594 277.76 226.326 277.531 226.127 277.233C225.928 276.932 225.828 276.568 225.828 276.142C225.828 275.767 225.902 275.463 226.05 275.23C226.198 274.994 226.395 274.81 226.642 274.676C226.89 274.543 227.162 274.443 227.461 274.378C227.762 274.31 228.064 274.256 228.368 274.216C228.766 274.165 229.088 274.126 229.336 274.101C229.586 274.072 229.767 274.026 229.881 273.96C229.998 273.895 230.056 273.781 230.056 273.619V273.585C230.056 273.165 229.941 272.838 229.711 272.605C229.483 272.372 229.138 272.256 228.675 272.256C228.195 272.256 227.819 272.361 227.546 272.571C227.273 272.781 227.081 273.006 226.971 273.244L226.016 272.903C226.186 272.506 226.414 272.196 226.698 271.974C226.985 271.75 227.297 271.594 227.635 271.506C227.976 271.415 228.311 271.369 228.641 271.369C228.851 271.369 229.093 271.395 229.365 271.446C229.641 271.494 229.907 271.595 230.162 271.749C230.421 271.902 230.635 272.134 230.806 272.443C230.976 272.753 231.061 273.168 231.061 273.688V278H230.056V277.114H230.005C229.936 277.256 229.823 277.408 229.664 277.57C229.505 277.732 229.293 277.869 229.029 277.983C228.765 278.097 228.442 278.153 228.061 278.153ZM228.215 277.25C228.613 277.25 228.948 277.172 229.221 277.016C229.496 276.859 229.703 276.658 229.843 276.411C229.985 276.163 230.056 275.903 230.056 275.631V274.71C230.013 274.761 229.919 274.808 229.775 274.851C229.632 274.891 229.468 274.926 229.28 274.957C229.096 274.986 228.915 275.011 228.739 275.034C228.566 275.054 228.425 275.071 228.317 275.085C228.056 275.119 227.811 275.175 227.584 275.251C227.36 275.325 227.178 275.437 227.039 275.588C226.902 275.736 226.834 275.937 226.834 276.193C226.834 276.543 226.963 276.807 227.222 276.986C227.483 277.162 227.814 277.25 228.215 277.25ZM232.897 280.455V271.455H233.869V272.494H233.988C234.062 272.381 234.164 272.236 234.295 272.06C234.428 271.881 234.619 271.722 234.866 271.582C235.116 271.44 235.454 271.369 235.88 271.369C236.431 271.369 236.917 271.507 237.337 271.783C237.758 272.058 238.086 272.449 238.322 272.955C238.558 273.46 238.675 274.057 238.675 274.744C238.675 275.438 238.558 276.038 238.322 276.547C238.086 277.053 237.759 277.445 237.342 277.723C236.924 277.999 236.442 278.136 235.897 278.136C235.477 278.136 235.14 278.067 234.887 277.928C234.634 277.786 234.44 277.625 234.303 277.446C234.167 277.264 234.062 277.114 233.988 276.994H233.903V280.455H232.897ZM233.886 274.727C233.886 275.222 233.958 275.658 234.103 276.036C234.248 276.411 234.46 276.705 234.738 276.918C235.016 277.128 235.357 277.233 235.761 277.233C236.181 277.233 236.532 277.122 236.813 276.901C237.097 276.676 237.31 276.375 237.452 275.997C237.597 275.616 237.67 275.193 237.67 274.727C237.67 274.267 237.599 273.852 237.457 273.483C237.317 273.111 237.106 272.817 236.822 272.601C236.54 272.382 236.187 272.273 235.761 272.273C235.352 272.273 235.008 272.376 234.729 272.584C234.451 272.788 234.241 273.075 234.099 273.445C233.957 273.811 233.886 274.239 233.886 274.727ZM240.21 278V271.455H241.181V272.443H241.249C241.369 272.119 241.585 271.857 241.897 271.655C242.21 271.453 242.562 271.352 242.954 271.352C243.028 271.352 243.12 271.354 243.231 271.357C243.342 271.359 243.425 271.364 243.482 271.369V272.392C243.448 272.384 243.37 272.371 243.248 272.354C243.129 272.334 243.002 272.324 242.869 272.324C242.55 272.324 242.266 272.391 242.016 272.524C241.769 272.655 241.573 272.837 241.428 273.07C241.286 273.3 241.215 273.562 241.215 273.858V278H240.21ZM247.219 278.136C246.589 278.136 246.045 277.997 245.587 277.719C245.133 277.438 244.782 277.045 244.535 276.543C244.29 276.037 244.168 275.449 244.168 274.778C244.168 274.108 244.29 273.517 244.535 273.006C244.782 272.491 245.126 272.091 245.566 271.804C246.009 271.514 246.526 271.369 247.117 271.369C247.458 271.369 247.795 271.426 248.127 271.54C248.46 271.653 248.762 271.838 249.035 272.094C249.308 272.347 249.525 272.682 249.687 273.099C249.849 273.517 249.93 274.031 249.93 274.642V275.068H244.884V274.199H248.907C248.907 273.83 248.833 273.5 248.685 273.21C248.54 272.92 248.333 272.692 248.063 272.524C247.796 272.357 247.481 272.273 247.117 272.273C246.717 272.273 246.37 272.372 246.077 272.571C245.788 272.767 245.565 273.023 245.408 273.338C245.252 273.653 245.174 273.991 245.174 274.352V274.932C245.174 275.426 245.259 275.845 245.43 276.189C245.603 276.53 245.843 276.79 246.15 276.969C246.457 277.145 246.813 277.233 247.219 277.233C247.484 277.233 247.722 277.196 247.935 277.122C248.151 277.045 248.337 276.932 248.494 276.781C248.65 276.628 248.771 276.437 248.856 276.21L249.827 276.483C249.725 276.812 249.553 277.102 249.312 277.352C249.07 277.599 248.772 277.793 248.417 277.932C248.062 278.068 247.663 278.136 247.219 278.136ZM246.64 270.568L245.31 268.591H246.487L247.526 270.568H246.64ZM256.096 272.92L255.192 273.176C255.136 273.026 255.052 272.879 254.941 272.737C254.833 272.592 254.685 272.473 254.498 272.379C254.31 272.286 254.07 272.239 253.778 272.239C253.377 272.239 253.043 272.331 252.776 272.516C252.512 272.697 252.38 272.929 252.38 273.21C252.38 273.46 252.471 273.658 252.653 273.803C252.835 273.947 253.119 274.068 253.505 274.165L254.477 274.403C255.062 274.545 255.498 274.763 255.785 275.055C256.072 275.345 256.215 275.719 256.215 276.176C256.215 276.551 256.107 276.886 255.891 277.182C255.678 277.477 255.38 277.71 254.996 277.881C254.613 278.051 254.167 278.136 253.658 278.136C252.991 278.136 252.438 277.991 252.001 277.702C251.563 277.412 251.286 276.989 251.17 276.432L252.124 276.193C252.215 276.545 252.387 276.81 252.64 276.986C252.896 277.162 253.229 277.25 253.641 277.25C254.11 277.25 254.482 277.151 254.758 276.952C255.036 276.75 255.175 276.509 255.175 276.227C255.175 276 255.096 275.81 254.937 275.656C254.778 275.5 254.533 275.384 254.204 275.307L253.113 275.051C252.513 274.909 252.073 274.689 251.792 274.391C251.513 274.089 251.374 273.713 251.374 273.261C251.374 272.892 251.478 272.565 251.685 272.281C251.896 271.997 252.181 271.774 252.542 271.612C252.906 271.45 253.317 271.369 253.778 271.369C254.425 271.369 254.934 271.511 255.303 271.795C255.675 272.08 255.94 272.455 256.096 272.92Z" fill="black"/>
<path d="M580.057 278V269.273H581.114V277.062H585.17V278H580.057ZM588.597 278.153C588.182 278.153 587.805 278.075 587.467 277.919C587.129 277.76 586.861 277.531 586.662 277.233C586.463 276.932 586.364 276.568 586.364 276.142C586.364 275.767 586.438 275.463 586.585 275.23C586.733 274.994 586.93 274.81 587.178 274.676C587.425 274.543 587.697 274.443 587.996 274.378C588.297 274.31 588.599 274.256 588.903 274.216C589.301 274.165 589.624 274.126 589.871 274.101C590.121 274.072 590.303 274.026 590.416 273.96C590.533 273.895 590.591 273.781 590.591 273.619V273.585C590.591 273.165 590.476 272.838 590.246 272.605C590.018 272.372 589.673 272.256 589.21 272.256C588.73 272.256 588.354 272.361 588.081 272.571C587.808 272.781 587.616 273.006 587.506 273.244L586.551 272.903C586.722 272.506 586.949 272.196 587.233 271.974C587.52 271.75 587.832 271.594 588.17 271.506C588.511 271.415 588.847 271.369 589.176 271.369C589.386 271.369 589.628 271.395 589.901 271.446C590.176 271.494 590.442 271.595 590.697 271.749C590.956 271.902 591.17 272.134 591.341 272.443C591.511 272.753 591.597 273.168 591.597 273.688V278H590.591V277.114H590.54C590.472 277.256 590.358 277.408 590.199 277.57C590.04 277.732 589.828 277.869 589.564 277.983C589.3 278.097 588.977 278.153 588.597 278.153ZM588.75 277.25C589.148 277.25 589.483 277.172 589.756 277.016C590.031 276.859 590.239 276.658 590.378 276.411C590.52 276.163 590.591 275.903 590.591 275.631V274.71C590.548 274.761 590.455 274.808 590.31 274.851C590.168 274.891 590.003 274.926 589.815 274.957C589.631 274.986 589.45 275.011 589.274 275.034C589.101 275.054 588.96 275.071 588.852 275.085C588.591 275.119 588.347 275.175 588.119 275.251C587.895 275.325 587.713 275.437 587.574 275.588C587.438 275.736 587.369 275.937 587.369 276.193C587.369 276.543 587.499 276.807 587.757 276.986C588.018 277.162 588.349 277.25 588.75 277.25ZM599.722 271.455V272.307H596.194V271.455H599.722ZM597.25 278V270.551C597.25 270.176 597.338 269.864 597.515 269.614C597.691 269.364 597.919 269.176 598.201 269.051C598.482 268.926 598.779 268.864 599.091 268.864C599.338 268.864 599.54 268.884 599.696 268.923C599.853 268.963 599.969 269 600.046 269.034L599.756 269.903C599.705 269.886 599.634 269.865 599.543 269.839C599.455 269.814 599.338 269.801 599.194 269.801C598.861 269.801 598.621 269.885 598.473 270.053C598.328 270.22 598.256 270.466 598.256 270.79V278H597.25ZM601.131 278V271.455H602.103V272.443H602.171C602.29 272.119 602.506 271.857 602.819 271.655C603.131 271.453 603.484 271.352 603.876 271.352C603.95 271.352 604.042 271.354 604.153 271.357C604.263 271.359 604.347 271.364 604.404 271.369V272.392C604.37 272.384 604.292 272.371 604.17 272.354C604.05 272.334 603.924 272.324 603.79 272.324C603.472 272.324 603.188 272.391 602.938 272.524C602.691 272.655 602.495 272.837 602.35 273.07C602.208 273.3 602.137 273.562 602.137 273.858V278H601.131ZM607.522 278.153C607.108 278.153 606.731 278.075 606.393 277.919C606.055 277.76 605.787 277.531 605.588 277.233C605.389 276.932 605.289 276.568 605.289 276.142C605.289 275.767 605.363 275.463 605.511 275.23C605.659 274.994 605.856 274.81 606.103 274.676C606.35 274.543 606.623 274.443 606.922 274.378C607.223 274.31 607.525 274.256 607.829 274.216C608.227 274.165 608.549 274.126 608.797 274.101C609.047 274.072 609.228 274.026 609.342 273.96C609.458 273.895 609.517 273.781 609.517 273.619V273.585C609.517 273.165 609.402 272.838 609.172 272.605C608.944 272.372 608.599 272.256 608.136 272.256C607.656 272.256 607.279 272.361 607.007 272.571C606.734 272.781 606.542 273.006 606.431 273.244L605.477 272.903C605.647 272.506 605.875 272.196 606.159 271.974C606.446 271.75 606.758 271.594 607.096 271.506C607.437 271.415 607.772 271.369 608.102 271.369C608.312 271.369 608.554 271.395 608.826 271.446C609.102 271.494 609.368 271.595 609.623 271.749C609.882 271.902 610.096 272.134 610.267 272.443C610.437 272.753 610.522 273.168 610.522 273.688V278H609.517V277.114H609.466C609.397 277.256 609.284 277.408 609.125 277.57C608.966 277.732 608.754 277.869 608.49 277.983C608.225 278.097 607.903 278.153 607.522 278.153ZM607.676 277.25C608.074 277.25 608.409 277.172 608.681 277.016C608.957 276.859 609.164 276.658 609.304 276.411C609.446 276.163 609.517 275.903 609.517 275.631V274.71C609.474 274.761 609.38 274.808 609.235 274.851C609.093 274.891 608.929 274.926 608.741 274.957C608.556 274.986 608.376 275.011 608.2 275.034C608.027 275.054 607.886 275.071 607.778 275.085C607.517 275.119 607.272 275.175 607.045 275.251C606.821 275.325 606.639 275.437 606.5 275.588C606.363 275.736 606.295 275.937 606.295 276.193C606.295 276.543 606.424 276.807 606.683 276.986C606.944 277.162 607.275 277.25 607.676 277.25ZM612.358 278V271.455H613.33V272.477H613.415C613.551 272.128 613.771 271.857 614.075 271.663C614.379 271.467 614.744 271.369 615.17 271.369C615.602 271.369 615.962 271.467 616.249 271.663C616.538 271.857 616.764 272.128 616.926 272.477H616.994C617.162 272.139 617.413 271.871 617.749 271.672C618.084 271.47 618.486 271.369 618.955 271.369C619.54 271.369 620.018 271.553 620.391 271.919C620.763 272.283 620.949 272.849 620.949 273.619V278H619.943V273.619C619.943 273.136 619.811 272.791 619.547 272.584C619.283 272.376 618.972 272.273 618.614 272.273C618.153 272.273 617.797 272.412 617.544 272.69C617.291 272.966 617.165 273.315 617.165 273.739V278H616.142V273.517C616.142 273.145 616.021 272.845 615.78 272.618C615.538 272.388 615.227 272.273 614.847 272.273C614.585 272.273 614.341 272.342 614.114 272.482C613.889 272.621 613.707 272.814 613.568 273.061C613.432 273.305 613.364 273.588 613.364 273.909V278H612.358ZM625.532 278.136C624.901 278.136 624.357 277.997 623.9 277.719C623.445 277.438 623.094 277.045 622.847 276.543C622.603 276.037 622.481 275.449 622.481 274.778C622.481 274.108 622.603 273.517 622.847 273.006C623.094 272.491 623.438 272.091 623.879 271.804C624.322 271.514 624.839 271.369 625.43 271.369C625.771 271.369 626.107 271.426 626.44 271.54C626.772 271.653 627.075 271.838 627.347 272.094C627.62 272.347 627.837 272.682 627.999 273.099C628.161 273.517 628.242 274.031 628.242 274.642V275.068H623.197V274.199H627.219C627.219 273.83 627.146 273.5 626.998 273.21C626.853 272.92 626.646 272.692 626.376 272.524C626.109 272.357 625.793 272.273 625.43 272.273C625.029 272.273 624.683 272.372 624.39 272.571C624.1 272.767 623.877 273.023 623.721 273.338C623.565 273.653 623.487 273.991 623.487 274.352V274.932C623.487 275.426 623.572 275.845 623.742 276.189C623.915 276.53 624.156 276.79 624.462 276.969C624.769 277.145 625.126 277.233 625.532 277.233C625.796 277.233 626.035 277.196 626.248 277.122C626.464 277.045 626.65 276.932 626.806 276.781C626.962 276.628 627.083 276.437 627.168 276.21L628.14 276.483C628.038 276.812 627.866 277.102 627.624 277.352C627.383 277.599 627.085 277.793 626.729 277.932C626.374 278.068 625.975 278.136 625.532 278.136ZM635.619 278.136C635.073 278.136 634.592 277.999 634.174 277.723C633.756 277.445 633.43 277.053 633.194 276.547C632.958 276.038 632.84 275.438 632.84 274.744C632.84 274.057 632.958 273.46 633.194 272.955C633.43 272.449 633.758 272.058 634.178 271.783C634.599 271.507 635.085 271.369 635.636 271.369C636.062 271.369 636.398 271.44 636.646 271.582C636.896 271.722 637.086 271.881 637.217 272.06C637.35 272.236 637.454 272.381 637.528 272.494H637.613V269.273H638.619V278H637.647V276.994H637.528C637.454 277.114 637.349 277.264 637.212 277.446C637.076 277.625 636.881 277.786 636.629 277.928C636.376 278.067 636.039 278.136 635.619 278.136ZM635.755 277.233C636.158 277.233 636.499 277.128 636.778 276.918C637.056 276.705 637.268 276.411 637.413 276.036C637.558 275.658 637.63 275.222 637.63 274.727C637.63 274.239 637.559 273.811 637.417 273.445C637.275 273.075 637.065 272.788 636.786 272.584C636.508 272.376 636.164 272.273 635.755 272.273C635.329 272.273 634.974 272.382 634.69 272.601C634.408 272.817 634.197 273.111 634.055 273.483C633.915 273.852 633.846 274.267 633.846 274.727C633.846 275.193 633.917 275.616 634.059 275.997C634.204 276.375 634.417 276.676 634.698 276.901C634.982 277.122 635.335 277.233 635.755 277.233ZM641.487 269.273V270.04C641.487 270.273 641.444 270.521 641.359 270.786C641.276 271.047 641.154 271.301 640.992 271.548C640.833 271.793 640.64 272.006 640.413 272.188L639.867 271.744C640.046 271.489 640.201 271.223 640.332 270.947C640.465 270.669 640.532 270.372 640.532 270.057V269.273H641.487ZM644.061 278.153C643.647 278.153 643.27 278.075 642.932 277.919C642.594 277.76 642.326 277.531 642.127 277.233C641.928 276.932 641.828 276.568 641.828 276.142C641.828 275.767 641.902 275.463 642.05 275.23C642.198 274.994 642.395 274.81 642.642 274.676C642.89 274.543 643.162 274.443 643.461 274.378C643.762 274.31 644.064 274.256 644.368 274.216C644.766 274.165 645.088 274.126 645.336 274.101C645.586 274.072 645.767 274.026 645.881 273.96C645.998 273.895 646.056 273.781 646.056 273.619V273.585C646.056 273.165 645.941 272.838 645.711 272.605C645.483 272.372 645.138 272.256 644.675 272.256C644.195 272.256 643.819 272.361 643.546 272.571C643.273 272.781 643.081 273.006 642.971 273.244L642.016 272.903C642.186 272.506 642.414 272.196 642.698 271.974C642.985 271.75 643.297 271.594 643.635 271.506C643.976 271.415 644.311 271.369 644.641 271.369C644.851 271.369 645.093 271.395 645.365 271.446C645.641 271.494 645.907 271.595 646.162 271.749C646.421 271.902 646.635 272.134 646.806 272.443C646.976 272.753 647.061 273.168 647.061 273.688V278H646.056V277.114H646.005C645.936 277.256 645.823 277.408 645.664 277.57C645.505 277.732 645.293 277.869 645.029 277.983C644.765 278.097 644.442 278.153 644.061 278.153ZM644.215 277.25C644.613 277.25 644.948 277.172 645.221 277.016C645.496 276.859 645.703 276.658 645.843 276.411C645.985 276.163 646.056 275.903 646.056 275.631V274.71C646.013 274.761 645.919 274.808 645.775 274.851C645.632 274.891 645.468 274.926 645.28 274.957C645.096 274.986 644.915 275.011 644.739 275.034C644.566 275.054 644.425 275.071 644.317 275.085C644.056 275.119 643.811 275.175 643.584 275.251C643.36 275.325 643.178 275.437 643.039 275.588C642.902 275.736 642.834 275.937 642.834 276.193C642.834 276.543 642.963 276.807 643.222 276.986C643.483 277.162 643.814 277.25 644.215 277.25ZM648.897 280.455V271.455H649.869V272.494H649.988C650.062 272.381 650.164 272.236 650.295 272.06C650.428 271.881 650.619 271.722 650.866 271.582C651.116 271.44 651.454 271.369 651.88 271.369C652.431 271.369 652.917 271.507 653.337 271.783C653.758 272.058 654.086 272.449 654.322 272.955C654.558 273.46 654.675 274.057 654.675 274.744C654.675 275.438 654.558 276.038 654.322 276.547C654.086 277.053 653.759 277.445 653.342 277.723C652.924 277.999 652.442 278.136 651.897 278.136C651.477 278.136 651.14 278.067 650.887 277.928C650.634 277.786 650.44 277.625 650.303 277.446C650.167 277.264 650.062 277.114 649.988 276.994H649.903V280.455H648.897ZM649.886 274.727C649.886 275.222 649.958 275.658 650.103 276.036C650.248 276.411 650.46 276.705 650.738 276.918C651.016 277.128 651.357 277.233 651.761 277.233C652.181 277.233 652.532 277.122 652.813 276.901C653.097 276.676 653.31 276.375 653.452 275.997C653.597 275.616 653.67 275.193 653.67 274.727C653.67 274.267 653.599 273.852 653.457 273.483C653.317 273.111 653.106 272.817 652.822 272.601C652.54 272.382 652.187 272.273 651.761 272.273C651.352 272.273 651.008 272.376 650.729 272.584C650.451 272.788 650.241 273.075 650.099 273.445C649.957 273.811 649.886 274.239 649.886 274.727ZM656.21 278V271.455H657.181V272.443H657.249C657.369 272.119 657.585 271.857 657.897 271.655C658.21 271.453 658.562 271.352 658.954 271.352C659.028 271.352 659.12 271.354 659.231 271.357C659.342 271.359 659.425 271.364 659.482 271.369V272.392C659.448 272.384 659.37 272.371 659.248 272.354C659.129 272.334 659.002 272.324 658.869 272.324C658.55 272.324 658.266 272.391 658.016 272.524C657.769 272.655 657.573 272.837 657.428 273.07C657.286 273.3 657.215 273.562 657.215 273.858V278H656.21ZM663.219 278.136C662.589 278.136 662.045 277.997 661.587 277.719C661.133 277.438 660.782 277.045 660.535 276.543C660.29 276.037 660.168 275.449 660.168 274.778C660.168 274.108 660.29 273.517 660.535 273.006C660.782 272.491 661.126 272.091 661.566 271.804C662.009 271.514 662.526 271.369 663.117 271.369C663.458 271.369 663.795 271.426 664.127 271.54C664.46 271.653 664.762 271.838 665.035 272.094C665.308 272.347 665.525 272.682 665.687 273.099C665.849 273.517 665.93 274.031 665.93 274.642V275.068H660.884V274.199H664.907C664.907 273.83 664.833 273.5 664.685 273.21C664.54 272.92 664.333 272.692 664.063 272.524C663.796 272.357 663.481 272.273 663.117 272.273C662.717 272.273 662.37 272.372 662.077 272.571C661.788 272.767 661.565 273.023 661.408 273.338C661.252 273.653 661.174 273.991 661.174 274.352V274.932C661.174 275.426 661.259 275.845 661.43 276.189C661.603 276.53 661.843 276.79 662.15 276.969C662.457 277.145 662.813 277.233 663.219 277.233C663.484 277.233 663.722 277.196 663.935 277.122C664.151 277.045 664.337 276.932 664.494 276.781C664.65 276.628 664.771 276.437 664.856 276.21L665.827 276.483C665.725 276.812 665.553 277.102 665.312 277.352C665.07 277.599 664.772 277.793 664.417 277.932C664.062 278.068 663.663 278.136 663.219 278.136ZM662.64 270.568L661.31 268.591H662.487L663.526 270.568H662.64ZM672.096 272.92L671.192 273.176C671.136 273.026 671.052 272.879 670.941 272.737C670.833 272.592 670.685 272.473 670.498 272.379C670.31 272.286 670.07 272.239 669.778 272.239C669.377 272.239 669.043 272.331 668.776 272.516C668.512 272.697 668.38 272.929 668.38 273.21C668.38 273.46 668.471 273.658 668.653 273.803C668.835 273.947 669.119 274.068 669.505 274.165L670.477 274.403C671.062 274.545 671.498 274.763 671.785 275.055C672.072 275.345 672.215 275.719 672.215 276.176C672.215 276.551 672.107 276.886 671.891 277.182C671.678 277.477 671.38 277.71 670.996 277.881C670.613 278.051 670.167 278.136 669.658 278.136C668.991 278.136 668.438 277.991 668.001 277.702C667.563 277.412 667.286 276.989 667.17 276.432L668.124 276.193C668.215 276.545 668.387 276.81 668.64 276.986C668.896 277.162 669.229 277.25 669.641 277.25C670.11 277.25 670.482 277.151 670.758 276.952C671.036 276.75 671.175 276.509 671.175 276.227C671.175 276 671.096 275.81 670.937 275.656C670.778 275.5 670.533 275.384 670.204 275.307L669.113 275.051C668.513 274.909 668.073 274.689 667.792 274.391C667.513 274.089 667.374 273.713 667.374 273.261C667.374 272.892 667.478 272.565 667.685 272.281C667.896 271.997 668.181 271.774 668.542 271.612C668.906 271.45 669.317 271.369 669.778 271.369C670.425 271.369 670.934 271.511 671.303 271.795C671.675 272.08 671.94 272.455 672.096 272.92Z" fill="black"/>
<rect x="82.1401" width="44.8598" height="298.766" fill="#7B6B6B"/>
<rect x="498.141" width="44.8598" height="298.766" fill="#7B6B6B"/>
<circle cx="26.9159" cy="156.916" r="26.9159" fill="#D96262"/>
<circle cx="442.916" cy="156.916" r="26.9159" fill="#D96262"/>
<circle cx="203.916" cy="156.916" r="26.9159" fill="#D96262"/>
<circle cx="619.916" cy="156.916" r="26.9159" fill="#D96262"/>
<path d="M446 129H620.5V184H446V129Z" stroke="black"/>
</svg>
