<svg version="1.1" xmlns="http://www.w3.org/2000/svg" xmlns:xlink="http://www.w3.org/1999/xlink" width="1200" height="800"><defs/><g transform="scale(2,2)"><g id="background-99392cd5"><rect fill="white" stroke="none" x="0" y="0" width="600" height="400" class="dcg-svg-background"/></g><g id="graphpaper-99392cd5"><g id="grid-99392cd5"><g><path fill="none" stroke="rgb(0,0,0)" class="dcg-svg-minor-gridline" paint-order="fill stroke markers" d=" M 13.5 0 L 13.5 400" stroke-opacity="0.3" stroke-miterlimit="10" stroke-dasharray=""/><path fill="none" stroke="rgb(0,0,0)" class="dcg-svg-minor-gridline" paint-order="fill stroke markers" d=" M 34.5 0 L 34.5 400" stroke-opacity="0.3" stroke-miterlimit="10" stroke-dasharray=""/><path fill="none" stroke="rgb(0,0,0)" class="dcg-svg-minor-gridline" paint-order="fill stroke markers" d=" M 54.5 0 L 54.5 400" stroke-opacity="0.3" stroke-miterlimit="10" stroke-dasharray=""/><path fill="none" stroke="rgb(0,0,0)" class="dcg-svg-minor-gridline" paint-order="fill stroke markers" d=" M 75.5 0 L 75.5 400" stroke-opacity="0.3" stroke-miterlimit="10" stroke-dasharray=""/><path fill="none" stroke="rgb(0,0,0)" class="dcg-svg-minor-gridline" paint-order="fill stroke markers" d=" M 95.5 0 L 95.5 400" stroke-opacity="0.3" stroke-miterlimit="10" stroke-dasharray=""/><path fill="none" stroke="rgb(0,0,0)" class="dcg-svg-minor-gridline" paint-order="fill stroke markers" d=" M 116.5 0 L 116.5 400" stroke-opacity="0.3" stroke-miterlimit="10" stroke-dasharray=""/><path fill="none" stroke="rgb(0,0,0)" class="dcg-svg-minor-gridline" paint-order="fill stroke markers" d=" M 136.5 0 L 136.5 400" stroke-opacity="0.3" stroke-miterlimit="10" stroke-dasharray=""/><path fill="none" stroke="rgb(0,0,0)" class="dcg-svg-minor-gridline" paint-order="fill stroke markers" d=" M 157.5 0 L 157.5 400" stroke-opacity="0.3" stroke-miterlimit="10" stroke-dasharray=""/><path fill="none" stroke="rgb(0,0,0)" class="dcg-svg-minor-gridline" paint-order="fill stroke markers" d=" M 177.5 0 L 177.5 400" stroke-opacity="0.3" stroke-miterlimit="10" stroke-dasharray=""/><path fill="none" stroke="rgb(0,0,0)" class="dcg-svg-minor-gridline" paint-order="fill stroke markers" d=" M 198.5 0 L 198.5 400" stroke-opacity="0.3" stroke-miterlimit="10" stroke-dasharray=""/><path fill="none" stroke="rgb(0,0,0)" class="dcg-svg-minor-gridline" paint-order="fill stroke markers" d=" M 218.5 0 L 218.5 400" stroke-opacity="0.3" stroke-miterlimit="10" stroke-dasharray=""/><path fill="none" stroke="rgb(0,0,0)" class="dcg-svg-minor-gridline" paint-order="fill stroke markers" d=" M 239.5 0 L 239.5 400" stroke-opacity="0.3" stroke-miterlimit="10" stroke-dasharray=""/><path fill="none" stroke="rgb(0,0,0)" class="dcg-svg-minor-gridline" paint-order="fill stroke markers" d=" M 259.5 0 L 259.5 400" stroke-opacity="0.3" stroke-miterlimit="10" stroke-dasharray=""/><path fill="none" stroke="rgb(0,0,0)" class="dcg-svg-minor-gridline" paint-order="fill stroke markers" d=" M 280.5 0 L 280.5 400" stroke-opacity="0.3" stroke-miterlimit="10" stroke-dasharray=""/><path fill="none" stroke="rgb(0,0,0)" class="dcg-svg-minor-gridline" paint-order="fill stroke markers" d=" M 321.5 0 L 321.5 400" stroke-opacity="0.3" stroke-miterlimit="10" stroke-dasharray=""/><path fill="none" stroke="rgb(0,0,0)" class="dcg-svg-minor-gridline" paint-order="fill stroke markers" d=" M 341.5 0 L 341.5 400" stroke-opacity="0.3" stroke-miterlimit="10" stroke-dasharray=""/><path fill="none" stroke="rgb(0,0,0)" class="dcg-svg-minor-gridline" paint-order="fill stroke markers" d=" M 362.5 0 L 362.5 400" stroke-opacity="0.3" stroke-miterlimit="10" stroke-dasharray=""/><path fill="none" stroke="rgb(0,0,0)" class="dcg-svg-minor-gridline" paint-order="fill stroke markers" d=" M 382.5 0 L 382.5 400" stroke-opacity="0.3" stroke-miterlimit="10" stroke-dasharray=""/><path fill="none" stroke="rgb(0,0,0)" class="dcg-svg-minor-gridline" paint-order="fill stroke markers" d=" M 403.5 0 L 403.5 400" stroke-opacity="0.3" stroke-miterlimit="10" stroke-dasharray=""/><path fill="none" stroke="rgb(0,0,0)" class="dcg-svg-minor-gridline" paint-order="fill stroke markers" d=" M 424.5 0 L 424.5 400" stroke-opacity="0.3" stroke-miterlimit="10" stroke-dasharray=""/><path fill="none" stroke="rgb(0,0,0)" class="dcg-svg-minor-gridline" paint-order="fill stroke markers" d=" M 444.5 0 L 444.5 400" stroke-opacity="0.3" stroke-miterlimit="10" stroke-dasharray=""/><path fill="none" stroke="rgb(0,0,0)" class="dcg-svg-minor-gridline" paint-order="fill stroke markers" d=" M 465.5 0 L 465.5 400" stroke-opacity="0.3" stroke-miterlimit="10" stroke-dasharray=""/><path fill="none" stroke="rgb(0,0,0)" class="dcg-svg-minor-gridline" paint-order="fill stroke markers" d=" M 485.5 0 L 485.5 400" stroke-opacity="0.3" stroke-miterlimit="10" stroke-dasharray=""/><path fill="none" stroke="rgb(0,0,0)" class="dcg-svg-minor-gridline" paint-order="fill stroke markers" d=" M 506.5 0 L 506.5 400" stroke-opacity="0.3" stroke-miterlimit="10" stroke-dasharray=""/><path fill="none" stroke="rgb(0,0,0)" class="dcg-svg-minor-gridline" paint-order="fill stroke markers" d=" M 526.5 0 L 526.5 400" stroke-opacity="0.3" stroke-miterlimit="10" stroke-dasharray=""/><path fill="none" stroke="rgb(0,0,0)" class="dcg-svg-minor-gridline" paint-order="fill stroke markers" d=" M 547.5 0 L 547.5 400" stroke-opacity="0.3" stroke-miterlimit="10" stroke-dasharray=""/><path fill="none" stroke="rgb(0,0,0)" class="dcg-svg-minor-gridline" paint-order="fill stroke markers" d=" M 567.5 0 L 567.5 400" stroke-opacity="0.3" stroke-miterlimit="10" stroke-dasharray=""/><path fill="none" stroke="rgb(0,0,0)" class="dcg-svg-minor-gridline" paint-order="fill stroke markers" d=" M 588.5 0 L 588.5 400" stroke-opacity="0.3" stroke-miterlimit="10" stroke-dasharray=""/><path fill="none" stroke="rgb(0,0,0)" class="dcg-svg-minor-gridline" paint-order="fill stroke markers" d=" M 0 381.5 L 600 381.5" stroke-opacity="0.3" stroke-miterlimit="10" stroke-dasharray=""/><path fill="none" stroke="rgb(0,0,0)" class="dcg-svg-minor-gridline" paint-order="fill stroke markers" d=" M 0 361.5 L 600 361.5" stroke-opacity="0.3" stroke-miterlimit="10" stroke-dasharray=""/><path fill="none" stroke="rgb(0,0,0)" class="dcg-svg-minor-gridline" paint-order="fill stroke markers" d=" M 0 340.5 L 600 340.5" stroke-opacity="0.3" stroke-miterlimit="10" stroke-dasharray=""/><path fill="none" stroke="rgb(0,0,0)" class="dcg-svg-minor-gridline" paint-order="fill stroke markers" d=" M 0 320.5 L 600 320.5" stroke-opacity="0.3" stroke-miterlimit="10" stroke-dasharray=""/><path fill="none" stroke="rgb(0,0,0)" class="dcg-svg-minor-gridline" paint-order="fill stroke markers" d=" M 0 299.5 L 600 299.5" stroke-opacity="0.3" stroke-miterlimit="10" stroke-dasharray=""/><path fill="none" stroke="rgb(0,0,0)" class="dcg-svg-minor-gridline" paint-order="fill stroke markers" d=" M 0 278.5 L 600 278.5" stroke-opacity="0.3" stroke-miterlimit="10" stroke-dasharray=""/><path fill="none" stroke="rgb(0,0,0)" class="dcg-svg-minor-gridline" paint-order="fill stroke markers" d=" M 0 258.5 L 600 258.5" stroke-opacity="0.3" stroke-miterlimit="10" stroke-dasharray=""/><path fill="none" stroke="rgb(0,0,0)" class="dcg-svg-minor-gridline" paint-order="fill stroke markers" d=" M 0 237.5 L 600 237.5" stroke-opacity="0.3" stroke-miterlimit="10" stroke-dasharray=""/><path fill="none" stroke="rgb(0,0,0)" class="dcg-svg-minor-gridline" paint-order="fill stroke markers" d=" M 0 217.5 L 600 217.5" stroke-opacity="0.3" stroke-miterlimit="10" stroke-dasharray=""/><path fill="none" stroke="rgb(0,0,0)" class="dcg-svg-minor-gridline" paint-order="fill stroke markers" d=" M 0 176.5 L 600 176.5" stroke-opacity="0.3" stroke-miterlimit="10" stroke-dasharray=""/><path fill="none" stroke="rgb(0,0,0)" class="dcg-svg-minor-gridline" paint-order="fill stroke markers" d=" M 0 155.5 L 600 155.5" stroke-opacity="0.3" stroke-miterlimit="10" stroke-dasharray=""/><path fill="none" stroke="rgb(0,0,0)" class="dcg-svg-minor-gridline" paint-order="fill stroke markers" d=" M 0 135.5 L 600 135.5" stroke-opacity="0.3" stroke-miterlimit="10" stroke-dasharray=""/><path fill="none" stroke="rgb(0,0,0)" class="dcg-svg-minor-gridline" paint-order="fill stroke markers" d=" M 0 114.5 L 600 114.5" stroke-opacity="0.3" stroke-miterlimit="10" stroke-dasharray=""/><path fill="none" stroke="rgb(0,0,0)" class="dcg-svg-minor-gridline" paint-order="fill stroke markers" d=" M 0 94.5 L 600 94.5" stroke-opacity="0.3" stroke-miterlimit="10" stroke-dasharray=""/><path fill="none" stroke="rgb(0,0,0)" class="dcg-svg-minor-gridline" paint-order="fill stroke markers" d=" M 0 73.5 L 600 73.5" stroke-opacity="0.3" stroke-miterlimit="10" stroke-dasharray=""/><path fill="none" stroke="rgb(0,0,0)" class="dcg-svg-minor-gridline" paint-order="fill stroke markers" d=" M 0 53.5 L 600 53.5" stroke-opacity="0.3" stroke-miterlimit="10" stroke-dasharray=""/><path fill="none" stroke="rgb(0,0,0)" class="dcg-svg-minor-gridline" paint-order="fill stroke markers" d=" M 0 32.5 L 600 32.5" stroke-opacity="0.3" stroke-miterlimit="10" stroke-dasharray=""/><path fill="none" stroke="rgb(0,0,0)" class="dcg-svg-minor-gridline" paint-order="fill stroke markers" d=" M 0 12.5 L 600 12.5" stroke-opacity="0.3" stroke-miterlimit="10" stroke-dasharray=""/><path fill="none" stroke="rgb(0,0,0)" class="dcg-svg-major-gridline" paint-order="fill stroke markers" d=" M 54.5 0 L 54.5 400" stroke-opacity="0.4285714285714285" stroke-miterlimit="10" stroke-dasharray=""/><path fill="none" stroke="rgb(0,0,0)" class="dcg-svg-major-gridline" paint-order="fill stroke markers" d=" M 136.5 0 L 136.5 400" stroke-opacity="0.4285714285714285" stroke-miterlimit="10" stroke-dasharray=""/><path fill="none" stroke="rgb(0,0,0)" class="dcg-svg-major-gridline" paint-order="fill stroke markers" d=" M 218.5 0 L 218.5 400" stroke-opacity="0.4285714285714285" stroke-miterlimit="10" stroke-dasharray=""/><path fill="none" stroke="rgb(0,0,0)" class="dcg-svg-major-gridline" paint-order="fill stroke markers" d=" M 382.5 0 L 382.5 400" stroke-opacity="0.4285714285714285" stroke-miterlimit="10" stroke-dasharray=""/><path fill="none" stroke="rgb(0,0,0)" class="dcg-svg-major-gridline" paint-order="fill stroke markers" d=" M 465.5 0 L 465.5 400" stroke-opacity="0.4285714285714285" stroke-miterlimit="10" stroke-dasharray=""/><path fill="none" stroke="rgb(0,0,0)" class="dcg-svg-major-gridline" paint-order="fill stroke markers" d=" M 547.5 0 L 547.5 400" stroke-opacity="0.4285714285714285" stroke-miterlimit="10" stroke-dasharray=""/><path fill="none" stroke="rgb(0,0,0)" class="dcg-svg-major-gridline" paint-order="fill stroke markers" d=" M 0 361.5 L 600 361.5" stroke-opacity="0.4285714285714285" stroke-miterlimit="10" stroke-dasharray=""/><path fill="none" stroke="rgb(0,0,0)" class="dcg-svg-major-gridline" paint-order="fill stroke markers" d=" M 0 278.5 L 600 278.5" stroke-opacity="0.4285714285714285" stroke-miterlimit="10" stroke-dasharray=""/><path fill="none" stroke="rgb(0,0,0)" class="dcg-svg-major-gridline" paint-order="fill stroke markers" d=" M 0 114.5 L 600 114.5" stroke-opacity="0.4285714285714285" stroke-miterlimit="10" stroke-dasharray=""/><path fill="none" stroke="rgb(0,0,0)" class="dcg-svg-major-gridline" paint-order="fill stroke markers" d=" M 0 32.5 L 600 32.5" stroke-opacity="0.4285714285714285" stroke-miterlimit="10" stroke-dasharray=""/></g></g><g id="axis-99392cd5"><g id="yaxis-99392cd5"><title>Y axis</title><g><path fill="none" stroke="rgb(0,0,0)" class="dcg-svg-axis-line" paint-order="fill stroke markers" d=" M 301 0 L 301 400" stroke-opacity="0.9" stroke-miterlimit="10" stroke-width="2" stroke-dasharray=""/></g></g><g id="xaxis-99392cd5"><title>X axis</title><g><path fill="none" stroke="rgb(0,0,0)" class="dcg-svg-axis-line" paint-order="fill stroke markers" d=" M 0 197 L 600 197" stroke-opacity="0.9" stroke-miterlimit="10" stroke-width="2" stroke-dasharray=""/></g></g><g><g class="dcg-svg-axis-value"><text fill="none" stroke="#ffffff" font-family="Arial" font-size="17px" font-style="normal" font-weight="normal" text-decoration="normal" x="291.1497387460129" y="214.99466084622398" text-anchor="middle" stroke-miterlimit="2" stroke-width="3" stroke-dasharray="">0</text><text fill="#000000" stroke="none" font-family="Arial" font-size="17px" font-style="normal" font-weight="normal" text-decoration="normal" x="291.1497387460129" y="214.99466084622398" text-anchor="middle">0</text></g><g class="dcg-svg-axis-value"><text fill="none" stroke="#ffffff" font-family="Arial" font-size="17px" font-style="normal" font-weight="normal" text-decoration="normal" x="51.7668434458019" y="214.99466084622398" text-anchor="middle" stroke-miterlimit="2" stroke-width="3" stroke-dasharray="">-6</text><text fill="#000000" stroke="none" font-family="Arial" font-size="17px" font-style="normal" font-weight="normal" text-decoration="normal" x="51.7668434458019" y="214.99466084622398" text-anchor="middle">-6</text></g><g class="dcg-svg-axis-value"><text fill="none" stroke="#ffffff" font-family="Arial" font-size="17px" font-style="normal" font-weight="normal" text-decoration="normal" x="133.86005138441388" y="214.99466084622398" text-anchor="middle" stroke-miterlimit="2" stroke-width="3" stroke-dasharray="">-4</text><text fill="#000000" stroke="none" font-family="Arial" font-size="17px" font-style="normal" font-weight="normal" text-decoration="normal" x="133.86005138441388" y="214.99466084622398" text-anchor="middle">-4</text></g><g class="dcg-svg-axis-value"><text fill="none" stroke="#ffffff" font-family="Arial" font-size="17px" font-style="normal" font-weight="normal" text-decoration="normal" x="215.95325932302586" y="214.99466084622398" text-anchor="middle" stroke-miterlimit="2" stroke-width="3" stroke-dasharray="">-2</text><text fill="#000000" stroke="none" font-family="Arial" font-size="17px" font-style="normal" font-weight="normal" text-decoration="normal" x="215.95325932302586" y="214.99466084622398" text-anchor="middle">-2</text></g><g class="dcg-svg-axis-value"><text fill="none" stroke="#ffffff" font-family="Arial" font-size="17px" font-style="normal" font-weight="normal" text-decoration="normal" x="382.9702416064999" y="214.99466084622398" text-anchor="middle" stroke-miterlimit="2" stroke-width="3" stroke-dasharray="">2</text><text fill="#000000" stroke="none" font-family="Arial" font-size="17px" font-style="normal" font-weight="normal" text-decoration="normal" x="382.9702416064999" y="214.99466084622398" text-anchor="middle">2</text></g><g class="dcg-svg-axis-value"><text fill="none" stroke="#ffffff" font-family="Arial" font-size="17px" font-style="normal" font-weight="normal" text-decoration="normal" x="465.0634495451119" y="214.99466084622398" text-anchor="middle" stroke-miterlimit="2" stroke-width="3" stroke-dasharray="">4</text><text fill="#000000" stroke="none" font-family="Arial" font-size="17px" font-style="normal" font-weight="normal" text-decoration="normal" x="465.0634495451119" y="214.99466084622398" text-anchor="middle">4</text></g><g class="dcg-svg-axis-value"><text fill="none" stroke="#ffffff" font-family="Arial" font-size="17px" font-style="normal" font-weight="normal" text-decoration="normal" x="547.1566574837238" y="214.99466084622398" text-anchor="middle" stroke-miterlimit="2" stroke-width="3" stroke-dasharray="">6</text><text fill="#000000" stroke="none" font-family="Arial" font-size="17px" font-style="normal" font-weight="normal" text-decoration="normal" x="547.1566574837238" y="214.99466084622398" text-anchor="middle">6</text></g><g class="dcg-svg-axis-value"><text fill="none" stroke="#ffffff" font-family="Arial" font-size="17px" font-style="normal" font-weight="normal" text-decoration="normal" x="288.3191723397629" y="365.6810767234481" text-anchor="middle" stroke-miterlimit="2" stroke-width="3" stroke-dasharray="">-4</text><text fill="#000000" stroke="none" font-family="Arial" font-size="17px" font-style="normal" font-weight="normal" text-decoration="normal" x="288.3191723397629" y="365.6810767234481" text-anchor="middle">-4</text></g><g class="dcg-svg-axis-value"><text fill="none" stroke="#ffffff" font-family="Arial" font-size="17px" font-style="normal" font-weight="normal" text-decoration="normal" x="288.3191723397629" y="283.587868784836" text-anchor="middle" stroke-miterlimit="2" stroke-width="3" stroke-dasharray="">-2</text><text fill="#000000" stroke="none" font-family="Arial" font-size="17px" font-style="normal" font-weight="normal" text-decoration="normal" x="288.3191723397629" y="283.587868784836" text-anchor="middle">-2</text></g><g class="dcg-svg-axis-value"><text fill="none" stroke="#ffffff" font-family="Arial" font-size="17px" font-style="normal" font-weight="normal" text-decoration="normal" x="291.1497387460129" y="119.40145290761195" text-anchor="middle" stroke-miterlimit="2" stroke-width="3" stroke-dasharray="">2</text><text fill="#000000" stroke="none" font-family="Arial" font-size="17px" font-style="normal" font-weight="normal" text-decoration="normal" x="291.1497387460129" y="119.40145290761195" text-anchor="middle">2</text></g><g class="dcg-svg-axis-value"><text fill="none" stroke="#ffffff" font-family="Arial" font-size="17px" font-style="normal" font-weight="normal" text-decoration="normal" x="291.1497387460129" y="37.30824496899994" text-anchor="middle" stroke-miterlimit="2" stroke-width="3" stroke-dasharray="">4</text><text fill="#000000" stroke="none" font-family="Arial" font-size="17px" font-style="normal" font-weight="normal" text-decoration="normal" x="291.1497387460129" y="37.30824496899994" text-anchor="middle">4</text></g></g></g></g><g id="expressions-99392cd5"><g id="sketch-99392cd5"><title>Expression 3</title><path fill="#6042a6" stroke="none" paint-order="stroke fill markers" d="" fill-opacity="0.4"/><g><path fill="none" stroke="#6042a6" class="dcg-svg-curve" paint-order="fill stroke markers" d=" M 341.92363763719385 196.87066084622398 L 341.7882158327749 193.79363940741536 M 341.5767304863697 191.8465860267923 L 341.29005598961146 189.68655865896935 M 341.29005598961146 189.68655865896935 L 341.0935018960608 188.8072261923947 M 340.66594114292354 186.89442933899474 L 340.5026714763169 186.16400283878534 M 340.5026714763169 186.16400283878534 L 339.7961300901442 183.9420854172079 M 339.1458774099921 182.09491696435893 L 338.017111351175 179.39386688702078 M 338.017111351175 179.39386688702078 L 337.9461383199819 179.25879776123915 M 337.0344422069501 177.52374439102752 L 336.3381560332117 176.19863873892697 M 336.3381560332117 176.19863873892697 L 335.48150875299666 174.8673421276669 M 334.42091109882796 173.21909074636247 L 334.3849875966761 173.16326282536872 M 334.3849875966761 173.16326282536872 L 332.5379230289368 170.78204153303372 M 331.2451653699476 169.31095619131045 L 329.71842870726607 167.6645376937825 M 329.71842870726607 167.6645376937825 L 329.09583259850916 167.1086541638363 M 327.63378795347774 165.80327090366515 L 326.64163238974186 164.9174270487679 M 326.64163238974186 164.9174270487679 L 325.2259110425776 163.88884528224804 M 323.6402377336027 162.7367861877548 L 323.30466602935707 162.49297907342512 M 323.30466602935707 162.49297907342512 L 321.01060728763355 161.13627651555626 M 319.28151002456366 160.2173608712358 L 316.94159357456965 159.09826864745423 M 316.94159357456965 159.09826864745423 L 316.486202932721 158.927823857144 M 314.65056515469456 158.24077658956918 L 313.5611318557816 157.833020669429 M 313.5611318557816 157.833020669429 L 311.7139058961003 157.32143389982926 M 309.82004590702496 156.81955989254226 L 307.04328393058324 156.2898642164034 M 307.04328393058324 156.2898642164034 L 306.79173429608124 156.2612926994877 M 304.844256127462 156.0400941851357 L 303.96894322266587 155.94067437275785 M 303.96894322266587 155.94067437275785 L 301.7714466773359 155.8577914359536 M 299.8128393109604 155.86419507591543 L 297.7851241131099 155.94067437275785 M 297.7851241131099 155.94067437275785 L 296.74099459231843 156.05926871826156 M 294.7935164236992 156.28046723261357 L 294.71078340519244 156.2898642164034 M 294.71078340519244 156.2898642164034 L 291.76712879392704 156.85139636531 M 289.87333463207705 157.3554926801744 L 288.684485506479 157.67671403367683 M 288.684485506479 157.67671403367683 L 286.9452495084756 158.30287752241966 M 285.1077702474567 158.98299491859873 L 282.3127182198701 160.2768589621071 M 280.599904981685 161.22749392799915 L 278.8831634182425 162.21386686791706 M 278.8831634182425 162.21386686791706 L 277.9811608480611 162.84358077763002 M 276.3740547137832 163.9655477437954 L 275.92355949747514 164.28005139749487 M 275.92355949747514 164.28005139749487 L 273.983884939928 165.90532536583734 M 272.5378107223854 167.2251858123784 L 270.3736488154049 169.416715698183 M 269.1223450054419 170.92443912171873 L 267.9754310850223 172.32869179538739 M 267.9754310850223 172.32869179538739 L 267.2633285065205 173.37651891993295 M 266.16164508593033 174.9975968455111 L 265.9466001935964 175.31402579547583 M 265.9466001935964 175.31402579547583 L 264.6322845892131 177.66957669322096 M 263.7596427989935 179.4224901040798 L 262.7128664716598 181.76039812079807 M 262.7128664716598 181.76039812079807 L 262.5433924045409 182.2503630889363 M 261.9026918664172 184.1026867162887 L 261.53296939814095 185.1715880559952 M 261.53296939814095 185.1715880559952 L 261.0601524823085 187.06232886261515 M 260.6104625350642 188.9690363667724 L 260.1286443827403 192.01111645580542 M 259.9731901922633 193.96415436255276 L 259.84339265599954 195.83915577085043 M 259.84339265599954 195.83915577085043 L 259.866020421326 197.03945382731712 M 259.90296336316817 198.9991056379835 L 259.9114257953105 199.44799843437067 M 259.9114257953105 199.44799843437067 L 260.19192266812064 202.06403110219932 M 260.48621427293585 203.9998941929683 L 260.99485072292873 206.5781415161949 M 260.99485072292873 206.5781415161949 L 261.12097135450716 207.01225157747163 M 261.66779392234406 208.89442720139846 L 262.0018646227676 210.04430609445998 M 262.0018646227676 210.04430609445998 L 262.6838754630518 211.7990006197731 M 263.4126950876307 213.6176015356229 L 264.77639043923057 216.37925592892142 M 265.77239273011327 218.06619592674122 L 266.78389273506775 219.72851373637775 M 266.78389273506775 219.72851373637775 L 267.456265981956 220.6418328708581 M 268.61826534947164 222.2202363268519 L 268.9237998704318 222.63525956807794 M 268.9237998704318 222.63525956807794 L 270.6198269222087 224.5590246366329 M 271.9779146975404 225.9692410516715 L 274.22313806999836 228.07764613793188 M 275.7709349751874 229.27911606046231 L 277.5925697689975 230.67387723689188 M 277.5925697689975 230.67387723689188 L 278.2586088762287 231.0907114855261 M 279.92005763095545 232.1305134067673 L 280.65224961450616 232.58874880466774 M 280.65224961450616 232.58874880466774 L 282.6269321378388 233.5948998049776 M 284.39395666870604 234.43936311828676 L 287.215921630608 235.57721991982203 M 287.215921630608 235.57721991982203 L 287.251578525516 235.58806690977903 M 289.12673414657127 236.15849779676245 L 290.6691583582607 236.62771027240942 M 290.6691583582607 236.62771027240942 L 292.105506069341 236.9298726031852 M 294.02352464181894 237.33336331637418 L 294.2013303574429 237.37076804020512 M 294.2013303574429 237.37076804020512 L 297.0767788646265 237.7340216628714 M 299.03300662546525 237.8472033502653 L 300.3612404053334 237.91402394823297 M 300.3612404053334 237.91402394823297 L 302.11077419091527 237.87004410791505 M 304.06723966963756 237.7744480623896 L 306.53285716043575 237.52573873366865 M 306.53285716043575 237.52573873366865 L 307.1254373644356 237.42039752197238 M 309.05518346011286 237.07735232638083 L 309.5792055475356 236.98419848615444 M 309.5792055475356 236.98419848615444 L 312.0469253766119 236.35059572443353 M 313.91209909781173 235.75261839199342 L 315.9872963933138 235.0348280424521 M 315.9872963933138 235.0348280424521 L 316.79427145194376 234.6735125492496 M 318.5831469632546 233.87256036276636 L 319.28164196521914 233.5598157947214 M 319.28164196521914 233.5598157947214 L 321.3029709632758 232.43198440450124 M 322.98384505708725 231.42719486700432 L 325.41900271872447 229.77226342908955 M 325.41900271872447 229.77226342908955 L 325.5241174608475 229.68641167089618 M 327.042143458837 228.44657415354646 L 328.2145590293195 227.4890116268609 M 328.2145590293195 227.4890116268609 L 329.3289911607267 226.38849660202428 M 330.72360108805685 225.01130266121854 L 331.1494425182571 224.590779168647 M 331.1494425182571 224.590779168647 L 332.74320391577817 222.68871312083778 M 333.94392606801165 221.14190704030474 L 335.5338276461948 218.86453109586938 M 335.5338276461948 218.86453109586938 L 335.68455357509697 218.6021988112303 M 336.66099638156237 216.9027402369479 L 337.33201875304326 215.73485337742304 M 337.33201875304326 215.73485337742304 L 338.0600551178777 214.1621228205327 M 338.87662390936833 212.38066200544594 L 339.9199367037238 209.4827492370669 M 340.4567284314975 207.59907359106103 L 340.9905713078183 205.5728327258717 M 340.9905713078183 205.5728327258717 L 341.15680717093556 204.6023527343021 M 341.48772072257253 202.67048932781006 L 341.59997290486956 202.01516444853053 M 341.59997290486956 202.01516444853053 L 341.79702489178794 199.60808601587397 M 341.88966223316555 197.65208318869963 L 341.87179399520505 194.80830221619118 M 341.87179399520505 194.80830221619118 L 341.84956910371574 194.57318742288612 M 341.66511680961145 192.6218859722641 L 341.5321115553325 191.2148373536761 M 341.5321115553325 191.2148373536761 L 341.2300997120888 189.57574987022852 M 340.8734628573722 187.6485363827144 L 340.0514047302654 184.6802674535812 M 339.4072013646503 182.83070884794452 L 338.64942586665757 180.8061009395422 M 338.64942586665757 180.8061009395422 L 338.25325111499524 179.97773684336926 M 337.40759726546054 178.20955428300758 L 337.0920922249567 177.54986295583848 M 337.0920922249567 177.54986295583848 L 335.8964845115915 175.5282007199937 M 334.84726352070254 173.87474427690816 L 333.1515035474462 171.5096219990764 M 333.1515035474462 171.5096219990764 L 333.0408379980162 171.38087054795517 M 331.76324389642645 169.8944811939893 L 330.7987202237031 168.7723268908345 M 330.7987202237031 168.7723268908345 L 329.646015558324 167.66227915557187 M 328.23420986954375 166.30271867617876 L 327.827649156167 165.9112031278469 M 327.827649156167 165.9112031278469 L 325.8496819522465 164.35693118211984 M 324.2893801140965 163.1728505572479 L 321.69927080061814 161.50619710069714 M 319.9721282158117 160.58093069793728 L 318.3538276270911 159.73058316293682 M 318.3538276270911 159.73058316293682 L 317.1987432428457 159.24787458269057 M 315.39030467270027 158.49212995782688 L 315.0234552462563 158.33882395852655 M 315.0234552462563 158.33882395852655 L 312.46717803303596 157.5259604253769 M 310.57564596171534 157.01969812483193 L 308.06113585514254 156.45763852450037 M 308.06113585514254 156.45763852450037 L 307.562499999444 156.38826966497697 M 305.6211956050786 156.1182006952351 L 304.9965412310661 156.0313004833343 M 304.9965412310661 156.0313004833343 L 302.55204449150244 155.87750578436203 M 300.5934206581336 155.85354696555746 L 298.81467503785507 155.8759005189068 M 298.81467503785507 155.8759005189068 L 297.5185917264884 155.99020493418595 M 295.5677476685723 156.17488297916034 L 292.6796171889952 156.6509385636842 M 292.6796171889952 156.6509385636842 L 292.53105671800637 156.68709876841615 M 290.6266585214936 157.15063680258265 L 289.67328366805265 157.38269200311635 M 289.67328366805265 157.38269200311635 L 287.68133024882246 158.0437825345137 M 285.8351837384782 158.69807171303685 L 283.0084994913715 159.92128721619198 M 281.2819576221877 160.8483728047098 L 279.76103785860397 161.6721037963199 M 279.76103785860397 161.6721037963199 L 278.6347498231424 162.4170123311313 M 276.99995609326055 163.49823823756302 L 276.7504451980401 163.66326067367723 M 276.7504451980401 163.66326067367723 L 274.57473027157033 165.395142812007 M 273.1114817848834 166.69598202787026 L 270.9553471120727 168.77232689083448 M 270.9553471120727 168.77232689083448 L 270.8988635960371 168.8380414216118 M 269.62126949444735 170.3244307755777 L 268.6025637883296 171.50962199907633 M 268.6025637883296 171.50962199907633 L 267.71852363551443 172.74261669932622 M 266.576450295364 174.33549726161507 L 266.49935189508903 174.4430284847547 M 266.49935189508903 174.4430284847547 L 264.9988578956836 176.9802252758089 M 264.1018581738387 178.72101472234067 L 263.1046414691182 180.8061009395422 M 263.1046414691182 180.8061009395422 L 262.8351795190076 181.52604345108088 M 262.14813225143274 183.36168122910735 L 261.8393934910929 184.18656265833025 M 261.8393934910929 184.18656265833025 L 261.2524135990361 186.30601640273903 M 260.77639719830086 188.20575672109277 L 260.22195578044324 191.21483735367607 M 260.22195578044324 191.21483735367607 L 260.22004857196106 191.23501351193946 M 260.03559627785677 193.18631496256148 L 259.8822733405707 194.80830221619115 M 259.8822733405707 194.80830221619115 L 259.87315786701856 196.25905579918646 M 259.8608429048461 198.21901711046448 L 259.85959443371297 198.41771484780756 M 259.85959443371297 198.41771484780756 L 260.0946813274211 201.28940673224133 M 260.36206590955624 203.22929571396386 L 260.76349602795744 205.5728327258717 M 260.76349602795744 205.5728327258717 L 260.9424292997434 206.25198744258068 M 261.44177992208284 208.14731035859506 L 261.6830868553408 209.06320900763285 M 261.6830868553408 209.06320900763285 L 262.4055629111216 211.06996345195918 M 263.10880974088093 212.89794720784604 L 264.40267378438926 215.69299923543267 M 265.3755145649434 217.39432173340435 L 266.220239689581 218.86453109586938 M 266.220239689581 218.86453109586938 L 267.0127118976005 219.99966874711927 M 268.13467886376594 221.60677488139717 L 268.2864242191588 221.82413501663675 M 268.2864242191588 221.82413501663675 L 270.0943083944412 223.9817447526518 M 271.4287063661333 225.41486071726177 L 273.1569153454648 227.14306969659324 M 273.1569153454648 227.14306969659324 L 273.64691817439956 227.54843529041807 M 275.1571241302401 228.7977863103255 L 276.3350646170512 229.77226342908952 M 276.3350646170512 229.77226342908952 L 277.6180536425673 230.64418187046002 M 279.23913156814547 231.7458652910502 L 279.3203986171397 231.80109432051546 M 279.3203986171397 231.80109432051546 L 281.9242422028123 233.25394862279308 M 283.68836640747134 234.10424195852858 L 285.76677094246196 235.0348280424521 M 285.76677094246196 235.0348280424521 L 286.52544350234984 235.2972454247076 M 288.37776712970225 235.93794596283126 L 289.1779608776591 236.2147251159709 M 289.1779608776591 236.2147251159709 L 291.344535528899 236.7565197082986 M 293.2556511172256 237.1853318058919 L 295.7325300655814 237.59360008320567 M 295.7325300655814 237.59360008320567 L 296.3000261483928 237.6436488010235 M 298.25244802231344 237.81583714626296 L 298.814675037855 237.86542117354116 M 298.814675037855 237.86542117354116 L 301.3300671751084 237.8970321873329 M 303.2872954571723 237.81755783823291 L 304.99654123106615 237.71002120911368 M 304.99654123106615 237.71002120911368 L 306.35087317678955 237.5216102446448 M 308.28910001246913 237.23422895881595 L 311.08490897751506 236.62771027240942 M 311.08490897751506 236.62771027240942 L 311.29458079011437 236.5639271513215 M 313.16973641116965 235.9934962643381 L 314.5381457051677 235.57721991982203 M 314.5381457051677 235.57721991982203 L 316.0681286635846 234.96030881746222 M 317.88591420486785 234.22733348939306 L 320.63021429936805 232.82904275019524 M 322.3145965678918 231.8297426835516 L 324.1614975667782 230.67387723689188 M 324.1614975667782 230.67387723689188 L 324.8804884453468 230.13050313021762 M 326.44416554684244 228.94876122850712 L 327.0411237356373 228.4976127755475 M 327.0411237356373 228.4976127755475 L 328.76081208984226 226.92291269496005 M 330.1943955119289 225.58746723923628 L 332.2457120636264 223.2899685113298 M 333.47191926307033 221.76367095676804 L 334.970174600708 219.7285137363778 M 334.970174600708 219.7285137363778 L 335.25754051606094 219.2562512780151 M 336.27638250759753 217.58186751188447 L 336.84644691930566 216.64501311783525 M 336.84644691930566 216.64501311783525 L 337.7245857305376 214.86667171400217 M 338.5655224026153 213.0974268382233 L 339.68133053206526 210.22664781185202 M 340.2444460575086 208.34999338947426 L 340.759216612847 206.57814151619488 M 340.759216612847 206.57814151619488 L 340.998228030452 205.36660713310187 M 341.3775849878317 203.44366971891293 L 341.4578302977084 203.03691110891938 M 341.4578302977084 203.03691110891938 L 341.7419918333272 200.38670024320982 M 341.87455228558014 198.43258206034454 L 341.92363763719385 196.87066084622398" stroke-linecap="round" stroke-linejoin="round" stroke-miterlimit="10" stroke-width="0.7" stroke-dasharray=""/></g></g><g id="sketch-99392cd5"><title>Expression 8</title><path fill="#6042a6" stroke="none" paint-order="stroke fill markers" d="" fill-opacity="0.4"/><g><path fill="none" stroke="#6042a6" class="dcg-svg-curve" paint-order="fill stroke markers" d=" M 341.92363763719385 196.87066084622398 L 341.92363763719385 196.87066084622398 L 341.78166325283723 193.45965279417672 L 341.35672223830574 190.07224112874343 L 340.6517542150584 186.73185900342548 L 339.6716359520074 183.46161423469968 L 338.42314762941305 180.28412944869515 L 336.77783116557777 176.97200670975263 L 334.84107576666514 173.82141917267793 L 332.62860381129366 170.85794297896854 L 330.15837591637165 168.10563531972383 L 327.232915387389 165.403357240724 L 324.05934534597867 162.99730667701152 L 320.91638031414124 161.0482058297913 L 317.6107379532944 159.38990794154483 L 314.43817567710806 158.1289633509049 L 311.1718012653613 157.13602283947904 L 307.834210570151 156.41795528820643 L 304.44849209763197 155.97972808482004 L 301.038067288277 155.8243727608666 L 297.62652849399245 155.95296402043078 L 294.23747577291664 156.3646123056372 L 290.89435363090865 157.05646995035943 L 287.6202888391038 158.023750879567 L 284.43793044946796 159.2597637180354 L 281.36929311507726 160.75595807938296 L 278.19786571755566 162.65839640065312 L 275.21054544345697 164.83856632154146 L 272.2271057744466 167.47669328290135 L 269.5133713543967 170.39152974835102 L 267.2573440292115 173.3219843226458 L 265.27423784307774 176.44360460040312 L 263.58015144547727 179.73104959331977 L 262.18883725334956 183.15763216532525 L 261.1830897763707 186.42008594576345 L 260.45193374919364 189.75483384041263 L 260.00042710191667 193.13880700880648 L 259.8316932295144 196.54859608399116 L 259.9468993850767 199.96061311188905 L 260.3452486050825 203.35125472607737 L 261.023985222568 206.6970654291849 L 261.9784139300491 209.97489985137292 L 263.20193226032734 213.16208286344138 L 264.8212101039774 216.48701332422573 L 266.7331853681647 219.65270027860444 L 268.92233683682366 222.63344500958297 L 271.3708932063281 225.40505014187485 L 274.2750607446038 228.1301991345914 L 277.42965445347227 230.56107647720782 L 280.55722946827115 232.5347780328625 L 283.8497585372883 234.2189619995551 L 287.01232937908827 235.50476071146207 L 290.27081231423267 236.5232996740538 L 293.6026660816223 237.26753292356355 L 296.98484186154275 237.7323120653765 L 300.393942720864 237.9144218891639 L 303.8063854663907 237.8126026107966 L 307.198563786706 237.4275585871746 L 310.5470115539417 236.76195344368537 L 313.82856515579687 235.82039164799912 L 317.02052373484105 234.60938665766642 L 320.1008062266096 233.1373158618659 L 323.28706313717544 231.25982013514397 L 326.29139776247723 229.10315679488883 L 329.2954451793265 226.48852006291247 L 332.03196680063934 223.5950661512412 L 334.3109179612799 220.68240329546776 L 336.31845633131076 217.57643919444507 L 338.0382849233257 214.3023877412642 L 339.456442347932 210.88682734463504 L 340.4877571193167 207.63236540765246 L 341.2450561363096 204.30345704967587 L 341.7231006190206 200.9231307149126 L 341.9185835912538 197.5147705425553 L 341.8301527572307 194.10195460193694 L 341.458419856389 190.7082917861321 L 340.805956431543 187.35725849232807 L 339.8772760396791 184.07203621876542 L 338.67880302844844 180.87535120170534 L 337.0856634969164 177.5378177206661 L 335.1985860795015 174.35722624663646 L 333.38352989687246 171.80771209057954" stroke-linecap="round" stroke-linejoin="round" stroke-miterlimit="10" stroke-width="3.5" stroke-dasharray=""/></g></g><g id="sketch-99392cd5"><title>Expression 9</title><path fill="#2d70b3" stroke="none" paint-order="stroke fill markers" d="" fill-opacity="0.4"/><g><path fill="none" stroke="#2d70b3" class="dcg-svg-curve" paint-order="fill stroke markers" d=" M 382.9702416064999 171.80771209057954 L 382.9702416064999 171.80771209057954 L 386.0455620695657 167.23582496769916 L 388.8279948694823 163.66913583206343 L 391.46398383782446 160.85130109134192 L 393.953528974592 158.73418972058352 L 396.1501864482104 157.33077166063157 L 398.0539562586797 156.48008071372624 L 399.81128223757446 156.00296377292955 L 401.4221643848946 155.8286191655587 L 403.0330465322148 155.90699422878794 L 404.64392867953495 156.2376063618657 L 406.4012546584297 156.8835160975842 L 408.305024468899 157.9136917457334 L 410.3552381109429 159.39740708405 L 412.69833941613587 161.54957661193873 L 415.18788455290337 164.33940926518724 L 417.9703173528201 168.0210690115148 L 420.8991939843113 172.4670630976179 L 424.2674021105262 178.1872428000828 L 428.3678293946139 185.81247314083137 L 434.9578018154692 198.85331258313744 L 441.694218067899 211.96423345523172 L 445.64820152041216 218.993488759632 L 449.0164096466271 224.34504728900552 L 451.9452862781183 228.40301344452953 L 454.58127524646045 231.5091300417549 L 457.070820383228 233.91948127054616 L 459.41392168842094 235.6911916518368 L 461.46413533046484 236.82744023156988 L 463.3679051409341 237.525966142472 L 465.12523111982887 237.86057257497427 L 466.736113267149 237.90347024583915 L 468.34699541446923 237.69370509461658 L 470.104321393364 237.17826864278447 L 471.86164737225874 236.36748567699712 L 473.765417182728 235.1627889284471 L 475.96207465634643 233.36442393251428 L 478.451619793114 230.82266826373075 L 481.08760876145607 227.5884526706656 L 483.8700415613728 223.62676774423534 L 487.0918058560131 218.43136097186488 L 490.75290164537716 211.89151320213736 L 495.58554808733766 202.565028779621 L 507.30105461330254 179.69758053896555 L 511.10859423424114 173.11531593689134 L 514.3303585288816 168.17420017268245 L 517.1127913287982 164.47079185820155 L 519.7487802971403 161.50981864748056 L 522.2383254339079 159.2475174577786 L 524.5814267391008 157.62289935839885 L 526.6316403811446 156.61998698125393 L 528.3889663600394 156.0795129559279 L 530.1462923389342 155.83792849483592 L 531.7571744862544 155.8805932866867 L 533.3680566335745 156.17565771430907 L 535.1253826124693 156.7832306900875 L 537.0291524229385 157.77271275961738 L 539.0793660649824 159.21396972500034 L 541.4224673701754 161.31987895799875 L 543.9120125069429 164.0638500574224 L 546.5480014752851 167.493772014868 L 549.4768781067762 171.8696633079347 L 552.8450862329912 177.5243166619639 L 556.945513517079 185.09395645894958 L 563.0961544432105 197.22736615281073 L 570.5647898535132 211.81320993680387 L 574.5187733060263 218.85662745838866 L 577.8869814322412 224.2242702758133 L 580.8158580637324 228.29887863974665 L 583.4518470320745 231.4217940160925 L 585.9413921688422 233.84933685926703 L 588.2844934740351 235.6381740182952 L 590.3347071160789 236.7899826472581 L 592.2384769265482 237.50329497497185 L 593.995802905443 237.85172635498716 L 595.6066850527632 237.90735631936928 L 597.2175672000833 237.71029953285384 L 598.9748931789782 237.2086075239532 L 600 236.77913260966477" stroke-linecap="round" stroke-linejoin="round" stroke-miterlimit="10" stroke-width="3.5" stroke-dasharray=""/></g></g><g id="sketch-99392cd5"><title>Expression 10</title><path fill="#c74440" stroke="none" paint-order="stroke fill markers" d="" fill-opacity="0.4"/><g><path fill="none" stroke="#c74440" class="dcg-svg-curve" paint-order="fill stroke markers" d=" M 333.38352989687246 114.77745290761196 L 333.38352989687246 114.77745290761196 L 329.58289903686796 111.91452324324976 L 324.8035616011756 108.79132724576372 L 318.7717863097336 105.27773174859192 L 310.70813766202235 100.98333725204861 L 294.691782447866 92.9150809252097 L 284.2307403620061 87.44948792960912 L 277.65100676328456 83.67562609931348 L 272.5998359931583 80.42229693526552 L 268.7375644533665 77.55936727090332 L 265.6323840082502 74.82657077310304 L 263.35931786289007 72.35404060842659 L 261.7857234445043 70.14177677687398 L 260.7736216563396 68.1897792784452 L 260.15592091541083 66.36791494657834 L 259.85890028157235 64.54605061471148 L 259.87231921581525 62.854319449406546 L 260.1641938420049 61.162588284101616 L 260.78761441746417 59.340723952234754 L 261.80572114493253 57.38872645380599 L 263.2806974481518 55.30659578881529 L 265.27107409231525 53.09433195726268 L 267.98347861385844 50.62180179258624 L 271.53434579224506 47.88900529478596 L 276.01689565193544 44.89594246386184 L 281.71422582684704 41.512480133251984 L 289.1724087551812 37.47835196983246 L 301.24019681229953 31.36209314142235 L 315.48754750722026 24.0746358139549 L 322.6975695033826 20.040507650535403 L 328.10732488207805 16.657045319925544 L 332.2816143651255 13.663982489001455 L 335.5126116417118 10.931185991201147 L 338.020386402391 8.328522659962772 L 339.6842828971645 6.116258828410167 L 340.8390732298359 4.034128163419467 L 341.54862279361214 2.0821306649907 L 341.87925210112286 0.26026633312386593 L 341.90015518275084 0" stroke-linecap="round" stroke-linejoin="round" stroke-miterlimit="10" stroke-width="3.5" stroke-dasharray=""/></g></g><g id="sketch-99392cd5"><title>Expression 11</title><path fill="#2d70b3" stroke="none" class="dcg-svg-point" paint-order="stroke fill markers" d=" M 388.2202416064999 171.80771209057954 A 5.25 5.25 0 1 1 388.2202389815001 171.80246209145454 Z"/></g><g id="sketch-99392cd5"><title>Expression 12</title><path fill="#c74440" stroke="none" class="dcg-svg-point" paint-order="stroke fill markers" d=" M 338.63352989687246 114.77745290761196 A 5.25 5.25 0 1 1 338.63352727187265 114.77220290848696 Z"/></g><g id="sketch-99392cd5"><title>Expression 13</title><path fill="#fa7e19" stroke="none" paint-order="stroke fill markers" d="" fill-opacity="0.4"/><g><path fill="none" stroke="#fa7e19" class="dcg-svg-curve" paint-order="fill stroke markers" d=" M 333.38352989687246 171.80771209057954 L 333.38352989687246 171.80771209057954 L 308.320581141228 139.30121586159495" stroke-linecap="round" stroke-linejoin="round" stroke-miterlimit="10" stroke-width="3.5" stroke-dasharray=""/></g></g><g id="sketch-99392cd5"><title>Expression 14</title><path fill="#000000" stroke="none" paint-order="stroke fill markers" d="" fill-opacity="0.4"/><g><path fill="none" stroke="#000000" class="dcg-svg-curve" paint-order="fill stroke markers" d=" M 333.38352989687246 171.80771209057954 L 333.38352989687246 171.80771209057954 L 320.3809314052786 181.8328915928373" stroke-linecap="round" stroke-linejoin="round" stroke-miterlimit="10" stroke-width="3.5" stroke-dasharray=""/></g></g><g id="sketch-99392cd5"><title>Expression 15</title><path fill="#2d70b3" stroke="none" paint-order="stroke fill markers" d="" fill-opacity="0.4"/><g><path fill="none" stroke="#2d70b3" class="dcg-svg-curve" paint-order="fill stroke markers" d=" M 333.38352989687246 171.80771209057954 L 339.5435298968725 171.80771209057954 M 343.4635298968725 171.80771209057954 L 349.62352989687247 171.80771209057954 M 353.5435298968725 171.80771209057954 L 359.70352989687245 171.80771209057954 M 363.62352989687247 171.80771209057954 L 369.78352989687244 171.80771209057954 M 373.70352989687245 171.80771209057954 L 379.8635298968725 171.80771209057954" stroke-linecap="round" stroke-linejoin="round" stroke-miterlimit="10" stroke-width="1.4" stroke-dasharray=""/></g></g><g id="sketch-99392cd5"><title>Expression 16</title><path fill="#c74440" stroke="none" paint-order="stroke fill markers" d="" fill-opacity="0.4"/><g><path fill="none" stroke="#c74440" class="dcg-svg-curve" paint-order="fill stroke markers" d=" M 333.38352989687246 171.80771209057954 L 333.38352989687246 165.64771209057955 M 333.38352989687246 161.72771209057956 L 333.38352989687246 155.56771209057956 M 333.38352989687246 151.64771209057957 L 333.38352989687246 145.48771209057958 M 333.38352989687246 141.56771209057956 L 333.38352989687246 135.40771209057957 M 333.38352989687246 131.48771209057955 L 333.38352989687246 125.32771209057955 M 333.38352989687246 121.40771209057955 L 333.38352989687246 115.24771209057955" stroke-linecap="round" stroke-linejoin="round" stroke-miterlimit="10" stroke-width="1.4" stroke-dasharray=""/></g></g></g><g id="labels-99392cd5"/><g id="labels-99392cd5"/></g></svg>