<svg version="1.1" xmlns="http://www.w3.org/2000/svg" xmlns:xlink="http://www.w3.org/1999/xlink" width="800" height="800"><defs/><g transform="scale(2,2)"><g id="background-75adfa12"><rect fill="white" stroke="none" x="0" y="0" width="400" height="400" class="dcg-svg-background"/></g><g id="graphpaper-75adfa12"><g id="axis-75adfa12"><g><g><path fill="none" stroke="rgb(0,0,0)" class="dcg-svg-tickmark" paint-order="fill stroke markers" d="" stroke-opacity="0.9" stroke-miterlimit="2" stroke-width="1.5" stroke-dasharray=""/></g></g></g></g><g id="expressions-75adfa12"><g id="sketch-75adfa12"><title>Expression 1</title><path fill="#c74440" stroke="none" paint-order="stroke fill markers" d="" fill-opacity="0.4"/><g><path fill="none" stroke="#c74440" class="dcg-svg-curve" paint-order="fill stroke markers" d=" M 0 163.99682609900782 L 0 163.99682609900782 L 0.78125 154.89747912966183 L 1.3671874999998863 149.9444337573064 L 1.8554687499998863 147.19897427065274 L 2.2460937499998863 145.96138798089981 L 2.5390624999998863 145.60728277612236 L 2.7343749999998863 145.6468731392004 L 3.02734375 146.11933462648926 L 3.4179687499998863 147.5122215569582 L 3.8085937499998863 149.75481360285806 L 4.296875 153.69441058307896 L 4.98046875 161.1379603368079 L 5.859375 173.43183148261187 L 7.128906249999886 194.56863360945871 L 9.08203125 226.98871868612983 L 9.9609375 238.4436806723544 L 10.644531249999886 245.04865353995882 L 11.230468749999886 248.81346515593629 L 11.62109375 250.27184495605053 L 11.9140625 250.79431499768967 L 12.076400692406764 250.87055231681285 L 12.304687499999886 250.71982730600757 L 12.59765625 250.08630854225186 L 12.98828125 248.48276391086685 L 13.4765625 245.299042730264 L 14.0625 239.86326074074555 L 14.746093749999886 231.5594499387119 L 15.722656249999886 216.8638576104965 L 19.238281249999886 160.33027717722993 L 19.921875 153.09166932271847 L 20.507812499999886 148.7142306804658 L 20.996093749999886 146.48478088793894 L 21.386718749999886 145.67411904648938 L 21.55111617659918 145.5959358257861 L 21.77734375 145.74395517574786 L 22.0703125 146.37401076806398 L 22.460937499999886 147.97303388926906 L 22.94921875 151.15136363632735 L 23.53515625 156.58124280166328 L 24.218749999999886 164.8792264277762 L 25.195312499999886 179.5690209937506 L 28.80859375 237.27472597047384 L 29.4921875 244.2101381179366 L 30.078125 248.29303087970766 L 30.46875 249.9751182639188 L 30.859374999999886 250.7903986910939 L 31.02583166079171 250.87055231681285 L 31.25 250.72521415681706 L 31.54296875 250.09862202967662 L 31.933593749999886 248.50412116412718 L 32.421874999999886 245.33118433237306 L 33.0078125 239.90721052266747 L 33.69140625 231.6150579410536 L 34.667968749999886 216.9310679858061 L 38.28125 159.21587735560936 L 38.96484375 152.27385960194954 L 39.55078124999994 148.18457779536368 L 40.03906249999994 146.21096825992043 L 40.33203124999994 145.67808435903788 L 40.500547144984125 145.5959358257861 L 40.72265624999994 145.7386172679434 L 41.01562499999994 146.36174563778636 L 41.40624999999994 147.9517235043124 L 41.89453124999994 151.11926594151655 L 42.48046874999994 156.53733186689755 L 43.16406249999994 164.82364953815215 L 44.14062499999994 179.50182803689285 L 47.75390624999994 237.22647741333518 L 48.4375 244.17509753677305 L 49.023437499999886 248.27076648172135 L 49.51171874999994 250.25002968185544 L 49.80468749999994 250.7863843744413 L 50.097656249999886 250.8272123048921 L 50.39062499999994 250.37212850416364 L 50.78124999999994 249.00201747332682 L 51.171875 246.78140137919698 L 51.66015625 242.8675903326631 L 52.343749999999886 235.4558049697439 L 53.12499999999994 224.68028790963234 L 54.29687499999994 205.46641011316973 L 56.542968749999886 168.21291513597407 L 57.42187499999994 157.05588542632518 L 58.10546875 150.7405638206431 L 58.59375 147.70306414889163 L 58.98437499999994 146.22197291216008 L 59.277343749999886 145.682147677923 L 59.570312499999886 145.63782993367124 L 59.86328124999994 146.08943755411605 L 60.25390624999994 147.45499148026394 L 60.64453124999994 149.67120927003972 L 61.13281249999994 153.57985764627531 L 61.81640625 160.9852797528993 L 62.59765624999994 171.7551318638884 L 63.76953124999994 190.9644802490347 L 66.01562499999989 228.22404384426818 L 66.89453124999994 239.3882050749826 L 67.57812499999994 245.7104162212425 L 68.06640625 248.75334506996208 L 68.45703124999994 250.238976531 L 68.74999999999994 250.78227205521796 L 69.04296875 250.83007959260937 L 69.33593749999994 250.38194836299093 L 69.62890624999994 249.44210382303294 L 70.01953124999989 247.44006514023536 L 70.50781249999994 243.78354654670176 L 71.09374999999994 237.83374870841726 L 71.87499999999994 227.62977367422823 L 72.94921874999989 210.55900355693208 L 75.68359374999994 165.53400705231135 L 76.46484374999989 156.0589066014174 L 77.14843749999994 150.05958647301145 L 77.63671874999994 147.2701528842672 L 78.02734375 145.99598979982272 L 78.32031249999994 145.6140376192049 L 78.515625 145.6350116873245 L 78.80859375 146.07966631719466 L 79.1015625 147.01608020957875 L 79.49218749999994 149.01367198595338 L 79.98046874999994 152.66494074455886 L 80.56640624999994 158.60907151319768 L 81.34765624999994 168.8069079381396 L 82.42187499999994 185.87254629175743 L 85.15624999999994 230.90430919776117 L 85.93749999999989 240.38606629899567 L 86.62109374999994 246.39240644439388 L 87.10937499999994 249.1873309707529 L 87.49999999999994 250.4660635038016 L 87.79296874999994 250.85149577212798 L 87.98828124999994 250.83284879627178 L 88.28124999999994 250.3916709734512 L 88.57421874999994 249.45868816520425 L 88.96484375 247.4655442265433 L 89.45312499999994 243.81952700511403 L 90.03906249999994 237.88106607731592 L 90.82031249999994 227.6893730159233 L 91.89453124999994 210.62887438210478 L 94.62890624999994 165.59036606884695 L 95.41015625 156.10195673773387 L 96.09374999999989 150.08859937554132 L 96.58203124999989 147.2881852145809 L 96.97265624999994 146.0048838290812 L 97.26562499999994 145.615971652738 L 97.46093749999994 145.6322915276375 L 97.75390624999994 146.06999233772845 L 98.04687499999994 146.99954362687518 L 98.4375 148.98823879860436 L 98.92578125 152.62900278305844 L 99.51171874999994 158.56179110146334 L 100.29296874999994 168.74733604786604 L 101.36718749999994 185.80268700815992 L 104.10156249999989 230.84791973140352 L 104.8828125 240.34297686883053 L 105.56640624999994 246.36334864434892 L 106.05468749999994 249.16925113433697 L 106.44531249999994 250.45712077400296 L 106.73828124999994 250.84951267704952 L 106.93359374999994 250.8355199107151 L 107.22656249999994 250.40129631741306 L 107.51953124999994 249.4751769807299 L 107.91015624999994 247.49093150307687 L 108.39843749999994 243.85542245294806 L 108.98437499999994 237.92830950984444 L 109.76562499999989 227.74891742700498 L 110.83984374999994 210.6987220915597 L 113.57421874999994 165.64678595873633 L 114.35546874999994 156.14508544165906 L 115.03906249999994 150.11770205955443 L 115.52734374999994 147.3063125486693 L 115.91796874999994 146.01387525525155 L 116.21093749999989 145.61800380843738 L 116.40624999999994 145.62966945968304 L 116.69921874999994 146.06041563375814 L 116.99218749999989 146.983102586214 L 117.38281249999994 148.96289744472256 L 117.87109374999994 152.5931498656262 L 118.45703124999994 158.5145846701668 L 119.23828124999994 168.68781914373875 L 120.31249999999994 185.73285090541114 L 123.04687499999994 230.79146944428578 L 123.82812499999994 240.29980891125305 L 124.51171875 246.33420108993488 L 124.99999999999994 249.15107631102643 L 125.39062499999994 250.44808065565314 L 125.68359374999994 250.84743146167676 L 125.87890624999994 250.83809293095837 L 126.17187499999994 250.4108243769273 L 126.46484374999989 249.4915702388614 L 126.85546874999994 247.51622692249202 L 127.34374999999994 243.89123282326284 L 127.92968749999994 237.9754789179 L 128.71093749999994 227.80840679642947 L 129.78515624999994 210.76854655504135 L 132.51953125 165.7032666167661 L 133.30078124999994 156.18829263276268 L 133.98437499999994 150.14689447078118 L 134.47265624999994 147.32453485272913 L 134.86328124999994 146.02296406156609 L 135.15624999999994 145.6201340825132 L 135.35156249999994 145.62714548835064 L 135.64453124999994 146.0509362231422 L 135.93749999999994 146.96675711825517 L 136.3281249999999 148.93764797156584 L 136.81640624999994 152.5573820591232 L 137.4023437499999 158.46745230734098 L 138.18359374999994 168.62835733674896 L 139.2578125 185.6630381137478 L 141.99218749999994 230.7349584416733 L 142.77343749999994 240.25656250676496 L 143.45703124999994 246.30496383550513 L 143.94531249999994 249.13280653471307 L 144.33593749999994 250.43894316561094 L 144.62890624999994 250.8452521298909 L 144.82421874999994 250.8405678522032 L 145.11718749999994 250.42025513422516 L 145.41015625 249.50786790902714 L 145.80078124999994 247.54143043761826 L 146.2890625 243.92695804927888 L 146.8749999999999 238.02257421352076 L 147.65624999999994 227.86784101326054 L 148.73046874999994 210.8383476423406 L 151.46484374999994 165.75980793761303 L 152.24609374999994 156.23157823047256 L 152.9296875 150.1761765547821 L 153.41796874999994 147.34285209277854 L 153.80859374999994 146.03215023107595 L 154.1015624999999 145.62236247099312 L 154.29687499999994 145.62471961834717 L 154.58984374999994 146.04155412355874 L 154.88281249999994 146.95050725347994 L 155.27343749999994 148.91249042622115 L 155.76171874999994 152.52169943024873 L 156.34765625 158.4203941008815 L 157.12890624999994 168.56895073778526 L 158.20312499999994 185.59324876335728 L 160.93749999999994 230.678386828953 L 161.71874999999994 240.2132377360147 L 162.40234374999994 246.27563693558335 L 162.890625 249.11444183946702 L 163.2812499999999 250.42970832091584 L 163.57421874999994 250.8429746857559 L 163.7695312499999 250.84294466983437 L 164.06249999999994 250.42958857172064 L 164.35546874999994 249.52406996083607 L 164.74609374999994 247.56654200145434 L 165.23437499999994 243.96259806437556 L 165.8203125 238.06959530888253 L 166.6015625 227.9272199666648 L 167.67578124999994 210.9081252232883 L 170.41015624999994 165.81640981583382 L 171.19140624999994 156.27494215406625 L 171.87499999999994 150.20554825695146 L 172.36328124999994 147.36126423465944 L 172.75390624999994 146.04143374665065 L 173.046875 145.6246889697214 L 173.24218749999994 145.62239185419645 L 173.53515624999994 146.03226935250302 L 173.82812499999994 146.93435302219146 L 174.21874999999994 148.8874248556009 L 174.70703124999994 152.48610204554626 L 175.29296874999994 158.37341013854046 L 176.07421875 168.5095994576264 L 177.14843749999994 185.523482984384 L 179.88281249999994 230.6217547116188 L 180.66406249999994 240.16983467979372 L 181.34765624999994 246.24622044486003 L 181.83593749999994 249.0959822595355 L 182.2265625 250.42037613878983 L 182.51953125 250.84059913351888 L 182.71484375 250.8452233794194 L 183.0078125 250.43882467200783 L 183.30078125 249.5401763640732 L 183.6914062499999 247.59156156717222 L 184.1796874999999 243.9981528020892 L 184.76562499999994 238.1165421162981 L 185.54687499999994 227.98654354590832 L 186.62109374999994 210.97787916776187 L 189.35546874999994 165.873072145878 L 190.1367187499999 156.31838432268017 L 190.82031249999994 150.23500952251575 L 191.30859374999994 147.3797712440358 L 191.69921875 146.05081459097778 L 191.99218749999994 145.62711357435964 L 192.1875 145.6201622002394 L 192.48046875 146.0230819272899 L 192.7734375 146.91829445451444 L 193.1640625 148.86245130644966 L 193.6523437499999 152.45058997139728 L 194.23828124999994 158.32650050793632 L 195.01953124999994 168.45030360695347 L 196.09374999999994 185.45374090692914 L 198.82812499999994 230.5650621952822 L 199.60937499999994 240.1263534190408 L 200.29296875 246.21671441819038 L 200.78124999999994 249.07742782934267 L 201.17187499999994 250.410946636635 L 201.46484374999994 250.83812547760982 L 201.66015624999994 250.84740397670902 L 201.95312499999994 250.44796341786358 L 202.24609374999994 249.5561870887035 L 202.63671875 247.616489088114 L 203.12499999999994 244.03362219611677 L 203.71093749999994 238.16341454822071 L 204.49218749999994 228.0458116403646 L 205.56640624999994 211.0476093456823 L 208.30078124999994 165.92979482207716 L 209.08203124999994 156.3619046552999 L 209.765625 150.2645602965345 L 210.25390624999994 147.39837308639514 L 210.64453124999994 146.0602927465639 L 210.93749999999994 145.62963628038625 L 211.13281249999994 145.61803066063385 L 211.42578124999994 146.0139918650523 L 211.71874999999994 146.9023315803957 L 212.10937499999994 148.83756982533794 L 212.59765624999994 152.41516327402755 L 213.18359375 158.27966529654793 L 213.96484374999994 168.391063296345 L 215.03906249999994 185.38402266105186 L 217.87109374999994 231.83758001868756 L 218.65234374999994 241.09447220071985 L 219.23828125 246.187118910599 L 219.7265625 249.0587785834889 L 220.1171875 250.40141983203637 L 220.41015625 250.8355537226417 L 220.60546874999994 250.84948645763674 L 220.89843749999994 250.45700479224527 L 221.19140624999994 249.5721021048691 L 221.58203124999994 247.64132451779543 L 222.07031249999994 244.06900618031358 L 222.65624999999994 238.21021251724136 L 223.43749999999994 228.10502413950888 L 224.51171874999994 211.11731562701328 L 227.34374999999994 164.65657908123285 L 228.12499999999994 155.39288861487657 L 228.71093749999994 150.29420052390122 L 229.19921874999994 147.41706972704867 L 229.58984374999994 146.06986819573376 L 229.88281249999994 145.63225708309696 L 230.07812499999994 145.61599723935478 L 230.37109374999994 146.00499918274164 L 230.66406249999994 146.88646442960285 L 231.05468749999994 148.8127804586658 L 231.54296874999994 152.37982201949998 L 232.12890624999994 158.23290459171403 L 232.91015625 168.3318786362733 L 233.98437499999994 185.314328376764 L 236.81640624999994 231.78222245036548 L 237.5976562499999 241.05270688224792 L 238.18359374999994 246.15743397727576 L 238.67187499999994 249.0400345567521 L 239.06249999999994 250.39179574275948 L 239.35546874999994 250.8328838734103 L 239.55078124999994 250.8514708183191 L 239.84374999999994 250.46594877829233 L 240.13671875 249.58792138289147 L 240.52734375 247.6660678099011 L 241.01562499999994 244.10430468869487 L 241.60156249999994 238.25693593608793 L 242.38281249999994 228.16418093291756 L 243.45703124999994 211.18699788176826 L 246.28906249999994 164.71196794400504 L 247.07031249999994 155.4346938685618 L 247.65624999999994 150.32393014934166 L 248.14453124999994 147.43586113113 L 248.53515624999994 146.07954092063082 L 248.82812499999994 145.6349759776043 L 249.02343749999994 145.61406194019426 L 249.31640624999994 145.99610389712774 L 249.60937499999994 146.8706930317255 L 249.99999999999994 148.78808325266104 L 250.48828124999994 152.34456627372026 L 251.07421874999994 158.18621848063617 L 251.85546874999994 168.27274973710513 L 252.9296875 185.24465818403118 L 255.76171874999994 231.72680231896763 L 256.54296874999994 241.01086171284012 L 257.12890624999994 246.127659673578 L 257.6171874999999 249.0211957840866 L 258.0078124999999 250.38207438675164 L 258.30078124999994 250.8301159348946 L 258.49609374999994 250.85335705505557 L 258.78906249999994 250.47479535932595 L 259.08203124999994 249.60364489327074 L 259.47265624999994 247.69071891829066 L 259.96093749999994 244.1395176554358 L 260.546875 238.30358471763122 L 261.32812499999994 228.22328191027583 L 262.40234374999994 211.25665597999816 L 265.23437499999994 164.76741931819188 L 266.01562499999994 155.4765789341832 L 266.60156249999994 150.35374911741513 L 267.08984374999994 147.45474726359672 L 267.48046875 146.089310903217 L 267.77343749999994 145.637792958838 L 267.96874999999994 145.61222476676122 L 268.26171874999994 145.98730602479884 L 268.55468749999994 146.85501741617517 L 268.94531249999994 148.76347825338004 L 269.43359374999994 152.30939610243576 L 270.01953124999994 158.13960705037448 L 270.8007812499999 168.21367670910757 L 271.87499999999994 185.17501221277786 L 274.70703124999994 231.67131972784185 L 275.48828124999994 240.96893677053092 L 276.07421874999994 246.09779605503027 L 276.56249999999994 249.00226230062347 L 276.95312499999994 250.37225578214168 L 277.24609374999994 250.82724991225612 L 277.44140625 250.8551451643287 L 277.73437499999994 250.4835445188485 L 278.02734374999994 249.61927260668466 L 278.41796874999994 247.7152777969929 L 278.90624999999994 244.17464501486842 L 279.49218749999994 238.35015877487925 L 280.27343749999994 228.28232696137118 L 281.34765624999994 211.32628979180404 L 284.1796875 164.82293310038906 L 284.96093749999994 155.51854373363452 L 285.54687499999994 150.38365737251416 L 286.03515624999994 147.47372808922933 L 286.42578124999994 146.09917812527317 L 286.71874999999994 145.64070802154498 L 286.91406249999994 145.61048572248166 L 287.20703124999994 145.9786055821613 L 287.5 146.8394376121836 L 287.89062499999994 148.73896550670685 L 288.37890624999994 152.27431157123132 L 288.96484374999994 158.09307038785371 L 289.74609374999994 168.15465966244352 L 290.82031249999994 185.10539059288172 L 293.65234374999994 231.61577478045422 L 294.43359374999994 240.92693213350225 L 295.01953125 246.0678431773234 L 295.50781249999994 248.9832341416706 L 295.89843749999994 250.3623399472397 L 296.19140624999994 250.82428581083968 L 296.38671874999994 250.85683514280396 L 296.58203125 250.6687587451218 L 296.875 249.97494797186437 L 297.26562499999994 248.29274430216287 L 297.75390624999994 245.01532550230314 L 298.33984375 239.47710436272826 L 299.02343749999994 231.07238704712373 L 299.99999999999994 216.27687895863912 L 303.515625 159.89844639069585 L 304.19921874999994 152.77279686036636 L 304.78515625 148.50540667783628 L 305.2734375 146.3738519536774 L 305.66406249999994 145.64372116028906 L 305.85937499999994 145.6088448105986 L 306.05468749999994 145.79459757890805 L 306.34765624999994 146.48495055768046 L 306.73828124999994 148.16264604408096 L 307.2265624999999 151.4346996307657 L 307.8125 156.9670624936872 L 308.49609375 165.36602047228826 L 309.47265624999994 180.15585055467255 L 312.98828124999994 236.54340365223476 L 313.6718749999999 243.67556368850174 L 314.25781249999994 247.94928642306377 L 314.74609374999994 250.08646798028806 L 315.13671875 250.82122363617276 L 315.33203125 250.85842698732975 L 315.52734374999994 250.67499793499223 L 315.82031249999994 249.9881030725522 L 316.21093749999994 248.3149165516061 L 316.69921874999994 245.04822970355076 L 317.28515624999994 239.52172769651017 L 317.96874999999994 231.12853297056623 L 318.94531249999994 216.34438778940503 L 322.46093749999994 159.94774045049934 L 323.14453124999994 152.8090732333584 L 323.73046875 148.52901993920455 L 324.2187499999999 146.38621254528402 L 324.609375 145.64683236945126 L 324.8046875 145.6073020341721 L 325 145.78840728502178 L 325.29296875 146.47184371089423 L 325.68359374999994 148.14052048633434 L 326.17187499999994 151.401839072808 L 326.75781249999994 156.92247764747339 L 327.4414062499999 165.30990520779346 L 328.41796875 180.08835859525783 L 331.93359375 236.49407388299204 L 332.61718749999994 243.6392449529098 L 333.20312499999994 247.92562681126412 L 333.69140624999994 250.0740590428893 L 334.08203124999994 250.8180633939657 L 334.27734374999994 250.85992069493767 L 334.47265624999994 250.68113933000836 L 334.76562499999994 250.00116165932658 L 335.15625 248.33699540734102 L 335.64453124999994 245.08104660289905 L 336.23046874999994 239.56627403436917 L 336.91406249999994 231.18461754995084 L 337.89062499999994 216.4118628460026 L 341.40624999999994 159.99710590618383 L 342.08984375 152.8454343146186 L 342.67578124999994 148.55272589040504 L 343.16406249999994 146.39866982268978 L 343.55468749999994 145.65004164322977 L 343.75 145.60585739607916 L 343.9453125 145.78231479173897 L 344.2382812499999 146.4588333902197 L 344.62890624999994 148.11848834290439 L 345.11718749999994 151.36906584736823 L 345.70312499999994 156.87796983873747 L 346.38671874999994 165.25385133966608 L 347.36328124999994 180.02090047293547 L 350.8789062499999 236.4446727638797 L 351.56249999999994 243.60284154293277 L 352.1484375 247.9018745317146 L 352.63671874999994 250.0615534312841 L 353.02734374999994 250.81480509011192 L 353.22265624999994 250.8613162628422 L 353.41796874999994 250.6871829187176 L 353.71093749999994 250.0141237078355 L 354.1015624999999 248.35898082819466 L 354.58984374999994 245.11377613915084 L 355.17578124999994 239.6107432932335 L 355.85937499999994 231.2406406806889 L 356.83593749999994 216.47930400260174 L 360.35156249999994 160.04654266569236 L 361.03515624999994 152.8818800363405 L 361.62109374999994 148.57652448723007 L 362.10937499999994 146.4112237626643 L 362.49999999999994 145.65334897563977 L 362.69531249999994 145.60451089901375 L 362.89062499999994 145.77632011042093 L 363.18359374999994 146.4459196199194 L 363.57421874999994 148.09654965487744 L 364.06249999999994 151.33638001556318 L 364.64843749999994 156.83353915047635 L 365.33203124999994 165.19785897243514 L 366.30859374999994 179.95347631350182 L 369.82421874999994 236.39520038702307 L 370.5078125 243.5663535264576 L 371.0937499999999 247.87802962870919 L 371.58203125 250.04895116879314 L 371.97265625 250.8114487306876 L 372.16796874999994 250.86261368844077 L 372.36328125 250.69312868984963 L 372.65624999999994 250.02698919390673 L 373.04687499999994 248.38087277316703 L 373.53515624999994 245.14641825127066 L 374.12109375 239.65513539017633 L 374.8046875 231.29660225830747 L 375.78124999999994 216.54671113343593 L 379.29687499999994 160.09605063683327 L 379.98046874999994 152.91841033055874 L 380.56640625 148.60041568529903 L 381.05468749999994 146.42387434179648 L 381.44531249999994 145.6567543605137 L 381.64062499999994 145.60326254548687 L 381.83593749999994 145.77042325224681 L 382.12890624999994 146.433102424075 L 382.51953125 148.0747044631653 L 383.00781249999994 151.3037816383466 L 383.59374999999994 156.78918566554722 L 384.27734375 165.14192821051802 L 385.25390625 179.88608624269312 L 388.76953125 236.3456568446796 L 389.45312499999994 243.52978097152732 L 390.03906249999994 247.85409214671472 L 390.52734375 250.03625227891735 L 390.91796875 250.8079943219517 L 391.06502006010476 250.87055231681285 L 391.30859374999994 250.69897663231666 L 391.6015625 250.03975809354873 L 391.9921875 248.40267120143454 L 392.48046875 245.17897287838673 L 393.06640624999994 239.69945024241406 L 393.75 231.35250217844813 L 394.72656249999994 216.61408411280246 L 398.24218749999994 160.14562972728248 L 398.92578124999994 152.95502512915044 L 399.51171874999994 148.62439944005942 L 399.99999999999994 146.4366215364954" stroke-linecap="round" stroke-linejoin="round" stroke-miterlimit="10" stroke-width="2.5" stroke-dasharray=""/></g></g></g><g id="labels-75adfa12"/><g id="labels-75adfa12"/></g></svg>