<svg width="1334" height="414" viewBox="0 0 1334 414" fill="none" xmlns="http://www.w3.org/2000/svg">
<rect width="1334" height="414" fill="white"/>
<path d="M78.7841 21.2727H79.8409V27.0511C79.8409 27.6477 79.7003 28.1804 79.419 28.6491C79.1406 29.1151 78.7472 29.483 78.2386 29.7528C77.7301 30.0199 77.1335 30.1534 76.4489 30.1534C75.7642 30.1534 75.1676 30.0199 74.6591 29.7528C74.1506 29.483 73.7557 29.1151 73.4744 28.6491C73.196 28.1804 73.0568 27.6477 73.0568 27.0511V21.2727H74.1136V26.9659C74.1136 27.392 74.2074 27.7713 74.3949 28.1037C74.5824 28.4332 74.8494 28.6932 75.196 28.8835C75.5455 29.071 75.9631 29.1648 76.4489 29.1648C76.9347 29.1648 77.3523 29.071 77.7017 28.8835C78.0511 28.6932 78.3182 28.4332 78.5028 28.1037C78.6903 27.7713 78.7841 27.392 78.7841 26.9659V21.2727ZM82.8207 26.0625V30H81.815V23.4545H82.7866V24.4773H82.8718C83.0252 24.1449 83.2582 23.8778 83.5707 23.6761C83.8832 23.4716 84.2866 23.3693 84.7809 23.3693C85.2241 23.3693 85.6119 23.4602 85.9442 23.642C86.2766 23.821 86.5352 24.0938 86.7198 24.4602C86.9045 24.8239 86.9968 25.2841 86.9968 25.8409V30H85.9911V25.9091C85.9911 25.3949 85.8576 24.9943 85.5906 24.7074C85.3235 24.4176 84.957 24.2727 84.4911 24.2727C84.1701 24.2727 83.8832 24.3423 83.6303 24.4815C83.3803 24.6207 83.1829 24.8239 83.038 25.0909C82.8931 25.358 82.8207 25.6818 82.8207 26.0625ZM91.5788 30.1364C90.9482 30.1364 90.4041 29.9972 89.9467 29.7188C89.4922 29.4375 89.1413 29.0455 88.8942 28.5426C88.6499 28.0369 88.5277 27.4489 88.5277 26.7784C88.5277 26.108 88.6499 25.517 88.8942 25.0057C89.1413 24.4915 89.4851 24.0909 89.9254 23.804C90.3686 23.5142 90.8857 23.3693 91.4766 23.3693C91.8175 23.3693 92.1541 23.4261 92.4865 23.5398C92.8189 23.6534 93.1214 23.8381 93.3942 24.0938C93.6669 24.3466 93.8842 24.6818 94.0462 25.0994C94.2081 25.517 94.2891 26.0312 94.2891 26.642V27.0682H89.2436V26.1989H93.2663C93.2663 25.8295 93.1925 25.5 93.0447 25.2102C92.8999 24.9205 92.6925 24.6918 92.4226 24.5241C92.1555 24.3565 91.8402 24.2727 91.4766 24.2727C91.076 24.2727 90.7294 24.3722 90.4368 24.571C90.147 24.767 89.924 25.0227 89.7678 25.3381C89.6115 25.6534 89.5334 25.9915 89.5334 26.3523V26.9318C89.5334 27.4261 89.6186 27.8452 89.7891 28.1889C89.9624 28.5298 90.2024 28.7898 90.5092 28.9688C90.8161 29.1449 91.1726 29.233 91.5788 29.233C91.843 29.233 92.0817 29.196 92.2947 29.1222C92.5107 29.0455 92.6967 28.9318 92.853 28.7812C93.0092 28.6278 93.13 28.4375 93.2152 28.2102L94.1868 28.483C94.0845 28.8125 93.9126 29.1023 93.6712 29.3523C93.4297 29.5994 93.1314 29.7926 92.7763 29.9318C92.4212 30.0682 92.022 30.1364 91.5788 30.1364ZM102.109 23.4545V24.3068H98.5803V23.4545H102.109ZM99.6371 30V22.5511C99.6371 22.1761 99.7251 21.8636 99.9013 21.6136C100.077 21.3636 100.306 21.1761 100.587 21.0511C100.869 20.9261 101.165 20.8636 101.478 20.8636C101.725 20.8636 101.927 20.8835 102.083 20.9233C102.239 20.9631 102.356 21 102.433 21.0341L102.143 21.9034C102.092 21.8864 102.021 21.8651 101.93 21.8395C101.842 21.8139 101.725 21.8011 101.58 21.8011C101.248 21.8011 101.008 21.8849 100.86 22.0526C100.715 22.2202 100.643 22.4659 100.643 22.7898V30H99.6371ZM103.518 30V23.4545H104.49V24.4432H104.558C104.677 24.1193 104.893 23.8565 105.206 23.6548C105.518 23.4531 105.87 23.3523 106.262 23.3523C106.336 23.3523 106.429 23.3537 106.539 23.3565C106.65 23.3594 106.734 23.3636 106.791 23.3693V24.392C106.757 24.3835 106.679 24.3707 106.556 24.3537C106.437 24.3338 106.311 24.3239 106.177 24.3239C105.859 24.3239 105.575 24.3906 105.325 24.5241C105.078 24.6548 104.882 24.8366 104.737 25.0696C104.595 25.2997 104.524 25.5625 104.524 25.858V30H103.518ZM109.909 30.1534C109.494 30.1534 109.118 30.0753 108.78 29.919C108.442 29.7599 108.173 29.5312 107.974 29.233C107.776 28.9318 107.676 28.5682 107.676 28.142C107.676 27.767 107.75 27.4631 107.898 27.2301C108.045 26.9943 108.243 26.8097 108.49 26.6761C108.737 26.5426 109.01 26.4432 109.308 26.3778C109.609 26.3097 109.912 26.2557 110.216 26.2159C110.614 26.1648 110.936 26.1264 111.183 26.1009C111.433 26.0724 111.615 26.0256 111.729 25.9602C111.845 25.8949 111.903 25.7812 111.903 25.6193V25.5852C111.903 25.1648 111.788 24.8381 111.558 24.6051C111.331 24.3722 110.986 24.2557 110.523 24.2557C110.043 24.2557 109.666 24.3608 109.393 24.571C109.121 24.7812 108.929 25.0057 108.818 25.2443L107.864 24.9034C108.034 24.5057 108.261 24.196 108.545 23.9744C108.832 23.75 109.145 23.5937 109.483 23.5057C109.824 23.4148 110.159 23.3693 110.489 23.3693C110.699 23.3693 110.94 23.3949 111.213 23.446C111.489 23.4943 111.754 23.5952 112.01 23.7486C112.268 23.902 112.483 24.1335 112.653 24.4432C112.824 24.7528 112.909 25.1676 112.909 25.6875V30H111.903V29.1136H111.852C111.784 29.2557 111.67 29.4077 111.511 29.5696C111.352 29.7315 111.141 29.8693 110.876 29.983C110.612 30.0966 110.29 30.1534 109.909 30.1534ZM110.062 29.25C110.46 29.25 110.795 29.1719 111.068 29.0156C111.344 28.8594 111.551 28.6577 111.69 28.4105C111.832 28.1634 111.903 27.9034 111.903 27.6307V26.7102C111.861 26.7614 111.767 26.8082 111.622 26.8509C111.48 26.8906 111.315 26.9261 111.128 26.9574C110.943 26.9858 110.763 27.0114 110.587 27.0341C110.413 27.054 110.273 27.071 110.165 27.0852C109.903 27.1193 109.659 27.1747 109.432 27.2514C109.207 27.3253 109.026 27.4375 108.886 27.5881C108.75 27.7358 108.682 27.9375 108.682 28.1932C108.682 28.5426 108.811 28.8068 109.07 28.9858C109.331 29.1619 109.662 29.25 110.062 29.25ZM114.745 30V23.4545H115.716V24.4773H115.801C115.938 24.1278 116.158 23.8565 116.462 23.6634C116.766 23.4673 117.131 23.3693 117.557 23.3693C117.989 23.3693 118.348 23.4673 118.635 23.6634C118.925 23.8565 119.151 24.1278 119.313 24.4773H119.381C119.549 24.1392 119.8 23.8707 120.135 23.6719C120.471 23.4702 120.873 23.3693 121.341 23.3693C121.926 23.3693 122.405 23.5526 122.777 23.919C123.15 24.2827 123.336 24.8494 123.336 25.6193V30H122.33V25.6193C122.33 25.1364 122.198 24.7912 121.934 24.5838C121.669 24.3764 121.358 24.2727 121 24.2727C120.54 24.2727 120.184 24.4119 119.931 24.6903C119.678 24.9659 119.551 25.3153 119.551 25.7386V30H118.529V25.517C118.529 25.1449 118.408 24.8452 118.167 24.6179C117.925 24.3878 117.614 24.2727 117.233 24.2727C116.972 24.2727 116.728 24.3423 116.5 24.4815C116.276 24.6207 116.094 24.8139 115.955 25.0611C115.819 25.3054 115.75 25.5881 115.75 25.9091V30H114.745ZM127.919 30.1364C127.288 30.1364 126.744 29.9972 126.287 29.7188C125.832 29.4375 125.481 29.0455 125.234 28.5426C124.99 28.0369 124.868 27.4489 124.868 26.7784C124.868 26.108 124.99 25.517 125.234 25.0057C125.481 24.4915 125.825 24.0909 126.265 23.804C126.708 23.5142 127.225 23.3693 127.816 23.3693C128.157 23.3693 128.494 23.4261 128.826 23.5398C129.159 23.6534 129.461 23.8381 129.734 24.0938C130.007 24.3466 130.224 24.6818 130.386 25.0994C130.548 25.517 130.629 26.0312 130.629 26.642V27.0682H125.583V26.1989H129.606C129.606 25.8295 129.532 25.5 129.385 25.2102C129.24 24.9205 129.032 24.6918 128.762 24.5241C128.495 24.3565 128.18 24.2727 127.816 24.2727C127.416 24.2727 127.069 24.3722 126.777 24.571C126.487 24.767 126.264 25.0227 126.108 25.3381C125.951 25.6534 125.873 25.9915 125.873 26.3523V26.9318C125.873 27.4261 125.958 27.8452 126.129 28.1889C126.302 28.5298 126.542 28.7898 126.849 28.9688C127.156 29.1449 127.512 29.233 127.919 29.233C128.183 29.233 128.422 29.196 128.635 29.1222C128.85 29.0455 129.037 28.9318 129.193 28.7812C129.349 28.6278 129.47 28.4375 129.555 28.2102L130.527 28.483C130.424 28.8125 130.252 29.1023 130.011 29.3523C129.77 29.5994 129.471 29.7926 129.116 29.9318C128.761 30.0682 128.362 30.1364 127.919 30.1364ZM135.943 24.8352V23.9148H141.193V24.8352H135.943ZM135.943 27.358V26.4375H141.193V27.358H135.943ZM149.87 21.2727V30H148.813V22.3807H148.762L146.631 23.7955V22.7216L148.813 21.2727H149.87ZM155.278 30.1193C154.92 30.1136 154.562 30.0455 154.204 29.9148C153.846 29.7841 153.519 29.5639 153.224 29.2543C152.928 28.9418 152.691 28.5199 152.512 27.9886C152.333 27.4545 152.244 26.7841 152.244 25.9773C152.244 25.2045 152.316 24.5199 152.461 23.9233C152.606 23.3239 152.816 22.8196 153.092 22.4105C153.367 21.9986 153.7 21.6861 154.089 21.473C154.481 21.2599 154.923 21.1534 155.414 21.1534C155.903 21.1534 156.337 21.2514 156.718 21.4474C157.102 21.6406 157.414 21.9105 157.656 22.2571C157.897 22.6037 158.053 23.0028 158.124 23.4545H157.085C156.988 23.0625 156.8 22.7372 156.522 22.4787C156.244 22.2202 155.874 22.0909 155.414 22.0909C154.738 22.0909 154.205 22.3849 153.816 22.973C153.43 23.5611 153.235 24.3864 153.232 25.4489H153.3C153.46 25.2074 153.648 25.0014 153.867 24.831C154.089 24.6577 154.333 24.5241 154.6 24.4304C154.867 24.3366 155.15 24.2898 155.448 24.2898C155.948 24.2898 156.406 24.4148 156.82 24.6648C157.235 24.9119 157.567 25.2543 157.817 25.6918C158.067 26.1264 158.192 26.625 158.192 27.1875C158.192 27.7273 158.072 28.2216 157.83 28.6705C157.589 29.1165 157.249 29.4716 156.812 29.7358C156.377 29.9972 155.866 30.125 155.278 30.1193ZM155.278 29.1818C155.636 29.1818 155.957 29.0923 156.241 28.9134C156.528 28.7344 156.754 28.4943 156.918 28.1932C157.086 27.892 157.17 27.5568 157.17 27.1875C157.17 26.8267 157.089 26.4986 156.927 26.2031C156.768 25.9048 156.548 25.6676 156.266 25.4915C155.988 25.3153 155.67 25.2273 155.312 25.2273C155.042 25.2273 154.79 25.2812 154.558 25.3892C154.325 25.4943 154.12 25.6392 153.944 25.8239C153.771 26.0085 153.634 26.2202 153.535 26.4588C153.435 26.6946 153.386 26.9432 153.386 27.2045C153.386 27.5511 153.467 27.875 153.629 28.1761C153.793 28.4773 154.018 28.7202 154.302 28.9048C154.589 29.0895 154.914 29.1818 155.278 29.1818ZM159.885 30V23.4545H160.857V24.4773H160.942C161.078 24.1278 161.299 23.8565 161.603 23.6634C161.907 23.4673 162.272 23.3693 162.698 23.3693C163.13 23.3693 163.489 23.4673 163.776 23.6634C164.066 23.8565 164.292 24.1278 164.453 24.4773H164.522C164.689 24.1392 164.941 23.8707 165.276 23.6719C165.611 23.4702 166.013 23.3693 166.482 23.3693C167.067 23.3693 167.546 23.5526 167.918 23.919C168.29 24.2827 168.476 24.8494 168.476 25.6193V30H167.471V25.6193C167.471 25.1364 167.338 24.7912 167.074 24.5838C166.81 24.3764 166.499 24.2727 166.141 24.2727C165.681 24.2727 165.324 24.4119 165.071 24.6903C164.819 24.9659 164.692 25.3153 164.692 25.7386V30H163.669V25.517C163.669 25.1449 163.549 24.8452 163.307 24.6179C163.066 24.3878 162.755 24.2727 162.374 24.2727C162.113 24.2727 161.868 24.3423 161.641 24.4815C161.417 24.6207 161.235 24.8139 161.096 25.0611C160.959 25.3054 160.891 25.5881 160.891 25.9091V30H159.885ZM174.951 24.9205L174.048 25.1761C173.991 25.0256 173.907 24.8793 173.797 24.7372C173.689 24.5923 173.541 24.473 173.353 24.3793C173.166 24.2855 172.926 24.2386 172.633 24.2386C172.233 24.2386 171.899 24.331 171.632 24.5156C171.368 24.6974 171.235 24.929 171.235 25.2102C171.235 25.4602 171.326 25.6577 171.508 25.8026C171.69 25.9474 171.974 26.0682 172.36 26.1648L173.332 26.4034C173.917 26.5455 174.353 26.7628 174.64 27.0554C174.927 27.3452 175.071 27.7187 175.071 28.1761C175.071 28.5511 174.963 28.8864 174.747 29.1818C174.534 29.4773 174.235 29.7102 173.852 29.8807C173.468 30.0511 173.022 30.1364 172.514 30.1364C171.846 30.1364 171.294 29.9915 170.856 29.7017C170.419 29.4119 170.142 28.9886 170.025 28.4318L170.98 28.1932C171.071 28.5455 171.243 28.8097 171.495 28.9858C171.751 29.1619 172.085 29.25 172.497 29.25C172.966 29.25 173.338 29.1506 173.613 28.9517C173.892 28.75 174.031 28.5085 174.031 28.2273C174.031 28 173.951 27.8097 173.792 27.6562C173.633 27.5 173.389 27.3835 173.059 27.3068L171.968 27.0511C171.369 26.9091 170.929 26.6889 170.647 26.3906C170.369 26.0895 170.23 25.7131 170.23 25.2614C170.23 24.892 170.333 24.5653 170.541 24.2812C170.751 23.9972 171.037 23.7741 171.397 23.6122C171.761 23.4503 172.173 23.3693 172.633 23.3693C173.281 23.3693 173.789 23.5114 174.159 23.7955C174.531 24.0795 174.795 24.4545 174.951 24.9205Z" fill="black"/>
<path d="M273.58 184.21V183.273H280.125V184.21H277.381V192H276.324V184.21H273.58ZM283.415 192.136C282.784 192.136 282.24 191.997 281.783 191.719C281.328 191.438 280.977 191.045 280.73 190.543C280.486 190.037 280.364 189.449 280.364 188.778C280.364 188.108 280.486 187.517 280.73 187.006C280.977 186.491 281.321 186.091 281.761 185.804C282.205 185.514 282.722 185.369 283.312 185.369C283.653 185.369 283.99 185.426 284.322 185.54C284.655 185.653 284.957 185.838 285.23 186.094C285.503 186.347 285.72 186.682 285.882 187.099C286.044 187.517 286.125 188.031 286.125 188.642V189.068H281.08V188.199H285.102C285.102 187.83 285.028 187.5 284.881 187.21C284.736 186.92 284.528 186.692 284.259 186.524C283.991 186.357 283.676 186.273 283.312 186.273C282.912 186.273 282.565 186.372 282.273 186.571C281.983 186.767 281.76 187.023 281.604 187.338C281.447 187.653 281.369 187.991 281.369 188.352V188.932C281.369 189.426 281.455 189.845 281.625 190.189C281.798 190.53 282.038 190.79 282.345 190.969C282.652 191.145 283.009 191.233 283.415 191.233C283.679 191.233 283.918 191.196 284.131 191.122C284.347 191.045 284.533 190.932 284.689 190.781C284.845 190.628 284.966 190.437 285.051 190.21L286.023 190.483C285.92 190.812 285.749 191.102 285.507 191.352C285.266 191.599 284.967 191.793 284.612 191.932C284.257 192.068 283.858 192.136 283.415 192.136ZM287.655 192V185.455H288.626V186.477H288.712C288.848 186.128 289.068 185.857 289.372 185.663C289.676 185.467 290.041 185.369 290.467 185.369C290.899 185.369 291.259 185.467 291.545 185.663C291.835 185.857 292.061 186.128 292.223 186.477H292.291C292.459 186.139 292.71 185.871 293.045 185.672C293.381 185.47 293.783 185.369 294.251 185.369C294.837 185.369 295.315 185.553 295.688 185.919C296.06 186.283 296.246 186.849 296.246 187.619V192H295.24V187.619C295.24 187.136 295.108 186.791 294.844 186.584C294.58 186.376 294.268 186.273 293.911 186.273C293.45 186.273 293.094 186.412 292.841 186.69C292.588 186.966 292.462 187.315 292.462 187.739V192H291.439V187.517C291.439 187.145 291.318 186.845 291.077 186.618C290.835 186.388 290.524 186.273 290.143 186.273C289.882 186.273 289.638 186.342 289.411 186.482C289.186 186.621 289.004 186.814 288.865 187.061C288.729 187.305 288.661 187.588 288.661 187.909V192H287.655ZM298.085 194.455V185.455H299.056V186.494H299.175C299.249 186.381 299.352 186.236 299.482 186.06C299.616 185.881 299.806 185.722 300.053 185.582C300.303 185.44 300.641 185.369 301.067 185.369C301.619 185.369 302.104 185.507 302.525 185.783C302.945 186.058 303.273 186.449 303.509 186.955C303.745 187.46 303.863 188.057 303.863 188.744C303.863 189.438 303.745 190.038 303.509 190.547C303.273 191.053 302.947 191.445 302.529 191.723C302.112 191.999 301.63 192.136 301.085 192.136C300.664 192.136 300.327 192.067 300.075 191.928C299.822 191.786 299.627 191.625 299.491 191.446C299.354 191.264 299.249 191.114 299.175 190.994H299.09V194.455H298.085ZM299.073 188.727C299.073 189.222 299.146 189.658 299.29 190.036C299.435 190.411 299.647 190.705 299.925 190.918C300.204 191.128 300.545 191.233 300.948 191.233C301.369 191.233 301.719 191.122 302.001 190.901C302.285 190.676 302.498 190.375 302.64 189.997C302.785 189.616 302.857 189.193 302.857 188.727C302.857 188.267 302.786 187.852 302.644 187.483C302.505 187.111 302.293 186.817 302.009 186.601C301.728 186.382 301.374 186.273 300.948 186.273C300.539 186.273 300.195 186.376 299.917 186.584C299.638 186.788 299.428 187.075 299.286 187.445C299.144 187.811 299.073 188.239 299.073 188.727ZM310.033 186.92L309.13 187.176C309.073 187.026 308.989 186.879 308.879 186.737C308.771 186.592 308.623 186.473 308.435 186.379C308.248 186.286 308.008 186.239 307.715 186.239C307.315 186.239 306.981 186.331 306.714 186.516C306.45 186.697 306.317 186.929 306.317 187.21C306.317 187.46 306.408 187.658 306.59 187.803C306.772 187.947 307.056 188.068 307.442 188.165L308.414 188.403C308.999 188.545 309.435 188.763 309.722 189.055C310.009 189.345 310.153 189.719 310.153 190.176C310.153 190.551 310.045 190.886 309.829 191.182C309.616 191.477 309.317 191.71 308.934 191.881C308.55 192.051 308.104 192.136 307.596 192.136C306.928 192.136 306.376 191.991 305.938 191.702C305.501 191.412 305.224 190.989 305.107 190.432L306.062 190.193C306.153 190.545 306.325 190.81 306.577 190.986C306.833 191.162 307.167 191.25 307.579 191.25C308.048 191.25 308.42 191.151 308.695 190.952C308.974 190.75 309.113 190.509 309.113 190.227C309.113 190 309.033 189.81 308.874 189.656C308.715 189.5 308.471 189.384 308.141 189.307L307.05 189.051C306.451 188.909 306.011 188.689 305.729 188.391C305.451 188.089 305.312 187.713 305.312 187.261C305.312 186.892 305.415 186.565 305.623 186.281C305.833 185.997 306.119 185.774 306.479 185.612C306.843 185.45 307.255 185.369 307.715 185.369C308.363 185.369 308.871 185.511 309.241 185.795C309.613 186.08 309.877 186.455 310.033 186.92ZM316.968 192.153C316.553 192.153 316.176 192.075 315.838 191.919C315.5 191.76 315.232 191.531 315.033 191.233C314.834 190.932 314.735 190.568 314.735 190.142C314.735 189.767 314.809 189.463 314.956 189.23C315.104 188.994 315.301 188.81 315.549 188.676C315.796 188.543 316.069 188.443 316.367 188.378C316.668 188.31 316.971 188.256 317.275 188.216C317.672 188.165 317.995 188.126 318.242 188.101C318.492 188.072 318.674 188.026 318.787 187.96C318.904 187.895 318.962 187.781 318.962 187.619V187.585C318.962 187.165 318.847 186.838 318.617 186.605C318.39 186.372 318.044 186.256 317.581 186.256C317.101 186.256 316.725 186.361 316.452 186.571C316.179 186.781 315.988 187.006 315.877 187.244L314.922 186.903C315.093 186.506 315.32 186.196 315.604 185.974C315.891 185.75 316.203 185.594 316.542 185.506C316.882 185.415 317.218 185.369 317.547 185.369C317.757 185.369 317.999 185.395 318.272 185.446C318.547 185.494 318.813 185.595 319.069 185.749C319.327 185.902 319.542 186.134 319.712 186.443C319.882 186.753 319.968 187.168 319.968 187.688V192H318.962V191.114H318.911C318.843 191.256 318.729 191.408 318.57 191.57C318.411 191.732 318.199 191.869 317.935 191.983C317.671 192.097 317.348 192.153 316.968 192.153ZM317.121 191.25C317.519 191.25 317.854 191.172 318.127 191.016C318.402 190.859 318.61 190.658 318.749 190.411C318.891 190.163 318.962 189.903 318.962 189.631V188.71C318.919 188.761 318.826 188.808 318.681 188.851C318.539 188.891 318.374 188.926 318.186 188.957C318.002 188.986 317.821 189.011 317.645 189.034C317.472 189.054 317.331 189.071 317.223 189.085C316.962 189.119 316.718 189.175 316.49 189.251C316.266 189.325 316.084 189.437 315.945 189.588C315.809 189.736 315.74 189.937 315.74 190.193C315.74 190.543 315.87 190.807 316.128 190.986C316.39 191.162 316.721 191.25 317.121 191.25ZM322.809 183.273V192H321.803V183.273H322.809ZM325.657 183.273V192H324.651V183.273H325.657ZM330.158 192.136C329.567 192.136 329.048 191.996 328.602 191.714C328.159 191.433 327.812 191.04 327.562 190.534C327.315 190.028 327.192 189.437 327.192 188.761C327.192 188.08 327.315 187.484 327.562 186.976C327.812 186.467 328.159 186.072 328.602 185.791C329.048 185.51 329.567 185.369 330.158 185.369C330.749 185.369 331.266 185.51 331.709 185.791C332.155 186.072 332.501 186.467 332.749 186.976C332.999 187.484 333.124 188.08 333.124 188.761C333.124 189.437 332.999 190.028 332.749 190.534C332.501 191.04 332.155 191.433 331.709 191.714C331.266 191.996 330.749 192.136 330.158 192.136ZM330.158 191.233C330.607 191.233 330.976 191.118 331.266 190.888C331.555 190.658 331.77 190.355 331.909 189.98C332.048 189.605 332.118 189.199 332.118 188.761C332.118 188.324 332.048 187.916 331.909 187.538C331.77 187.161 331.555 186.855 331.266 186.622C330.976 186.389 330.607 186.273 330.158 186.273C329.709 186.273 329.339 186.389 329.05 186.622C328.76 186.855 328.545 187.161 328.406 187.538C328.267 187.916 328.197 188.324 328.197 188.761C328.197 189.199 328.267 189.605 328.406 189.98C328.545 190.355 328.76 190.658 329.05 190.888C329.339 191.118 329.709 191.233 330.158 191.233ZM338.784 189.324V185.455H339.789V192H338.784V190.892H338.716C338.562 191.224 338.324 191.507 338 191.74C337.676 191.97 337.267 192.085 336.772 192.085C336.363 192.085 336 191.996 335.681 191.817C335.363 191.635 335.113 191.362 334.931 190.999C334.75 190.632 334.659 190.17 334.659 189.614V185.455H335.664V189.545C335.664 190.023 335.798 190.403 336.065 190.688C336.335 190.972 336.679 191.114 337.096 191.114C337.346 191.114 337.6 191.05 337.859 190.922C338.12 190.794 338.339 190.598 338.515 190.334C338.694 190.07 338.784 189.733 338.784 189.324ZM344.376 192.136C343.745 192.136 343.201 191.997 342.744 191.719C342.289 191.438 341.938 191.045 341.691 190.543C341.447 190.037 341.325 189.449 341.325 188.778C341.325 188.108 341.447 187.517 341.691 187.006C341.938 186.491 342.282 186.091 342.722 185.804C343.165 185.514 343.683 185.369 344.273 185.369C344.614 185.369 344.951 185.426 345.283 185.54C345.616 185.653 345.918 185.838 346.191 186.094C346.464 186.347 346.681 186.682 346.843 187.099C347.005 187.517 347.086 188.031 347.086 188.642V189.068H342.04V188.199H346.063C346.063 187.83 345.989 187.5 345.842 187.21C345.697 186.92 345.489 186.692 345.219 186.524C344.952 186.357 344.637 186.273 344.273 186.273C343.873 186.273 343.526 186.372 343.234 186.571C342.944 186.767 342.721 187.023 342.565 187.338C342.408 187.653 342.33 187.991 342.33 188.352V188.932C342.33 189.426 342.415 189.845 342.586 190.189C342.759 190.53 342.999 190.79 343.306 190.969C343.613 191.145 343.969 191.233 344.376 191.233C344.64 191.233 344.879 191.196 345.092 191.122C345.308 191.045 345.494 190.932 345.65 190.781C345.806 190.628 345.927 190.437 346.012 190.21L346.984 190.483C346.881 190.812 346.71 191.102 346.468 191.352C346.227 191.599 345.928 191.793 345.573 191.932C345.218 192.068 344.819 192.136 344.376 192.136ZM343.762 184.568L344.802 182.591H345.978L344.648 184.568H343.762ZM353.917 192.153C353.502 192.153 353.126 192.075 352.788 191.919C352.45 191.76 352.181 191.531 351.982 191.233C351.783 190.932 351.684 190.568 351.684 190.142C351.684 189.767 351.758 189.463 351.906 189.23C352.053 188.994 352.251 188.81 352.498 188.676C352.745 188.543 353.018 188.443 353.316 188.378C353.617 188.31 353.92 188.256 354.224 188.216C354.621 188.165 354.944 188.126 355.191 188.101C355.441 188.072 355.623 188.026 355.737 187.96C355.853 187.895 355.911 187.781 355.911 187.619V187.585C355.911 187.165 355.796 186.838 355.566 186.605C355.339 186.372 354.994 186.256 354.531 186.256C354.05 186.256 353.674 186.361 353.401 186.571C353.129 186.781 352.937 187.006 352.826 187.244L351.871 186.903C352.042 186.506 352.269 186.196 352.553 185.974C352.84 185.75 353.153 185.594 353.491 185.506C353.832 185.415 354.167 185.369 354.496 185.369C354.707 185.369 354.948 185.395 355.221 185.446C355.496 185.494 355.762 185.595 356.018 185.749C356.276 185.902 356.491 186.134 356.661 186.443C356.832 186.753 356.917 187.168 356.917 187.688V192H355.911V191.114H355.86C355.792 191.256 355.678 191.408 355.519 191.57C355.36 191.732 355.148 191.869 354.884 191.983C354.62 192.097 354.298 192.153 353.917 192.153ZM354.07 191.25C354.468 191.25 354.803 191.172 355.076 191.016C355.352 190.859 355.559 190.658 355.698 190.411C355.84 190.163 355.911 189.903 355.911 189.631V188.71C355.869 188.761 355.775 188.808 355.63 188.851C355.488 188.891 355.323 188.926 355.136 188.957C354.951 188.986 354.771 189.011 354.594 189.034C354.421 189.054 354.281 189.071 354.173 189.085C353.911 189.119 353.667 189.175 353.44 189.251C353.215 189.325 353.033 189.437 352.894 189.588C352.758 189.736 352.69 189.937 352.69 190.193C352.69 190.543 352.819 190.807 353.077 190.986C353.339 191.162 353.67 191.25 354.07 191.25ZM354.138 184.568L352.809 182.591H353.985L355.025 184.568H354.138ZM363.133 183.273V192H362.127V183.273H363.133ZM366.901 192.153C366.487 192.153 366.11 192.075 365.772 191.919C365.434 191.76 365.165 191.531 364.967 191.233C364.768 190.932 364.668 190.568 364.668 190.142C364.668 189.767 364.742 189.463 364.89 189.23C365.038 188.994 365.235 188.81 365.482 188.676C365.729 188.543 366.002 188.443 366.3 188.378C366.602 188.31 366.904 188.256 367.208 188.216C367.606 188.165 367.928 188.126 368.175 188.101C368.425 188.072 368.607 188.026 368.721 187.96C368.837 187.895 368.896 187.781 368.896 187.619V187.585C368.896 187.165 368.781 186.838 368.55 186.605C368.323 186.372 367.978 186.256 367.515 186.256C367.035 186.256 366.658 186.361 366.386 186.571C366.113 186.781 365.921 187.006 365.81 187.244L364.856 186.903C365.026 186.506 365.254 186.196 365.538 185.974C365.825 185.75 366.137 185.594 366.475 185.506C366.816 185.415 367.151 185.369 367.481 185.369C367.691 185.369 367.933 185.395 368.205 185.446C368.481 185.494 368.746 185.595 369.002 185.749C369.261 185.902 369.475 186.134 369.646 186.443C369.816 186.753 369.901 187.168 369.901 187.688V192H368.896V191.114H368.844C368.776 191.256 368.663 191.408 368.504 191.57C368.344 191.732 368.133 191.869 367.869 191.983C367.604 192.097 367.282 192.153 366.901 192.153ZM367.055 191.25C367.452 191.25 367.788 191.172 368.06 191.016C368.336 190.859 368.543 190.658 368.683 190.411C368.825 190.163 368.896 189.903 368.896 189.631V188.71C368.853 188.761 368.759 188.808 368.614 188.851C368.472 188.891 368.308 188.926 368.12 188.957C367.935 188.986 367.755 189.011 367.579 189.034C367.406 189.054 367.265 189.071 367.157 189.085C366.896 189.119 366.651 189.175 366.424 189.251C366.2 189.325 366.018 189.437 365.879 189.588C365.742 189.736 365.674 189.937 365.674 190.193C365.674 190.543 365.803 190.807 366.062 190.986C366.323 191.162 366.654 191.25 367.055 191.25ZM375.248 192V183.273H378.197C378.882 183.273 379.441 183.396 379.876 183.643C380.314 183.888 380.637 184.219 380.848 184.636C381.058 185.054 381.163 185.52 381.163 186.034C381.163 186.548 381.058 187.016 380.848 187.436C380.64 187.857 380.319 188.192 379.885 188.442C379.45 188.689 378.893 188.812 378.214 188.812H376.1V187.875H378.18C378.649 187.875 379.025 187.794 379.309 187.632C379.593 187.47 379.799 187.251 379.927 186.976C380.058 186.697 380.123 186.384 380.123 186.034C380.123 185.685 380.058 185.372 379.927 185.097C379.799 184.821 379.592 184.605 379.305 184.449C379.018 184.29 378.637 184.21 378.163 184.21H376.305V192H375.248ZM383.735 188.062V192H382.729V183.273H383.735V186.477H383.82C383.973 186.139 384.203 185.871 384.51 185.672C384.82 185.47 385.232 185.369 385.746 185.369C386.192 185.369 386.583 185.459 386.918 185.638C387.253 185.814 387.513 186.085 387.698 186.452C387.885 186.815 387.979 187.278 387.979 187.841V192H386.973V187.909C386.973 187.389 386.838 186.987 386.569 186.703C386.301 186.416 385.931 186.273 385.456 186.273C385.127 186.273 384.831 186.342 384.57 186.482C384.311 186.621 384.107 186.824 383.956 187.091C383.809 187.358 383.735 187.682 383.735 188.062ZM390.232 194.455C390.062 194.455 389.91 194.44 389.776 194.412C389.643 194.386 389.55 194.361 389.499 194.335L389.755 193.449C389.999 193.511 390.215 193.534 390.403 193.517C390.59 193.5 390.756 193.416 390.901 193.266C391.049 193.118 391.184 192.878 391.306 192.545L391.494 192.034L389.073 185.455H390.164L391.971 190.67H392.039L393.846 185.455H394.937L392.158 192.955C392.033 193.293 391.879 193.572 391.694 193.794C391.509 194.018 391.295 194.185 391.05 194.293C390.809 194.401 390.536 194.455 390.232 194.455ZM400.901 186.92L399.997 187.176C399.94 187.026 399.857 186.879 399.746 186.737C399.638 186.592 399.49 186.473 399.303 186.379C399.115 186.286 398.875 186.239 398.582 186.239C398.182 186.239 397.848 186.331 397.581 186.516C397.317 186.697 397.185 186.929 397.185 187.21C397.185 187.46 397.276 187.658 397.457 187.803C397.639 187.947 397.923 188.068 398.31 188.165L399.281 188.403C399.866 188.545 400.303 188.763 400.589 189.055C400.876 189.345 401.02 189.719 401.02 190.176C401.02 190.551 400.912 190.886 400.696 191.182C400.483 191.477 400.185 191.71 399.801 191.881C399.418 192.051 398.972 192.136 398.463 192.136C397.795 192.136 397.243 191.991 396.805 191.702C396.368 191.412 396.091 190.989 395.974 190.432L396.929 190.193C397.02 190.545 397.192 190.81 397.445 190.986C397.7 191.162 398.034 191.25 398.446 191.25C398.915 191.25 399.287 191.151 399.562 190.952C399.841 190.75 399.98 190.509 399.98 190.227C399.98 190 399.901 189.81 399.741 189.656C399.582 189.5 399.338 189.384 399.009 189.307L397.918 189.051C397.318 188.909 396.878 188.689 396.597 188.391C396.318 188.089 396.179 187.713 396.179 187.261C396.179 186.892 396.283 186.565 396.49 186.281C396.7 185.997 396.986 185.774 397.347 185.612C397.71 185.45 398.122 185.369 398.582 185.369C399.23 185.369 399.739 185.511 400.108 185.795C400.48 186.08 400.744 186.455 400.901 186.92ZM402.534 192V185.455H403.539V192H402.534ZM403.045 184.364C402.849 184.364 402.68 184.297 402.538 184.163C402.399 184.03 402.329 183.869 402.329 183.682C402.329 183.494 402.399 183.334 402.538 183.2C402.68 183.067 402.849 183 403.045 183C403.241 183 403.409 183.067 403.548 183.2C403.69 183.334 403.761 183.494 403.761 183.682C403.761 183.869 403.69 184.03 403.548 184.163C403.409 184.297 403.241 184.364 403.045 184.364ZM409.847 194.455V190.994H409.762C409.688 191.114 409.583 191.264 409.447 191.446C409.31 191.625 409.116 191.786 408.863 191.928C408.61 192.067 408.273 192.136 407.853 192.136C407.308 192.136 406.826 191.999 406.408 191.723C405.991 191.445 405.664 191.053 405.428 190.547C405.192 190.038 405.075 189.438 405.075 188.744C405.075 188.057 405.192 187.46 405.428 186.955C405.664 186.449 405.992 186.058 406.413 185.783C406.833 185.507 407.319 185.369 407.87 185.369C408.296 185.369 408.633 185.44 408.88 185.582C409.13 185.722 409.32 185.881 409.451 186.06C409.585 186.236 409.688 186.381 409.762 186.494H409.881V185.455H410.853V194.455H409.847ZM407.989 191.233C408.393 191.233 408.734 191.128 409.012 190.918C409.29 190.705 409.502 190.411 409.647 190.036C409.792 189.658 409.864 189.222 409.864 188.727C409.864 188.239 409.793 187.811 409.651 187.445C409.509 187.075 409.299 186.788 409.021 186.584C408.742 186.376 408.398 186.273 407.989 186.273C407.563 186.273 407.208 186.382 406.924 186.601C406.643 186.817 406.431 187.111 406.289 187.483C406.15 187.852 406.08 188.267 406.08 188.727C406.08 189.193 406.151 189.616 406.293 189.997C406.438 190.375 406.651 190.676 406.933 190.901C407.217 191.122 407.569 191.233 407.989 191.233ZM416.819 189.324V185.455H417.825V192H416.819V190.892H416.751C416.597 191.224 416.359 191.507 416.035 191.74C415.711 191.97 415.302 192.085 414.808 192.085C414.398 192.085 414.035 191.996 413.717 191.817C413.398 191.635 413.148 191.362 412.967 190.999C412.785 190.632 412.694 190.17 412.694 189.614V185.455H413.7V189.545C413.7 190.023 413.833 190.403 414.1 190.688C414.37 190.972 414.714 191.114 415.131 191.114C415.381 191.114 415.636 191.05 415.894 190.922C416.156 190.794 416.374 190.598 416.55 190.334C416.729 190.07 416.819 189.733 416.819 189.324ZM422.411 192.136C421.78 192.136 421.236 191.997 420.779 191.719C420.324 191.438 419.973 191.045 419.726 190.543C419.482 190.037 419.36 189.449 419.36 188.778C419.36 188.108 419.482 187.517 419.726 187.006C419.973 186.491 420.317 186.091 420.757 185.804C421.201 185.514 421.718 185.369 422.309 185.369C422.65 185.369 422.986 185.426 423.319 185.54C423.651 185.653 423.953 185.838 424.226 186.094C424.499 186.347 424.716 186.682 424.878 187.099C425.04 187.517 425.121 188.031 425.121 188.642V189.068H420.076V188.199H424.098C424.098 187.83 424.025 187.5 423.877 187.21C423.732 186.92 423.525 186.692 423.255 186.524C422.988 186.357 422.672 186.273 422.309 186.273C421.908 186.273 421.561 186.372 421.269 186.571C420.979 186.767 420.756 187.023 420.6 187.338C420.444 187.653 420.365 187.991 420.365 188.352V188.932C420.365 189.426 420.451 189.845 420.621 190.189C420.794 190.53 421.034 190.79 421.341 190.969C421.648 191.145 422.005 191.233 422.411 191.233C422.675 191.233 422.914 191.196 423.127 191.122C423.343 191.045 423.529 190.932 423.685 190.781C423.841 190.628 423.962 190.437 424.047 190.21L425.019 190.483C424.917 190.812 424.745 191.102 424.503 191.352C424.262 191.599 423.963 191.793 423.608 191.932C423.253 192.068 422.854 192.136 422.411 192.136ZM430.009 192V191.233L432.89 188.08C433.228 187.71 433.506 187.389 433.725 187.116C433.944 186.841 434.105 186.582 434.211 186.341C434.319 186.097 434.373 185.841 434.373 185.574C434.373 185.267 434.299 185.001 434.151 184.777C434.006 184.553 433.807 184.379 433.554 184.257C433.301 184.135 433.017 184.074 432.702 184.074C432.367 184.074 432.074 184.143 431.824 184.283C431.577 184.419 431.385 184.611 431.249 184.858C431.115 185.105 431.049 185.395 431.049 185.727H430.043C430.043 185.216 430.161 184.767 430.397 184.381C430.632 183.994 430.953 183.693 431.36 183.477C431.769 183.261 432.228 183.153 432.736 183.153C433.248 183.153 433.701 183.261 434.096 183.477C434.49 183.693 434.8 183.984 435.025 184.351C435.249 184.717 435.361 185.125 435.361 185.574C435.361 185.895 435.303 186.209 435.186 186.516C435.073 186.82 434.874 187.159 434.59 187.534C434.309 187.906 433.918 188.361 433.418 188.898L431.458 190.994V191.062H435.515V192H430.009ZM441.042 187.168V188.105H437.223V187.168H441.042ZM442.589 190.21V189.341L446.425 183.273H447.055V184.619H446.629L443.732 189.205V189.273H448.896V190.21H442.589ZM446.697 192V189.946V189.541V183.273H447.703V192H446.697ZM450.51 192V185.455H451.482V186.477H451.567C451.703 186.128 451.924 185.857 452.228 185.663C452.532 185.467 452.897 185.369 453.323 185.369C453.755 185.369 454.114 185.467 454.401 185.663C454.691 185.857 454.917 186.128 455.078 186.477H455.147C455.314 186.139 455.566 185.871 455.901 185.672C456.236 185.47 456.638 185.369 457.107 185.369C457.692 185.369 458.171 185.553 458.543 185.919C458.915 186.283 459.101 186.849 459.101 187.619V192H458.096V187.619C458.096 187.136 457.963 186.791 457.699 186.584C457.435 186.376 457.124 186.273 456.766 186.273C456.306 186.273 455.949 186.412 455.696 186.69C455.444 186.966 455.317 187.315 455.317 187.739V192H454.294V187.517C454.294 187.145 454.174 186.845 453.932 186.618C453.691 186.388 453.38 186.273 452.999 186.273C452.738 186.273 452.493 186.342 452.266 186.482C452.042 186.621 451.86 186.814 451.721 187.061C451.584 187.305 451.516 187.588 451.516 187.909V192H450.51ZM465.576 186.92L464.673 187.176C464.616 187.026 464.532 186.879 464.422 186.737C464.314 186.592 464.166 186.473 463.978 186.379C463.791 186.286 463.551 186.239 463.258 186.239C462.858 186.239 462.524 186.331 462.257 186.516C461.993 186.697 461.86 186.929 461.86 187.21C461.86 187.46 461.951 187.658 462.133 187.803C462.315 187.947 462.599 188.068 462.985 188.165L463.957 188.403C464.542 188.545 464.978 188.763 465.265 189.055C465.552 189.345 465.696 189.719 465.696 190.176C465.696 190.551 465.588 190.886 465.372 191.182C465.159 191.477 464.86 191.71 464.477 191.881C464.093 192.051 463.647 192.136 463.139 192.136C462.471 192.136 461.919 191.991 461.481 191.702C461.044 191.412 460.767 190.989 460.65 190.432L461.605 190.193C461.696 190.545 461.868 190.81 462.12 190.986C462.376 191.162 462.71 191.25 463.122 191.25C463.591 191.25 463.963 191.151 464.238 190.952C464.517 190.75 464.656 190.509 464.656 190.227C464.656 190 464.576 189.81 464.417 189.656C464.258 189.5 464.014 189.384 463.684 189.307L462.593 189.051C461.994 188.909 461.554 188.689 461.272 188.391C460.994 188.089 460.855 187.713 460.855 187.261C460.855 186.892 460.958 186.565 461.166 186.281C461.376 185.997 461.662 185.774 462.022 185.612C462.386 185.45 462.798 185.369 463.258 185.369C463.906 185.369 464.414 185.511 464.784 185.795C465.156 186.08 465.42 186.455 465.576 186.92ZM467.942 192.068C467.732 192.068 467.552 191.993 467.401 191.842C467.251 191.692 467.175 191.511 467.175 191.301C467.175 191.091 467.251 190.911 467.401 190.76C467.552 190.609 467.732 190.534 467.942 190.534C468.153 190.534 468.333 190.609 468.484 190.76C468.634 190.911 468.71 191.091 468.71 191.301C468.71 191.44 468.674 191.568 468.603 191.685C468.535 191.801 468.442 191.895 468.326 191.966C468.212 192.034 468.085 192.068 467.942 192.068Z" fill="black"/>
<path d="M20.0795 239H19.0227C18.9602 238.696 18.8509 238.429 18.6946 238.199C18.5412 237.969 18.3537 237.776 18.1321 237.619C17.9134 237.46 17.6705 237.341 17.4034 237.261C17.1364 237.182 16.858 237.142 16.5682 237.142C16.0398 237.142 15.5611 237.276 15.1321 237.543C14.706 237.81 14.3665 238.203 14.1136 238.723C13.8636 239.243 13.7386 239.881 13.7386 240.636C13.7386 241.392 13.8636 242.03 14.1136 242.55C14.3665 243.07 14.706 243.463 15.1321 243.73C15.5611 243.997 16.0398 244.131 16.5682 244.131C16.858 244.131 17.1364 244.091 17.4034 244.011C17.6705 243.932 17.9134 243.814 18.1321 243.658C18.3537 243.499 18.5412 243.304 18.6946 243.074C18.8509 242.841 18.9602 242.574 19.0227 242.273H20.0795C20 242.719 19.8551 243.118 19.6449 243.47C19.4347 243.822 19.1733 244.122 18.8608 244.369C18.5483 244.614 18.1974 244.8 17.8082 244.928C17.4219 245.055 17.0085 245.119 16.5682 245.119C15.8239 245.119 15.1619 244.938 14.5824 244.574C14.0028 244.21 13.5469 243.693 13.2145 243.023C12.8821 242.352 12.7159 241.557 12.7159 240.636C12.7159 239.716 12.8821 238.92 13.2145 238.25C13.5469 237.58 14.0028 237.062 14.5824 236.699C15.1619 236.335 15.8239 236.153 16.5682 236.153C17.0085 236.153 17.4219 236.217 17.8082 236.345C18.1974 236.473 18.5483 236.661 18.8608 236.908C19.1733 237.152 19.4347 237.45 19.6449 237.803C19.8551 238.152 20 238.551 20.0795 239ZM21.7873 245V236.273H24.7362C25.4208 236.273 25.9805 236.396 26.4151 236.643C26.8526 236.888 27.1765 237.219 27.3867 237.636C27.5969 238.054 27.7021 238.52 27.7021 239.034C27.7021 239.548 27.5969 240.016 27.3867 240.436C27.1793 240.857 26.8583 241.192 26.4237 241.442C25.989 241.689 25.4322 241.812 24.7532 241.812H22.6396V240.875H24.7191C25.1879 240.875 25.5643 240.794 25.8484 240.632C26.1325 240.47 26.3384 240.251 26.4663 239.976C26.5969 239.697 26.6623 239.384 26.6623 239.034C26.6623 238.685 26.5969 238.372 26.4663 238.097C26.3384 237.821 26.131 237.605 25.8441 237.449C25.5572 237.29 25.1765 237.21 24.7021 237.21H22.8441V245H21.7873ZM35.1317 236.273H36.1886V242.051C36.1886 242.648 36.0479 243.18 35.7667 243.649C35.4883 244.115 35.0948 244.483 34.5863 244.753C34.0778 245.02 33.4812 245.153 32.7965 245.153C32.1119 245.153 31.5153 245.02 31.0067 244.753C30.4982 244.483 30.1033 244.115 29.8221 243.649C29.5437 243.18 29.4045 242.648 29.4045 242.051V236.273H30.4613V241.966C30.4613 242.392 30.555 242.771 30.7425 243.104C30.93 243.433 31.1971 243.693 31.5437 243.884C31.8931 244.071 32.3107 244.165 32.7965 244.165C33.2823 244.165 33.6999 244.071 34.0494 243.884C34.3988 243.693 34.6658 243.433 34.8505 243.104C35.038 242.771 35.1317 242.392 35.1317 241.966V236.273Z" fill="black"/>
<path d="M129.057 317V308.273H132.108C132.716 308.273 133.217 308.378 133.612 308.588C134.007 308.795 134.301 309.075 134.494 309.428C134.688 309.777 134.784 310.165 134.784 310.591C134.784 310.966 134.717 311.276 134.584 311.52C134.453 311.764 134.28 311.957 134.064 312.099C133.851 312.241 133.619 312.347 133.369 312.415V312.5C133.636 312.517 133.905 312.611 134.175 312.781C134.445 312.952 134.67 313.196 134.852 313.514C135.034 313.832 135.125 314.222 135.125 314.682C135.125 315.119 135.026 315.513 134.827 315.862C134.628 316.212 134.314 316.489 133.885 316.693C133.456 316.898 132.898 317 132.21 317H129.057ZM130.114 316.062H132.21C132.901 316.062 133.391 315.929 133.68 315.662C133.973 315.392 134.119 315.065 134.119 314.682C134.119 314.386 134.044 314.114 133.893 313.864C133.743 313.611 133.528 313.409 133.25 313.259C132.972 313.105 132.642 313.028 132.261 313.028H130.114V316.062ZM130.114 312.108H132.074C132.392 312.108 132.679 312.045 132.935 311.92C133.193 311.795 133.398 311.619 133.548 311.392C133.702 311.165 133.778 310.898 133.778 310.591C133.778 310.207 133.645 309.882 133.378 309.615C133.111 309.345 132.688 309.21 132.108 309.21H130.114V312.108ZM136.862 317V308.273H139.81C140.492 308.273 141.052 308.389 141.489 308.622C141.927 308.852 142.251 309.169 142.461 309.572C142.671 309.976 142.776 310.435 142.776 310.949C142.776 311.463 142.671 311.919 142.461 312.317C142.251 312.714 141.928 313.027 141.494 313.254C141.059 313.479 140.504 313.591 139.827 313.591H137.441V312.636H139.793C140.259 312.636 140.634 312.568 140.918 312.432C141.205 312.295 141.413 312.102 141.54 311.852C141.671 311.599 141.737 311.298 141.737 310.949C141.737 310.599 141.671 310.294 141.54 310.033C141.41 309.771 141.201 309.57 140.914 309.428C140.627 309.283 140.248 309.21 139.776 309.21H137.918V317H136.862ZM140.969 313.08L143.117 317H141.89L139.776 313.08H140.969ZM151.901 312.636C151.901 313.557 151.735 314.352 151.402 315.023C151.07 315.693 150.614 316.21 150.034 316.574C149.455 316.938 148.793 317.119 148.049 317.119C147.304 317.119 146.642 316.938 146.063 316.574C145.483 316.21 145.027 315.693 144.695 315.023C144.363 314.352 144.196 313.557 144.196 312.636C144.196 311.716 144.363 310.92 144.695 310.25C145.027 309.58 145.483 309.062 146.063 308.699C146.642 308.335 147.304 308.153 148.049 308.153C148.793 308.153 149.455 308.335 150.034 308.699C150.614 309.062 151.07 309.58 151.402 310.25C151.735 310.92 151.901 311.716 151.901 312.636ZM150.878 312.636C150.878 311.881 150.752 311.243 150.499 310.723C150.249 310.203 149.909 309.81 149.48 309.543C149.054 309.276 148.577 309.142 148.049 309.142C147.52 309.142 147.042 309.276 146.613 309.543C146.186 309.81 145.847 310.203 145.594 310.723C145.344 311.243 145.219 311.881 145.219 312.636C145.219 313.392 145.344 314.03 145.594 314.55C145.847 315.07 146.186 315.463 146.613 315.73C147.042 315.997 147.52 316.131 148.049 316.131C148.577 316.131 149.054 315.997 149.48 315.73C149.909 315.463 150.249 315.07 150.499 314.55C150.752 314.03 150.878 313.392 150.878 312.636ZM153.626 317H152.518L155.722 308.273H156.813L160.018 317H158.91L156.302 309.653H156.234L153.626 317ZM154.035 313.591H158.501V314.528H154.035V313.591ZM164.07 317H161.377V308.273H164.19C165.036 308.273 165.761 308.447 166.363 308.797C166.965 309.143 167.427 309.642 167.748 310.293C168.069 310.94 168.229 311.716 168.229 312.619C168.229 313.528 168.067 314.311 167.744 314.967C167.42 315.621 166.948 316.124 166.329 316.476C165.71 316.825 164.957 317 164.07 317ZM162.434 316.062H164.002C164.724 316.062 165.322 315.923 165.796 315.645C166.271 315.366 166.624 314.97 166.857 314.456C167.09 313.942 167.207 313.33 167.207 312.619C167.207 311.915 167.092 311.308 166.862 310.8C166.631 310.288 166.288 309.896 165.83 309.624C165.373 309.348 164.803 309.21 164.121 309.21H162.434V316.062Z" fill="black"/>
<path d="M276.977 308.273V317H275.955L271.199 310.148H271.114V317H270.057V308.273H271.08L275.852 315.142H275.938V308.273H276.977ZM279.45 317H278.342L281.547 308.273H282.637L285.842 317H284.734L282.126 309.653H282.058L279.45 317ZM279.859 313.591H284.325V314.528H279.859V313.591ZM287.201 317V308.273H290.15C290.832 308.273 291.392 308.389 291.829 308.622C292.267 308.852 292.591 309.169 292.801 309.572C293.011 309.976 293.116 310.435 293.116 310.949C293.116 311.463 293.011 311.919 292.801 312.317C292.591 312.714 292.268 313.027 291.833 313.254C291.399 313.479 290.843 313.591 290.167 313.591H287.781V312.636H290.133C290.599 312.636 290.974 312.568 291.258 312.432C291.545 312.295 291.752 312.102 291.88 311.852C292.011 311.599 292.076 311.298 292.076 310.949C292.076 310.599 292.011 310.294 291.88 310.033C291.75 309.771 291.541 309.57 291.254 309.428C290.967 309.283 290.588 309.21 290.116 309.21H288.258V317H287.201ZM291.309 313.08L293.457 317H292.23L290.116 313.08H291.309ZM294.877 317V308.273H297.826C298.508 308.273 299.067 308.389 299.505 308.622C299.942 308.852 300.266 309.169 300.477 309.572C300.687 309.976 300.792 310.435 300.792 310.949C300.792 311.463 300.687 311.919 300.477 312.317C300.266 312.714 299.944 313.027 299.509 313.254C299.075 313.479 298.519 313.591 297.843 313.591H295.457V312.636H297.809C298.275 312.636 298.65 312.568 298.934 312.432C299.221 312.295 299.428 312.102 299.556 311.852C299.687 311.599 299.752 311.298 299.752 310.949C299.752 310.599 299.687 310.294 299.556 310.033C299.425 309.771 299.217 309.57 298.93 309.428C298.643 309.283 298.263 309.21 297.792 309.21H295.934V317H294.877ZM298.985 313.08L301.133 317H299.906L297.792 313.08H298.985ZM309.917 312.636C309.917 313.557 309.75 314.352 309.418 315.023C309.086 315.693 308.63 316.21 308.05 316.574C307.471 316.938 306.809 317.119 306.064 317.119C305.32 317.119 304.658 316.938 304.078 316.574C303.499 316.21 303.043 315.693 302.711 315.023C302.378 314.352 302.212 313.557 302.212 312.636C302.212 311.716 302.378 310.92 302.711 310.25C303.043 309.58 303.499 309.062 304.078 308.699C304.658 308.335 305.32 308.153 306.064 308.153C306.809 308.153 307.471 308.335 308.05 308.699C308.63 309.062 309.086 309.58 309.418 310.25C309.75 310.92 309.917 311.716 309.917 312.636ZM308.894 312.636C308.894 311.881 308.767 311.243 308.515 310.723C308.265 310.203 307.925 309.81 307.496 309.543C307.07 309.276 306.593 309.142 306.064 309.142C305.536 309.142 305.057 309.276 304.628 309.543C304.202 309.81 303.863 310.203 303.61 310.723C303.36 311.243 303.235 311.881 303.235 312.636C303.235 313.392 303.36 314.03 303.61 314.55C303.863 315.07 304.202 315.463 304.628 315.73C305.057 315.997 305.536 316.131 306.064 316.131C306.593 316.131 307.07 315.997 307.496 315.73C307.925 315.463 308.265 315.07 308.515 314.55C308.767 314.03 308.894 313.392 308.894 312.636ZM313.279 317L310.892 308.273H311.966L313.79 315.381H313.875L315.733 308.273H316.926L318.784 315.381H318.87L320.694 308.273H321.767L319.381 317H318.29L316.364 310.045H316.296L314.37 317H313.279Z" fill="black"/>
<path d="M405.83 310.455C405.778 310.023 405.571 309.688 405.207 309.449C404.844 309.21 404.398 309.091 403.869 309.091C403.483 309.091 403.145 309.153 402.855 309.278C402.568 309.403 402.344 309.575 402.182 309.794C402.023 310.013 401.943 310.261 401.943 310.54C401.943 310.773 401.999 310.973 402.109 311.141C402.223 311.305 402.368 311.443 402.544 311.554C402.72 311.662 402.905 311.751 403.098 311.822C403.291 311.891 403.469 311.946 403.631 311.989L404.517 312.227C404.744 312.287 404.997 312.369 405.276 312.474C405.557 312.58 405.825 312.723 406.081 312.905C406.339 313.084 406.553 313.314 406.72 313.595C406.888 313.876 406.972 314.222 406.972 314.631C406.972 315.102 406.848 315.528 406.601 315.909C406.357 316.29 405.999 316.592 405.527 316.817C405.058 317.041 404.489 317.153 403.818 317.153C403.193 317.153 402.652 317.053 402.195 316.851C401.74 316.649 401.382 316.368 401.121 316.007C400.862 315.646 400.716 315.227 400.682 314.75H401.773C401.801 315.08 401.912 315.352 402.105 315.568C402.301 315.781 402.548 315.94 402.847 316.045C403.148 316.148 403.472 316.199 403.818 316.199C404.222 316.199 404.584 316.134 404.905 316.003C405.226 315.869 405.48 315.685 405.668 315.449C405.855 315.21 405.949 314.932 405.949 314.614C405.949 314.324 405.868 314.088 405.706 313.906C405.544 313.724 405.331 313.577 405.067 313.463C404.803 313.349 404.517 313.25 404.21 313.165L403.136 312.858C402.455 312.662 401.915 312.382 401.517 312.018C401.119 311.655 400.92 311.179 400.92 310.591C400.92 310.102 401.053 309.676 401.317 309.312C401.584 308.946 401.942 308.662 402.391 308.46C402.842 308.256 403.347 308.153 403.903 308.153C404.466 308.153 404.966 308.254 405.403 308.456C405.841 308.655 406.188 308.928 406.443 309.274C406.702 309.621 406.838 310.014 406.852 310.455H405.83ZM408.709 317V308.273H413.976V309.21H409.766V312.159H413.703V313.097H409.766V316.062H414.044V317H408.709ZM415.881 317V308.273H418.83C419.515 308.273 420.074 308.396 420.509 308.643C420.946 308.888 421.27 309.219 421.48 309.636C421.691 310.054 421.796 310.52 421.796 311.034C421.796 311.548 421.691 312.016 421.48 312.436C421.273 312.857 420.952 313.192 420.517 313.442C420.083 313.689 419.526 313.812 418.847 313.812H416.733V312.875H418.813C419.282 312.875 419.658 312.794 419.942 312.632C420.226 312.47 420.432 312.251 420.56 311.976C420.691 311.697 420.756 311.384 420.756 311.034C420.756 310.685 420.691 310.372 420.56 310.097C420.432 309.821 420.225 309.605 419.938 309.449C419.651 309.29 419.27 309.21 418.796 309.21H416.938V317H415.881ZM422.966 317H421.858L425.062 308.273H426.153L429.358 317H428.25L425.642 309.653H425.574L422.966 317ZM423.375 313.591H427.841V314.528H423.375V313.591ZM430.717 317V308.273H433.666C434.348 308.273 434.907 308.389 435.345 308.622C435.782 308.852 436.106 309.169 436.316 309.572C436.527 309.976 436.632 310.435 436.632 310.949C436.632 311.463 436.527 311.919 436.316 312.317C436.106 312.714 435.784 313.027 435.349 313.254C434.914 313.479 434.359 313.591 433.683 313.591H431.297V312.636H433.649C434.115 312.636 434.49 312.568 434.774 312.432C435.061 312.295 435.268 312.102 435.396 311.852C435.527 311.599 435.592 311.298 435.592 310.949C435.592 310.599 435.527 310.294 435.396 310.033C435.265 309.771 435.056 309.57 434.77 309.428C434.483 309.283 434.103 309.21 433.632 309.21H431.774V317H430.717ZM434.825 313.08L436.973 317H435.745L433.632 313.08H434.825ZM438.751 317H437.643L440.847 308.273H441.938L445.143 317H444.035L441.427 309.653H441.359L438.751 317ZM439.16 313.591H443.626V314.528H439.16V313.591ZM445.005 309.21V308.273H451.551V309.21H448.806V317H447.75V309.21H445.005ZM454.239 308.273V317H453.182V308.273H454.239ZM463.721 312.636C463.721 313.557 463.555 314.352 463.223 315.023C462.89 315.693 462.434 316.21 461.855 316.574C461.275 316.938 460.613 317.119 459.869 317.119C459.125 317.119 458.463 316.938 457.883 316.574C457.304 316.21 456.848 315.693 456.515 315.023C456.183 314.352 456.017 313.557 456.017 312.636C456.017 311.716 456.183 310.92 456.515 310.25C456.848 309.58 457.304 309.062 457.883 308.699C458.463 308.335 459.125 308.153 459.869 308.153C460.613 308.153 461.275 308.335 461.855 308.699C462.434 309.062 462.89 309.58 463.223 310.25C463.555 310.92 463.721 311.716 463.721 312.636ZM462.699 312.636C462.699 311.881 462.572 311.243 462.319 310.723C462.069 310.203 461.73 309.81 461.301 309.543C460.875 309.276 460.397 309.142 459.869 309.142C459.341 309.142 458.862 309.276 458.433 309.543C458.007 309.81 457.667 310.203 457.414 310.723C457.164 311.243 457.039 311.881 457.039 312.636C457.039 313.392 457.164 314.03 457.414 314.55C457.667 315.07 458.007 315.463 458.433 315.73C458.862 315.997 459.341 316.131 459.869 316.131C460.397 316.131 460.875 315.997 461.301 315.73C461.73 315.463 462.069 315.07 462.319 314.55C462.572 314.03 462.699 313.392 462.699 312.636ZM472.419 308.273V317H471.396L466.64 310.148H466.555V317H465.498V308.273H466.521L471.294 315.142H471.379V308.273H472.419Z" fill="black"/>
<path d="M556.057 317V308.273H561.324V309.21H557.114V312.159H561.051V313.097H557.114V316.062H561.392V317H556.057ZM568.956 308.273H570.013V314.051C570.013 314.648 569.872 315.18 569.591 315.649C569.313 316.115 568.919 316.483 568.411 316.753C567.902 317.02 567.305 317.153 566.621 317.153C565.936 317.153 565.339 317.02 564.831 316.753C564.322 316.483 563.928 316.115 563.646 315.649C563.368 315.18 563.229 314.648 563.229 314.051V308.273H564.286V313.966C564.286 314.392 564.379 314.771 564.567 315.104C564.754 315.433 565.021 315.693 565.368 315.884C565.717 316.071 566.135 316.165 566.621 316.165C567.107 316.165 567.524 316.071 567.874 315.884C568.223 315.693 568.49 315.433 568.675 315.104C568.862 314.771 568.956 314.392 568.956 313.966V308.273ZM572.123 317V308.273H573.18V316.062H577.237V317H572.123ZM578.873 317V308.273H584.14V309.21H579.93V312.159H583.868V313.097H579.93V316.062H584.208V317H578.873ZM586.045 317V308.273H588.994C589.676 308.273 590.235 308.389 590.673 308.622C591.11 308.852 591.434 309.169 591.645 309.572C591.855 309.976 591.96 310.435 591.96 310.949C591.96 311.463 591.855 311.919 591.645 312.317C591.434 312.714 591.112 313.027 590.677 313.254C590.243 313.479 589.687 313.591 589.011 313.591H586.625V312.636H588.977C589.443 312.636 589.818 312.568 590.102 312.432C590.389 312.295 590.596 312.102 590.724 311.852C590.855 311.599 590.92 311.298 590.92 310.949C590.92 310.599 590.855 310.294 590.724 310.033C590.593 309.771 590.385 309.57 590.098 309.428C589.811 309.283 589.431 309.21 588.96 309.21H587.102V317H586.045ZM590.153 313.08L592.301 317H591.074L588.96 313.08H590.153Z" fill="black"/>
<path d="M19.0227 115C18.929 114.713 18.8054 114.456 18.652 114.229C18.5014 113.999 18.321 113.803 18.1108 113.641C17.9034 113.479 17.6676 113.355 17.4034 113.27C17.1392 113.185 16.8494 113.142 16.5341 113.142C16.017 113.142 15.5469 113.276 15.1236 113.543C14.7003 113.81 14.3636 114.203 14.1136 114.723C13.8636 115.243 13.7386 115.881 13.7386 116.636C13.7386 117.392 13.8651 118.03 14.1179 118.55C14.3707 119.07 14.7131 119.463 15.1449 119.73C15.5767 119.997 16.0625 120.131 16.6023 120.131C17.1023 120.131 17.5426 120.024 17.9233 119.811C18.3068 119.595 18.6051 119.291 18.8182 118.899C19.0341 118.504 19.142 118.04 19.142 117.506L19.4659 117.574H16.8409V116.636H20.1648V117.574C20.1648 118.293 20.0114 118.918 19.7045 119.449C19.4006 119.98 18.9801 120.392 18.4432 120.685C17.9091 120.974 17.2955 121.119 16.6023 121.119C15.8295 121.119 15.1506 120.938 14.5653 120.574C13.983 120.21 13.5284 119.693 13.2017 119.023C12.8778 118.352 12.7159 117.557 12.7159 116.636C12.7159 115.946 12.8082 115.325 12.9929 114.774C13.1804 114.22 13.4446 113.749 13.7855 113.359C14.1264 112.97 14.5298 112.672 14.9957 112.464C15.4616 112.257 15.9744 112.153 16.5341 112.153C16.9943 112.153 17.4233 112.223 17.821 112.362C18.2216 112.499 18.5781 112.693 18.8906 112.946C19.206 113.196 19.4688 113.496 19.679 113.845C19.8892 114.192 20.0341 114.577 20.1136 115H19.0227ZM21.9748 121V112.273H24.9237C25.6083 112.273 26.168 112.396 26.6026 112.643C27.0401 112.888 27.364 113.219 27.5742 113.636C27.7844 114.054 27.8896 114.52 27.8896 115.034C27.8896 115.548 27.7844 116.016 27.5742 116.436C27.3668 116.857 27.0458 117.192 26.6112 117.442C26.1765 117.689 25.6197 117.812 24.9407 117.812H22.8271V116.875H24.9066C25.3754 116.875 25.7518 116.794 26.0359 116.632C26.32 116.47 26.5259 116.251 26.6538 115.976C26.7844 115.697 26.8498 115.384 26.8498 115.034C26.8498 114.685 26.7844 114.372 26.6538 114.097C26.5259 113.821 26.3185 113.605 26.0316 113.449C25.7447 113.29 25.364 113.21 24.8896 113.21H23.0316V121H21.9748ZM35.3192 112.273H36.3761V118.051C36.3761 118.648 36.2354 119.18 35.9542 119.649C35.6758 120.115 35.2823 120.483 34.7738 120.753C34.2653 121.02 33.6687 121.153 32.984 121.153C32.2994 121.153 31.7028 121.02 31.1942 120.753C30.6857 120.483 30.2908 120.115 30.0096 119.649C29.7312 119.18 29.592 118.648 29.592 118.051V112.273H30.6488V117.966C30.6488 118.392 30.7425 118.771 30.93 119.104C31.1175 119.433 31.3846 119.693 31.7312 119.884C32.0806 120.071 32.4982 120.165 32.984 120.165C33.4698 120.165 33.8874 120.071 34.2369 119.884C34.5863 119.693 34.8533 119.433 35.038 119.104C35.2255 118.771 35.3192 118.392 35.3192 117.966V112.273Z" fill="black"/>
<path d="M72.5 241H1272" stroke="black" stroke-width="14"/>
<rect x="69.5" y="75.5" width="604" height="83" fill="#D9D9D9" stroke="black"/>
<rect x="674.5" y="75.5" width="604" height="83" fill="#D9D9D9" stroke="black"/>
<rect x="80" y="87" width="112" height="65" fill="#DF8484"/>
<rect x="80" y="207" width="112" height="22" fill="#DF8484"/>
<rect x="200" y="207" width="351" height="22" fill="#3CA932"/>
<rect x="88" y="330" width="122" height="22" fill="#3CA932"/>
<rect x="376" y="330" width="122" height="22" fill="#3CA932"/>
<rect x="235" y="330" width="122" height="22" fill="#3CA932"/>
<rect x="517" y="330" width="122" height="22" fill="#3CA932"/>
<rect x="815" y="207" width="139" height="22" fill="#3CA932"/>
<rect x="560" y="207" width="112" height="22" fill="#D65F5F"/>
<rect x="681" y="207" width="112" height="22" fill="#DF8484"/>
<rect x="565" y="87" width="102" height="65" fill="#D65F5F"/>
<path d="M200.5 229L85.5 313.5" stroke="black"/>
<path d="M550.5 228L633.5 324.5" stroke="black"/>
</svg>
