<svg width="336" height="116" viewBox="0 0 336 116" fill="none" xmlns="http://www.w3.org/2000/svg">
<path d="M144.655 40.5H141.394L148.722 20.1364H152.272L159.6 40.5H156.339L150.582 23.8352H150.422L144.655 40.5ZM145.202 32.5256H155.782V35.1108H145.202V32.5256Z" fill="#C74440"/>
<path d="M2.50073 113.222L332.537 3.21011M332.537 3.21011L312.171 19.3724L306.547 2.5L332.537 3.21011ZM332.537 3.21011L313.191 13.6856L310.775 6.43719L332.537 3.21011Z" stroke="#C74440" stroke-width="5" stroke-miterlimit="10" stroke-linecap="round" stroke-linejoin="round"/>
<path d="M165.854 13.8536C166.05 13.6583 166.05 13.3417 165.854 13.1464L162.672 9.96447C162.477 9.7692 162.16 9.7692 161.965 9.96447C161.77 10.1597 161.77 10.4763 161.965 10.6716L164.794 13.5L161.965 16.3284C161.77 16.5237 161.77 16.8403 161.965 17.0355C162.16 17.2308 162.477 17.2308 162.672 17.0355L165.854 13.8536ZM135.501 13.5V14H165.501V13.5V13H135.501V13.5Z" fill="#C74440"/>
</svg>
