<svg width="749" height="631" viewBox="0 0 749 631" fill="none" xmlns="http://www.w3.org/2000/svg">
<g clip-path="url(#clip0_106_12)">
<rect x="372" y="217.552" width="155.239" height="132.511" transform="rotate(-34.7799 372 217.552)" fill="#4C3636"/>
<path d="M922 576H95.5L779 105.5" stroke="black" stroke-width="8"/>
<path d="M224 497C241.5 512.5 253 546.1 253 564.5" stroke="black" stroke-width="8"/>
<path d="M281.673 527.16C281.133 527.16 280.653 527.066 280.231 526.879C279.809 526.688 279.475 526.407 279.229 526.037C278.987 525.662 278.865 525.196 278.865 524.639C278.865 524.169 278.952 523.775 279.124 523.455C279.297 523.136 279.531 522.879 279.829 522.685C280.126 522.49 280.464 522.343 280.841 522.244C281.223 522.145 281.623 522.076 282.041 522.035C282.533 521.984 282.929 521.936 283.23 521.892C283.531 521.844 283.75 521.775 283.885 521.683C284.021 521.591 284.089 521.455 284.089 521.276V521.243C284.089 520.894 283.979 520.624 283.759 520.433C283.542 520.243 283.234 520.147 282.834 520.147C282.412 520.147 282.076 520.241 281.827 520.428C281.577 520.611 281.412 520.843 281.331 521.121L279.163 520.945C279.273 520.432 279.489 519.988 279.812 519.613C280.135 519.235 280.552 518.945 281.062 518.744C281.575 518.538 282.17 518.435 282.845 518.435C283.315 518.435 283.764 518.49 284.194 518.6C284.627 518.711 285.01 518.881 285.344 519.112C285.682 519.344 285.948 519.641 286.142 520.004C286.337 520.364 286.434 520.795 286.434 521.298V527H284.21V525.828H284.144C284.008 526.092 283.827 526.325 283.599 526.527C283.372 526.725 283.098 526.881 282.779 526.994C282.46 527.105 282.091 527.16 281.673 527.16ZM282.344 525.541C282.689 525.541 282.994 525.473 283.258 525.338C283.522 525.198 283.729 525.011 283.88 524.776C284.03 524.541 284.106 524.275 284.106 523.978V523.081C284.032 523.129 283.931 523.173 283.803 523.213C283.678 523.25 283.537 523.285 283.379 523.318C283.221 523.347 283.063 523.375 282.906 523.4C282.748 523.422 282.605 523.442 282.476 523.461C282.201 523.501 281.961 523.565 281.755 523.653C281.55 523.741 281.39 523.861 281.276 524.011C281.163 524.158 281.106 524.341 281.106 524.562C281.106 524.881 281.221 525.125 281.452 525.294C281.687 525.459 281.985 525.541 282.344 525.541ZM290.598 515.727V527H288.253V515.727H290.598ZM292.476 530.17V518.545H294.788V519.966H294.893C294.995 519.738 295.144 519.507 295.338 519.272C295.537 519.033 295.793 518.835 296.109 518.678C296.428 518.516 296.824 518.435 297.298 518.435C297.914 518.435 298.483 518.597 299.004 518.92C299.525 519.239 299.942 519.722 300.254 520.367C300.566 521.01 300.722 521.815 300.722 522.784C300.722 523.727 300.569 524.523 300.265 525.173C299.964 525.818 299.553 526.308 299.032 526.642C298.514 526.972 297.935 527.138 297.292 527.138C296.837 527.138 296.45 527.062 296.131 526.912C295.815 526.761 295.557 526.573 295.355 526.345C295.153 526.114 294.999 525.881 294.893 525.646H294.821V530.17H292.476ZM294.771 522.773C294.771 523.275 294.841 523.714 294.981 524.088C295.12 524.463 295.322 524.754 295.586 524.963C295.85 525.169 296.171 525.272 296.549 525.272C296.931 525.272 297.254 525.167 297.518 524.958C297.782 524.745 297.982 524.452 298.118 524.077C298.257 523.699 298.327 523.264 298.327 522.773C298.327 522.285 298.259 521.855 298.124 521.485C297.988 521.114 297.788 520.824 297.524 520.615C297.259 520.406 296.935 520.301 296.549 520.301C296.168 520.301 295.845 520.402 295.581 520.604C295.32 520.806 295.12 521.092 294.981 521.463C294.841 521.833 294.771 522.27 294.771 522.773ZM304.63 522.112V527H302.285V515.727H304.563V520.037H304.663C304.853 519.538 305.162 519.147 305.587 518.865C306.013 518.578 306.547 518.435 307.189 518.435C307.776 518.435 308.288 518.564 308.725 518.821C309.165 519.074 309.506 519.439 309.749 519.916C309.994 520.389 310.115 520.956 310.112 521.617V527H307.767V522.035C307.771 521.514 307.639 521.109 307.371 520.819C307.106 520.529 306.736 520.384 306.259 520.384C305.94 520.384 305.657 520.452 305.411 520.588C305.169 520.723 304.978 520.921 304.839 521.182C304.703 521.439 304.633 521.749 304.63 522.112ZM314.368 527.16C313.829 527.16 313.348 527.066 312.926 526.879C312.504 526.688 312.17 526.407 311.924 526.037C311.682 525.662 311.561 525.196 311.561 524.639C311.561 524.169 311.647 523.775 311.819 523.455C311.992 523.136 312.227 522.879 312.524 522.685C312.821 522.49 313.159 522.343 313.537 522.244C313.918 522.145 314.318 522.076 314.737 522.035C315.228 521.984 315.625 521.936 315.926 521.892C316.227 521.844 316.445 521.775 316.581 521.683C316.716 521.591 316.784 521.455 316.784 521.276V521.243C316.784 520.894 316.674 520.624 316.454 520.433C316.238 520.243 315.929 520.147 315.529 520.147C315.107 520.147 314.772 520.241 314.522 520.428C314.273 520.611 314.107 520.843 314.027 521.121L311.858 520.945C311.968 520.432 312.185 519.988 312.508 519.613C312.83 519.235 313.247 518.945 313.757 518.744C314.271 518.538 314.865 518.435 315.54 518.435C316.01 518.435 316.46 518.49 316.889 518.6C317.322 518.711 317.705 518.881 318.039 519.112C318.377 519.344 318.643 519.641 318.837 520.004C319.032 520.364 319.129 520.795 319.129 521.298V527H316.905V525.828H316.839C316.704 526.092 316.522 526.325 316.294 526.527C316.067 526.725 315.794 526.881 315.474 526.994C315.155 527.105 314.786 527.16 314.368 527.16ZM315.039 525.541C315.384 525.541 315.689 525.473 315.953 525.338C316.217 525.198 316.425 525.011 316.575 524.776C316.726 524.541 316.801 524.275 316.801 523.978V523.081C316.727 523.129 316.627 523.173 316.498 523.213C316.373 523.25 316.232 523.285 316.074 523.318C315.916 523.347 315.759 523.375 315.601 523.4C315.443 523.422 315.3 523.442 315.172 523.461C314.896 523.501 314.656 523.565 314.451 523.653C314.245 523.741 314.085 523.861 313.972 524.011C313.858 524.158 313.801 524.341 313.801 524.562C313.801 524.881 313.917 525.125 314.148 525.294C314.383 525.459 314.68 525.541 315.039 525.541ZM325.064 520.516V518.556H332.665V520.516H325.064ZM325.064 524.171V522.211H332.665V524.171H325.064ZM342.803 527.154C341.981 527.154 341.249 527.013 340.607 526.73C339.968 526.444 339.464 526.051 339.093 525.552C338.726 525.05 338.537 524.47 338.526 523.813H340.926C340.941 524.088 341.031 524.33 341.196 524.54C341.365 524.745 341.588 524.905 341.867 525.018C342.146 525.132 342.46 525.189 342.808 525.189C343.172 525.189 343.493 525.125 343.772 524.996C344.051 524.868 344.269 524.69 344.427 524.463C344.585 524.235 344.663 523.973 344.663 523.675C344.663 523.375 344.579 523.108 344.41 522.877C344.245 522.642 344.007 522.459 343.695 522.327C343.386 522.195 343.019 522.129 342.594 522.129H341.542V520.378H342.594C342.953 520.378 343.271 520.316 343.546 520.191C343.825 520.066 344.041 519.894 344.196 519.674C344.35 519.45 344.427 519.189 344.427 518.892C344.427 518.61 344.359 518.362 344.223 518.149C344.091 517.933 343.904 517.764 343.662 517.643C343.423 517.522 343.144 517.461 342.825 517.461C342.502 517.461 342.207 517.52 341.939 517.637C341.671 517.751 341.456 517.914 341.295 518.127C341.133 518.34 341.047 518.589 341.036 518.876H338.752C338.763 518.226 338.948 517.654 339.308 517.158C339.667 516.663 340.152 516.276 340.761 515.997C341.374 515.714 342.065 515.573 342.836 515.573C343.614 515.573 344.295 515.714 344.878 515.997C345.462 516.28 345.915 516.661 346.238 517.142C346.564 517.619 346.726 518.155 346.722 518.749C346.726 519.38 346.529 519.907 346.133 520.329C345.74 520.751 345.229 521.019 344.597 521.132V521.221C345.427 521.327 346.058 521.615 346.491 522.085C346.928 522.551 347.144 523.134 347.14 523.835C347.144 524.477 346.959 525.048 346.584 525.547C346.214 526.046 345.702 526.439 345.049 526.725C344.396 527.011 343.647 527.154 342.803 527.154ZM353.273 527.248C352.327 527.244 351.512 527.011 350.83 526.549C350.151 526.086 349.628 525.417 349.261 524.54C348.898 523.663 348.718 522.608 348.721 521.375C348.721 520.145 348.903 519.098 349.266 518.232C349.633 517.366 350.156 516.707 350.835 516.256C351.518 515.801 352.33 515.573 353.273 515.573C354.217 515.573 355.027 515.801 355.706 516.256C356.389 516.711 356.914 517.371 357.281 518.237C357.648 519.1 357.829 520.145 357.825 521.375C357.825 522.611 357.642 523.668 357.275 524.545C356.912 525.422 356.391 526.092 355.712 526.554C355.033 527.017 354.22 527.248 353.273 527.248ZM353.273 525.272C353.919 525.272 354.435 524.947 354.82 524.297C355.205 523.648 355.396 522.674 355.393 521.375C355.393 520.52 355.305 519.808 355.128 519.239C354.956 518.67 354.71 518.243 354.391 517.956C354.075 517.67 353.703 517.527 353.273 517.527C352.631 517.527 352.118 517.848 351.732 518.49C351.347 519.133 351.152 520.094 351.149 521.375C351.149 522.241 351.235 522.964 351.408 523.543C351.584 524.119 351.831 524.552 352.151 524.842C352.47 525.129 352.844 525.272 353.273 525.272ZM364.505 525.69C364.142 525.69 363.83 525.562 363.569 525.305C363.312 525.048 363.184 524.736 363.184 524.369C363.184 524.009 363.312 523.701 363.569 523.444C363.83 523.187 364.142 523.059 364.505 523.059C364.857 523.059 365.165 523.187 365.43 523.444C365.694 523.701 365.826 524.009 365.826 524.369C365.826 524.611 365.764 524.833 365.639 525.035C365.518 525.233 365.358 525.393 365.16 525.514C364.962 525.631 364.743 525.69 364.505 525.69ZM364.505 520.158C364.142 520.158 363.83 520.03 363.569 519.773C363.312 519.516 363.184 519.204 363.184 518.837C363.184 518.478 363.312 518.171 363.569 517.918C363.83 517.661 364.142 517.533 364.505 517.533C364.857 517.533 365.165 517.661 365.43 517.918C365.694 518.171 365.826 518.478 365.826 518.837C365.826 519.083 365.764 519.307 365.639 519.509C365.518 519.707 365.358 519.865 365.16 519.982C364.962 520.099 364.743 520.158 364.505 520.158ZM371.958 527V518.545H374.303V527H371.958ZM373.136 517.456C372.788 517.456 372.489 517.34 372.239 517.109C371.993 516.874 371.87 516.593 371.87 516.267C371.87 515.944 371.993 515.667 372.239 515.436C372.489 515.201 372.788 515.083 373.136 515.083C373.485 515.083 373.782 515.201 374.028 515.436C374.278 515.667 374.402 515.944 374.402 516.267C374.402 516.593 374.278 516.874 374.028 517.109C373.782 517.34 373.485 517.456 373.136 517.456ZM378.836 515.727V527H376.492V515.727H378.836ZM388.742 527.165C387.876 527.165 387.131 526.982 386.507 526.615C385.887 526.244 385.41 525.73 385.076 525.074C384.746 524.417 384.581 523.661 384.581 522.806C384.581 521.94 384.748 521.18 385.082 520.527C385.419 519.87 385.898 519.358 386.518 518.991C387.139 518.621 387.876 518.435 388.731 518.435C389.469 518.435 390.114 518.569 390.669 518.837C391.223 519.105 391.661 519.481 391.984 519.966C392.307 520.45 392.485 521.019 392.518 521.672H390.305C390.243 521.25 390.078 520.91 389.81 520.654C389.546 520.393 389.199 520.263 388.77 520.263C388.406 520.263 388.089 520.362 387.817 520.56C387.55 520.754 387.34 521.039 387.19 521.413C387.039 521.787 386.964 522.241 386.964 522.773C386.964 523.312 387.038 523.771 387.184 524.149C387.335 524.527 387.546 524.815 387.817 525.013C388.089 525.211 388.406 525.31 388.77 525.31C389.037 525.31 389.278 525.255 389.491 525.145C389.707 525.035 389.885 524.875 390.025 524.666C390.168 524.453 390.261 524.198 390.305 523.901H392.518C392.481 524.547 392.305 525.116 391.99 525.607C391.678 526.095 391.247 526.477 390.696 526.752C390.146 527.028 389.494 527.165 388.742 527.165ZM398.149 527.165C397.294 527.165 396.555 526.983 395.931 526.62C395.311 526.253 394.832 525.743 394.494 525.09C394.157 524.433 393.988 523.672 393.988 522.806C393.988 521.932 394.157 521.169 394.494 520.516C394.832 519.859 395.311 519.349 395.931 518.986C396.555 518.619 397.294 518.435 398.149 518.435C399.004 518.435 399.742 518.619 400.362 518.986C400.986 519.349 401.466 519.859 401.804 520.516C402.142 521.169 402.31 521.932 402.31 522.806C402.31 523.672 402.142 524.433 401.804 525.09C401.466 525.743 400.986 526.253 400.362 526.62C399.742 526.983 399.004 527.165 398.149 527.165ZM398.16 525.349C398.549 525.349 398.874 525.239 399.135 525.018C399.395 524.795 399.591 524.49 399.723 524.105C399.859 523.719 399.927 523.281 399.927 522.789C399.927 522.298 399.859 521.859 399.723 521.474C399.591 521.088 399.395 520.784 399.135 520.56C398.874 520.336 398.549 520.224 398.16 520.224C397.768 520.224 397.437 520.336 397.17 520.56C396.905 520.784 396.705 521.088 396.57 521.474C396.437 521.859 396.371 522.298 396.371 522.789C396.371 523.281 396.437 523.719 396.57 524.105C396.705 524.49 396.905 524.795 397.17 525.018C397.437 525.239 397.768 525.349 398.16 525.349ZM404.145 527V518.545H406.38V520.037H406.479C406.655 519.542 406.949 519.151 407.36 518.865C407.771 518.578 408.262 518.435 408.835 518.435C409.415 518.435 409.908 518.58 410.315 518.87C410.723 519.156 410.994 519.545 411.13 520.037H411.218C411.391 519.553 411.703 519.166 412.154 518.876C412.609 518.582 413.146 518.435 413.767 518.435C414.556 518.435 415.196 518.687 415.688 519.189C416.183 519.689 416.431 520.397 416.431 521.314V527H414.091V521.776C414.091 521.307 413.967 520.954 413.717 520.72C413.468 520.485 413.156 520.367 412.781 520.367C412.356 520.367 412.024 520.503 411.785 520.775C411.547 521.043 411.427 521.397 411.427 521.837V527H409.154V521.727C409.154 521.312 409.035 520.982 408.796 520.736C408.561 520.49 408.251 520.367 407.866 520.367C407.606 520.367 407.371 520.433 407.162 520.566C406.956 520.694 406.793 520.876 406.672 521.11C406.551 521.342 406.49 521.613 406.49 521.925V527H404.145ZM418.593 527V518.545H420.828V520.037H420.927C421.103 519.542 421.396 519.151 421.807 518.865C422.218 518.578 422.71 518.435 423.282 518.435C423.862 518.435 424.356 518.58 424.763 518.87C425.17 519.156 425.442 519.545 425.578 520.037H425.666C425.838 519.553 426.15 519.166 426.602 518.876C427.057 518.582 427.594 518.435 428.214 518.435C429.003 518.435 429.644 518.687 430.135 519.189C430.631 519.689 430.878 520.397 430.878 521.314V527H428.539V521.776C428.539 521.307 428.414 520.954 428.165 520.72C427.915 520.485 427.603 520.367 427.229 520.367C426.803 520.367 426.471 520.503 426.233 520.775C425.994 521.043 425.875 521.397 425.875 521.837V527H423.602V521.727C423.602 521.312 423.482 520.982 423.244 520.736C423.009 520.49 422.699 520.367 422.314 520.367C422.053 520.367 421.818 520.433 421.609 520.566C421.404 520.694 421.24 520.876 421.119 521.11C420.998 521.342 420.938 521.613 420.938 521.925V527H418.593ZM436.894 527.165C436.024 527.165 435.275 526.989 434.648 526.637C434.024 526.281 433.543 525.778 433.206 525.129C432.868 524.475 432.699 523.703 432.699 522.811C432.699 521.942 432.868 521.178 433.206 520.521C433.543 519.865 434.018 519.353 434.631 518.986C435.248 518.619 435.971 518.435 436.8 518.435C437.358 518.435 437.877 518.525 438.358 518.705C438.842 518.881 439.264 519.147 439.624 519.503C439.987 519.859 440.269 520.307 440.471 520.846C440.673 521.382 440.774 522.009 440.774 522.729V523.373H433.635V521.92H438.567C438.567 521.582 438.493 521.283 438.347 521.022C438.2 520.762 437.996 520.558 437.736 520.411C437.479 520.261 437.18 520.186 436.838 520.186C436.483 520.186 436.167 520.268 435.892 520.433C435.62 520.595 435.407 520.813 435.253 521.088C435.099 521.36 435.02 521.663 435.017 521.997V523.378C435.017 523.797 435.094 524.158 435.248 524.463C435.406 524.767 435.628 525.002 435.914 525.167C436.2 525.332 436.539 525.415 436.932 525.415C437.193 525.415 437.431 525.378 437.648 525.305C437.864 525.231 438.049 525.121 438.204 524.974C438.358 524.828 438.475 524.648 438.556 524.435L440.725 524.578C440.614 525.099 440.389 525.554 440.047 525.943C439.71 526.328 439.273 526.629 438.737 526.846C438.205 527.059 437.591 527.165 436.894 527.165ZM444.959 522.112V527H442.614V518.545H444.849V520.037H444.948C445.135 519.545 445.449 519.156 445.889 518.87C446.33 518.58 446.864 518.435 447.491 518.435C448.078 518.435 448.59 518.564 449.027 518.821C449.463 519.078 449.803 519.444 450.045 519.922C450.287 520.395 450.408 520.96 450.408 521.617V527H448.063V522.035C448.067 521.518 447.935 521.114 447.667 520.824C447.399 520.531 447.03 520.384 446.561 520.384C446.245 520.384 445.966 520.452 445.724 520.588C445.486 520.723 445.298 520.921 445.163 521.182C445.031 521.439 444.963 521.749 444.959 522.112ZM456.386 527.165C455.52 527.165 454.775 526.982 454.152 526.615C453.531 526.244 453.054 525.73 452.72 525.074C452.39 524.417 452.225 523.661 452.225 522.806C452.225 521.94 452.392 521.18 452.726 520.527C453.064 519.87 453.542 519.358 454.163 518.991C454.783 518.621 455.52 518.435 456.375 518.435C457.113 518.435 457.759 518.569 458.313 518.837C458.867 519.105 459.305 519.481 459.628 519.966C459.951 520.45 460.129 521.019 460.162 521.672H457.949C457.887 521.25 457.722 520.91 457.454 520.654C457.19 520.393 456.843 520.263 456.414 520.263C456.051 520.263 455.733 520.362 455.462 520.56C455.194 520.754 454.985 521.039 454.834 521.413C454.684 521.787 454.608 522.241 454.608 522.773C454.608 523.312 454.682 523.771 454.829 524.149C454.979 524.527 455.19 524.815 455.462 525.013C455.733 525.211 456.051 525.31 456.414 525.31C456.682 525.31 456.922 525.255 457.135 525.145C457.351 525.035 457.529 524.875 457.669 524.666C457.812 524.453 457.905 524.198 457.949 523.901H460.162C460.126 524.547 459.949 525.116 459.634 525.607C459.322 526.095 458.891 526.477 458.34 526.752C457.79 527.028 457.139 527.165 456.386 527.165ZM465.826 527.165C464.957 527.165 464.208 526.989 463.581 526.637C462.957 526.281 462.476 525.778 462.139 525.129C461.801 524.475 461.632 523.703 461.632 522.811C461.632 521.942 461.801 521.178 462.139 520.521C462.476 519.865 462.951 519.353 463.564 518.986C464.181 518.619 464.904 518.435 465.733 518.435C466.291 518.435 466.81 518.525 467.291 518.705C467.775 518.881 468.197 519.147 468.557 519.503C468.92 519.859 469.202 520.307 469.404 520.846C469.606 521.382 469.707 522.009 469.707 522.729V523.373H462.568V521.92H467.5C467.5 521.582 467.426 521.283 467.28 521.022C467.133 520.762 466.929 520.558 466.669 520.411C466.412 520.261 466.113 520.186 465.771 520.186C465.415 520.186 465.1 520.268 464.825 520.433C464.553 520.595 464.34 520.813 464.186 521.088C464.032 521.36 463.953 521.663 463.95 521.997V523.378C463.95 523.797 464.027 524.158 464.181 524.463C464.338 524.767 464.56 525.002 464.847 525.167C465.133 525.332 465.472 525.415 465.865 525.415C466.126 525.415 466.364 525.378 466.581 525.305C466.797 525.231 466.982 525.121 467.136 524.974C467.291 524.828 467.408 524.648 467.489 524.435L469.657 524.578C469.547 525.099 469.322 525.554 468.98 525.943C468.643 526.328 468.206 526.629 467.67 526.846C467.138 527.059 466.524 527.165 465.826 527.165ZM477.855 527.16C477.316 527.16 476.835 527.066 476.413 526.879C475.991 526.688 475.657 526.407 475.412 526.037C475.169 525.662 475.048 525.196 475.048 524.639C475.048 524.169 475.134 523.775 475.307 523.455C475.479 523.136 475.714 522.879 476.011 522.685C476.309 522.49 476.646 522.343 477.024 522.244C477.406 522.145 477.806 522.076 478.224 522.035C478.716 521.984 479.112 521.936 479.413 521.892C479.714 521.844 479.932 521.775 480.068 521.683C480.204 521.591 480.272 521.455 480.272 521.276V521.243C480.272 520.894 480.162 520.624 479.942 520.433C479.725 520.243 479.417 520.147 479.017 520.147C478.595 520.147 478.259 520.241 478.01 520.428C477.76 520.611 477.595 520.843 477.514 521.121L475.345 520.945C475.456 520.432 475.672 519.988 475.995 519.613C476.318 519.235 476.734 518.945 477.244 518.744C477.758 518.538 478.353 518.435 479.028 518.435C479.498 518.435 479.947 518.49 480.376 518.6C480.809 518.711 481.193 518.881 481.527 519.112C481.864 519.344 482.13 519.641 482.325 520.004C482.519 520.364 482.617 520.795 482.617 521.298V527H480.393V525.828H480.327C480.191 526.092 480.009 526.325 479.782 526.527C479.554 526.725 479.281 526.881 478.962 526.994C478.643 527.105 478.274 527.16 477.855 527.16ZM478.527 525.541C478.872 525.541 479.176 525.473 479.441 525.338C479.705 525.198 479.912 525.011 480.063 524.776C480.213 524.541 480.288 524.275 480.288 523.978V523.081C480.215 523.129 480.114 523.173 479.986 523.213C479.861 523.25 479.72 523.285 479.562 523.318C479.404 523.347 479.246 523.375 479.088 523.4C478.931 523.422 478.787 523.442 478.659 523.461C478.384 523.501 478.143 523.565 477.938 523.653C477.732 523.741 477.573 523.861 477.459 524.011C477.345 524.158 477.288 524.341 477.288 524.562C477.288 524.881 477.404 525.125 477.635 525.294C477.87 525.459 478.167 525.541 478.527 525.541ZM488.687 527V515.727H491.032V519.966H491.104C491.206 519.738 491.355 519.507 491.549 519.272C491.748 519.033 492.004 518.835 492.32 518.678C492.639 518.516 493.036 518.435 493.509 518.435C494.125 518.435 494.694 518.597 495.215 518.92C495.736 519.239 496.153 519.722 496.465 520.367C496.777 521.01 496.933 521.815 496.933 522.784C496.933 523.727 496.78 524.523 496.476 525.173C496.175 525.818 495.764 526.308 495.243 526.642C494.725 526.972 494.146 527.138 493.503 527.138C493.048 527.138 492.661 527.062 492.342 526.912C492.026 526.761 491.768 526.573 491.566 526.345C491.364 526.114 491.21 525.881 491.104 525.646H490.999V527H488.687ZM490.982 522.773C490.982 523.275 491.052 523.714 491.192 524.088C491.331 524.463 491.533 524.754 491.797 524.963C492.061 525.169 492.382 525.272 492.76 525.272C493.142 525.272 493.465 525.167 493.729 524.958C493.993 524.745 494.193 524.452 494.329 524.077C494.469 523.699 494.538 523.264 494.538 522.773C494.538 522.285 494.47 521.855 494.335 521.485C494.199 521.114 493.999 520.824 493.735 520.615C493.47 520.406 493.146 520.301 492.76 520.301C492.379 520.301 492.056 520.402 491.792 520.604C491.531 520.806 491.331 521.092 491.192 521.463C491.052 521.833 490.982 522.27 490.982 522.773ZM502.627 527.165C501.772 527.165 501.033 526.983 500.409 526.62C499.789 526.253 499.31 525.743 498.972 525.09C498.635 524.433 498.466 523.672 498.466 522.806C498.466 521.932 498.635 521.169 498.972 520.516C499.31 519.859 499.789 519.349 500.409 518.986C501.033 518.619 501.772 518.435 502.627 518.435C503.482 518.435 504.22 518.619 504.84 518.986C505.464 519.349 505.944 519.859 506.282 520.516C506.62 521.169 506.788 521.932 506.788 522.806C506.788 523.672 506.62 524.433 506.282 525.09C505.944 525.743 505.464 526.253 504.84 526.62C504.22 526.983 503.482 527.165 502.627 527.165ZM502.638 525.349C503.027 525.349 503.352 525.239 503.612 525.018C503.873 524.795 504.069 524.49 504.201 524.105C504.337 523.719 504.405 523.281 504.405 522.789C504.405 522.298 504.337 521.859 504.201 521.474C504.069 521.088 503.873 520.784 503.612 520.56C503.352 520.336 503.027 520.224 502.638 520.224C502.246 520.224 501.915 520.336 501.647 520.56C501.383 520.784 501.183 521.088 501.047 521.474C500.915 521.859 500.849 522.298 500.849 522.789C500.849 523.281 500.915 523.719 501.047 524.105C501.183 524.49 501.383 524.795 501.647 525.018C501.915 525.239 502.246 525.349 502.638 525.349ZM514.045 523.4V518.545H516.39V527H514.138V525.464H514.05C513.859 525.96 513.542 526.358 513.098 526.659C512.658 526.96 512.12 527.11 511.485 527.11C510.92 527.11 510.423 526.982 509.994 526.725C509.564 526.468 509.229 526.103 508.986 525.629C508.748 525.156 508.627 524.589 508.623 523.929V518.545H510.968V523.51C510.972 524.009 511.105 524.404 511.37 524.694C511.634 524.984 511.988 525.129 512.432 525.129C512.715 525.129 512.979 525.064 513.225 524.936C513.47 524.804 513.669 524.609 513.819 524.352C513.973 524.096 514.048 523.778 514.045 523.4ZM522.384 530.347C521.625 530.347 520.973 530.242 520.43 530.033C519.891 529.827 519.461 529.547 519.142 529.191C518.823 528.835 518.616 528.435 518.52 527.991L520.689 527.699C520.755 527.868 520.859 528.026 521.003 528.172C521.146 528.319 521.335 528.437 521.569 528.525C521.808 528.616 522.098 528.662 522.439 528.662C522.949 528.662 523.369 528.538 523.7 528.288C524.034 528.042 524.2 527.629 524.2 527.05V525.503H524.101C523.999 525.738 523.845 525.96 523.639 526.169C523.434 526.378 523.169 526.549 522.846 526.681C522.524 526.813 522.138 526.879 521.691 526.879C521.056 526.879 520.478 526.732 519.957 526.439C519.439 526.141 519.026 525.688 518.718 525.079C518.414 524.466 518.261 523.692 518.261 522.756C518.261 521.798 518.417 520.999 518.729 520.356C519.041 519.714 519.456 519.233 519.973 518.914C520.494 518.595 521.065 518.435 521.685 518.435C522.158 518.435 522.555 518.516 522.874 518.678C523.193 518.835 523.45 519.033 523.645 519.272C523.843 519.507 523.995 519.738 524.101 519.966H524.189V518.545H526.518V527.083C526.518 527.802 526.342 528.404 525.989 528.888C525.637 529.372 525.149 529.736 524.525 529.978C523.905 530.224 523.191 530.347 522.384 530.347ZM522.434 525.118C522.812 525.118 523.131 525.024 523.391 524.837C523.656 524.646 523.857 524.374 523.997 524.022C524.14 523.666 524.212 523.241 524.212 522.745C524.212 522.25 524.142 521.82 524.002 521.457C523.863 521.09 523.661 520.806 523.397 520.604C523.133 520.402 522.812 520.301 522.434 520.301C522.048 520.301 521.724 520.406 521.459 520.615C521.195 520.821 520.995 521.107 520.859 521.474C520.724 521.841 520.656 522.264 520.656 522.745C520.656 523.233 520.724 523.655 520.859 524.011C520.999 524.363 521.199 524.637 521.459 524.831C521.724 525.022 522.048 525.118 522.434 525.118ZM532.547 527.165C531.677 527.165 530.928 526.989 530.301 526.637C529.677 526.281 529.196 525.778 528.859 525.129C528.521 524.475 528.352 523.703 528.352 522.811C528.352 521.942 528.521 521.178 528.859 520.521C529.196 519.865 529.672 519.353 530.284 518.986C530.901 518.619 531.624 518.435 532.453 518.435C533.011 518.435 533.53 518.525 534.011 518.705C534.495 518.881 534.917 519.147 535.277 519.503C535.64 519.859 535.923 520.307 536.124 520.846C536.326 521.382 536.427 522.009 536.427 522.729V523.373H529.288V521.92H534.22C534.22 521.582 534.147 521.283 534 521.022C533.853 520.762 533.649 520.558 533.389 520.411C533.132 520.261 532.833 520.186 532.492 520.186C532.136 520.186 531.82 520.268 531.545 520.433C531.273 520.595 531.061 520.813 530.906 521.088C530.752 521.36 530.673 521.663 530.67 521.997V523.378C530.67 523.797 530.747 524.158 530.901 524.463C531.059 524.767 531.281 525.002 531.567 525.167C531.853 525.332 532.193 525.415 532.585 525.415C532.846 525.415 533.084 525.378 533.301 525.305C533.517 525.231 533.703 525.121 533.857 524.974C534.011 524.828 534.128 524.648 534.209 524.435L536.378 524.578C536.268 525.099 536.042 525.554 535.701 525.943C535.363 526.328 534.926 526.629 534.391 526.846C533.859 527.059 533.244 527.165 532.547 527.165ZM538.267 527V518.545H540.541V520.021H540.629C540.783 519.496 541.042 519.1 541.405 518.832C541.768 518.56 542.186 518.424 542.66 518.424C542.777 518.424 542.904 518.432 543.04 518.446C543.175 518.461 543.295 518.481 543.397 518.507V520.588C543.287 520.555 543.135 520.525 542.941 520.499C542.746 520.474 542.568 520.461 542.407 520.461C542.062 520.461 541.753 520.536 541.482 520.687C541.214 520.833 541.001 521.039 540.843 521.303C540.689 521.567 540.612 521.872 540.612 522.217V527H538.267Z" fill="black"/>
<path d="M445.979 228V219.545H448.214V221.037H448.313C448.489 220.542 448.783 220.151 449.194 219.865C449.605 219.578 450.096 219.435 450.669 219.435C451.249 219.435 451.742 219.58 452.149 219.87C452.557 220.156 452.828 220.545 452.964 221.037H453.052C453.225 220.553 453.537 220.166 453.988 219.876C454.443 219.582 454.98 219.435 455.601 219.435C456.39 219.435 457.03 219.687 457.522 220.189C458.017 220.689 458.265 221.397 458.265 222.314V228H455.925V222.776C455.925 222.307 455.801 221.954 455.551 221.72C455.302 221.485 454.99 221.367 454.615 221.367C454.19 221.367 453.858 221.503 453.619 221.775C453.381 222.043 453.261 222.397 453.261 222.837V228H450.988V222.727C450.988 222.312 450.869 221.982 450.63 221.736C450.395 221.49 450.085 221.367 449.7 221.367C449.44 221.367 449.205 221.433 448.996 221.566C448.79 221.694 448.627 221.876 448.506 222.11C448.385 222.342 448.324 222.613 448.324 222.925V228H445.979ZM464.233 221.516V219.556H471.834V221.516H464.233ZM464.233 225.171V223.211H471.834V225.171H464.233ZM482.709 216.727V228H480.326V218.99H480.26L477.678 220.608V218.494L480.469 216.727H482.709ZM487.535 225.567L487.54 222.754H487.882L490.59 219.545H493.281L489.643 223.795H489.087L487.535 225.567ZM485.41 228V216.727H487.755V228H485.41ZM490.694 228L488.206 224.318L489.77 222.661L493.441 228H490.694ZM497.893 231.347C497.133 231.347 496.482 231.242 495.939 231.033C495.399 230.827 494.97 230.547 494.651 230.191C494.331 229.835 494.124 229.435 494.029 228.991L496.197 228.699C496.263 228.868 496.368 229.026 496.511 229.172C496.654 229.319 496.843 229.437 497.078 229.525C497.317 229.616 497.606 229.662 497.948 229.662C498.458 229.662 498.878 229.538 499.208 229.288C499.542 229.042 499.709 228.629 499.709 228.05V226.503H499.61C499.507 226.738 499.353 226.96 499.148 227.169C498.942 227.378 498.678 227.549 498.355 227.681C498.032 227.813 497.647 227.879 497.199 227.879C496.564 227.879 495.986 227.732 495.465 227.439C494.948 227.141 494.535 226.688 494.227 226.079C493.922 225.466 493.77 224.692 493.77 223.756C493.77 222.798 493.926 221.999 494.238 221.356C494.55 220.714 494.964 220.233 495.482 219.914C496.003 219.595 496.573 219.435 497.194 219.435C497.667 219.435 498.063 219.516 498.383 219.678C498.702 219.835 498.959 220.033 499.153 220.272C499.351 220.507 499.504 220.738 499.61 220.966H499.698V219.545H502.026V228.083C502.026 228.802 501.85 229.404 501.498 229.888C501.146 230.372 500.658 230.736 500.034 230.978C499.414 231.224 498.7 231.347 497.893 231.347ZM497.942 226.118C498.32 226.118 498.639 226.024 498.9 225.837C499.164 225.646 499.366 225.374 499.505 225.022C499.648 224.666 499.72 224.241 499.72 223.745C499.72 223.25 499.65 222.82 499.511 222.457C499.371 222.09 499.17 221.806 498.905 221.604C498.641 221.402 498.32 221.301 497.942 221.301C497.557 221.301 497.232 221.406 496.968 221.615C496.704 221.821 496.504 222.107 496.368 222.474C496.232 222.841 496.164 223.264 496.164 223.745C496.164 224.233 496.232 224.655 496.368 225.011C496.507 225.363 496.707 225.637 496.968 225.831C497.232 226.022 497.557 226.118 497.942 226.118Z" fill="white"/>
<path d="M478.232 439.768C479.209 440.744 480.791 440.744 481.768 439.768L497.678 423.858C498.654 422.882 498.654 421.299 497.678 420.322C496.701 419.346 495.118 419.346 494.142 420.322L480 434.464L465.858 420.322C464.882 419.346 463.299 419.346 462.322 420.322C461.346 421.299 461.346 422.882 462.322 423.858L478.232 439.768ZM480 238H477.5V438H480H482.5V238H480Z" fill="#E73541"/>
<path d="M522.354 378.854C522.549 378.658 522.549 378.342 522.354 378.146L519.172 374.964C518.976 374.769 518.66 374.769 518.464 374.964C518.269 375.16 518.269 375.476 518.464 375.672L521.293 378.5L518.464 381.328C518.269 381.524 518.269 381.84 518.464 382.036C518.66 382.231 518.976 382.231 519.172 382.036L522.354 378.854ZM504 378.5V379H522V378.5V378H504V378.5Z" fill="#E73541"/>
<path d="M372.476 73.0458C371.121 72.7827 369.809 73.6682 369.546 75.0236L365.258 97.1113C364.995 98.4667 365.881 99.7788 367.236 100.042C368.591 100.305 369.903 99.4195 370.167 98.0641L373.978 78.4306L393.611 82.2418C394.967 82.5049 396.279 81.6194 396.542 80.264C396.805 78.9086 395.92 77.5965 394.564 77.3334L372.476 73.0458ZM509 278.5L511.072 277.101L374.072 74.1015L372 75.5L369.928 76.8985L506.928 279.899L509 278.5Z" fill="#1DB42A"/>
<path d="M602.493 184.045V185.807H597.275V184.045H602.493ZM598.469 192.5V183.434C598.469 182.822 598.588 182.313 598.827 181.91C599.069 181.506 599.399 181.203 599.818 181.002C600.236 180.8 600.711 180.699 601.243 180.699C601.603 180.699 601.931 180.726 602.229 180.781C602.529 180.836 602.753 180.886 602.9 180.93L602.482 182.691C602.39 182.662 602.276 182.635 602.14 182.609C602.008 182.583 601.873 182.57 601.733 182.57C601.388 182.57 601.148 182.651 601.012 182.812C600.876 182.97 600.808 183.192 600.808 183.479V192.5H598.469Z" fill="#A02592"/>
<path d="M200.324 478.5V470.045H202.669V478.5H200.324ZM201.502 468.956C201.153 468.956 200.854 468.84 200.605 468.609C200.359 468.374 200.236 468.093 200.236 467.767C200.236 467.444 200.359 467.167 200.605 466.936C200.854 466.701 201.153 466.583 201.502 466.583C201.851 466.583 202.148 466.701 202.394 466.936C202.643 467.167 202.768 467.444 202.768 467.767C202.768 468.093 202.643 468.374 202.394 468.609C202.148 468.84 201.851 468.956 201.502 468.956Z" fill="black"/>
<path d="M34.3242 435.045H36.669V443.918C36.669 444.571 36.5405 445.1 36.2837 445.504C36.0268 445.907 35.658 446.203 35.1773 446.39C34.7003 446.577 34.1297 446.67 33.4655 446.67C33.3848 446.67 33.3077 446.669 33.2343 446.665C33.1572 446.665 33.0765 446.663 32.9921 446.659V444.827C33.0545 444.83 33.1095 444.832 33.1572 444.832C33.2013 444.836 33.249 444.838 33.3004 444.838C33.6783 444.838 33.9425 444.757 34.093 444.595C34.2471 444.438 34.3242 444.199 34.3242 443.88V435.045ZM35.4911 433.956C35.1461 433.956 34.8489 433.84 34.5994 433.609C34.3498 433.374 34.2251 433.093 34.2251 432.767C34.2251 432.444 34.3498 432.167 34.5994 431.936C34.8489 431.701 35.1461 431.583 35.4911 431.583C35.8433 431.583 36.1424 431.701 36.3883 431.936C36.6378 432.167 36.7625 432.444 36.7625 432.767C36.7625 433.093 36.6378 433.374 36.3883 433.609C36.1424 433.84 35.8433 433.956 35.4911 433.956Z" fill="#181318"/>
<path d="M508.462 395.5V384.227H512.909C513.764 384.227 514.493 384.391 515.095 384.717C515.696 385.04 516.155 385.49 516.471 386.066C516.79 386.638 516.95 387.299 516.95 388.047C516.95 388.796 516.788 389.456 516.465 390.029C516.142 390.601 515.674 391.047 515.062 391.366C514.452 391.686 513.715 391.845 512.849 391.845H510.014V389.935H512.464C512.922 389.935 513.3 389.856 513.597 389.699C513.898 389.537 514.122 389.315 514.269 389.032C514.419 388.746 514.495 388.418 514.495 388.047C514.495 387.673 514.419 387.346 514.269 387.067C514.122 386.785 513.898 386.567 513.597 386.412C513.297 386.255 512.915 386.176 512.453 386.176H510.845V395.5H508.462Z" fill="#E73541"/>
<path d="M609.354 175.854C609.549 175.658 609.549 175.342 609.354 175.146L606.172 171.964C605.976 171.769 605.66 171.769 605.464 171.964C605.269 172.16 605.269 172.476 605.464 172.672L608.293 175.5L605.464 178.328C605.269 178.524 605.269 178.84 605.464 179.036C605.66 179.231 605.976 179.231 606.172 179.036L609.354 175.854ZM591 175.5V176H609V175.5V175H591V175.5Z" fill="#A02592"/>
<path d="M210.354 461.854C210.549 461.658 210.549 461.342 210.354 461.146L207.172 457.964C206.976 457.769 206.66 457.769 206.464 457.964C206.269 458.16 206.269 458.476 206.464 458.672L209.293 461.5L206.464 464.328C206.269 464.524 206.269 464.84 206.464 465.036C206.66 465.231 206.976 465.231 207.172 465.036L210.354 461.854ZM192 461.5V462H210V461.5V461H192V461.5Z" fill="black"/>
<path d="M44.3536 426.854C44.5488 426.658 44.5488 426.342 44.3536 426.146L41.1716 422.964C40.9763 422.769 40.6597 422.769 40.4645 422.964C40.2692 423.16 40.2692 423.476 40.4645 423.672L43.2929 426.5L40.4645 429.328C40.2692 429.524 40.2692 429.84 40.4645 430.036C40.6597 430.231 40.9763 430.231 41.1716 430.036L44.3536 426.854ZM26 426.5V427H44V426.5V426H26V426.5Z" fill="black"/>
<path d="M192.466 480.408C192.692 479.046 191.771 477.759 190.408 477.534L168.211 473.858C166.848 473.633 165.561 474.554 165.336 475.917C165.11 477.279 166.032 478.566 167.394 478.791L187.125 482.058L183.858 501.789C183.633 503.152 184.554 504.439 185.917 504.664C187.279 504.89 188.566 503.968 188.791 502.606L192.466 480.408ZM102 543L103.455 545.033L191.455 482.033L190 480L188.545 477.967L100.545 540.967L102 543Z" fill="black"/>
<path d="M45.5273 451.556C44.1777 451.265 42.8475 452.123 42.5562 453.473L37.8093 475.466C37.518 476.816 38.376 478.146 39.7256 478.437C41.0753 478.729 42.4055 477.871 42.6968 476.521L46.9162 456.971L66.4661 461.191C67.8157 461.482 69.1459 460.624 69.4372 459.274C69.7285 457.925 68.8705 456.594 67.5209 456.303L45.5273 451.556ZM103.66 544.95L105.761 543.595L47.1008 452.645L44.9999 454L42.899 455.355L101.559 546.305L103.66 544.95Z" fill="black"/>
<path d="M351.073 62V50.7273H355.52C356.372 50.7273 357.098 50.8796 357.7 51.1841C358.305 51.485 358.766 51.9125 359.081 52.4666C359.401 53.017 359.56 53.6647 359.56 54.4096C359.56 55.1582 359.399 55.8022 359.076 56.3416C358.753 56.8774 358.285 57.2884 357.672 57.5746C357.063 57.8608 356.326 58.0039 355.46 58.0039H352.482V56.0884H355.074C355.529 56.0884 355.907 56.026 356.208 55.9013C356.509 55.7765 356.733 55.5894 356.88 55.3398C357.03 55.0903 357.105 54.7802 357.105 54.4096C357.105 54.0353 357.03 53.7198 356.88 53.4629C356.733 53.206 356.507 53.0115 356.203 52.8794C355.902 52.7437 355.522 52.6758 355.063 52.6758H353.456V62H351.073ZM357.16 56.87L359.962 62H357.331L354.59 56.87H357.16ZM363.545 57.1122V62H361.201V53.5455H363.435V55.0371H363.534C363.722 54.5454 364.035 54.1564 364.476 53.8702C364.916 53.5803 365.45 53.4354 366.077 53.4354C366.665 53.4354 367.176 53.5638 367.613 53.8207C368.05 54.0775 368.389 54.4445 368.631 54.9215C368.874 55.3949 368.995 55.96 368.995 56.6168V62H366.65V57.0352C366.654 56.5178 366.521 56.1141 366.254 55.8242C365.986 55.5307 365.617 55.3839 365.147 55.3839C364.832 55.3839 364.553 55.4518 364.311 55.5875C364.072 55.7233 363.885 55.9215 363.749 56.182C363.617 56.4389 363.549 56.7489 363.545 57.1122Z" fill="#1DB42A"/>
<path d="M368.354 43.3536C368.549 43.1583 368.549 42.8417 368.354 42.6464L365.172 39.4645C364.976 39.2692 364.66 39.2692 364.464 39.4645C364.269 39.6597 364.269 39.9763 364.464 40.1716L367.293 43L364.464 45.8284C364.269 46.0237 364.269 46.3403 364.464 46.5355C364.66 46.7308 364.976 46.7308 365.172 46.5355L368.354 43.3536ZM350 43V43.5H368V43V42.5H350V43Z" fill="#1DB42A"/>
<path d="M595.466 214.408C595.692 213.046 594.771 211.759 593.408 211.534L571.211 207.858C569.848 207.633 568.561 208.554 568.336 209.917C568.11 211.279 569.032 212.566 570.394 212.791L590.125 216.058L586.858 235.789C586.633 237.152 587.554 238.439 588.917 238.664C590.279 238.89 591.566 237.968 591.791 236.606L595.466 214.408ZM505 277L506.455 279.033L594.455 216.033L593 214L591.545 211.967L503.545 274.967L505 277Z" fill="#A02592"/>
</g>
<defs>
<clipPath id="clip0_106_12">
<rect width="749" height="631" fill="white"/>
</clipPath>
</defs>
</svg>
