<?xml version="1.0" encoding="UTF-8"?>
<svg width="820" height="420" viewBox="0 0 820 420" xmlns="http://www.w3.org/2000/svg" font-family="sans-serif">
<defs><marker id="arrB" viewBox="0 0 10 10" refX="8" refY="5" markerWidth="7" markerHeight="7" orient="auto"><path d="M 0 0 L 10 5 L 0 10 z" fill="#2b6cb0"/></marker><marker id="arrR" viewBox="0 0 10 10" refX="8" refY="5" markerWidth="7" markerHeight="7" orient="auto"><path d="M 0 0 L 10 5 L 0 10 z" fill="#c53030"/></marker><marker id="arrG" viewBox="0 0 10 10" refX="8" refY="5" markerWidth="7" markerHeight="7" orient="auto"><path d="M 0 0 L 10 5 L 0 10 z" fill="#2f855a"/></marker><marker id="arrO" viewBox="0 0 10 10" refX="8" refY="5" markerWidth="7" markerHeight="7" orient="auto"><path d="M 0 0 L 10 5 L 0 10 z" fill="#dd6b20"/></marker><marker id="arrK" viewBox="0 0 10 10" refX="8" refY="5" markerWidth="7" markerHeight="7" orient="auto"><path d="M 0 0 L 10 5 L 0 10 z" fill="#7a8a9a"/></marker></defs>
<rect width="820" height="420" fill="white"/>
<text x="410.0" y="28" text-anchor="middle" font-size="16" font-weight="bold" fill="#333">Particules sur GPU : le pipeline compute</text>
<rect x="210" y="58" width="590" height="344" rx="14" fill="#f7fafc" stroke="#7a8a9a" stroke-width="1.6" stroke-dasharray="8 5"/>
<text x="505.0" y="80.0" text-anchor="middle" font-size="12" fill="#7a8a9a" font-weight="bold" font-style="normal">VRAM — les particules ne quittent jamais la carte</text>
<rect x="24" y="170" width="160" height="110" rx="10" fill="#fffaf0" stroke="#dd6b20" stroke-width="1.6"/>
<text x="104.0" y="198.0" text-anchor="middle" font-size="15" fill="#dd6b20" font-weight="bold" font-style="normal">CPU</text>
<text x="104.0" y="222.0" text-anchor="middle" font-size="11" fill="#555" font-weight="normal" font-style="normal">dt, gravité, émission</text>
<text x="104.0" y="242.0" text-anchor="middle" font-size="11" fill="#555" font-weight="normal" font-style="normal">quelques octets</text>
<text x="104.0" y="258.0" text-anchor="middle" font-size="11" fill="#555" font-weight="normal" font-style="normal">par frame</text>
<line x1="186" y1="225" x2="236" y2="175" stroke="#dd6b20" stroke-width="2.5" marker-end="url(#arrO)"/>
<text x="196.0" y="178.0" text-anchor="end" font-size="11" fill="#dd6b20" font-weight="bold" font-style="normal">dispatch</text>
<rect x="240" y="98" width="290" height="170" rx="10" fill="#ebf4ff" stroke="#2b6cb0" stroke-width="1.6"/>
<text x="385.0" y="122.0" text-anchor="middle" font-size="14" fill="#2b6cb0" font-weight="bold" font-style="normal">Compute shader</text>
<text x="385.0" y="140.0" text-anchor="middle" font-size="10" fill="#555" font-weight="normal" font-style="normal">groupes de travail (ici 8 threads par groupe)</text>
<text x="258.0" y="168.0" text-anchor="start" font-size="10" fill="#555" font-weight="normal" font-style="normal">G0</text>
<rect x="285" y="154" width="22" height="18" rx="3" fill="#2b6cb0" fill-opacity="0.8" stroke="#1a4a80"/>
<rect x="313" y="154" width="22" height="18" rx="3" fill="#2b6cb0" fill-opacity="0.8" stroke="#1a4a80"/>
<rect x="341" y="154" width="22" height="18" rx="3" fill="#2b6cb0" fill-opacity="0.8" stroke="#1a4a80"/>
<rect x="369" y="154" width="22" height="18" rx="3" fill="#2b6cb0" fill-opacity="0.8" stroke="#1a4a80"/>
<rect x="397" y="154" width="22" height="18" rx="3" fill="#2b6cb0" fill-opacity="0.8" stroke="#1a4a80"/>
<rect x="425" y="154" width="22" height="18" rx="3" fill="#2b6cb0" fill-opacity="0.8" stroke="#1a4a80"/>
<rect x="453" y="154" width="22" height="18" rx="3" fill="#2b6cb0" fill-opacity="0.8" stroke="#1a4a80"/>
<rect x="481" y="154" width="22" height="18" rx="3" fill="#2b6cb0" fill-opacity="0.8" stroke="#1a4a80"/>
<text x="258.0" y="194.0" text-anchor="start" font-size="10" fill="#555" font-weight="normal" font-style="normal">G1</text>
<rect x="285" y="180" width="22" height="18" rx="3" fill="#2b6cb0" fill-opacity="0.8" stroke="#1a4a80"/>
<rect x="313" y="180" width="22" height="18" rx="3" fill="#2b6cb0" fill-opacity="0.8" stroke="#1a4a80"/>
<rect x="341" y="180" width="22" height="18" rx="3" fill="#2b6cb0" fill-opacity="0.8" stroke="#1a4a80"/>
<rect x="369" y="180" width="22" height="18" rx="3" fill="#2b6cb0" fill-opacity="0.8" stroke="#1a4a80"/>
<rect x="397" y="180" width="22" height="18" rx="3" fill="#2b6cb0" fill-opacity="0.8" stroke="#1a4a80"/>
<rect x="425" y="180" width="22" height="18" rx="3" fill="#2b6cb0" fill-opacity="0.8" stroke="#1a4a80"/>
<rect x="453" y="180" width="22" height="18" rx="3" fill="#2b6cb0" fill-opacity="0.8" stroke="#1a4a80"/>
<rect x="481" y="180" width="22" height="18" rx="3" fill="#2b6cb0" fill-opacity="0.8" stroke="#1a4a80"/>
<text x="258.0" y="220.0" text-anchor="start" font-size="10" fill="#555" font-weight="normal" font-style="normal">G2</text>
<rect x="285" y="206" width="22" height="18" rx="3" fill="#2b6cb0" fill-opacity="0.8" stroke="#1a4a80"/>
<rect x="313" y="206" width="22" height="18" rx="3" fill="#2b6cb0" fill-opacity="0.8" stroke="#1a4a80"/>
<rect x="341" y="206" width="22" height="18" rx="3" fill="#2b6cb0" fill-opacity="0.8" stroke="#1a4a80"/>
<rect x="369" y="206" width="22" height="18" rx="3" fill="#2b6cb0" fill-opacity="0.8" stroke="#1a4a80"/>
<rect x="397" y="206" width="22" height="18" rx="3" fill="#2b6cb0" fill-opacity="0.8" stroke="#1a4a80"/>
<rect x="425" y="206" width="22" height="18" rx="3" fill="#2b6cb0" fill-opacity="0.8" stroke="#1a4a80"/>
<rect x="453" y="206" width="22" height="18" rx="3" fill="#2b6cb0" fill-opacity="0.8" stroke="#1a4a80"/>
<rect x="481" y="206" width="22" height="18" rx="3" fill="#2b6cb0" fill-opacity="0.8" stroke="#1a4a80"/>
<text x="258.0" y="246.0" text-anchor="start" font-size="10" fill="#555" font-weight="normal" font-style="normal">G3</text>
<rect x="285" y="232" width="22" height="18" rx="3" fill="#2b6cb0" fill-opacity="0.8" stroke="#1a4a80"/>
<rect x="313" y="232" width="22" height="18" rx="3" fill="#2b6cb0" fill-opacity="0.8" stroke="#1a4a80"/>
<rect x="341" y="232" width="22" height="18" rx="3" fill="#2b6cb0" fill-opacity="0.8" stroke="#1a4a80"/>
<rect x="369" y="232" width="22" height="18" rx="3" fill="#2b6cb0" fill-opacity="0.8" stroke="#1a4a80"/>
<rect x="397" y="232" width="22" height="18" rx="3" fill="#2b6cb0" fill-opacity="0.8" stroke="#1a4a80"/>
<rect x="425" y="232" width="22" height="18" rx="3" fill="#e2e8f0" fill-opacity="1" stroke="#7a8a9a"/>
<rect x="453" y="232" width="22" height="18" rx="3" fill="#e2e8f0" fill-opacity="1" stroke="#7a8a9a"/>
<rect x="481" y="232" width="22" height="18" rx="3" fill="#e2e8f0" fill-opacity="1" stroke="#7a8a9a"/>
<text x="487.0" y="266.0" text-anchor="middle" font-size="10" fill="#c53030" font-weight="bold" font-style="normal">i ≥ N → return</text>
<rect x="580" y="100" width="200" height="56" rx="10" fill="#f0fff4" stroke="#2f855a" stroke-width="1.6"/>
<text x="680.0" y="124.0" text-anchor="middle" font-size="13" fill="#2f855a" font-weight="bold" font-style="normal">Buffer A</text>
<text x="680.0" y="142.0" text-anchor="middle" font-size="10" fill="#555" font-weight="normal" font-style="normal">état au pas n (lecture)</text>
<rect x="580" y="210" width="200" height="56" rx="10" fill="#fff5f5" stroke="#c53030" stroke-width="1.6"/>
<text x="680.0" y="234.0" text-anchor="middle" font-size="13" fill="#c53030" font-weight="bold" font-style="normal">Buffer B</text>
<text x="680.0" y="252.0" text-anchor="middle" font-size="10" fill="#555" font-weight="normal" font-style="normal">état au pas n+1 (écriture)</text>
<line x1="578" y1="130" x2="534" y2="150" stroke="#2f855a" stroke-width="2.5" marker-end="url(#arrG)"/>
<line x1="532" y1="220" x2="576" y2="236" stroke="#c53030" stroke-width="2.5" marker-end="url(#arrR)"/>
<path d="M 782 150 C 810 170, 810 196, 782 216" fill="none" stroke="#7a8a9a" stroke-width="2" marker-end="url(#arrK)"/>
<path d="M 770 210 C 748 190, 748 176, 770 158" fill="none" stroke="#7a8a9a" stroke-width="2" marker-end="url(#arrK)"/>
<text x="690.0" y="188.0" text-anchor="end" font-size="11" fill="#7a8a9a" font-weight="bold" font-style="normal">ping-pong</text>
<rect x="240" y="310" width="540" height="74" rx="10" fill="#faf5ff" stroke="#6b46c1" stroke-width="1.6"/>
<text x="510.0" y="336.0" text-anchor="middle" font-size="14" fill="#6b46c1" font-weight="bold" font-style="normal">Rendu : vertex + fragment shader</text>
<text x="510.0" y="358.0" text-anchor="middle" font-size="11" fill="#555" font-weight="normal" font-style="normal">lisent le buffer à jour et dessinent les particules → écran</text>
<line x1="680" y1="268" x2="680" y2="306" stroke="#6b46c1" stroke-width="2.5" marker-end="url(#arrB)"/>
</svg>
