<svg width="1424" height="833" viewBox="0 0 1424 833" fill="none" xmlns="http://www.w3.org/2000/svg">
<rect width="154" height="833" fill="#9B9696"/>
<path d="M145.614 372.507C145.614 376.988 149.247 380.622 153.729 380.622C158.211 380.622 161.844 376.988 161.844 372.507C161.844 368.025 158.211 364.392 153.729 364.392C149.247 364.392 145.614 368.025 145.614 372.507ZM192.854 306.646L194.321 306.241L193.371 302.798L191.546 305.869L192.854 306.646ZM225.676 425.543L224.21 425.948L225.481 430.554L227.107 426.061L225.676 425.543ZM268.714 306.646L270.193 306.286L269.001 301.384L267.284 306.128L268.714 306.646ZM297.624 425.543L296.145 425.903L297.294 430.626L299.043 426.091L297.624 425.543ZM343.487 306.646L344.94 306.194L343.642 302.017L342.068 306.098L343.487 306.646ZM380.439 425.543L378.986 425.995L380.418 430.602L381.888 426.007L380.439 425.543ZM418.478 306.646L419.88 306.056L418.284 302.259L417.028 306.182L418.478 306.646ZM468.471 425.543L467.069 426.133L468.885 430.453L469.953 425.89L468.471 425.543ZM496.294 306.646L497.763 306.251L494.812 306.299L496.294 306.646ZM528.246 425.543L526.777 425.938L527.61 429.04L529.482 426.43L528.246 425.543ZM558.17 372.507C558.17 376.988 561.803 380.622 566.285 380.622C570.766 380.622 574.4 376.988 574.4 372.507C574.4 368.025 570.766 364.392 566.285 364.392C561.803 364.392 558.17 368.025 558.17 372.507ZM153.729 372.507L155.037 373.284L194.163 307.423L192.854 306.646L191.546 305.869L152.421 371.73L153.729 372.507ZM192.854 306.646L191.388 307.051L224.21 425.948L225.676 425.543L227.143 425.138L194.321 306.241L192.854 306.646ZM225.676 425.543L227.107 426.061L270.145 307.164L268.714 306.646L267.284 306.128L224.246 425.026L225.676 425.543ZM268.714 306.646L267.236 307.005L296.145 425.903L297.624 425.543L299.102 425.184L270.193 306.286L268.714 306.646ZM297.624 425.543L299.043 426.091L344.907 307.193L343.487 306.646L342.068 306.098L296.204 424.996L297.624 425.543ZM343.487 306.646L342.034 307.097L378.986 425.995L380.439 425.543L381.892 425.092L344.94 306.194L343.487 306.646ZM380.439 425.543L381.888 426.007L419.927 307.109L418.478 306.646L417.028 306.182L378.99 425.08L380.439 425.543ZM418.478 306.646L417.075 307.235L467.069 426.133L468.471 425.543L469.874 424.954L419.88 306.056L418.478 306.646ZM468.471 425.543L469.953 425.89L497.775 306.992L496.294 306.646L494.812 306.299L466.99 425.197L468.471 425.543ZM496.294 306.646L494.824 307.041L526.777 425.938L528.246 425.543L529.715 425.148L497.763 306.251L496.294 306.646ZM528.246 425.543L529.482 426.43L567.521 373.393L566.285 372.507L565.048 371.62L527.01 424.657L528.246 425.543Z" fill="black"/>
<path d="M146.938 183.918C146.938 188.399 150.571 192.033 155.053 192.033C159.535 192.033 163.168 188.399 163.168 183.918C163.168 179.436 159.535 175.803 155.053 175.803C150.571 175.803 146.938 179.436 146.938 183.918ZM210.533 118L211.95 117.446L211.017 115.061L209.369 117.02L210.533 118ZM257.074 237L255.657 237.554L256.887 240.699L258.428 237.694L257.074 237ZM318.101 118L319.54 117.504L318.377 114.128L316.747 117.306L318.101 118ZM359.094 237L357.656 237.496L358.778 240.752L360.429 237.73L359.094 237ZM424.129 118L425.521 117.387L424.276 114.558L422.793 117.27L424.129 118ZM476.526 237L475.133 237.613L476.506 240.73L477.912 237.628L476.526 237ZM530.464 118L531.771 117.221L530.281 114.719L529.078 117.372L530.464 118ZM601.355 237L600.047 237.779L601.751 240.639L602.799 237.479L601.355 237ZM640.807 118L642.229 117.459L640.708 113.464L639.362 117.521L640.807 118ZM686.115 237L684.693 237.541L685.522 239.718L687.182 238.084L686.115 237ZM731.938 183.918C731.938 188.399 735.571 192.033 740.053 192.033C744.535 192.033 748.168 188.399 748.168 183.918C748.168 179.436 744.535 175.803 740.053 175.803C735.571 175.803 731.938 179.436 731.938 183.918ZM155.053 183.918L156.217 184.897L211.697 118.98L210.533 118L209.369 117.02L153.889 182.938L155.053 183.918ZM210.533 118L209.116 118.554L255.657 237.554L257.074 237L258.491 236.446L211.95 117.446L210.533 118ZM257.074 237L258.428 237.694L319.455 118.694L318.101 118L316.747 117.306L255.72 236.306L257.074 237ZM318.101 118L316.663 118.496L357.656 237.496L359.094 237L360.533 236.504L319.54 117.504L318.101 118ZM359.094 237L360.429 237.73L425.464 118.73L424.129 118L422.793 117.27L357.759 236.27L359.094 237ZM424.129 118L422.736 118.613L475.133 237.613L476.526 237L477.918 236.387L425.521 117.387L424.129 118ZM476.526 237L477.912 237.628L531.85 118.628L530.464 118L529.078 117.372L475.14 236.372L476.526 237ZM530.464 118L529.157 118.779L600.047 237.779L601.355 237L602.662 236.221L531.771 117.221L530.464 118ZM601.355 237L602.799 237.479L642.251 118.479L640.807 118L639.362 117.521L599.91 236.521L601.355 237ZM640.807 118L639.385 118.541L684.693 237.541L686.115 237L687.537 236.459L642.229 117.459L640.807 118ZM686.115 237L687.182 238.084L741.12 185.002L740.053 183.918L738.986 182.833L685.048 235.916L686.115 237Z" fill="black"/>
<path d="M146.938 667.918C146.938 672.399 150.571 676.033 155.053 676.033C159.535 676.033 163.168 672.399 163.168 667.918C163.168 663.436 159.535 659.803 155.053 659.803C150.571 659.803 146.938 663.436 146.938 667.918ZM180.659 602L182.156 601.73L181.197 596.414L179.241 601.449L180.659 602ZM202.14 721L200.642 721.27L203.62 721.35L202.14 721ZM230.306 602L231.809 601.761L228.825 601.65L230.306 602ZM249.226 721L247.723 721.239L250.701 721.372L249.226 721ZM279.242 602L280.733 601.697L277.767 601.628L279.242 602ZM303.425 721L301.934 721.303L304.915 721.312L303.425 721ZM328.32 602L329.787 601.597L326.831 601.688L328.32 602ZM361.038 721L359.571 721.403L362.543 721.23L361.038 721ZM379.247 602L380.746 601.737L377.743 601.77L379.247 602ZM400.159 721L398.66 721.263L399.493 726.003L401.536 721.646L400.159 721ZM416.938 667.918C416.938 672.399 420.572 676.033 425.053 676.033C429.535 676.033 433.168 672.399 433.168 667.918C433.168 663.436 429.535 659.803 425.053 659.803C420.572 659.803 416.938 663.436 416.938 667.918ZM155.053 667.918L156.472 668.469L182.077 602.551L180.659 602L179.241 601.449L153.635 667.367L155.053 667.918ZM180.659 602L179.162 602.27L200.642 721.27L202.14 721L203.637 720.73L182.156 601.73L180.659 602ZM202.14 721L203.62 721.35L231.787 602.35L230.306 602L228.825 601.65L200.659 720.65L202.14 721ZM230.306 602L228.803 602.239L247.723 721.239L249.226 721L250.729 720.761L231.809 601.761L230.306 602ZM249.226 721L250.701 721.372L280.717 602.372L279.242 602L277.767 601.628L247.751 720.628L249.226 721ZM279.242 602L277.751 602.303L301.934 721.303L303.425 721L304.916 720.697L280.733 601.697L279.242 602ZM303.425 721L304.915 721.312L329.809 602.312L328.32 602L326.831 601.688L301.936 720.688L303.425 721ZM328.32 602L326.853 602.403L359.571 721.403L361.038 721L362.506 720.597L329.787 601.597L328.32 602ZM361.038 721L362.543 721.23L380.751 602.23L379.247 602L377.743 601.77L359.534 720.77L361.038 721ZM379.247 602L377.749 602.263L398.66 721.263L400.159 721L401.657 720.737L380.746 601.737L379.247 602ZM400.159 721L401.536 721.646L426.431 668.564L425.053 667.918L423.676 667.272L398.781 720.354L400.159 721Z" fill="black"/>
<path d="M1078.09 305.296C1079.38 309.589 1083.9 312.026 1088.2 310.739C1092.49 309.453 1094.93 304.929 1093.64 300.636C1092.35 296.343 1087.83 293.906 1083.54 295.193C1079.24 296.48 1076.81 301.003 1078.09 305.296ZM1119.55 289.5L1120.74 288.546L1120.03 287.67L1118.99 288.087L1119.55 289.5ZM1137.77 312.128L1136.58 313.083L1138.62 315.619L1139.26 312.426L1137.77 312.128ZM1149.51 253.195L1150.73 252.294L1148.69 249.512L1148.02 252.897L1149.51 253.195ZM1182.87 298.61L1181.65 299.51L1183.62 302.195L1184.36 298.947L1182.87 298.61ZM1196.38 239.145L1197.53 238.143L1195.56 235.895L1194.9 238.808L1196.38 239.145ZM1234.79 283.049L1233.64 284.05L1235.81 286.528L1236.29 283.272L1234.79 283.049ZM1243.4 225.054L1244.41 223.918L1242.3 222.046L1241.89 224.831L1243.4 225.054ZM1289.98 266.507L1288.96 267.644L1291.5 269.898L1291.5 266.507L1289.98 266.507ZM1289.98 235L1289.59 233.528L1288.45 233.825L1288.45 235L1289.98 235ZM1328.05 225.054L1328.09 223.533L1327.88 223.528L1327.67 223.582L1328.05 225.054ZM1336.72 227.777C1338.01 232.07 1342.53 234.507 1346.83 233.22C1351.12 231.933 1353.56 227.41 1352.27 223.117C1350.98 218.824 1346.46 216.387 1342.17 217.674C1337.88 218.96 1335.44 223.484 1336.72 227.777ZM1085.87 302.966L1086.43 304.379L1120.12 290.913L1119.55 289.5L1118.99 288.087L1085.3 301.553L1085.87 302.966ZM1119.55 289.5L1118.37 290.454L1136.58 313.083L1137.77 312.128L1138.95 311.174L1120.74 288.546L1119.55 289.5ZM1137.77 312.128L1139.26 312.426L1151 253.492L1149.51 253.195L1148.02 252.897L1136.28 311.831L1137.77 312.128ZM1149.51 253.195L1148.28 254.096L1181.65 299.51L1182.87 298.61L1184.1 297.709L1150.73 252.294L1149.51 253.195ZM1182.87 298.61L1184.36 298.947L1197.87 239.482L1196.38 239.145L1194.9 238.808L1181.39 298.272L1182.87 298.61ZM1196.38 239.145L1195.24 240.147L1233.64 284.05L1234.79 283.049L1235.93 282.047L1197.53 238.143L1196.38 239.145ZM1234.79 283.049L1236.29 283.272L1244.9 225.278L1243.4 225.054L1241.89 224.831L1233.28 282.825L1234.79 283.049ZM1243.4 225.054L1242.38 226.191L1288.96 267.644L1289.98 266.507L1290.99 265.371L1244.41 223.918L1243.4 225.054ZM1289.98 266.507L1291.5 266.507L1291.5 235L1289.98 235L1288.45 235L1288.45 266.507L1289.98 266.507ZM1289.98 235L1290.36 236.472L1328.44 226.526L1328.05 225.054L1327.67 223.582L1289.59 233.528L1289.98 235ZM1328.05 225.054L1328.02 226.575L1344.46 226.968L1344.5 225.447L1344.53 223.926L1328.09 223.533L1328.05 225.054Z" fill="black"/>
<path d="M1324.91 223.58C1320.58 224.713 1317.98 229.147 1319.11 233.483C1320.24 237.819 1324.68 240.416 1329.01 239.283C1333.35 238.151 1335.95 233.717 1334.81 229.381C1333.68 225.045 1329.25 222.448 1324.91 223.58ZM1339.22 265.579L1340.13 266.797L1341.03 266.124L1340.65 265.065L1339.22 265.579ZM1315.95 282.974L1315.04 281.756L1312.44 283.705L1315.6 284.455L1315.95 282.974ZM1374.43 296.809L1375.29 298.067L1378.14 296.124L1374.78 295.329L1374.43 296.809ZM1327.86 328.532L1327 327.274L1324.25 329.149L1327.47 330.002L1327.86 328.532ZM1386.8 344.156L1387.76 345.337L1390.08 343.451L1387.19 342.686L1386.8 344.156ZM1341.55 380.971L1340.59 379.791L1338.04 381.868L1341.28 382.467L1341.55 380.971ZM1399.21 391.641L1400.31 392.692L1402.25 390.657L1399.48 390.145L1399.21 391.641ZM1356.12 436.714L1355.02 435.662L1352.67 438.113L1356.06 438.234L1356.12 436.714ZM1387.6 437.838L1389.09 437.506L1388.83 436.359L1387.66 436.317L1387.6 437.838ZM1396.19 476.245L1397.7 476.336L1397.72 476.122L1397.67 475.913L1396.19 476.245ZM1393.16 484.814C1388.82 485.947 1386.22 490.38 1387.35 494.716C1388.49 499.052 1392.92 501.649 1397.26 500.517C1401.59 499.384 1404.19 494.95 1403.06 490.614C1401.92 486.278 1397.49 483.681 1393.16 484.814ZM1326.96 231.432L1325.53 231.946L1337.79 266.093L1339.22 265.579L1340.65 265.065L1328.39 230.918L1326.96 231.432ZM1339.22 265.579L1338.31 264.36L1315.04 281.756L1315.95 282.974L1316.87 284.193L1340.13 266.797L1339.22 265.579ZM1315.95 282.974L1315.6 284.455L1374.08 298.29L1374.43 296.809L1374.78 295.329L1316.3 281.493L1315.95 282.974ZM1374.43 296.809L1373.58 295.552L1327 327.274L1327.86 328.532L1328.71 329.789L1375.29 298.067L1374.43 296.809ZM1327.86 328.532L1327.47 330.002L1386.41 345.627L1386.8 344.156L1387.19 342.686L1328.25 327.061L1327.86 328.532ZM1386.8 344.156L1385.84 342.976L1340.59 379.791L1341.55 380.971L1342.52 382.151L1387.76 345.337L1386.8 344.156ZM1341.55 380.971L1341.28 382.467L1398.93 393.137L1399.21 391.641L1399.48 390.145L1341.83 379.475L1341.55 380.971ZM1399.21 391.641L1398.11 390.589L1355.02 435.662L1356.12 436.714L1357.22 437.765L1400.31 392.692L1399.21 391.641ZM1356.12 436.714L1356.06 438.234L1387.55 439.358L1387.6 437.838L1387.66 436.317L1356.17 435.193L1356.12 436.714ZM1387.6 437.838L1386.12 438.169L1394.7 476.577L1396.19 476.245L1397.67 475.913L1389.09 437.506L1387.6 437.838ZM1396.19 476.245L1394.67 476.154L1393.69 492.575L1395.21 492.665L1396.72 492.756L1397.7 476.336L1396.19 476.245Z" fill="black"/>
<path d="M1391.94 482.907C1391.16 478.493 1386.95 475.547 1382.54 476.326C1378.12 477.105 1375.18 481.315 1375.96 485.728C1376.74 490.142 1380.95 493.088 1385.36 492.309C1389.77 491.53 1392.72 487.32 1391.94 482.907ZM1351.88 493.255L1350.57 494.027L1351.16 495.035L1352.29 494.721L1351.88 493.255ZM1337.32 468.505L1338.63 467.733L1336.83 464.674L1335.86 468.087L1337.32 468.505ZM1321.12 525.268L1319.77 525.984L1321.55 529.303L1322.58 525.685L1321.12 525.268ZM1294.81 476.009L1296.15 475.293L1294.44 472.092L1293.35 475.555L1294.81 476.009ZM1276.93 533.067L1275.65 533.889L1277.41 536.63L1278.38 533.522L1276.93 533.067ZM1245.87 484.648L1247.15 483.826L1245.21 480.805L1244.39 484.299L1245.87 484.648ZM1232.62 540.889L1231.45 541.857L1233.4 544.226L1234.1 541.238L1232.62 540.889ZM1193.85 493.83L1195.03 492.863L1192.68 490.016L1192.34 493.688L1193.85 493.83ZM1190.93 524.993L1191.14 526.501L1192.33 526.338L1192.45 525.135L1190.93 524.993ZM1155.18 529.878L1154.92 531.379L1155.15 531.417L1155.38 531.386L1155.18 529.878ZM1148.16 525.94C1147.38 521.527 1143.17 518.58 1138.76 519.359C1134.35 520.139 1131.4 524.348 1132.18 528.761C1132.96 533.175 1137.17 536.121 1141.58 535.342C1145.99 534.563 1148.94 530.354 1148.16 525.94ZM1383.95 484.318L1383.54 482.852L1351.47 491.789L1351.88 493.255L1352.29 494.721L1384.36 485.783L1383.95 484.318ZM1351.88 493.255L1353.19 492.483L1338.63 467.733L1337.32 468.505L1336.01 469.276L1350.57 494.027L1351.88 493.255ZM1337.32 468.505L1335.86 468.087L1319.65 524.85L1321.12 525.268L1322.58 525.685L1338.78 468.922L1337.32 468.505ZM1321.12 525.268L1322.46 524.551L1296.15 475.293L1294.81 476.009L1293.46 476.726L1319.77 525.984L1321.12 525.268ZM1294.81 476.009L1293.35 475.555L1275.48 532.612L1276.93 533.067L1278.38 533.522L1296.26 476.464L1294.81 476.009ZM1276.93 533.067L1278.21 532.245L1247.15 483.826L1245.87 484.648L1244.59 485.469L1275.65 533.889L1276.93 533.067ZM1245.87 484.648L1244.39 484.299L1231.14 540.54L1232.62 540.889L1234.1 541.238L1247.35 484.997L1245.87 484.648ZM1232.62 540.889L1233.79 539.922L1195.03 492.863L1193.85 493.83L1192.68 494.798L1231.45 541.857L1232.62 540.889ZM1193.85 493.83L1192.34 493.688L1189.42 524.851L1190.93 524.993L1192.45 525.135L1195.37 493.972L1193.85 493.83ZM1190.93 524.993L1190.72 523.486L1154.97 528.371L1155.18 529.878L1155.38 531.386L1191.14 526.501L1190.93 524.993ZM1155.18 529.878L1155.43 528.378L1140.42 525.85L1140.17 527.351L1139.92 528.851L1154.92 531.379L1155.18 529.878Z" fill="black"/>
<path d="M1080.39 297.703C1076.1 298.995 1073.66 303.521 1074.96 307.813C1076.25 312.104 1080.77 314.536 1085.07 313.245C1089.36 311.953 1091.79 307.427 1090.5 303.135C1089.21 298.844 1084.68 296.412 1080.39 297.703ZM1094.75 334.227L1095.64 335.458L1096.62 334.75L1096.15 333.64L1094.75 334.227ZM1071.69 350.976L1070.8 349.745L1067.73 351.974L1071.49 352.484L1071.69 350.976ZM1129.49 358.815L1130.33 360.08L1133.67 357.847L1129.69 357.307L1129.49 358.815ZM1083.33 389.654L1082.49 388.389L1079.27 390.542L1083.09 391.156L1083.33 389.654ZM1141.58 399.012L1142.52 400.209L1145.26 398.061L1141.83 397.509L1141.58 399.012ZM1096.73 434.174L1095.8 432.977L1092.78 435.344L1096.6 435.69L1096.73 434.174ZM1153.72 439.325L1154.79 440.409L1157.12 438.105L1153.86 437.81L1153.72 439.325ZM1110.98 481.499L1109.91 480.416L1107.11 483.18L1111.04 483.02L1110.98 481.499ZM1142.11 480.232L1143.59 479.854L1143.28 478.662L1142.05 478.712L1142.11 480.232ZM1150.49 512.943L1152.01 513.05L1152.03 512.804L1151.97 512.565L1150.49 512.943ZM1147.14 519.488C1142.85 520.78 1140.41 525.306 1141.71 529.597C1143 533.889 1147.52 536.321 1151.82 535.029C1156.11 533.738 1158.54 529.212 1157.25 524.92C1155.96 520.628 1151.43 518.196 1147.14 519.488ZM1082.73 305.474L1081.32 306.061L1093.35 334.814L1094.75 334.227L1096.15 333.64L1084.13 304.887L1082.73 305.474ZM1094.75 334.227L1093.86 332.996L1070.8 349.745L1071.69 350.976L1072.59 352.207L1095.64 335.458L1094.75 334.227ZM1071.69 350.976L1071.49 352.484L1129.28 360.322L1129.49 358.815L1129.69 357.307L1071.9 349.468L1071.69 350.976ZM1129.49 358.815L1128.64 357.549L1082.49 388.389L1083.33 389.654L1084.18 390.919L1130.33 360.08L1129.49 358.815ZM1083.33 389.654L1083.09 391.156L1141.34 400.514L1141.58 399.012L1141.83 397.509L1083.58 388.152L1083.33 389.654ZM1141.58 399.012L1140.65 397.814L1095.8 432.977L1096.73 434.174L1097.67 435.372L1142.52 400.209L1141.58 399.012ZM1096.73 434.174L1096.6 435.69L1153.58 440.841L1153.72 439.325L1153.86 437.81L1096.87 432.659L1096.73 434.174ZM1153.72 439.325L1152.65 438.242L1109.91 480.416L1110.98 481.499L1112.05 482.582L1154.79 440.409L1153.72 439.325ZM1110.98 481.499L1111.04 483.02L1142.18 481.752L1142.11 480.232L1142.05 478.712L1110.92 479.979L1110.98 481.499ZM1142.11 480.232L1140.64 480.609L1149.02 513.32L1150.49 512.943L1151.97 512.565L1143.59 479.854L1142.11 480.232ZM1150.49 512.943L1148.97 512.835L1147.96 527.151L1149.48 527.259L1150.99 527.366L1152.01 513.05L1150.49 512.943Z" fill="black"/>
<path d="M153.512 373.159L676.053 375.115" stroke="black" stroke-width="0.434727"/>
<path d="M567.589 374.246L567.589 542.246" stroke="black" stroke-width="0.434727"/>
<path d="M153.512 374.246V580.741" stroke="black" stroke-width="0.434727"/>
<path d="M152.592 503.539C152.337 503.794 152.337 504.206 152.592 504.461L156.742 508.611C156.997 508.866 157.41 508.866 157.664 508.611C157.919 508.356 157.919 507.943 157.664 507.689L153.975 504L157.664 500.311C157.919 500.057 157.919 499.644 157.664 499.389C157.41 499.134 156.997 499.134 156.742 499.389L152.592 503.539ZM566.287 504.461C566.542 504.206 566.542 503.794 566.287 503.539L562.137 499.389C561.883 499.134 561.47 499.134 561.215 499.389C560.961 499.644 560.961 500.057 561.215 500.311L564.904 504L561.215 507.689C560.961 507.943 560.961 508.356 561.215 508.611C561.47 508.866 561.883 508.866 562.137 508.611L566.287 504.461ZM153.053 504V504.652H565.826V504V503.348H153.053V504Z" fill="black"/>
<path d="M493.993 63.9393C493.407 64.5251 493.407 65.4749 493.993 66.0607L503.539 75.6066C504.124 76.1924 505.074 76.1924 505.66 75.6066C506.246 75.0208 506.246 74.0711 505.66 73.4853L497.175 65L505.66 56.5147C506.246 55.9289 506.246 54.9792 505.66 54.3934C505.074 53.8076 504.124 53.8076 503.539 54.3934L493.993 63.9393ZM739.553 65V63.5H495.053V65V66.5H739.553V65Z" fill="black"/>
<path d="M354.11 546V537.273H355.167V545.062H359.224V546H354.11ZM363.553 546.119C362.911 546.119 362.364 545.945 361.913 545.595C361.461 545.243 361.116 544.733 360.877 544.065C360.638 543.395 360.519 542.585 360.519 541.636C360.519 540.693 360.638 539.888 360.877 539.22C361.119 538.55 361.465 538.038 361.917 537.686C362.371 537.331 362.917 537.153 363.553 537.153C364.19 537.153 364.734 537.331 365.185 537.686C365.64 538.038 365.986 538.55 366.225 539.22C366.467 539.888 366.587 540.693 366.587 541.636C366.587 542.585 366.468 543.395 366.229 544.065C365.991 544.733 365.646 545.243 365.194 545.595C364.742 545.945 364.195 546.119 363.553 546.119ZM363.553 545.182C364.19 545.182 364.684 544.875 365.036 544.261C365.388 543.648 365.565 542.773 365.565 541.636C365.565 540.881 365.484 540.237 365.322 539.706C365.163 539.175 364.932 538.77 364.631 538.491C364.333 538.213 363.974 538.074 363.553 538.074C362.923 538.074 362.43 538.385 362.075 539.007C361.719 539.626 361.542 540.503 361.542 541.636C361.542 542.392 361.621 543.034 361.78 543.562C361.94 544.091 362.168 544.493 362.467 544.768C362.768 545.044 363.13 545.182 363.553 545.182Z" fill="black"/>
<path d="M670.614 770.939C671.2 771.525 671.2 772.475 670.614 773.061L661.068 782.607C660.482 783.192 659.532 783.192 658.947 782.607C658.361 782.021 658.361 781.071 658.947 780.485L667.432 772L658.947 763.515C658.361 762.929 658.361 761.979 658.947 761.393C659.532 760.808 660.482 760.808 661.068 761.393L670.614 770.939ZM425.053 772V770.5H669.553V772V773.5H425.053V772Z" fill="black"/>
<circle cx="1083.55" cy="298.5" r="27.5" fill="#917F7F"/>
<circle cx="1327.55" cy="223.5" r="27.5" fill="#917F7F"/>
<circle cx="1150.55" cy="521.5" r="27.5" fill="#917F7F"/>
<circle cx="1394.55" cy="485.5" r="27.5" fill="#917F7F"/>
</svg>
