<svg width="835" height="599" viewBox="0 0 835 599" fill="none" xmlns="http://www.w3.org/2000/svg">
<g clip-path="url(#clip0_67_2)">
<path d="M835 0H-365V800H835V0Z" fill="white"/>
<path d="M32 0V800" stroke="black" stroke-opacity="0.11" stroke-width="2" stroke-miterlimit="10"/>
<path d="M72 0V800" stroke="black" stroke-opacity="0.11" stroke-width="2" stroke-miterlimit="10"/>
<path d="M114 0V800" stroke="black" stroke-opacity="0.11" stroke-width="2" stroke-miterlimit="10"/>
<path d="M154 0V800" stroke="black" stroke-opacity="0.11" stroke-width="2" stroke-miterlimit="10"/>
<path d="M196 0V800" stroke="black" stroke-opacity="0.11" stroke-width="2" stroke-miterlimit="10"/>
<path d="M278 0V800" stroke="black" stroke-opacity="0.11" stroke-width="2" stroke-miterlimit="10"/>
<path d="M318 0V800" stroke="black" stroke-opacity="0.11" stroke-width="2" stroke-miterlimit="10"/>
<path d="M360 0V800" stroke="black" stroke-opacity="0.11" stroke-width="2" stroke-miterlimit="10"/>
<path d="M400 0V800" stroke="black" stroke-opacity="0.11" stroke-width="2" stroke-miterlimit="10"/>
<path d="M442 0V800" stroke="black" stroke-opacity="0.11" stroke-width="2" stroke-miterlimit="10"/>
<path d="M484 0V800" stroke="black" stroke-opacity="0.11" stroke-width="2" stroke-miterlimit="10"/>
<path d="M524 0V800" stroke="black" stroke-opacity="0.11" stroke-width="2" stroke-miterlimit="10"/>
<path d="M566 0V800" stroke="black" stroke-opacity="0.11" stroke-width="2" stroke-miterlimit="10"/>
<path d="M606 0V800" stroke="black" stroke-opacity="0.11" stroke-width="2" stroke-miterlimit="10"/>
<path d="M648 0V800" stroke="black" stroke-opacity="0.11" stroke-width="2" stroke-miterlimit="10"/>
<path d="M688 0V800" stroke="black" stroke-opacity="0.11" stroke-width="2" stroke-miterlimit="10"/>
<path d="M730 0V800" stroke="black" stroke-opacity="0.11" stroke-width="2" stroke-miterlimit="10"/>
<path d="M770 0V800" stroke="black" stroke-opacity="0.11" stroke-width="2" stroke-miterlimit="10"/>
<path d="M812 0V800" stroke="black" stroke-opacity="0.11" stroke-width="2" stroke-miterlimit="10"/>
<path d="M-365 599H835" stroke="black" stroke-opacity="0.11" stroke-width="2" stroke-miterlimit="10"/>
<path d="M-365 557H835" stroke="black" stroke-opacity="0.11" stroke-width="2" stroke-miterlimit="10"/>
<path d="M-365 517H835" stroke="black" stroke-opacity="0.11" stroke-width="2" stroke-miterlimit="10"/>
<path d="M-365 475H835" stroke="black" stroke-opacity="0.11" stroke-width="2" stroke-miterlimit="10"/>
<path d="M-365 435H835" stroke="black" stroke-opacity="0.11" stroke-width="2" stroke-miterlimit="10"/>
<path d="M-365 353H835" stroke="black" stroke-opacity="0.11" stroke-width="2" stroke-miterlimit="10"/>
<path d="M-365 311H835" stroke="black" stroke-opacity="0.11" stroke-width="2" stroke-miterlimit="10"/>
<path d="M-365 271H835" stroke="black" stroke-opacity="0.11" stroke-width="2" stroke-miterlimit="10"/>
<path d="M-365 229H835" stroke="black" stroke-opacity="0.11" stroke-width="2" stroke-miterlimit="10"/>
<path d="M-365 189H835" stroke="black" stroke-opacity="0.11" stroke-width="2" stroke-miterlimit="10"/>
<path d="M-365 147H835" stroke="black" stroke-opacity="0.11" stroke-width="2" stroke-miterlimit="10"/>
<path d="M-365 107H835" stroke="black" stroke-opacity="0.11" stroke-width="2" stroke-miterlimit="10"/>
<path d="M-365 65H835" stroke="black" stroke-opacity="0.11" stroke-width="2" stroke-miterlimit="10"/>
<path d="M-365 25H835" stroke="black" stroke-opacity="0.11" stroke-width="2" stroke-miterlimit="10"/>
<path d="M72 0V800" stroke="black" stroke-opacity="0.428571" stroke-width="2" stroke-miterlimit="10"/>
<path d="M400 0V800" stroke="black" stroke-opacity="0.428571" stroke-width="2" stroke-miterlimit="10"/>
<path d="M566 0V800" stroke="black" stroke-opacity="0.428571" stroke-width="2" stroke-miterlimit="10"/>
<path d="M730 0V800" stroke="black" stroke-opacity="0.428571" stroke-width="2" stroke-miterlimit="10"/>
<path d="M-365 557H835" stroke="black" stroke-opacity="0.428571" stroke-width="2" stroke-miterlimit="10"/>
<path d="M-365 229H835" stroke="black" stroke-opacity="0.428571" stroke-width="2" stroke-miterlimit="10"/>
<path d="M-365 65H835" stroke="black" stroke-opacity="0.428571" stroke-width="2" stroke-miterlimit="10"/>
<path d="M237 0V800" stroke="black" stroke-opacity="0.25" stroke-width="4" stroke-miterlimit="10"/>
<g opacity="0.2">
<path d="M-365 394H835" stroke="black" stroke-opacity="0.9" stroke-width="4" stroke-miterlimit="10"/>
</g>
<path d="M212.651 427.842L210.806 430.208L210.816 430.215L212.651 427.842ZM209.717 423.508L206.891 424.514L206.892 424.517L209.717 423.508ZM209.717 409.78L206.895 408.763L206.892 408.77L209.717 409.78ZM212.663 405.433L214.508 407.799L214.51 407.797L212.663 405.433ZM221.924 405.433L220.07 407.792L220.078 407.798L220.086 407.804L221.924 405.433ZM224.87 409.78L222.044 410.786L222.046 410.793L222.049 410.8L224.87 409.78ZM224.882 423.508L227.707 424.517L227.708 424.514L224.882 423.508ZM221.948 427.842L223.784 430.215L223.793 430.208L221.948 427.842ZM221.501 424.063L218.9 422.57L218.9 422.57L221.501 424.063ZM222.31 411.156L219.436 412.017L219.438 412.024L219.441 412.031L222.31 411.156ZM220.354 407.715L218.307 409.908L218.312 409.913L218.318 409.918L220.354 407.715ZM213.11 409.176L215.712 410.668L215.715 410.663L213.11 409.176ZM212.277 422.083L209.404 422.948L209.404 422.948L212.277 422.083ZM214.221 425.5L212.185 427.704L212.19 427.708L212.195 427.713L214.221 425.5ZM217.3 429.327V426.327C216.058 426.327 215.176 426.003 214.487 425.469L212.651 427.842L210.816 430.215C212.686 431.662 214.903 432.327 217.3 432.327V429.327ZM212.651 427.842L214.496 425.477C213.761 424.903 213.072 423.981 212.542 422.498L209.717 423.508L206.892 424.517C207.714 426.817 208.982 428.785 210.806 430.208L212.651 427.842ZM209.717 423.508L212.543 422.502C212.013 421.013 211.703 419.079 211.703 416.626H208.703H205.703C205.703 419.55 206.069 422.204 206.891 424.514L209.717 423.508ZM208.703 416.626H211.703C211.703 414.191 212.013 412.27 212.542 410.79L209.717 409.78L206.892 408.77C206.069 411.073 205.703 413.716 205.703 416.626H208.703ZM209.717 409.78L212.54 410.796C213.079 409.3 213.773 408.372 214.508 407.799L212.663 405.433L210.818 403.067C208.994 404.49 207.724 406.46 206.895 408.763L209.717 409.78ZM212.663 405.433L214.51 407.797C215.216 407.246 216.093 406.924 217.3 406.924V403.924V400.924C214.9 400.924 212.687 401.608 210.816 403.069L212.663 405.433ZM217.3 403.924V406.924C218.507 406.924 219.376 407.246 220.07 407.792L221.924 405.433L223.778 403.075C221.912 401.608 219.698 400.924 217.3 400.924V403.924ZM221.924 405.433L220.086 407.804C220.824 408.376 221.514 409.298 222.044 410.786L224.87 409.78L227.696 408.774C226.873 406.462 225.6 404.486 223.762 403.062L221.924 405.433ZM224.87 409.78L222.049 410.8C222.583 412.277 222.896 414.194 222.896 416.626H225.896H228.896C228.896 413.713 228.525 411.066 227.691 408.759L224.87 409.78ZM225.896 416.626H222.896C222.896 419.079 222.586 421.013 222.056 422.502L224.882 423.508L227.708 424.514C228.531 422.204 228.896 419.55 228.896 416.626H225.896ZM224.882 423.508L222.057 422.498C221.527 423.981 220.838 424.903 220.103 425.477L221.948 427.842L223.793 430.208C225.617 428.785 226.885 426.817 227.707 424.517L224.882 423.508ZM221.948 427.842L220.112 425.469C219.423 426.003 218.541 426.327 217.3 426.327V429.327V432.327C219.696 432.327 221.913 431.662 223.784 430.215L221.948 427.842ZM217.3 426.671V429.671C220.315 429.671 222.642 428.101 224.103 425.557L221.501 424.063L218.9 422.57C218.364 423.503 217.89 423.671 217.3 423.671V426.671ZM221.501 424.063L224.103 425.557C225.475 423.167 225.998 420.083 225.998 416.626H222.998H219.998C219.998 419.607 219.524 421.482 218.9 422.57L221.501 424.063ZM222.998 416.626H225.998C225.998 414.287 225.75 412.152 225.18 410.281L222.31 411.156L219.441 412.031C219.788 413.171 219.998 414.682 219.998 416.626H222.998ZM222.31 411.156L225.184 410.296C224.632 408.451 223.753 406.772 222.391 405.512L220.354 407.715L218.318 409.918C218.662 410.236 219.087 410.851 219.436 412.017L222.31 411.156ZM220.354 407.715L222.401 405.522C220.982 404.197 219.225 403.532 217.3 403.532V406.532V409.532C217.757 409.532 218.036 409.655 218.307 409.908L220.354 407.715ZM217.3 406.532V403.532C214.27 403.532 211.957 405.144 210.504 407.689L213.11 409.176L215.715 410.663C216.275 409.683 216.755 409.532 217.3 409.532V406.532ZM213.11 409.176L210.507 407.684C209.131 410.085 208.601 413.169 208.601 416.626H211.601H214.601C214.601 413.659 215.077 411.777 215.712 410.668L213.11 409.176ZM211.601 416.626H208.601C208.601 418.96 208.844 421.088 209.404 422.948L212.277 422.083L215.149 421.218C214.808 420.083 214.601 418.574 214.601 416.626H211.601ZM212.277 422.083L209.404 422.948C209.956 424.781 210.83 426.451 212.185 427.704L214.221 425.5L216.256 423.296C215.921 422.987 215.499 422.379 215.149 421.218L212.277 422.083ZM214.221 425.5L212.195 427.713C213.624 429.02 215.381 429.671 217.3 429.671V426.671V423.671C216.819 423.671 216.524 423.541 216.246 423.287L214.221 425.5Z" fill="white"/>
<path d="M217.3 429.327C215.48 429.327 213.931 428.832 212.651 427.842C211.371 426.844 210.393 425.399 209.717 423.508C209.041 421.608 208.703 419.314 208.703 416.626C208.703 413.953 209.041 411.671 209.717 409.78C210.401 407.88 211.383 406.431 212.663 405.433C213.951 404.427 215.497 403.924 217.3 403.924C219.103 403.924 220.644 404.427 221.924 405.433C223.212 406.431 224.194 407.88 224.87 409.78C225.554 411.671 225.896 413.953 225.896 416.626C225.896 419.314 225.558 421.608 224.882 423.508C224.206 425.399 223.228 426.844 221.948 427.842C220.668 428.832 219.119 429.327 217.3 429.327ZM217.3 426.671C219.103 426.671 220.503 425.802 221.501 424.063C222.499 422.324 222.998 419.845 222.998 416.626C222.998 414.485 222.769 412.661 222.31 411.156C221.859 409.651 221.207 408.504 220.354 407.715C219.509 406.926 218.491 406.532 217.3 406.532C215.513 406.532 214.116 407.413 213.11 409.176C212.104 410.931 211.601 413.414 211.601 416.626C211.601 418.767 211.826 420.586 212.277 422.083C212.728 423.58 213.376 424.719 214.221 425.5C215.074 426.281 216.1 426.671 217.3 426.671Z" fill="black"/>
<path d="M62.6082 415.297H65.6082V412.297H62.6082V415.297ZM62.6082 417.954V420.954H65.6082V417.954H62.6082ZM51.79 417.954H48.79V420.954H51.79V417.954ZM51.79 415.297V412.297H48.79V415.297H51.79ZM62.6082 415.297H59.6082V417.954H62.6082H65.6082V415.297H62.6082ZM62.6082 417.954V414.954H51.79V417.954V420.954H62.6082V417.954ZM51.79 417.954H54.79V415.297H51.79H48.79V417.954H51.79ZM51.79 415.297V418.297H62.6082V415.297V412.297H51.79V415.297ZM66.4115 428.989H63.4115V431.989H66.4115V428.989ZM66.4115 426.816L64.1965 424.793L63.4115 425.652V426.816H66.4115ZM74.5734 417.881L72.3605 415.856L72.3585 415.858L74.5734 417.881ZM76.9399 415.153L79.2801 417.03L79.2848 417.024L79.2896 417.018L76.9399 415.153ZM78.3163 412.955L75.5722 411.743L75.5689 411.75L75.5656 411.758L78.3163 412.955ZM78.1473 408.524L75.6268 410.151L75.6341 410.162L75.6414 410.173L78.1473 408.524ZM76.4569 407.051L77.762 404.35L77.762 404.35L76.4569 407.051ZM71.5549 407.123L73.0042 409.75L73.0144 409.745L71.5549 407.123ZM69.925 408.753L67.2982 407.304L67.2918 407.316L67.2855 407.328L69.925 408.753ZM69.3575 411.217V414.217H72.3575V411.217H69.3575ZM66.5081 411.217H63.5081V414.217H66.5081V411.217ZM67.5102 407.401L70.071 408.964L70.071 408.964L67.5102 407.401ZM70.2389 404.842L68.8386 402.188L68.831 402.192L70.2389 404.842ZM77.9903 404.842L79.4295 402.209L79.4295 402.209L77.9903 404.842ZM80.6224 407.317L78.064 408.883L80.6224 407.317ZM81.0812 413.45L78.2765 412.385L78.2738 412.393L78.2711 412.4L81.0812 413.45ZM79.3909 416.336L76.9996 414.524L76.9975 414.527L79.3909 416.336ZM76.0706 420.199L78.2619 422.248L78.266 422.244L76.0706 420.199ZM70.5166 426.14L68.3252 424.091L67.5166 424.956V426.14H70.5166ZM70.5166 426.333H67.5166V429.333H70.5166V426.333ZM82.0109 426.333H85.0109V423.333H82.0109V426.333ZM82.0109 428.989V431.989H85.0109V428.989H82.0109ZM66.4115 428.989H69.4115V426.816H66.4115H63.4115V428.989H66.4115ZM66.4115 426.816L68.6264 428.839L76.7883 419.905L74.5734 417.881L72.3585 415.858L64.1965 424.793L66.4115 426.816ZM74.5734 417.881L76.7863 419.907C77.7711 418.831 78.6063 417.87 79.2801 417.03L76.9399 415.153L74.5996 413.276C74.0339 413.981 73.2914 414.839 72.3605 415.856L74.5734 417.881ZM76.9399 415.153L79.2896 417.018C80.0209 416.097 80.637 415.14 81.067 414.153L78.3163 412.955L75.5656 411.758C75.4 412.138 75.0985 412.647 74.5902 413.287L76.9399 415.153ZM78.3163 412.955L81.0604 414.168C81.535 413.094 81.7751 411.956 81.7751 410.782H78.7751H75.7751C75.7751 411.121 75.7094 411.432 75.5722 411.743L78.3163 412.955ZM78.7751 410.782H81.7751C81.7751 409.412 81.4381 408.067 80.6531 406.875L78.1473 408.524L75.6414 410.173C75.6936 410.253 75.7751 410.413 75.7751 410.782H78.7751ZM78.1473 408.524L80.6677 406.897C79.9428 405.774 78.9479 404.923 77.762 404.35L76.4569 407.051L75.1518 409.752C75.3987 409.872 75.5307 410.002 75.6268 410.151L78.1473 408.524ZM76.4569 407.051L77.762 404.35C76.5911 403.784 75.3316 403.532 74.0421 403.532V406.532V409.532C74.5396 409.532 74.89 409.626 75.1518 409.752L76.4569 407.051ZM74.0421 406.532V403.532C72.6696 403.532 71.3212 403.82 70.0955 404.502L71.5549 407.123L73.0144 409.745C73.2053 409.638 73.5151 409.532 74.0421 409.532V406.532ZM71.5549 407.123L70.1057 404.497C68.9097 405.157 67.9581 406.108 67.2982 407.304L69.925 408.753L72.5517 410.203C72.6645 409.998 72.7996 409.863 73.0042 409.75L71.5549 407.123ZM69.925 408.753L67.2855 407.328C66.6307 408.54 66.3575 409.868 66.3575 411.217H69.3575H72.3575C72.3575 410.681 72.4626 410.368 72.5644 410.179L69.925 408.753ZM69.3575 411.217V408.217H66.5081V411.217V414.217H69.3575V411.217ZM66.5081 411.217H69.5081C69.5081 410.246 69.7261 409.529 70.071 408.964L67.5102 407.401L64.9494 405.838C63.9581 407.463 63.5081 409.29 63.5081 411.217H66.5081ZM67.5102 407.401L70.071 408.964C70.4542 408.336 70.9622 407.854 71.6468 407.491L70.2389 404.842L68.831 402.192C67.2134 403.052 65.9023 404.277 64.9494 405.838L67.5102 407.401ZM70.2389 404.842L71.6392 407.495C72.3249 407.133 73.1365 406.924 74.1387 406.924V403.924V400.924C72.2593 400.924 70.471 401.327 68.8386 402.188L70.2389 404.842ZM74.1387 403.924V406.924C75.154 406.924 75.9307 407.135 76.5511 407.474L77.9903 404.842L79.4295 402.209C77.8122 401.325 76.0212 400.924 74.1387 400.924V403.924ZM77.9903 404.842L76.5511 407.474C77.2329 407.847 77.7149 408.313 78.064 408.883L80.6224 407.317L83.1808 405.75C82.2581 404.243 80.9854 403.06 79.4295 402.209L77.9903 404.842ZM80.6224 407.317L78.064 408.883C78.398 409.429 78.5762 410.037 78.5762 410.782H81.5762H84.5762C84.5762 408.983 84.1186 407.281 83.1808 405.75L80.6224 407.317ZM81.5762 410.782H78.5762C78.5762 411.319 78.4803 411.849 78.2765 412.385L81.0812 413.45L83.8859 414.515C84.3421 413.313 84.5762 412.063 84.5762 410.782H81.5762ZM81.0812 413.45L78.2711 412.4C78.0856 412.896 77.7003 413.599 76.9996 414.524L79.3909 416.336L81.7821 418.147C82.6913 416.947 83.4329 415.727 83.8913 414.501L81.0812 413.45ZM79.3909 416.336L76.9975 414.527C76.287 415.467 75.2565 416.672 73.8751 418.155L76.0706 420.199L78.266 422.244C79.718 420.685 80.901 419.313 81.7843 418.145L79.3909 416.336ZM76.0706 420.199L73.8792 418.151L68.3252 424.091L70.5166 426.14L72.708 428.189L78.2619 422.248L76.0706 420.199ZM70.5166 426.14H67.5166V426.333H70.5166H73.5166V426.14H70.5166ZM70.5166 426.333V429.333H82.0109V426.333V423.333H70.5166V426.333ZM82.0109 426.333H79.0109V428.989H82.0109H85.0109V426.333H82.0109ZM82.0109 428.989V425.989H66.4115V428.989V431.989H82.0109V428.989Z" fill="white"/>
<path d="M62.6082 415.297V417.954H51.79V415.297H62.6082ZM66.4115 428.989V426.816L74.5734 417.881C75.5313 416.835 76.3201 415.925 76.9399 415.153C77.5597 414.372 78.0185 413.639 78.3163 412.955C78.6222 412.263 78.7751 411.538 78.7751 410.782C78.7751 409.913 78.5658 409.16 78.1473 408.524C77.7368 407.888 77.1733 407.397 76.4569 407.051C75.7405 406.705 74.9356 406.532 74.0421 406.532C73.0923 406.532 72.2633 406.729 71.5549 407.123C70.8546 407.51 70.3113 408.053 69.925 408.753C69.5466 409.454 69.3575 410.275 69.3575 411.217H66.5081C66.5081 409.768 66.8421 408.496 67.5102 407.401C68.1783 406.306 69.0878 405.453 70.2389 404.842C71.398 404.23 72.6979 403.924 74.1387 403.924C75.5876 403.924 76.8715 404.23 77.9903 404.842C79.1091 405.453 79.9865 406.278 80.6224 407.317C81.2583 408.355 81.5762 409.51 81.5762 410.782C81.5762 411.691 81.4112 412.581 81.0812 413.45C80.7592 414.311 80.1958 415.273 79.3909 416.336C78.594 417.39 77.4872 418.678 76.0706 420.199L70.5166 426.14V426.333H82.0109V428.989H66.4115Z" fill="black"/>
<path d="M393.207 428.989H390.207V431.989H393.207V428.989ZM393.207 426.816L390.992 424.793L390.207 425.652V426.816H393.207ZM401.369 417.881L399.156 415.856L399.154 415.858L401.369 417.881ZM403.736 415.153L406.076 417.03L406.08 417.024L406.085 417.018L403.736 415.153ZM405.112 412.955L402.368 411.743L402.365 411.75L402.361 411.758L405.112 412.955ZM404.943 408.524L402.422 410.151L402.43 410.162L402.437 410.173L404.943 408.524ZM403.253 407.051L404.558 404.35L404.558 404.35L403.253 407.051ZM398.351 407.123L399.8 409.75L399.81 409.745L398.351 407.123ZM396.721 408.753L394.094 407.304L394.087 407.316L394.081 407.328L396.721 408.753ZM396.153 411.217V414.217H399.153V411.217H396.153ZM393.304 411.217H390.304V414.217H393.304V411.217ZM394.306 407.401L396.867 408.964L396.867 408.964L394.306 407.401ZM397.035 404.842L395.634 402.188L395.627 402.192L397.035 404.842ZM404.786 404.842L406.225 402.209L406.225 402.209L404.786 404.842ZM407.418 407.317L404.86 408.883L407.418 407.317ZM407.877 413.45L405.072 412.385L405.069 412.393L405.067 412.4L407.877 413.45ZM406.187 416.336L403.795 414.524L403.793 414.527L406.187 416.336ZM402.866 420.199L405.058 422.248L405.062 422.244L402.866 420.199ZM397.312 426.14L395.121 424.091L394.312 424.956V426.14H397.312ZM397.312 426.333H394.312V429.333H397.312V426.333ZM408.807 426.333H411.807V423.333H408.807V426.333ZM408.807 428.989V431.989H411.807V428.989H408.807ZM393.207 428.989H396.207V426.816H393.207H390.207V428.989H393.207ZM393.207 426.816L395.422 428.839L403.584 419.905L401.369 417.881L399.154 415.858L390.992 424.793L393.207 426.816ZM401.369 417.881L403.582 419.907C404.567 418.831 405.402 417.87 406.076 417.03L403.736 415.153L401.395 413.276C400.83 413.981 400.087 414.839 399.156 415.856L401.369 417.881ZM403.736 415.153L406.085 417.018C406.817 416.097 407.433 415.14 407.863 414.153L405.112 412.955L402.361 411.758C402.196 412.138 401.894 412.647 401.386 413.287L403.736 415.153ZM405.112 412.955L407.856 414.168C408.331 413.094 408.571 411.956 408.571 410.782H405.571H402.571C402.571 411.121 402.505 411.432 402.368 411.743L405.112 412.955ZM405.571 410.782H408.571C408.571 409.412 408.234 408.067 407.449 406.875L404.943 408.524L402.437 410.173C402.489 410.253 402.571 410.413 402.571 410.782H405.571ZM404.943 408.524L407.463 406.897C406.738 405.774 405.744 404.923 404.558 404.35L403.253 407.051L401.947 409.752C402.194 409.872 402.326 410.002 402.422 410.151L404.943 408.524ZM403.253 407.051L404.558 404.35C403.387 403.784 402.127 403.532 400.838 403.532V406.532V409.532C401.335 409.532 401.686 409.626 401.947 409.752L403.253 407.051ZM400.838 406.532V403.532C399.465 403.532 398.117 403.82 396.891 404.502L398.351 407.123L399.81 409.745C400.001 409.638 400.311 409.532 400.838 409.532V406.532ZM398.351 407.123L396.901 404.497C395.705 405.157 394.754 406.108 394.094 407.304L396.721 408.753L399.347 410.203C399.46 409.998 399.595 409.863 399.8 409.75L398.351 407.123ZM396.721 408.753L394.081 407.328C393.426 408.54 393.153 409.868 393.153 411.217H396.153H399.153C399.153 410.681 399.258 410.368 399.36 410.179L396.721 408.753ZM396.153 411.217V408.217H393.304V411.217V414.217H396.153V411.217ZM393.304 411.217H396.304C396.304 410.246 396.522 409.529 396.867 408.964L394.306 407.401L391.745 405.838C390.754 407.463 390.304 409.29 390.304 411.217H393.304ZM394.306 407.401L396.867 408.964C397.25 408.336 397.758 407.854 398.442 407.491L397.035 404.842L395.627 402.192C394.009 403.052 392.698 404.277 391.745 405.838L394.306 407.401ZM397.035 404.842L398.435 407.495C399.121 407.133 399.932 406.924 400.934 406.924V403.924V400.924C399.055 400.924 397.267 401.327 395.634 402.188L397.035 404.842ZM400.934 403.924V406.924C401.95 406.924 402.726 407.135 403.347 407.474L404.786 404.842L406.225 402.209C404.608 401.325 402.817 400.924 400.934 400.924V403.924ZM404.786 404.842L403.347 407.474C404.029 407.847 404.511 408.313 404.86 408.883L407.418 407.317L409.976 405.75C409.054 404.243 407.781 403.06 406.225 402.209L404.786 404.842ZM407.418 407.317L404.86 408.883C405.194 409.429 405.372 410.037 405.372 410.782H408.372H411.372C411.372 408.983 410.914 407.281 409.976 405.75L407.418 407.317ZM408.372 410.782H405.372C405.372 411.319 405.276 411.849 405.072 412.385L407.877 413.45L410.682 414.515C411.138 413.313 411.372 412.063 411.372 410.782H408.372ZM407.877 413.45L405.067 412.4C404.881 412.896 404.496 413.599 403.795 414.524L406.187 416.336L408.578 418.147C409.487 416.947 410.229 415.727 410.687 414.501L407.877 413.45ZM406.187 416.336L403.793 414.527C403.083 415.467 402.052 416.672 400.671 418.155L402.866 420.199L405.062 422.244C406.514 420.685 407.697 419.313 408.58 418.145L406.187 416.336ZM402.866 420.199L400.675 418.151L395.121 424.091L397.312 426.14L399.504 428.189L405.058 422.248L402.866 420.199ZM397.312 426.14H394.312V426.333H397.312H400.312V426.14H397.312ZM397.312 426.333V429.333H408.807V426.333V423.333H397.312V426.333ZM408.807 426.333H405.807V428.989H408.807H411.807V426.333H408.807ZM408.807 428.989V425.989H393.207V428.989V431.989H408.807V428.989Z" fill="white"/>
<path d="M393.207 428.989V426.816L401.369 417.881C402.327 416.835 403.116 415.925 403.736 415.153C404.355 414.372 404.814 413.639 405.112 412.955C405.418 412.263 405.571 411.538 405.571 410.782C405.571 409.913 405.361 409.16 404.943 408.524C404.532 407.888 403.969 407.397 403.253 407.051C402.536 406.705 401.731 406.532 400.838 406.532C399.888 406.532 399.059 406.729 398.351 407.123C397.65 407.51 397.107 408.053 396.721 408.753C396.342 409.454 396.153 410.275 396.153 411.217H393.304C393.304 409.768 393.638 408.496 394.306 407.401C394.974 406.306 395.883 405.453 397.035 404.842C398.194 404.23 399.494 403.924 400.934 403.924C402.383 403.924 403.667 404.23 404.786 404.842C405.905 405.453 406.782 406.278 407.418 407.317C408.054 408.355 408.372 409.51 408.372 410.782C408.372 411.691 408.207 412.581 407.877 413.45C407.555 414.311 406.991 415.273 406.187 416.336C405.39 417.39 404.283 418.678 402.866 420.199L397.312 426.14V426.333H408.807V428.989H393.207Z" fill="black"/>
<path d="M258.267 278H255.267V281H258.267V278ZM258.267 275.827L256.052 273.803L255.267 274.663V275.827H258.267ZM266.429 266.892L264.216 264.866L264.214 264.869L266.429 266.892ZM268.795 264.163L271.135 266.04L271.14 266.034L271.145 266.029L268.795 264.163ZM270.172 261.966L267.427 260.753L267.424 260.761L267.421 260.769L270.172 261.966ZM270.002 257.535L267.482 259.162L267.489 259.173L267.497 259.184L270.002 257.535ZM268.312 256.062L269.617 253.361L269.617 253.361L268.312 256.062ZM263.41 256.134L264.859 258.761L264.87 258.755L263.41 256.134ZM261.78 257.764L259.153 256.315L259.147 256.327L259.141 256.338L261.78 257.764ZM261.213 260.227V263.227H264.213V260.227H261.213ZM258.363 260.227H255.363V263.227H258.363V260.227ZM259.365 256.412L261.926 257.975L261.926 257.975L259.365 256.412ZM262.094 253.852L260.694 251.199L260.686 251.203L262.094 253.852ZM269.846 253.852L271.285 251.22L271.285 251.22L269.846 253.852ZM272.478 256.327L269.919 257.894L272.478 256.327ZM272.936 262.461L270.132 261.396L270.129 261.403L270.126 261.41L272.936 262.461ZM271.246 265.347L268.855 263.535L268.853 263.538L271.246 265.347ZM267.926 269.21L270.117 271.259L270.121 271.255L267.926 269.21ZM262.372 275.151L260.18 273.102L259.372 273.967V275.151H262.372ZM262.372 275.344H259.372V278.344H262.372V275.344ZM273.866 275.344H276.866V272.344H273.866V275.344ZM273.866 278V281H276.866V278H273.866ZM258.267 278H261.267V275.827H258.267H255.267V278H258.267ZM258.267 275.827L260.482 277.85L268.644 268.915L266.429 266.892L264.214 264.869L256.052 273.803L258.267 275.827ZM266.429 266.892L268.641 268.918C269.626 267.842 270.461 266.881 271.135 266.04L268.795 264.163L266.455 262.286C265.889 262.992 265.147 263.85 264.216 264.866L266.429 266.892ZM268.795 264.163L271.145 266.029C271.876 265.107 272.492 264.151 272.922 263.163L270.172 261.966L267.421 260.769C267.255 261.149 266.954 261.658 266.445 262.298L268.795 264.163ZM270.172 261.966L272.916 263.178C273.39 262.104 273.63 260.967 273.63 259.793H270.63H267.63C267.63 260.132 267.565 260.443 267.427 260.753L270.172 261.966ZM270.63 259.793H273.63C273.63 258.423 273.293 257.078 272.508 255.885L270.002 257.535L267.497 259.184C267.549 259.263 267.63 259.424 267.63 259.793H270.63ZM270.002 257.535L272.523 255.908C271.798 254.785 270.803 253.934 269.617 253.361L268.312 256.062L267.007 258.763C267.254 258.882 267.386 259.013 267.482 259.162L270.002 257.535ZM268.312 256.062L269.617 253.361C268.446 252.795 267.187 252.543 265.897 252.543V255.543V258.543C266.395 258.543 266.745 258.637 267.007 258.763L268.312 256.062ZM265.897 255.543V252.543C264.525 252.543 263.176 252.831 261.951 253.513L263.41 256.134L264.87 258.755C265.061 258.649 265.37 258.543 265.897 258.543V255.543ZM263.41 256.134L261.961 253.507C260.765 254.167 259.813 255.119 259.153 256.315L261.78 257.764L264.407 259.213C264.52 259.009 264.655 258.874 264.859 258.761L263.41 256.134ZM261.78 257.764L259.141 256.338C258.486 257.55 258.213 258.879 258.213 260.227H261.213H264.213C264.213 259.692 264.318 259.379 264.42 259.19L261.78 257.764ZM261.213 260.227V257.227H258.363V260.227V263.227H261.213V260.227ZM258.363 260.227H261.363C261.363 259.257 261.581 258.54 261.926 257.975L259.365 256.412L256.805 254.849C255.813 256.473 255.363 258.3 255.363 260.227H258.363ZM259.365 256.412L261.926 257.975C262.309 257.347 262.817 256.865 263.502 256.501L262.094 253.852L260.686 251.203C259.069 252.063 257.758 253.288 256.805 254.849L259.365 256.412ZM262.094 253.852L263.494 256.505C264.18 256.143 264.992 255.935 265.994 255.935V252.935V249.935C264.115 249.935 262.326 250.338 260.694 251.199L262.094 253.852ZM265.994 252.935V255.935C267.009 255.935 267.786 256.145 268.406 256.485L269.846 253.852L271.285 251.22C269.667 250.336 267.876 249.935 265.994 249.935V252.935ZM269.846 253.852L268.406 256.485C269.088 256.857 269.57 257.324 269.919 257.894L272.478 256.327L275.036 254.761C274.113 253.254 272.841 252.071 271.285 251.22L269.846 253.852ZM272.478 256.327L269.919 257.894C270.253 258.439 270.431 259.048 270.431 259.793H273.431H276.431C276.431 257.994 275.974 256.292 275.036 254.761L272.478 256.327ZM273.431 259.793H270.431C270.431 260.33 270.336 260.859 270.132 261.396L272.936 262.461L275.741 263.526C276.197 262.324 276.431 261.074 276.431 259.793H273.431ZM272.936 262.461L270.126 261.41C269.941 261.907 269.556 262.61 268.855 263.535L271.246 265.347L273.637 267.158C274.547 265.958 275.288 264.738 275.747 263.511L272.936 262.461ZM271.246 265.347L268.853 263.538C268.142 264.478 267.112 265.682 265.73 267.166L267.926 269.21L270.121 271.255C271.573 269.696 272.756 268.324 273.64 267.155L271.246 265.347ZM267.926 269.21L265.734 267.161L260.18 273.102L262.372 275.151L264.563 277.199L270.117 271.259L267.926 269.21ZM262.372 275.151H259.372V275.344H262.372H265.372V275.151H262.372ZM262.372 275.344V278.344H273.866V275.344V272.344H262.372V275.344ZM273.866 275.344H270.866V278H273.866H276.866V275.344H273.866ZM273.866 278V275H258.267V278V281H273.866V278Z" fill="white"/>
<path d="M96.8404 251.455L101.159 263.699H101.329L105.647 251.455H107.494L102.153 266H100.335L94.9938 251.455H96.8404ZM109.532 266V255.091H111.208V266H109.532ZM110.384 253.273C110.058 253.273 109.776 253.161 109.539 252.939C109.307 252.716 109.191 252.449 109.191 252.136C109.191 251.824 109.307 251.556 109.539 251.334C109.776 251.111 110.058 251 110.384 251C110.711 251 110.99 251.111 111.222 251.334C111.459 251.556 111.578 251.824 111.578 252.136C111.578 252.449 111.459 252.716 111.222 252.939C110.99 253.161 110.711 253.273 110.384 253.273ZM119.023 255.091V256.511H113.369V255.091H119.023ZM115.017 252.477H116.693V262.875C116.693 263.348 116.762 263.704 116.899 263.94C117.041 264.172 117.221 264.329 117.439 264.409C117.661 264.485 117.896 264.523 118.142 264.523C118.327 264.523 118.478 264.513 118.596 264.494C118.715 264.471 118.809 264.452 118.881 264.438L119.221 265.943C119.108 265.986 118.949 266.028 118.746 266.071C118.542 266.118 118.284 266.142 117.971 266.142C117.498 266.142 117.034 266.04 116.579 265.837C116.13 265.633 115.756 265.323 115.457 264.906C115.164 264.49 115.017 263.964 115.017 263.33V252.477ZM126.001 266.227C124.949 266.227 124.043 265.995 123.28 265.531C122.523 265.062 121.938 264.409 121.526 263.571C121.119 262.728 120.915 261.748 120.915 260.631C120.915 259.513 121.119 258.528 121.526 257.676C121.938 256.819 122.511 256.152 123.245 255.673C123.983 255.19 124.845 254.949 125.83 254.949C126.398 254.949 126.959 255.044 127.513 255.233C128.067 255.422 128.572 255.73 129.026 256.156C129.481 256.578 129.843 257.136 130.113 257.832C130.383 258.528 130.518 259.385 130.518 260.403V261.114H122.108V259.665H128.813C128.813 259.049 128.69 258.5 128.444 258.017C128.202 257.534 127.857 257.153 127.407 256.874C126.962 256.594 126.436 256.455 125.83 256.455C125.162 256.455 124.585 256.62 124.097 256.952C123.614 257.278 123.242 257.705 122.982 258.23C122.722 258.756 122.591 259.319 122.591 259.92V260.886C122.591 261.71 122.733 262.409 123.018 262.982C123.306 263.55 123.706 263.983 124.218 264.281C124.729 264.575 125.323 264.722 126.001 264.722C126.441 264.722 126.839 264.66 127.194 264.537C127.554 264.409 127.864 264.22 128.124 263.969C128.385 263.713 128.586 263.396 128.728 263.017L130.347 263.472C130.177 264.021 129.89 264.504 129.488 264.92C129.085 265.332 128.588 265.654 127.996 265.886C127.404 266.114 126.739 266.227 126.001 266.227ZM140.795 257.534L139.289 257.96C139.194 257.709 139.055 257.465 138.87 257.229C138.69 256.987 138.444 256.788 138.131 256.632C137.819 256.476 137.419 256.398 136.931 256.398C136.263 256.398 135.707 256.552 135.262 256.859C134.822 257.162 134.601 257.548 134.601 258.017C134.601 258.434 134.753 258.763 135.056 259.004C135.359 259.246 135.832 259.447 136.476 259.608L138.096 260.006C139.071 260.242 139.798 260.605 140.276 261.092C140.754 261.575 140.993 262.198 140.993 262.96C140.993 263.585 140.814 264.144 140.454 264.636C140.099 265.129 139.601 265.517 138.962 265.801C138.323 266.085 137.58 266.227 136.732 266.227C135.619 266.227 134.698 265.986 133.969 265.503C133.24 265.02 132.778 264.314 132.584 263.386L134.175 262.989C134.327 263.576 134.613 264.016 135.035 264.31C135.461 264.603 136.017 264.75 136.704 264.75C137.485 264.75 138.105 264.584 138.564 264.253C139.028 263.917 139.26 263.514 139.26 263.045C139.26 262.667 139.128 262.349 138.863 262.094C138.598 261.833 138.19 261.639 137.641 261.511L135.823 261.085C134.824 260.848 134.09 260.482 133.621 259.984C133.157 259.482 132.925 258.855 132.925 258.102C132.925 257.487 133.098 256.942 133.444 256.469C133.794 255.995 134.27 255.624 134.871 255.354C135.477 255.084 136.164 254.949 136.931 254.949C138.01 254.949 138.858 255.186 139.474 255.659C140.094 256.133 140.534 256.758 140.795 257.534ZM151.244 257.534L149.738 257.96C149.643 257.709 149.504 257.465 149.319 257.229C149.139 256.987 148.893 256.788 148.58 256.632C148.268 256.476 147.868 256.398 147.38 256.398C146.713 256.398 146.156 256.552 145.711 256.859C145.271 257.162 145.051 257.548 145.051 258.017C145.051 258.434 145.202 258.763 145.505 259.004C145.808 259.246 146.282 259.447 146.926 259.608L148.545 260.006C149.52 260.242 150.247 260.605 150.725 261.092C151.204 261.575 151.443 262.198 151.443 262.96C151.443 263.585 151.263 264.144 150.903 264.636C150.548 265.129 150.051 265.517 149.411 265.801C148.772 266.085 148.029 266.227 147.181 266.227C146.069 266.227 145.148 265.986 144.419 265.503C143.689 265.02 143.228 264.314 143.034 263.386L144.624 262.989C144.776 263.576 145.062 264.016 145.484 264.31C145.91 264.603 146.466 264.75 147.153 264.75C147.934 264.75 148.554 264.584 149.014 264.253C149.478 263.917 149.71 263.514 149.71 263.045C149.71 262.667 149.577 262.349 149.312 262.094C149.047 261.833 148.64 261.639 148.09 261.511L146.272 261.085C145.273 260.848 144.539 260.482 144.07 259.984C143.606 259.482 143.374 258.855 143.374 258.102C143.374 257.487 143.547 256.942 143.893 256.469C144.243 255.995 144.719 255.624 145.32 255.354C145.927 255.084 146.613 254.949 147.38 254.949C148.46 254.949 149.307 255.186 149.923 255.659C150.543 256.133 150.983 256.758 151.244 257.534ZM158.54 266.227C157.488 266.227 156.582 265.995 155.819 265.531C155.062 265.062 154.477 264.409 154.065 263.571C153.658 262.728 153.454 261.748 153.454 260.631C153.454 259.513 153.658 258.528 154.065 257.676C154.477 256.819 155.05 256.152 155.784 255.673C156.523 255.19 157.384 254.949 158.369 254.949C158.937 254.949 159.498 255.044 160.052 255.233C160.606 255.422 161.111 255.73 161.565 256.156C162.02 256.578 162.382 257.136 162.652 257.832C162.922 258.528 163.057 259.385 163.057 260.403V261.114H154.648V259.665H161.352C161.352 259.049 161.229 258.5 160.983 258.017C160.741 257.534 160.396 257.153 159.946 256.874C159.501 256.594 158.975 256.455 158.369 256.455C157.702 256.455 157.124 256.62 156.636 256.952C156.153 257.278 155.782 257.705 155.521 258.23C155.261 258.756 155.131 259.319 155.131 259.92V260.886C155.131 261.71 155.273 262.409 155.557 262.982C155.845 263.55 156.246 263.983 156.757 264.281C157.268 264.575 157.863 264.722 158.54 264.722C158.98 264.722 159.378 264.66 159.733 264.537C160.093 264.409 160.403 264.22 160.663 263.969C160.924 263.713 161.125 263.396 161.267 263.017L162.886 263.472C162.716 264.021 162.429 264.504 162.027 264.92C161.624 265.332 161.127 265.654 160.535 265.886C159.943 266.114 159.278 266.227 158.54 266.227ZM175.976 255.091V256.511H170.322V255.091H175.976ZM171.97 252.477H173.646V262.875C173.646 263.348 173.715 263.704 173.852 263.94C173.994 264.172 174.174 264.329 174.392 264.409C174.614 264.485 174.849 264.523 175.095 264.523C175.28 264.523 175.431 264.513 175.55 264.494C175.668 264.471 175.763 264.452 175.834 264.438L176.175 265.943C176.061 265.986 175.902 266.028 175.699 266.071C175.495 266.118 175.237 266.142 174.925 266.142C174.451 266.142 173.987 266.04 173.532 265.837C173.083 265.633 172.709 265.323 172.41 264.906C172.117 264.49 171.97 263.964 171.97 263.33V252.477ZM181.707 266.256C181.016 266.256 180.389 266.125 179.825 265.865C179.262 265.6 178.814 265.219 178.483 264.722C178.151 264.22 177.986 263.614 177.986 262.903C177.986 262.278 178.109 261.772 178.355 261.384C178.601 260.991 178.93 260.683 179.342 260.46C179.754 260.238 180.209 260.072 180.706 259.963C181.208 259.849 181.712 259.759 182.219 259.693C182.881 259.608 183.419 259.544 183.831 259.501C184.247 259.454 184.55 259.376 184.74 259.267C184.934 259.158 185.031 258.969 185.031 258.699V258.642C185.031 257.941 184.839 257.397 184.456 257.009C184.077 256.62 183.502 256.426 182.73 256.426C181.93 256.426 181.302 256.601 180.848 256.952C180.393 257.302 180.074 257.676 179.889 258.074L178.298 257.506C178.582 256.843 178.961 256.327 179.434 255.957C179.913 255.583 180.434 255.323 180.997 255.176C181.565 255.025 182.124 254.949 182.673 254.949C183.023 254.949 183.426 254.991 183.881 255.077C184.34 255.157 184.782 255.325 185.209 255.581C185.64 255.837 185.997 256.223 186.281 256.739C186.565 257.255 186.707 257.946 186.707 258.812V266H185.031V264.523H184.946C184.832 264.759 184.643 265.013 184.378 265.283C184.113 265.553 183.76 265.782 183.319 265.972C182.879 266.161 182.342 266.256 181.707 266.256ZM181.963 264.75C182.626 264.75 183.184 264.62 183.639 264.359C184.098 264.099 184.444 263.763 184.676 263.351C184.913 262.939 185.031 262.506 185.031 262.051V260.517C184.96 260.602 184.804 260.68 184.562 260.751C184.326 260.818 184.051 260.877 183.738 260.929C183.431 260.976 183.13 261.019 182.836 261.057C182.548 261.09 182.313 261.118 182.133 261.142C181.698 261.199 181.291 261.291 180.912 261.419C180.538 261.542 180.235 261.729 180.003 261.98C179.775 262.226 179.662 262.562 179.662 262.989C179.662 263.571 179.877 264.011 180.308 264.31C180.744 264.603 181.295 264.75 181.963 264.75ZM191.443 259.438V266H189.767V255.091H191.386V256.795H191.528C191.784 256.241 192.172 255.796 192.693 255.46C193.213 255.119 193.886 254.949 194.71 254.949C195.448 254.949 196.095 255.1 196.649 255.403C197.203 255.702 197.633 256.156 197.941 256.767C198.249 257.373 198.403 258.14 198.403 259.068V266H196.727V259.182C196.727 258.325 196.504 257.657 196.059 257.179C195.614 256.696 195.003 256.455 194.227 256.455C193.692 256.455 193.213 256.571 192.792 256.803C192.375 257.035 192.046 257.373 191.805 257.818C191.563 258.263 191.443 258.803 191.443 259.438ZM205.869 270.318C205.059 270.318 204.363 270.214 203.781 270.006C203.199 269.802 202.713 269.532 202.325 269.196C201.942 268.865 201.636 268.509 201.409 268.131L202.744 267.193C202.896 267.392 203.087 267.619 203.319 267.875C203.551 268.135 203.869 268.36 204.271 268.55C204.678 268.744 205.211 268.841 205.869 268.841C206.75 268.841 207.477 268.628 208.05 268.202C208.622 267.776 208.909 267.108 208.909 266.199V263.983H208.767C208.644 264.182 208.469 264.428 208.241 264.722C208.019 265.01 207.697 265.268 207.275 265.496C206.859 265.718 206.295 265.83 205.585 265.83C204.704 265.83 203.914 265.621 203.213 265.205C202.517 264.788 201.965 264.182 201.558 263.386C201.156 262.591 200.954 261.625 200.954 260.489C200.954 259.371 201.151 258.398 201.544 257.57C201.937 256.736 202.484 256.092 203.184 255.638C203.885 255.179 204.695 254.949 205.613 254.949C206.324 254.949 206.887 255.067 207.304 255.304C207.725 255.536 208.047 255.801 208.27 256.099C208.497 256.393 208.672 256.634 208.795 256.824H208.966V255.091H210.585V266.312C210.585 267.25 210.372 268.012 209.946 268.599C209.524 269.191 208.956 269.625 208.241 269.899C207.531 270.179 206.74 270.318 205.869 270.318ZM205.812 264.324C206.485 264.324 207.053 264.17 207.517 263.862C207.981 263.554 208.334 263.112 208.575 262.534C208.817 261.956 208.937 261.265 208.937 260.46C208.937 259.674 208.819 258.981 208.582 258.379C208.345 257.778 207.995 257.307 207.531 256.966C207.067 256.625 206.494 256.455 205.812 256.455C205.102 256.455 204.51 256.634 204.037 256.994C203.568 257.354 203.215 257.837 202.979 258.443C202.747 259.049 202.631 259.722 202.631 260.46C202.631 261.218 202.749 261.888 202.986 262.47C203.227 263.048 203.582 263.502 204.051 263.834C204.524 264.161 205.112 264.324 205.812 264.324ZM218.227 266.227C217.176 266.227 216.269 265.995 215.507 265.531C214.749 265.062 214.165 264.409 213.753 263.571C213.345 262.728 213.142 261.748 213.142 260.631C213.142 259.513 213.345 258.528 213.753 257.676C214.165 256.819 214.738 256.152 215.471 255.673C216.21 255.19 217.072 254.949 218.057 254.949C218.625 254.949 219.186 255.044 219.74 255.233C220.294 255.422 220.798 255.73 221.253 256.156C221.707 256.578 222.069 257.136 222.339 257.832C222.609 258.528 222.744 259.385 222.744 260.403V261.114H214.335V259.665H221.04C221.04 259.049 220.916 258.5 220.67 258.017C220.429 257.534 220.083 257.153 219.633 256.874C219.188 256.594 218.663 256.455 218.057 256.455C217.389 256.455 216.811 256.62 216.324 256.952C215.841 257.278 215.469 257.705 215.209 258.23C214.948 258.756 214.818 259.319 214.818 259.92V260.886C214.818 261.71 214.96 262.409 215.244 262.982C215.533 263.55 215.933 263.983 216.444 264.281C216.956 264.575 217.55 264.722 218.227 264.722C218.667 264.722 219.065 264.66 219.42 264.537C219.78 264.409 220.09 264.22 220.351 263.969C220.611 263.713 220.812 263.396 220.954 263.017L222.574 263.472C222.403 264.021 222.117 264.504 221.714 264.92C221.312 265.332 220.815 265.654 220.223 265.886C219.631 266.114 218.966 266.227 218.227 266.227ZM228.504 266.256C227.813 266.256 227.185 266.125 226.622 265.865C226.059 265.6 225.611 265.219 225.28 264.722C224.948 264.22 224.782 263.614 224.782 262.903C224.782 262.278 224.906 261.772 225.152 261.384C225.398 260.991 225.727 260.683 226.139 260.46C226.551 260.238 227.006 260.072 227.503 259.963C228.005 259.849 228.509 259.759 229.015 259.693C229.678 259.608 230.216 259.544 230.628 259.501C231.044 259.454 231.347 259.376 231.537 259.267C231.731 259.158 231.828 258.969 231.828 258.699V258.642C231.828 257.941 231.636 257.397 231.253 257.009C230.874 256.62 230.299 256.426 229.527 256.426C228.727 256.426 228.099 256.601 227.645 256.952C227.19 257.302 226.871 257.676 226.686 258.074L225.095 257.506C225.379 256.843 225.758 256.327 226.231 255.957C226.71 255.583 227.23 255.323 227.794 255.176C228.362 255.025 228.921 254.949 229.47 254.949C229.82 254.949 230.223 254.991 230.677 255.077C231.137 255.157 231.579 255.325 232.006 255.581C232.436 255.837 232.794 256.223 233.078 256.739C233.362 257.255 233.504 257.946 233.504 258.812V266H231.828V264.523H231.743C231.629 264.759 231.44 265.013 231.175 265.283C230.909 265.553 230.557 265.782 230.116 265.972C229.676 266.161 229.139 266.256 228.504 266.256ZM228.76 264.75C229.423 264.75 229.981 264.62 230.436 264.359C230.895 264.099 231.241 263.763 231.473 263.351C231.71 262.939 231.828 262.506 231.828 262.051V260.517C231.757 260.602 231.601 260.68 231.359 260.751C231.122 260.818 230.848 260.877 230.535 260.929C230.228 260.976 229.927 261.019 229.633 261.057C229.345 261.09 229.11 261.118 228.93 261.142C228.495 261.199 228.087 261.291 227.709 261.419C227.335 261.542 227.032 261.729 226.8 261.98C226.572 262.226 226.459 262.562 226.459 262.989C226.459 263.571 226.674 264.011 227.105 264.31C227.541 264.603 228.092 264.75 228.76 264.75ZM238.24 259.438V266H236.563V255.091H238.183V256.795H238.325C238.58 256.241 238.969 255.796 239.49 255.46C240.01 255.119 240.683 254.949 241.507 254.949C242.245 254.949 242.892 255.1 243.445 255.403C243.999 255.702 244.43 256.156 244.738 256.767C245.046 257.373 245.2 258.14 245.2 259.068V266H243.524V259.182C243.524 258.325 243.301 257.657 242.856 257.179C242.411 256.696 241.8 256.455 241.024 256.455C240.489 256.455 240.01 256.571 239.589 256.803C239.172 257.035 238.843 257.373 238.602 257.818C238.36 258.263 238.24 258.803 238.24 259.438ZM253.007 255.091V256.511H247.354V255.091H253.007ZM249.001 252.477H250.677V262.875C250.677 263.348 250.746 263.704 250.883 263.94C251.025 264.172 251.205 264.329 251.423 264.409C251.646 264.485 251.88 264.523 252.126 264.523C252.311 264.523 252.462 264.513 252.581 264.494C252.699 264.471 252.794 264.452 252.865 264.438L253.206 265.943C253.092 265.986 252.934 266.028 252.73 266.071C252.526 266.118 252.268 266.142 251.956 266.142C251.482 266.142 251.018 266.04 250.564 265.837C250.114 265.633 249.74 265.323 249.442 264.906C249.148 264.49 249.001 263.964 249.001 263.33V252.477ZM259.985 266.227C258.934 266.227 258.027 265.995 257.265 265.531C256.507 265.062 255.922 264.409 255.51 263.571C255.103 262.728 254.9 261.748 254.9 260.631C254.9 259.513 255.103 258.528 255.51 257.676C255.922 256.819 256.495 256.152 257.229 255.673C257.968 255.19 258.83 254.949 259.814 254.949C260.383 254.949 260.944 255.044 261.498 255.233C262.052 255.422 262.556 255.73 263.01 256.156C263.465 256.578 263.827 257.136 264.097 257.832C264.367 258.528 264.502 259.385 264.502 260.403V261.114H256.093V259.665H262.797C262.797 259.049 262.674 258.5 262.428 258.017C262.187 257.534 261.841 257.153 261.391 256.874C260.946 256.594 260.421 256.455 259.814 256.455C259.147 256.455 258.569 256.62 258.081 256.952C257.599 257.278 257.227 257.705 256.966 258.23C256.706 258.756 256.576 259.319 256.576 259.92V260.886C256.576 261.71 256.718 262.409 257.002 262.982C257.291 263.55 257.691 263.983 258.202 264.281C258.714 264.575 259.308 264.722 259.985 264.722C260.425 264.722 260.823 264.66 261.178 264.537C261.538 264.409 261.848 264.22 262.108 263.969C262.369 263.713 262.57 263.396 262.712 263.017L264.331 263.472C264.161 264.021 263.875 264.504 263.472 264.92C263.07 265.332 262.573 265.654 261.981 265.886C261.389 266.114 260.724 266.227 259.985 266.227Z" fill="black"/>
<path d="M251.657 401H249.81L255.151 386.455H256.969L262.31 401H260.464L256.117 388.756H256.003L251.657 401ZM252.339 395.318H259.782V396.881H252.339V395.318ZM268.78 401.227C267.758 401.227 266.877 400.986 266.138 400.503C265.4 400.02 264.831 399.355 264.434 398.507C264.036 397.66 263.837 396.691 263.837 395.602C263.837 394.494 264.041 393.517 264.448 392.669C264.86 391.817 265.433 391.152 266.167 390.673C266.905 390.19 267.767 389.949 268.752 389.949C269.519 389.949 270.21 390.091 270.826 390.375C271.441 390.659 271.946 391.057 272.339 391.568C272.732 392.08 272.975 392.676 273.07 393.358H271.394C271.266 392.861 270.982 392.42 270.542 392.037C270.106 391.649 269.519 391.455 268.78 391.455C268.127 391.455 267.554 391.625 267.062 391.966C266.574 392.302 266.193 392.778 265.918 393.393C265.648 394.004 265.513 394.722 265.513 395.545C265.513 396.388 265.646 397.122 265.911 397.747C266.181 398.372 266.56 398.857 267.047 399.203C267.54 399.549 268.117 399.722 268.78 399.722C269.216 399.722 269.611 399.646 269.966 399.494C270.322 399.343 270.622 399.125 270.868 398.841C271.115 398.557 271.29 398.216 271.394 397.818H273.07C272.975 398.462 272.741 399.042 272.367 399.558C271.998 400.07 271.508 400.477 270.897 400.78C270.291 401.078 269.585 401.227 268.78 401.227ZM279.952 401.227C278.93 401.227 278.049 400.986 277.31 400.503C276.572 400.02 276.003 399.355 275.606 398.507C275.208 397.66 275.009 396.691 275.009 395.602C275.009 394.494 275.213 393.517 275.62 392.669C276.032 391.817 276.605 391.152 277.339 390.673C278.077 390.19 278.939 389.949 279.924 389.949C280.691 389.949 281.382 390.091 281.998 390.375C282.613 390.659 283.117 391.057 283.51 391.568C283.903 392.08 284.147 392.676 284.242 393.358H282.566C282.438 392.861 282.154 392.42 281.714 392.037C281.278 391.649 280.691 391.455 279.952 391.455C279.299 391.455 278.726 391.625 278.233 391.966C277.746 392.302 277.365 392.778 277.09 393.393C276.82 394.004 276.685 394.722 276.685 395.545C276.685 396.388 276.818 397.122 277.083 397.747C277.353 398.372 277.732 398.857 278.219 399.203C278.712 399.549 279.289 399.722 279.952 399.722C280.388 399.722 280.783 399.646 281.138 399.494C281.493 399.343 281.794 399.125 282.04 398.841C282.287 398.557 282.462 398.216 282.566 397.818H284.242C284.147 398.462 283.913 399.042 283.539 399.558C283.17 400.07 282.68 400.477 282.069 400.78C281.463 401.078 280.757 401.227 279.952 401.227ZM291.266 401.227C290.215 401.227 289.308 400.995 288.546 400.531C287.788 400.062 287.204 399.409 286.792 398.571C286.385 397.728 286.181 396.748 286.181 395.631C286.181 394.513 286.385 393.528 286.792 392.676C287.204 391.819 287.777 391.152 288.51 390.673C289.249 390.19 290.111 389.949 291.096 389.949C291.664 389.949 292.225 390.044 292.779 390.233C293.333 390.422 293.837 390.73 294.292 391.156C294.746 391.578 295.108 392.136 295.378 392.832C295.648 393.528 295.783 394.385 295.783 395.403V396.114H287.374V394.665H294.079C294.079 394.049 293.956 393.5 293.709 393.017C293.468 392.534 293.122 392.153 292.672 391.874C292.227 391.594 291.702 391.455 291.096 391.455C290.428 391.455 289.85 391.62 289.363 391.952C288.88 392.278 288.508 392.705 288.248 393.23C287.987 393.756 287.857 394.319 287.857 394.92V395.886C287.857 396.71 287.999 397.409 288.283 397.982C288.572 398.55 288.972 398.983 289.483 399.281C289.995 399.575 290.589 399.722 291.266 399.722C291.706 399.722 292.104 399.66 292.459 399.537C292.819 399.409 293.129 399.22 293.39 398.969C293.65 398.713 293.851 398.396 293.993 398.017L295.613 398.472C295.442 399.021 295.156 399.504 294.753 399.92C294.351 400.332 293.854 400.654 293.262 400.886C292.67 401.114 292.005 401.227 291.266 401.227ZM300.009 386.455V401H298.333V386.455H300.009ZM307.653 401.227C306.602 401.227 305.695 400.995 304.933 400.531C304.175 400.062 303.59 399.409 303.178 398.571C302.771 397.728 302.568 396.748 302.568 395.631C302.568 394.513 302.771 393.528 303.178 392.676C303.59 391.819 304.163 391.152 304.897 390.673C305.636 390.19 306.498 389.949 307.482 389.949C308.051 389.949 308.612 390.044 309.166 390.233C309.72 390.422 310.224 390.73 310.678 391.156C311.133 391.578 311.495 392.136 311.765 392.832C312.035 393.528 312.17 394.385 312.17 395.403V396.114H303.761V394.665H310.465C310.465 394.049 310.342 393.5 310.096 393.017C309.855 392.534 309.509 392.153 309.059 391.874C308.614 391.594 308.088 391.455 307.482 391.455C306.815 391.455 306.237 391.62 305.749 391.952C305.267 392.278 304.895 392.705 304.634 393.23C304.374 393.756 304.244 394.319 304.244 394.92V395.886C304.244 396.71 304.386 397.409 304.67 397.982C304.959 398.55 305.359 398.983 305.87 399.281C306.382 399.575 306.976 399.722 307.653 399.722C308.093 399.722 308.491 399.66 308.846 399.537C309.206 399.409 309.516 399.22 309.776 398.969C310.037 398.713 310.238 398.396 310.38 398.017L311.999 398.472C311.829 399.021 311.543 399.504 311.14 399.92C310.738 400.332 310.24 400.654 309.649 400.886C309.057 401.114 308.392 401.227 307.653 401.227ZM314.72 401V390.091H316.339V391.739H316.453C316.651 391.199 317.011 390.761 317.532 390.425C318.053 390.089 318.64 389.92 319.294 389.92C319.417 389.92 319.57 389.923 319.755 389.928C319.94 389.932 320.079 389.939 320.174 389.949V391.653C320.117 391.639 319.987 391.618 319.784 391.589C319.585 391.556 319.374 391.54 319.151 391.54C318.621 391.54 318.148 391.651 317.731 391.874C317.319 392.091 316.992 392.394 316.751 392.783C316.514 393.166 316.396 393.604 316.396 394.097V401H314.72ZM325.371 401.256C324.68 401.256 324.053 401.125 323.489 400.865C322.926 400.6 322.478 400.219 322.147 399.722C321.815 399.22 321.65 398.614 321.65 397.903C321.65 397.278 321.773 396.772 322.019 396.384C322.265 395.991 322.594 395.683 323.006 395.46C323.418 395.238 323.873 395.072 324.37 394.963C324.872 394.849 325.376 394.759 325.883 394.693C326.546 394.608 327.083 394.544 327.495 394.501C327.912 394.454 328.215 394.376 328.404 394.267C328.598 394.158 328.695 393.969 328.695 393.699V393.642C328.695 392.941 328.503 392.397 328.12 392.009C327.741 391.62 327.166 391.426 326.394 391.426C325.594 391.426 324.966 391.601 324.512 391.952C324.057 392.302 323.738 392.676 323.553 393.074L321.962 392.506C322.246 391.843 322.625 391.327 323.099 390.957C323.577 390.583 324.098 390.323 324.661 390.176C325.229 390.025 325.788 389.949 326.337 389.949C326.688 389.949 327.09 389.991 327.545 390.077C328.004 390.157 328.447 390.325 328.873 390.581C329.304 390.837 329.661 391.223 329.945 391.739C330.229 392.255 330.371 392.946 330.371 393.812V401H328.695V399.523H328.61C328.496 399.759 328.307 400.013 328.042 400.283C327.777 400.553 327.424 400.782 326.983 400.972C326.543 401.161 326.006 401.256 325.371 401.256ZM325.627 399.75C326.29 399.75 326.849 399.62 327.303 399.359C327.762 399.099 328.108 398.763 328.34 398.351C328.577 397.939 328.695 397.506 328.695 397.051V395.517C328.624 395.602 328.468 395.68 328.226 395.751C327.99 395.818 327.715 395.877 327.403 395.929C327.095 395.976 326.794 396.019 326.501 396.057C326.212 396.09 325.977 396.118 325.797 396.142C325.362 396.199 324.955 396.291 324.576 396.419C324.202 396.542 323.899 396.729 323.667 396.98C323.439 397.226 323.326 397.562 323.326 397.989C323.326 398.571 323.541 399.011 323.972 399.31C324.408 399.603 324.959 399.75 325.627 399.75ZM338.175 390.091V391.511H332.521V390.091H338.175ZM334.169 387.477H335.845V397.875C335.845 398.348 335.914 398.704 336.051 398.94C336.193 399.172 336.373 399.329 336.591 399.409C336.814 399.485 337.048 399.523 337.294 399.523C337.479 399.523 337.63 399.513 337.749 399.494C337.867 399.471 337.962 399.452 338.033 399.438L338.374 400.943C338.26 400.986 338.102 401.028 337.898 401.071C337.694 401.118 337.436 401.142 337.124 401.142C336.65 401.142 336.186 401.04 335.732 400.837C335.282 400.633 334.908 400.323 334.61 399.906C334.316 399.49 334.169 398.964 334.169 398.33V387.477ZM340.696 401V390.091H342.372V401H340.696ZM341.548 388.273C341.222 388.273 340.94 388.161 340.703 387.939C340.471 387.716 340.355 387.449 340.355 387.136C340.355 386.824 340.471 386.556 340.703 386.334C340.94 386.111 341.222 386 341.548 386C341.875 386 342.155 386.111 342.387 386.334C342.623 386.556 342.742 386.824 342.742 387.136C342.742 387.449 342.623 387.716 342.387 387.939C342.155 388.161 341.875 388.273 341.548 388.273ZM349.874 401.227C348.889 401.227 348.025 400.993 347.282 400.524C346.543 400.055 345.965 399.4 345.549 398.557C345.137 397.714 344.931 396.729 344.931 395.602C344.931 394.466 345.137 393.474 345.549 392.626C345.965 391.779 346.543 391.121 347.282 390.652C348.025 390.183 348.889 389.949 349.874 389.949C350.859 389.949 351.721 390.183 352.459 390.652C353.203 391.121 353.78 391.779 354.192 392.626C354.609 393.474 354.817 394.466 354.817 395.602C354.817 396.729 354.609 397.714 354.192 398.557C353.78 399.4 353.203 400.055 352.459 400.524C351.721 400.993 350.859 401.227 349.874 401.227ZM349.874 399.722C350.622 399.722 351.238 399.53 351.721 399.146C352.204 398.763 352.561 398.259 352.793 397.634C353.025 397.009 353.141 396.331 353.141 395.602C353.141 394.873 353.025 394.194 352.793 393.564C352.561 392.934 352.204 392.425 351.721 392.037C351.238 391.649 350.622 391.455 349.874 391.455C349.126 391.455 348.51 391.649 348.028 392.037C347.545 392.425 347.187 392.934 346.955 393.564C346.723 394.194 346.607 394.873 346.607 395.602C346.607 396.331 346.723 397.009 346.955 397.634C347.187 398.259 347.545 398.763 348.028 399.146C348.51 399.53 349.126 399.722 349.874 399.722ZM359.052 394.438V401H357.376V390.091H358.995V391.795H359.137C359.393 391.241 359.781 390.796 360.302 390.46C360.823 390.119 361.495 389.949 362.319 389.949C363.058 389.949 363.704 390.1 364.258 390.403C364.812 390.702 365.243 391.156 365.551 391.767C365.858 392.373 366.012 393.14 366.012 394.068V401H364.336V394.182C364.336 393.325 364.114 392.657 363.669 392.179C363.223 391.696 362.613 391.455 361.836 391.455C361.301 391.455 360.823 391.571 360.401 391.803C359.985 392.035 359.656 392.373 359.414 392.818C359.173 393.263 359.052 393.803 359.052 394.438ZM374.7 401V390.091H376.319V391.739H376.433C376.632 391.199 376.992 390.761 377.513 390.425C378.033 390.089 378.621 389.92 379.274 389.92C379.397 389.92 379.551 389.923 379.736 389.928C379.92 389.932 380.06 389.939 380.155 389.949V391.653C380.098 391.639 379.968 391.618 379.764 391.589C379.565 391.556 379.354 391.54 379.132 391.54C378.602 391.54 378.128 391.651 377.711 391.874C377.3 392.091 376.973 392.394 376.731 392.783C376.495 393.166 376.376 393.604 376.376 394.097V401H374.7ZM385.352 401.256C384.66 401.256 384.033 401.125 383.47 400.865C382.906 400.6 382.459 400.219 382.127 399.722C381.796 399.22 381.63 398.614 381.63 397.903C381.63 397.278 381.753 396.772 381.999 396.384C382.246 395.991 382.575 395.683 382.987 395.46C383.399 395.238 383.853 395.072 384.35 394.963C384.852 394.849 385.356 394.759 385.863 394.693C386.526 394.608 387.063 394.544 387.475 394.501C387.892 394.454 388.195 394.376 388.384 394.267C388.579 394.158 388.676 393.969 388.676 393.699V393.642C388.676 392.941 388.484 392.397 388.1 392.009C387.722 391.62 387.146 391.426 386.374 391.426C385.574 391.426 384.947 391.601 384.492 391.952C384.038 392.302 383.718 392.676 383.534 393.074L381.943 392.506C382.227 391.843 382.606 391.327 383.079 390.957C383.557 390.583 384.078 390.323 384.642 390.176C385.21 390.025 385.768 389.949 386.318 389.949C386.668 389.949 387.07 389.991 387.525 390.077C387.984 390.157 388.427 390.325 388.853 390.581C389.284 390.837 389.642 391.223 389.926 391.739C390.21 392.255 390.352 392.946 390.352 393.812V401H388.676V399.523H388.59C388.477 399.759 388.287 400.013 388.022 400.283C387.757 400.553 387.404 400.782 386.964 400.972C386.524 401.161 385.986 401.256 385.352 401.256ZM385.607 399.75C386.27 399.75 386.829 399.62 387.284 399.359C387.743 399.099 388.088 398.763 388.32 398.351C388.557 397.939 388.676 397.506 388.676 397.051V395.517C388.605 395.602 388.448 395.68 388.207 395.751C387.97 395.818 387.695 395.877 387.383 395.929C387.075 395.976 386.775 396.019 386.481 396.057C386.192 396.09 385.958 396.118 385.778 396.142C385.342 396.199 384.935 396.291 384.556 396.419C384.182 396.542 383.879 396.729 383.647 396.98C383.42 397.226 383.306 397.562 383.306 397.989C383.306 398.571 383.522 399.011 383.953 399.31C384.388 399.603 384.94 399.75 385.607 399.75ZM397.53 401.227C396.621 401.227 395.819 400.998 395.123 400.538C394.427 400.074 393.882 399.421 393.489 398.578C393.096 397.731 392.9 396.729 392.9 395.574C392.9 394.428 393.096 393.434 393.489 392.591C393.882 391.748 394.429 391.097 395.13 390.638C395.831 390.179 396.64 389.949 397.559 389.949C398.269 389.949 398.83 390.067 399.242 390.304C399.659 390.536 399.976 390.801 400.194 391.099C400.416 391.393 400.589 391.634 400.712 391.824H400.854V386.455H402.53V401H400.911V399.324H400.712C400.589 399.523 400.414 399.774 400.187 400.077C399.959 400.375 399.635 400.643 399.214 400.879C398.792 401.111 398.231 401.227 397.53 401.227ZM397.758 399.722C398.43 399.722 398.998 399.546 399.462 399.196C399.926 398.841 400.279 398.351 400.52 397.726C400.762 397.096 400.883 396.369 400.883 395.545C400.883 394.731 400.764 394.018 400.528 393.408C400.291 392.792 399.94 392.314 399.476 391.973C399.012 391.627 398.439 391.455 397.758 391.455C397.047 391.455 396.456 391.637 395.982 392.001C395.513 392.361 395.161 392.851 394.924 393.472C394.692 394.087 394.576 394.778 394.576 395.545C394.576 396.322 394.694 397.027 394.931 397.662C395.172 398.292 395.528 398.794 395.996 399.168C396.47 399.537 397.057 399.722 397.758 399.722ZM405.833 401V390.091H407.509V401H405.833ZM406.685 388.273C406.358 388.273 406.077 388.161 405.84 387.939C405.608 387.716 405.492 387.449 405.492 387.136C405.492 386.824 405.608 386.556 405.84 386.334C406.077 386.111 406.358 386 406.685 386C407.012 386 407.291 386.111 407.523 386.334C407.76 386.556 407.878 386.824 407.878 387.136C407.878 387.449 407.76 387.716 407.523 387.939C407.291 388.161 407.012 388.273 406.685 388.273ZM413.789 401.256C413.098 401.256 412.471 401.125 411.907 400.865C411.344 400.6 410.896 400.219 410.565 399.722C410.233 399.22 410.068 398.614 410.068 397.903C410.068 397.278 410.191 396.772 410.437 396.384C410.683 395.991 411.012 395.683 411.424 395.46C411.836 395.238 412.291 395.072 412.788 394.963C413.29 394.849 413.794 394.759 414.301 394.693C414.963 394.608 415.501 394.544 415.913 394.501C416.329 394.454 416.633 394.376 416.822 394.267C417.016 394.158 417.113 393.969 417.113 393.699V393.642C417.113 392.941 416.921 392.397 416.538 392.009C416.159 391.62 415.584 391.426 414.812 391.426C414.012 391.426 413.384 391.601 412.93 391.952C412.475 392.302 412.156 392.676 411.971 393.074L410.38 392.506C410.664 391.843 411.043 391.327 411.517 390.957C411.995 390.583 412.516 390.323 413.079 390.176C413.647 390.025 414.206 389.949 414.755 389.949C415.106 389.949 415.508 389.991 415.963 390.077C416.422 390.157 416.865 390.325 417.291 390.581C417.722 390.837 418.079 391.223 418.363 391.739C418.647 392.255 418.789 392.946 418.789 393.812V401H417.113V399.523H417.028C416.914 399.759 416.725 400.013 416.46 400.283C416.195 400.553 415.842 400.782 415.401 400.972C414.961 401.161 414.424 401.256 413.789 401.256ZM414.045 399.75C414.708 399.75 415.267 399.62 415.721 399.359C416.18 399.099 416.526 398.763 416.758 398.351C416.995 397.939 417.113 397.506 417.113 397.051V395.517C417.042 395.602 416.886 395.68 416.644 395.751C416.408 395.818 416.133 395.877 415.82 395.929C415.513 395.976 415.212 396.019 414.919 396.057C414.63 396.09 414.395 396.118 414.215 396.142C413.78 396.199 413.373 396.291 412.994 396.419C412.62 396.542 412.317 396.729 412.085 396.98C411.857 397.226 411.744 397.562 411.744 397.989C411.744 398.571 411.959 399.011 412.39 399.31C412.826 399.603 413.377 399.75 414.045 399.75ZM423.525 386.455V401H421.849V386.455H423.525ZM431.169 401.227C430.117 401.227 429.211 400.995 428.448 400.531C427.691 400.062 427.106 399.409 426.694 398.571C426.287 397.728 426.083 396.748 426.083 395.631C426.083 394.513 426.287 393.528 426.694 392.676C427.106 391.819 427.679 391.152 428.413 390.673C429.151 390.19 430.013 389.949 430.998 389.949C431.566 389.949 432.127 390.044 432.681 390.233C433.235 390.422 433.74 390.73 434.194 391.156C434.649 391.578 435.011 392.136 435.281 392.832C435.551 393.528 435.686 394.385 435.686 395.403V396.114H427.276V394.665H433.981C433.981 394.049 433.858 393.5 433.612 393.017C433.37 392.534 433.025 392.153 432.575 391.874C432.13 391.594 431.604 391.455 430.998 391.455C430.33 391.455 429.753 391.62 429.265 391.952C428.782 392.278 428.41 392.705 428.15 393.23C427.89 393.756 427.759 394.319 427.759 394.92V395.886C427.759 396.71 427.901 397.409 428.186 397.982C428.474 398.55 428.874 398.983 429.386 399.281C429.897 399.575 430.491 399.722 431.169 399.722C431.609 399.722 432.007 399.66 432.362 399.537C432.722 399.409 433.032 399.22 433.292 398.969C433.552 398.713 433.754 398.396 433.896 398.017L435.515 398.472C435.345 399.021 435.058 399.504 434.656 399.92C434.253 400.332 433.756 400.654 433.164 400.886C432.572 401.114 431.907 401.227 431.169 401.227Z" fill="black"/>
<path d="M556.2 423.918H553.2V426.918H556.2V423.918ZM556.2 421.455L553.664 419.852L553.2 420.587V421.455H556.2ZM567.066 404.262V401.262H565.413L564.53 402.659L567.066 404.262ZM568.853 404.262H571.853V401.262H568.853V404.262ZM568.853 408.077V411.077H571.853V408.077H568.853ZM567.646 408.077V405.077H565.993L565.11 406.475L567.646 408.077ZM559.436 421.069L556.9 419.466L556.436 420.2V421.069H559.436ZM559.436 421.262H556.436V424.262H559.436V421.262ZM574.069 421.262H577.069V418.262H574.069V421.262ZM574.069 423.918V426.918H577.069V423.918H574.069ZM567.839 428.989H564.839V431.989H567.839V428.989ZM567.839 404.262V401.262H564.839V404.262H567.839ZM570.688 404.262H573.688V401.262H570.688V404.262ZM570.688 428.989V431.989H573.688V428.989H570.688ZM556.2 423.918H559.2V421.455H556.2H553.2V423.918H556.2ZM556.2 421.455L558.736 423.058L569.602 405.865L567.066 404.262L564.53 402.659L553.664 419.852L556.2 421.455ZM567.066 404.262V407.262H568.853V404.262V401.262H567.066V404.262ZM568.853 404.262H565.853V408.077H568.853H571.853V404.262H568.853ZM568.853 408.077V405.077H567.646V408.077V411.077H568.853V408.077ZM567.646 408.077L565.11 406.475L556.9 419.466L559.436 421.069L561.972 422.671L570.182 409.68L567.646 408.077ZM559.436 421.069H556.436V421.262H559.436H562.436V421.069H559.436ZM559.436 421.262V424.262H574.069V421.262V418.262H559.436V421.262ZM574.069 421.262H571.069V423.918H574.069H577.069V421.262H574.069ZM574.069 423.918V420.918H556.2V423.918V426.918H574.069V423.918ZM567.839 428.989H570.839V423.17H567.839H564.839V428.989H567.839ZM567.839 423.17H570.839V422.023H567.839H564.839V423.17H567.839ZM567.839 422.023H570.839V404.262H567.839H564.839V422.023H567.839ZM567.839 404.262V407.262H570.688V404.262V401.262H567.839V404.262ZM570.688 404.262H567.688V428.989H570.688H573.688V404.262H570.688ZM570.688 428.989V425.989H567.839V428.989V431.989H570.688V428.989Z" fill="white"/>
<path d="M556.2 423.918V421.455L567.066 404.262H568.853V408.077H567.646L559.436 421.069V421.262H574.069V423.918H556.2ZM567.839 428.989V423.17V422.023V404.262H570.688V428.989H567.839Z" fill="black"/>
<path d="M729.475 429.327L729.427 432.327L729.437 432.327L729.446 432.327L729.475 429.327ZM726.432 428.748L725.404 431.566L725.404 431.566L726.432 428.748ZM723.655 426.876L721.475 428.937L721.485 428.947L723.655 426.876ZM721.639 423.29L718.794 424.244L718.796 424.248L721.639 423.29ZM721.494 411.772L724.409 412.48L724.41 412.477L721.494 411.772ZM723.281 407.486L725.769 409.162L725.775 409.154L723.281 407.486ZM726.106 404.829L724.674 402.194L724.666 402.198L726.106 404.829ZM733.556 404.757L732.183 407.424L732.194 407.43L732.206 407.436L733.556 404.757ZM736.212 407.051L738.674 405.336L738.674 405.336L736.212 407.051ZM737.54 410.444V413.444H741.049L740.504 409.978L737.54 410.444ZM734.594 410.444L731.681 411.161L732.244 413.444H734.594V410.444ZM733.001 407.679L730.959 409.877L730.959 409.877L733.001 407.679ZM725.334 409.079L722.832 407.424L722.826 407.432L725.334 409.079ZM723.68 416.094L720.68 416.086L720.671 419.094H723.68V416.094ZM723.873 416.094V419.094H725.489L726.378 417.745L723.873 416.094ZM725.479 414.344L727.322 416.71L727.327 416.707L725.479 414.344ZM727.555 413.209L726.561 410.378L727.555 413.209ZM733.846 413.873L732.297 416.442L732.304 416.446L732.31 416.45L733.846 413.873ZM736.671 416.783L734.066 418.271L734.07 418.278L736.671 416.783ZM736.707 425.222L739.345 426.651L739.349 426.644L736.707 425.222ZM733.822 428.241L735.368 430.812L735.372 430.809L733.822 428.241ZM732.204 425.91L730.616 423.365L730.605 423.372L732.204 425.91ZM734.123 423.87L731.502 422.411L731.497 422.42L731.492 422.43L734.123 423.87ZM734.148 418.231L731.5 419.643L731.509 419.658L731.517 419.673L734.148 418.231ZM732.276 416.215L730.672 418.75L730.684 418.758L732.276 416.215ZM727.434 415.925L728.668 418.66L728.682 418.654L728.696 418.647L727.434 415.925ZM725.696 417.157L723.525 415.086L723.517 415.095L723.508 415.104L725.696 417.157ZM724.537 418.956L727.301 420.122L727.306 420.11L724.537 418.956ZM724.802 423.822L722.16 425.242L722.165 425.252L722.171 425.262L724.802 423.822ZM726.71 425.886L725.075 428.402L725.087 428.409L726.71 425.886ZM729.475 429.327L729.523 426.328C728.864 426.317 728.181 426.193 727.461 425.93L726.432 428.748L725.404 431.566C726.712 432.044 728.057 432.305 729.427 432.327L729.475 429.327ZM726.432 428.748L727.461 425.93C726.931 425.736 726.384 425.391 725.826 424.805L723.655 426.876L721.485 428.947C722.601 430.117 723.906 431.019 725.404 431.566L726.432 428.748ZM723.655 426.876L725.835 424.815C725.372 424.326 724.891 423.546 724.482 422.333L721.639 423.29L718.796 424.248C719.401 426.045 720.264 427.656 721.475 428.937L723.655 426.876ZM721.639 423.29L724.484 422.337C724.113 421.233 723.878 419.681 723.878 417.592H720.878H717.878C717.878 420.074 718.15 422.322 718.794 424.244L721.639 423.29ZM720.878 417.592H723.878C723.878 415.582 724.067 413.888 724.409 412.48L721.494 411.772L718.579 411.064C718.1 413.037 717.878 415.222 717.878 417.592H720.878ZM721.494 411.772L724.41 412.477C724.757 411.042 725.231 409.961 725.769 409.162L723.281 407.486L720.793 405.81C719.77 407.328 719.052 409.105 718.578 411.067L721.494 411.772ZM723.281 407.486L725.775 409.154C726.319 408.34 726.915 407.807 727.547 407.461L726.106 404.829L724.666 402.198C723.092 403.059 721.805 404.297 720.788 405.818L723.281 407.486ZM726.106 404.829L727.539 407.465C728.167 407.124 728.917 406.924 729.861 406.924V403.924V400.924C728.02 400.924 726.268 401.327 724.674 402.194L726.106 404.829ZM729.861 403.924V406.924C730.836 406.924 731.585 407.117 732.183 407.424L733.556 404.757L734.929 402.09C733.369 401.287 731.656 400.924 729.861 400.924V403.924ZM733.556 404.757L732.206 407.436C732.856 407.763 733.356 408.2 733.751 408.766L736.212 407.051L738.674 405.336C737.7 403.938 736.429 402.845 734.906 402.078L733.556 404.757ZM736.212 407.051L733.751 408.766C734.154 409.345 734.44 410.041 734.577 410.91L737.54 410.444L740.504 409.978C740.238 408.287 739.639 406.721 738.674 405.336L736.212 407.051ZM737.54 410.444V407.444H734.594V410.444V413.444H737.54V410.444ZM734.594 410.444L737.507 409.726C737.103 408.085 736.287 406.636 735.042 405.481L733.001 407.679L730.959 409.877C731.292 410.186 731.538 410.581 731.681 411.161L734.594 410.444ZM733.001 407.679L735.042 405.481C733.586 404.128 731.754 403.58 729.861 403.58V406.58V409.58C730.577 409.58 730.838 409.764 730.959 409.877L733.001 407.679ZM729.861 406.58V403.58C726.888 403.58 724.462 404.961 722.832 407.424L725.334 409.079L727.835 410.735C728.411 409.865 729.003 409.58 729.861 409.58V406.58ZM725.334 409.079L722.826 407.432C721.287 409.775 720.688 412.771 720.68 416.086L723.68 416.094L726.679 416.102C726.687 413.397 727.19 411.717 727.841 410.727L725.334 409.079ZM723.68 416.094V419.094H723.873V416.094V413.094H723.68V416.094ZM723.873 416.094L726.378 417.745C726.656 417.322 726.972 416.984 727.322 416.71L725.479 414.344L723.635 411.977C722.746 412.67 721.99 413.498 721.368 414.444L723.873 416.094ZM725.479 414.344L727.327 416.707C727.695 416.418 728.099 416.197 728.549 416.039L727.555 413.209L726.561 410.378C725.498 410.751 724.517 411.287 723.63 411.981L725.479 414.344ZM727.555 413.209L728.549 416.039C728.969 415.892 729.433 415.81 729.958 415.81V412.81V409.81C728.793 409.81 727.654 409.994 726.561 410.378L727.555 413.209ZM729.958 412.81V415.81C730.847 415.81 731.605 416.025 732.297 416.442L733.846 413.873L735.394 411.303C733.736 410.304 731.902 409.81 729.958 409.81V412.81ZM733.846 413.873L732.31 416.45C733.021 416.874 733.603 417.46 734.066 418.271L736.671 416.783L739.276 415.294C738.322 413.626 737.021 412.272 735.381 411.296L733.846 413.873ZM736.671 416.783L734.07 418.278C734.486 419.001 734.733 419.886 734.733 421.021H737.733H740.733C740.733 418.967 740.272 417.027 739.272 415.287L736.671 416.783ZM737.733 421.021H734.733C734.733 422.084 734.501 422.992 734.065 423.801L736.707 425.222L739.349 426.644C740.282 424.909 740.733 423.016 740.733 421.021H737.733ZM736.707 425.222L734.069 423.794C733.641 424.584 733.057 425.198 732.271 425.673L733.822 428.241L735.372 430.809C737.066 429.786 738.405 428.388 739.345 426.651L736.707 425.222ZM733.822 428.241L732.276 425.67C731.591 426.081 730.706 426.339 729.504 426.327L729.475 429.327L729.446 432.327C731.577 432.348 733.589 431.881 735.368 430.812L733.822 428.241ZM729.475 426.671V429.671C731.016 429.671 732.487 429.278 733.803 428.449L732.204 425.91L730.605 423.372C730.31 423.557 729.962 423.671 729.475 423.671V426.671ZM732.204 425.91L733.791 428.456C735.048 427.672 736.045 426.608 736.755 425.31L734.123 423.87L731.492 422.43C731.268 422.838 730.985 423.135 730.616 423.365L732.204 425.91ZM734.123 423.87L736.745 425.329C737.486 423.998 737.836 422.54 737.836 421.021H734.836H731.836C731.836 421.594 731.711 422.036 731.502 422.411L734.123 423.87ZM734.836 421.021H737.836C737.836 419.531 737.496 418.1 736.778 416.79L734.148 418.231L731.517 419.673C731.716 420.037 731.836 420.465 731.836 421.021H734.836ZM734.148 418.231L736.795 416.82C736.102 415.521 735.118 414.455 733.868 413.673L732.276 416.215L730.684 418.758C731.028 418.973 731.292 419.252 731.5 419.643L734.148 418.231ZM732.276 416.215L733.88 413.68C732.57 412.851 731.103 412.467 729.572 412.467V415.467V418.467C730.069 418.467 730.405 418.581 730.672 418.75L732.276 416.215ZM729.572 415.467V412.467C728.394 412.467 727.249 412.705 726.173 413.203L727.434 415.925L728.696 418.647C728.94 418.534 729.22 418.467 729.572 418.467V415.467ZM727.434 415.925L726.201 413.191C725.189 413.647 724.291 414.283 723.525 415.086L725.696 417.157L727.867 419.228C728.099 418.984 728.36 418.799 728.668 418.66L727.434 415.925ZM725.696 417.157L723.508 415.104C722.766 415.895 722.185 416.801 721.768 417.802L724.537 418.956L727.306 420.11C727.452 419.759 727.644 419.465 727.883 419.21L725.696 417.157ZM724.537 418.956L721.772 417.79C721.332 418.835 721.114 419.937 721.114 421.069H724.114H727.114C727.114 420.72 727.178 420.413 727.301 420.122L724.537 418.956ZM724.114 421.069H721.114C721.114 422.54 721.463 423.946 722.16 425.242L724.802 423.822L727.445 422.401C727.224 421.991 727.114 421.562 727.114 421.069H724.114ZM724.802 423.822L722.171 425.262C722.872 426.544 723.848 427.604 725.075 428.402L726.71 425.886L728.345 423.371C727.962 423.122 727.666 422.805 727.434 422.382L724.802 423.822ZM726.71 425.886L725.087 428.409C726.416 429.265 727.908 429.671 729.475 429.671V426.671V423.671C728.981 423.671 728.63 423.554 728.334 423.364L726.71 425.886Z" fill="white"/>
<path d="M729.475 429.327C728.461 429.311 727.447 429.118 726.432 428.748C725.418 428.378 724.492 427.754 723.655 426.876C722.818 425.991 722.146 424.796 721.639 423.29C721.132 421.777 720.878 419.878 720.878 417.592C720.878 415.402 721.084 413.462 721.494 411.772C721.905 410.074 722.5 408.645 723.281 407.486C724.062 406.319 725.004 405.433 726.106 404.829C727.217 404.226 728.469 403.924 729.861 403.924C731.246 403.924 732.477 404.202 733.556 404.757C734.643 405.304 735.528 406.069 736.212 407.051C736.896 408.033 737.339 409.164 737.54 410.444H734.594C734.321 409.333 733.789 408.411 733.001 407.679C732.212 406.946 731.165 406.58 729.861 406.58C727.946 406.58 726.436 407.413 725.334 409.079C724.239 410.746 723.688 413.084 723.68 416.094H723.873C724.323 415.41 724.859 414.827 725.479 414.344C726.106 413.853 726.799 413.474 727.555 413.209C728.312 412.943 729.113 412.81 729.958 412.81C731.375 412.81 732.671 413.164 733.846 413.873C735.021 414.573 735.963 415.543 736.671 416.783C737.379 418.014 737.733 419.427 737.733 421.021C737.733 422.55 737.391 423.95 736.707 425.222C736.023 426.486 735.061 427.492 733.822 428.241C732.59 428.981 731.141 429.343 729.475 429.327ZM729.475 426.671C730.489 426.671 731.399 426.418 732.204 425.91C733.017 425.403 733.657 424.723 734.123 423.87C734.598 423.017 734.836 422.067 734.836 421.021C734.836 419.998 734.606 419.069 734.148 418.231C733.697 417.386 733.073 416.714 732.276 416.215C731.487 415.716 730.586 415.467 729.572 415.467C728.807 415.467 728.095 415.619 727.434 415.925C726.774 416.223 726.195 416.634 725.696 417.157C725.205 417.68 724.818 418.28 724.537 418.956C724.255 419.624 724.114 420.328 724.114 421.069C724.114 422.051 724.344 422.968 724.802 423.822C725.269 424.675 725.905 425.363 726.71 425.886C727.523 426.409 728.445 426.671 729.475 426.671Z" fill="black"/>
<path d="M207.34 552.484H210.34V549.484H207.34V552.484ZM207.34 555.14V558.14H210.34V555.14H207.34ZM196.522 555.14H193.522V558.14H196.522V555.14ZM196.522 552.484V549.484H193.522V552.484H196.522ZM207.34 552.484H204.34V555.14H207.34H210.34V552.484H207.34ZM207.34 555.14V552.14H196.522V555.14V558.14H207.34V555.14ZM196.522 555.14H199.522V552.484H196.522H193.522V555.14H196.522ZM196.522 552.484V555.484H207.34V552.484V549.484H196.522V552.484ZM211.143 566.176H208.143V569.176H211.143V566.176ZM211.143 564.002L208.928 561.979L208.143 562.838V564.002H211.143ZM219.305 555.068L217.092 553.042L217.09 553.044L219.305 555.068ZM221.672 552.339L224.012 554.216L224.017 554.21L224.021 554.204L221.672 552.339ZM223.048 550.142L220.304 548.929L220.301 548.937L220.298 548.944L223.048 550.142ZM222.879 545.711L220.359 547.338L220.366 547.349L220.373 547.36L222.879 545.711ZM221.189 544.238L222.494 541.536L222.494 541.536L221.189 544.238ZM216.287 544.31L217.736 546.937L217.746 546.931L216.287 544.31ZM214.657 545.94L212.03 544.491L212.024 544.502L212.017 544.514L214.657 545.94ZM214.089 548.403V551.403H217.089V548.403H214.089ZM211.24 548.403H208.24V551.403H211.24V548.403ZM212.242 544.588L214.803 546.151L214.803 546.151L212.242 544.588ZM214.971 542.028L213.571 539.375L213.563 539.379L214.971 542.028ZM222.722 542.028L224.161 539.396L224.161 539.396L222.722 542.028ZM225.354 544.503L222.796 546.07L225.354 544.503ZM225.813 550.637L223.008 549.572L223.006 549.579L223.003 549.586L225.813 550.637ZM224.123 553.522L221.732 551.711L221.729 551.714L224.123 553.522ZM220.802 557.386L222.994 559.435L222.998 559.43L220.802 557.386ZM215.249 563.326L213.057 561.277L212.249 562.142V563.326H215.249ZM215.249 563.52H212.249V566.52H215.249V563.52ZM226.743 563.52H229.743V560.52H226.743V563.52ZM226.743 566.176V569.176H229.743V566.176H226.743ZM211.143 566.176H214.143V564.002H211.143H208.143V566.176H211.143ZM211.143 564.002L213.358 566.026L221.52 557.091L219.305 555.068L217.09 553.044L208.928 561.979L211.143 564.002ZM219.305 555.068L221.518 557.093C222.503 556.018 223.338 555.056 224.012 554.216L221.672 552.339L219.332 550.462C218.766 551.167 218.023 552.025 217.092 553.042L219.305 555.068ZM221.672 552.339L224.021 554.204C224.753 553.283 225.369 552.327 225.799 551.339L223.048 550.142L220.298 548.944C220.132 549.325 219.83 549.834 219.322 550.474L221.672 552.339ZM223.048 550.142L225.792 551.354C226.267 550.28 226.507 549.143 226.507 547.968H223.507H220.507C220.507 548.307 220.441 548.619 220.304 548.929L223.048 550.142ZM223.507 547.968H226.507C226.507 546.598 226.17 545.254 225.385 544.061L222.879 545.711L220.373 547.36C220.425 547.439 220.507 547.6 220.507 547.968H223.507ZM222.879 545.711L225.4 544.083C224.675 542.961 223.68 542.109 222.494 541.536L221.189 544.238L219.884 546.939C220.131 547.058 220.263 547.189 220.359 547.338L222.879 545.711ZM221.189 544.238L222.494 541.536C221.323 540.971 220.064 540.718 218.774 540.718V543.718V546.718C219.272 546.718 219.622 546.812 219.884 546.939L221.189 544.238ZM218.774 543.718V540.718C217.402 540.718 216.053 541.006 214.827 541.689L216.287 544.31L217.746 546.931C217.937 546.825 218.247 546.718 218.774 546.718V543.718ZM216.287 544.31L214.838 541.683C213.642 542.343 212.69 543.295 212.03 544.491L214.657 545.94L217.284 547.389C217.396 547.185 217.532 547.05 217.736 546.937L216.287 544.31ZM214.657 545.94L212.017 544.514C211.363 545.726 211.089 547.055 211.089 548.403H214.089H217.089C217.089 547.868 217.195 547.554 217.296 547.366L214.657 545.94ZM214.089 548.403V545.403H211.24V548.403V551.403H214.089V548.403ZM211.24 548.403H214.24C214.24 547.432 214.458 546.716 214.803 546.151L212.242 544.588L209.681 543.025C208.69 544.649 208.24 546.476 208.24 548.403H211.24ZM212.242 544.588L214.803 546.151C215.186 545.523 215.694 545.041 216.379 544.677L214.971 542.028L213.563 539.379C211.945 540.239 210.634 541.463 209.681 543.025L212.242 544.588ZM214.971 542.028L216.371 544.681C217.057 544.319 217.868 544.11 218.871 544.11V541.11V538.11C216.991 538.11 215.203 538.513 213.571 539.375L214.971 542.028ZM218.871 541.11V544.11C219.886 544.11 220.663 544.321 221.283 544.66L222.722 542.028L224.161 539.396C222.544 538.512 220.753 538.11 218.871 538.11V541.11ZM222.722 542.028L221.283 544.66C221.965 545.033 222.447 545.5 222.796 546.07L225.354 544.503L227.913 542.936C226.99 541.43 225.717 540.247 224.161 539.396L222.722 542.028ZM225.354 544.503L222.796 546.07C223.13 546.615 223.308 547.224 223.308 547.968H226.308H229.308C229.308 546.169 228.851 544.468 227.913 542.936L225.354 544.503ZM226.308 547.968H223.308C223.308 548.506 223.212 549.035 223.008 549.572L225.813 550.637L228.618 551.701C229.074 550.5 229.308 549.25 229.308 547.968H226.308ZM225.813 550.637L223.003 549.586C222.818 550.082 222.432 550.786 221.732 551.711L224.123 553.522L226.514 555.334C227.423 554.134 228.165 552.913 228.623 551.687L225.813 550.637ZM224.123 553.522L221.729 551.714C221.019 552.654 219.988 553.858 218.607 555.342L220.802 557.386L222.998 559.43C224.45 557.871 225.633 556.5 226.516 555.331L224.123 553.522ZM220.802 557.386L218.611 555.337L213.057 561.277L215.249 563.326L217.44 565.375L222.994 559.435L220.802 557.386ZM215.249 563.326H212.249V563.52H215.249H218.249V563.326H215.249ZM215.249 563.52V566.52H226.743V563.52V560.52H215.249V563.52ZM226.743 563.52H223.743V566.176H226.743H229.743V563.52H226.743ZM226.743 566.176V563.176H211.143V566.176V569.176H226.743V566.176Z" fill="white"/>
<path d="M207.34 552.484V555.14H196.522V552.484H207.34ZM211.143 566.176V564.002L219.305 555.068C220.263 554.021 221.052 553.112 221.672 552.339C222.292 551.558 222.75 550.826 223.048 550.142C223.354 549.449 223.507 548.725 223.507 547.968C223.507 547.099 223.298 546.346 222.879 545.711C222.469 545.075 221.905 544.584 221.189 544.238C220.472 543.891 219.668 543.718 218.774 543.718C217.824 543.718 216.995 543.916 216.287 544.31C215.587 544.696 215.043 545.24 214.657 545.94C214.279 546.64 214.089 547.461 214.089 548.403H211.24C211.24 546.954 211.574 545.682 212.242 544.588C212.91 543.493 213.82 542.64 214.971 542.028C216.13 541.416 217.43 541.11 218.871 541.11C220.32 541.11 221.603 541.416 222.722 542.028C223.841 542.64 224.718 543.465 225.354 544.503C225.99 545.542 226.308 546.697 226.308 547.968C226.308 548.878 226.143 549.767 225.813 550.637C225.491 551.498 224.928 552.46 224.123 553.522C223.326 554.577 222.219 555.865 220.802 557.386L215.249 563.326V563.52H226.743V566.176H211.143Z" fill="black"/>
<path d="M209.566 237.803H206.566V240.803H209.566V237.803ZM209.566 235.63L207.351 233.606L206.566 234.466V235.63H209.566ZM217.728 226.695L215.515 224.669L215.513 224.672L217.728 226.695ZM220.095 223.966L222.435 225.843L222.44 225.837L222.444 225.832L220.095 223.966ZM221.471 221.769L218.727 220.556L218.724 220.564L218.72 220.572L221.471 221.769ZM221.302 217.338L218.782 218.965L218.789 218.976L218.796 218.987L221.302 217.338ZM219.612 215.865L220.917 213.164L220.917 213.164L219.612 215.865ZM214.71 215.937L216.159 218.564L216.169 218.558L214.71 215.937ZM213.08 217.567L210.453 216.118L210.447 216.13L210.44 216.141L213.08 217.567ZM212.512 220.03V223.03H215.512V220.03H212.512ZM209.663 220.03H206.663V223.03H209.663V220.03ZM210.665 216.215L213.226 217.778L213.226 217.778L210.665 216.215ZM213.394 213.655L211.993 211.002L211.986 211.006L213.394 213.655ZM221.145 213.655L222.584 211.023L222.584 211.023L221.145 213.655ZM223.777 216.13L221.219 217.697L223.777 216.13ZM224.236 222.264L221.431 221.199L221.429 221.206L221.426 221.213L224.236 222.264ZM222.546 225.15L220.154 223.338L220.152 223.341L222.546 225.15ZM219.225 229.013L221.417 231.062L221.421 231.058L219.225 229.013ZM213.671 234.954L211.48 232.905L210.671 233.77V234.954H213.671ZM213.671 235.147H210.671V238.147H213.671V235.147ZM225.166 235.147H228.166V232.147H225.166V235.147ZM225.166 237.803V240.803H228.166V237.803H225.166ZM209.566 237.803H212.566V235.63H209.566H206.566V237.803H209.566ZM209.566 235.63L211.781 237.653L219.943 228.718L217.728 226.695L215.513 224.672L207.351 233.606L209.566 235.63ZM217.728 226.695L219.941 228.721C220.926 227.645 221.761 226.684 222.435 225.843L220.095 223.966L217.754 222.089C217.189 222.795 216.446 223.652 215.515 224.669L217.728 226.695ZM220.095 223.966L222.444 225.832C223.176 224.91 223.792 223.954 224.222 222.966L221.471 221.769L218.72 220.572C218.555 220.952 218.253 221.461 217.745 222.101L220.095 223.966ZM221.471 221.769L224.215 222.981C224.69 221.907 224.93 220.77 224.93 219.596H221.93H218.93C218.93 219.935 218.864 220.246 218.727 220.556L221.471 221.769ZM221.93 219.596H224.93C224.93 218.226 224.593 216.881 223.808 215.688L221.302 217.338L218.796 218.987C218.848 219.066 218.93 219.227 218.93 219.596H221.93ZM221.302 217.338L223.822 215.711C223.098 214.588 222.103 213.736 220.917 213.164L219.612 215.865L218.307 218.566C218.553 218.685 218.685 218.816 218.782 218.965L221.302 217.338ZM219.612 215.865L220.917 213.164C219.746 212.598 218.486 212.346 217.197 212.346V215.346V218.346C217.694 218.346 218.045 218.44 218.307 218.566L219.612 215.865ZM217.197 215.346V212.346C215.824 212.346 214.476 212.634 213.25 213.316L214.71 215.937L216.169 218.558C216.36 218.452 216.67 218.346 217.197 218.346V215.346ZM214.71 215.937L213.26 213.31C212.064 213.97 211.113 214.922 210.453 216.118L213.08 217.567L215.706 219.016C215.819 218.812 215.954 218.677 216.159 218.564L214.71 215.937ZM213.08 217.567L210.44 216.141C209.785 217.353 209.512 218.682 209.512 220.03H212.512H215.512C215.512 219.495 215.617 219.182 215.719 218.993L213.08 217.567ZM212.512 220.03V217.03H209.663V220.03V223.03H212.512V220.03ZM209.663 220.03H212.663C212.663 219.059 212.881 218.343 213.226 217.778L210.665 216.215L208.104 214.652C207.113 216.276 206.663 218.103 206.663 220.03H209.663ZM210.665 216.215L213.226 217.778C213.609 217.15 214.117 216.668 214.802 216.304L213.394 213.655L211.986 211.006C210.368 211.866 209.057 213.091 208.104 214.652L210.665 216.215ZM213.394 213.655L214.794 216.308C215.48 215.946 216.291 215.738 217.294 215.738V212.738V209.738C215.414 209.738 213.626 210.141 211.993 211.002L213.394 213.655ZM217.294 212.738V215.738C218.309 215.738 219.085 215.948 219.706 216.287L221.145 213.655L222.584 211.023C220.967 210.139 219.176 209.738 217.294 209.738V212.738ZM221.145 213.655L219.706 216.287C220.388 216.66 220.87 217.127 221.219 217.697L223.777 216.13L226.336 214.564C225.413 213.057 224.14 211.874 222.584 211.023L221.145 213.655ZM223.777 216.13L221.219 217.697C221.553 218.242 221.731 218.851 221.731 219.596H224.731H227.731C227.731 217.797 227.273 216.095 226.336 214.564L223.777 216.13ZM224.731 219.596H221.731C221.731 220.133 221.635 220.662 221.431 221.199L224.236 222.264L227.041 223.329C227.497 222.127 227.731 220.877 227.731 219.596H224.731ZM224.236 222.264L221.426 221.213C221.24 221.71 220.855 222.413 220.154 223.338L222.546 225.15L224.937 226.961C225.846 225.761 226.588 224.541 227.046 223.314L224.236 222.264ZM222.546 225.15L220.152 223.341C219.442 224.281 218.411 225.485 217.03 226.969L219.225 229.013L221.421 231.058C222.873 229.498 224.056 228.127 224.939 226.958L222.546 225.15ZM219.225 229.013L217.034 226.964L211.48 232.905L213.671 234.954L215.863 237.002L221.417 231.062L219.225 229.013ZM213.671 234.954H210.671V235.147H213.671H216.671V234.954H213.671ZM213.671 235.147V238.147H225.166V235.147V232.147H213.671V235.147ZM225.166 235.147H222.166V237.803H225.166H228.166V235.147H225.166ZM225.166 237.803V234.803H209.566V237.803V240.803H225.166V237.803Z" fill="white"/>
<path d="M209.566 237.803V235.63L217.728 226.695C218.686 225.649 219.475 224.739 220.095 223.966C220.714 223.186 221.173 222.453 221.471 221.769C221.777 221.077 221.93 220.352 221.93 219.596C221.93 218.726 221.721 217.974 221.302 217.338C220.892 216.702 220.328 216.211 219.612 215.865C218.895 215.519 218.09 215.346 217.197 215.346C216.247 215.346 215.418 215.543 214.71 215.937C214.009 216.324 213.466 216.867 213.08 217.567C212.701 218.267 212.512 219.088 212.512 220.03H209.663C209.663 218.581 209.997 217.31 210.665 216.215C211.333 215.12 212.243 214.267 213.394 213.655C214.553 213.044 215.853 212.738 217.294 212.738C218.742 212.738 220.026 213.044 221.145 213.655C222.264 214.267 223.141 215.092 223.777 216.13C224.413 217.169 224.731 218.324 224.731 219.596C224.731 220.505 224.566 221.395 224.236 222.264C223.914 223.125 223.351 224.087 222.546 225.15C221.749 226.204 220.642 227.492 219.225 229.013L213.671 234.954V235.147H225.166V237.803H209.566Z" fill="black"/>
<path d="M208.372 68.5454H205.372V71.5454H208.372V68.5454ZM208.372 66.0824L205.836 64.4796L205.372 65.2138V66.0824H208.372ZM219.239 48.8892V45.8892H217.586L216.703 47.2864L219.239 48.8892ZM221.026 48.8892H224.026V45.8892H221.026V48.8892ZM221.026 52.7045V55.7045H224.026V52.7045H221.026ZM219.818 52.7045V49.7045H218.166L217.282 51.1018L219.818 52.7045ZM211.608 65.696L209.072 64.0933L208.608 64.8275V65.696H211.608ZM211.608 65.8892H208.608V68.8892H211.608V65.8892ZM226.242 65.8892H229.242V62.8892H226.242V65.8892ZM226.242 68.5454V71.5454H229.242V68.5454H226.242ZM220.012 73.6165H217.012V76.6165H220.012V73.6165ZM220.012 48.8892V45.8892H217.012V48.8892H220.012ZM222.861 48.8892H225.861V45.8892H222.861V48.8892ZM222.861 73.6165V76.6165H225.861V73.6165H222.861ZM208.372 68.5454H211.372V66.0824H208.372H205.372V68.5454H208.372ZM208.372 66.0824L210.908 67.6851L221.775 50.492L219.239 48.8892L216.703 47.2864L205.836 64.4796L208.372 66.0824ZM219.239 48.8892V51.8892H221.026V48.8892V45.8892H219.239V48.8892ZM221.026 48.8892H218.026V52.7045H221.026H224.026V48.8892H221.026ZM221.026 52.7045V49.7045H219.818V52.7045V55.7045H221.026V52.7045ZM219.818 52.7045L217.282 51.1018L209.072 64.0933L211.608 65.696L214.144 67.2987L222.354 54.3072L219.818 52.7045ZM211.608 65.696H208.608V65.8892H211.608H214.608V65.696H211.608ZM211.608 65.8892V68.8892H226.242V65.8892V62.8892H211.608V65.8892ZM226.242 65.8892H223.242V68.5454H226.242H229.242V65.8892H226.242ZM226.242 68.5454V65.5454H208.372V68.5454V71.5454H226.242V68.5454ZM220.012 73.6165H223.012V67.7969H220.012H217.012V73.6165H220.012ZM220.012 67.7969H223.012V66.6498H220.012H217.012V67.7969H220.012ZM220.012 66.6498H223.012V48.8892H220.012H217.012V66.6498H220.012ZM220.012 48.8892V51.8892H222.861V48.8892V45.8892H220.012V48.8892ZM222.861 48.8892H219.861V73.6165H222.861H225.861V48.8892H222.861ZM222.861 73.6165V70.6165H220.012V73.6165V76.6165H222.861V73.6165Z" fill="white"/>
<path d="M208.372 68.5454V66.0824L219.239 48.8892H221.026V52.7045H219.818L211.608 65.696V65.8892H226.242V68.5454H208.372ZM220.012 73.6165V67.7969V66.6498V48.8892H222.861V73.6165H220.012Z" fill="black"/>
<path d="M318.576 387.587L318.847 393.741L318.749 396.865M318.153 383.693L317.58 379.373L317.187 377.614M316.332 373.789L316.005 372.328L314.592 367.884M313.292 364.19L311.034 358.788L310.892 358.518M309.069 355.047L307.676 352.397L305.963 349.735M303.842 346.438L303.77 346.326L300.076 341.564M297.49 338.622L294.437 335.329L293.192 334.217M290.268 331.606L288.283 329.835L285.452 327.778M282.28 325.474L281.609 324.986L277.021 322.272M273.563 320.435L268.883 318.196L267.972 317.856M264.301 316.482L262.122 315.666L258.428 314.643M254.64 313.639L249.087 312.58L248.583 312.523M244.689 312.08L242.938 311.881L238.543 311.716M234.626 311.728L230.57 311.881L228.482 312.118M224.587 312.561L224.422 312.58L218.534 313.703M214.747 314.711L212.369 315.353L208.891 316.606M205.216 317.966L199.625 320.554M196.2 322.455L192.766 324.428L190.962 325.687M187.748 327.931L186.847 328.56L182.968 331.811M180.076 334.45L175.747 338.833M173.245 341.849L170.951 344.657L169.527 346.753M167.323 349.995L166.893 350.628L164.265 355.339M162.519 358.845L160.426 363.521L160.087 364.501M158.805 368.205L158.066 370.343L157.12 374.125M156.221 377.938L155.257 384.022M154.946 387.928L154.687 391.678L154.732 394.079M154.806 397.998L154.823 398.896L155.384 404.128M155.972 408L156.99 413.156L157.242 414.024M158.336 417.789L159.004 420.089L160.368 423.598M161.825 427.235L164.553 432.758M166.545 436.132L168.568 439.457L169.913 441.284M172.237 444.44L172.848 445.27L176.24 449.118M178.956 451.938L183.446 456.155M186.542 458.558L190.185 461.348L191.517 462.181M194.84 464.261L196.305 465.177L200.254 467.19M203.788 468.879L209.432 471.154L209.503 471.176M213.253 472.317L216.338 473.255L219.211 473.86M223.047 474.667L223.403 474.741L229.154 475.468M233.066 475.694L235.722 475.828L239.222 475.74M243.134 475.549L248.066 475.051L249.251 474.841M253.11 474.155L254.158 473.968L259.094 472.701M262.824 471.505L266.975 470.07L268.589 469.347M272.166 467.745L273.563 467.12L277.606 464.864M280.968 462.854L285.838 459.544L286.048 459.373M289.084 456.893L291.429 454.978L293.658 452.777M296.447 450.023L297.299 449.181L300.486 445.377M302.888 442.284L306.068 437.729L306.369 437.204M308.322 433.805L309.664 431.47L311.12 428.324M312.753 424.761L314.84 418.965M315.913 415.198L316.981 411.146L317.314 409.205M317.975 405.341L318.2 404.03L318.594 399.216M318.779 395.304L318.744 389.617L318.699 389.146M318.33 385.244L318.064 382.43L317.46 379.151M316.747 375.297L315.103 369.36M313.814 365.661L312.299 361.612L311.507 359.955M309.815 356.419L309.184 355.1L306.793 351.056M304.695 347.749L301.303 343.019L301.082 342.762M298.526 339.789L296.597 337.545L294.292 335.324M291.468 332.605L290.655 331.822L286.699 328.714M283.579 326.346L278.399 323.012M274.944 321.162L271.708 319.461L269.397 318.496M265.781 316.984L265.047 316.678L259.934 315.052M256.151 314.039L251.122 312.915L250.125 312.776M246.242 312.236L244.993 312.063L240.104 311.755M236.187 311.707L232.629 311.752L230.037 311.98M226.135 312.35L220.359 313.302L220.062 313.374M216.253 314.301L214.347 314.765L210.363 316.087M206.67 317.396L201.017 319.842M197.564 321.697L194.522 323.344L192.269 324.834M189 326.996L188.501 327.326L184.149 330.79M181.223 333.392L176.911 337.545L176.798 337.676M174.243 340.649L172.205 343.019L170.437 345.485M168.153 348.671L167.999 348.886L164.998 353.96M163.204 357.442L161.209 361.612L160.67 363.052M159.296 366.723L158.679 368.373L157.505 372.612M156.553 376.411L155.444 382.43L155.44 382.47M155.071 386.373L154.765 389.617L154.746 392.518M154.722 396.438L154.719 396.835L155.189 402.579M155.724 406.459L156.527 411.146L156.885 412.504M157.884 416.295L158.366 418.126L159.811 422.14M161.218 425.796L163.805 431.386M165.751 434.789L167.44 437.729L169.025 439.999M171.269 443.214L171.573 443.648L175.189 447.963M177.857 450.83L181.314 454.286L182.294 455.097M185.314 457.596L187.67 459.544L190.236 461.288M193.478 463.492L193.641 463.602L198.849 466.508M202.377 468.208L206.534 470.07L208.051 470.594M211.756 471.876L213.356 472.429L217.689 473.513M221.511 474.371L226.465 475.187L227.6 475.287M231.505 475.632L232.629 475.731L237.66 475.794M241.575 475.635L244.993 475.42L247.702 475.043M251.578 474.468L257.17 473.255L257.589 473.128M261.339 471.987L264.076 471.154L267.136 469.921M270.772 468.455L276.26 465.658M279.629 463.659L283.323 461.348L284.761 460.261M287.888 457.897L289.082 456.995L292.522 453.846M295.389 451.175L299.491 446.58M301.944 443.527L304.94 439.457L305.515 438.512M307.553 435.164L308.693 433.29L310.449 429.733M312.131 426.195L314.363 420.453M315.489 416.7L316.518 413.156L316.996 410.733M317.755 406.887L317.916 406.074L318.484 400.773" stroke="#6042A6" stroke-width="1.4" stroke-miterlimit="10" stroke-linecap="round" stroke-linejoin="round"/>
<path d="M318.847 393.741L318.563 386.919L317.713 380.144L316.303 373.464L314.343 366.923L311.846 360.568L308.556 353.944L304.682 347.643L300.257 341.716L295.317 336.211L289.466 330.807L283.119 325.995L276.833 322.096L270.221 318.78L263.876 316.258L257.344 314.272L250.668 312.836L243.897 311.959L237.076 311.649L230.253 311.906L223.475 312.729L216.789 314.113L210.241 316.047L203.876 318.519L197.739 321.512L191.396 325.317L185.421 329.677L179.454 334.953L174.027 340.783L169.515 346.644L165.548 352.887L162.16 359.462L159.378 366.315L157.366 372.84L155.904 379.51L155.001 386.278L154.663 393.097L154.894 399.921L155.69 406.702L157.048 413.394L158.957 419.95L161.404 426.324L164.642 432.974L168.466 439.305L172.845 445.267L177.742 450.81L183.55 456.26L189.859 461.122L196.114 465.069L202.699 468.438L209.025 471.009L215.542 473.047L222.205 474.535L228.97 475.465L235.788 475.829L242.613 475.625L249.397 474.855L256.094 473.524L262.657 471.641L269.041 469.219L275.202 466.275L281.574 462.52L287.583 458.206L293.591 452.977L299.064 447.19L303.622 441.365L307.637 435.153L311.077 428.605L313.913 421.774L315.975 415.265L317.49 408.607L318.446 401.846L318.837 395.029L318.66 388.204L317.917 381.417L316.612 374.714L314.755 368.144L312.358 361.751L309.171 355.076L305.397 348.714L301.767 343.615" stroke="#6042A6" stroke-width="7" stroke-miterlimit="10" stroke-linecap="round" stroke-linejoin="round"/>
<path d="M400.94 343.615L407.091 334.472L412.656 327.338L417.928 321.703L422.907 317.468L427.3 314.662L431.108 312.96L434.622 312.006L437.844 311.657L441.066 311.814L444.288 312.475L447.802 313.767L451.61 315.827L455.71 318.795L460.397 323.099L465.376 328.679L470.941 336.042L476.798 344.934L483.535 356.374L491.736 371.625L504.916 397.707L518.388 423.928L526.296 437.987L533.033 448.69L538.891 456.806L544.162 463.018L549.142 467.839L553.828 471.382L557.928 473.655L561.736 475.052L565.25 475.721L568.472 475.807L571.694 475.387L575.209 474.357L578.723 472.735L582.531 470.326L586.924 466.729L591.903 461.645L597.175 455.177L602.74 447.254L609.184 436.863L616.506 423.783L626.171 405.13L649.602 359.395L657.217 346.231L663.661 336.348L669.226 328.942L674.497 323.02L679.477 318.495L684.163 315.246L688.263 313.24L691.778 312.159L695.293 311.676L698.514 311.761L701.736 312.351L705.251 313.566L709.058 315.545L713.159 318.428L717.845 322.64L722.824 328.128L728.096 334.988L733.954 343.739L740.69 355.049L748.891 370.188L761.192 394.455L776.13 423.626L784.038 437.713L790.774 448.449L796.632 456.598L801.904 462.844L806.883 467.699L811.569 471.276L815.669 473.58L819.477 475.007L822.992 475.703L826.213 475.815L829.435 475.421L832.95 474.417L835 473.558" stroke="#2D70B3" stroke-width="7" stroke-miterlimit="10" stroke-linecap="round" stroke-linejoin="round"/>
<path d="M301.767 229.555L294.166 223.829L284.607 217.583L272.544 210.555L256.416 201.967L224.384 185.83L203.461 174.899L190.302 167.351L180.2 160.845L172.475 155.119L166.265 149.653L161.719 144.708L158.571 140.284L156.547 136.38L155.312 132.736L154.718 129.092L154.745 125.709L155.328 122.325L156.575 118.681L158.611 114.777L161.561 110.613L165.542 106.189L170.967 101.244L178.069 95.778L187.034 89.7919L198.428 83.025L213.345 74.9567L237.48 62.7242L265.975 48.1493L280.395 40.081L291.215 33.3141L299.563 27.328L306.025 21.8624L311.041 16.657L314.369 12.2325L316.678 8.06826L318.097 4.16426L318.758 0.520533L318.8 0" stroke="#C74440" stroke-width="7" stroke-miterlimit="10" stroke-linecap="round" stroke-linejoin="round"/>
<path d="M411.44 343.615C411.44 346.4 410.335 349.07 408.366 351.039C406.397 353.008 403.727 354.115 400.943 354.115C398.159 354.116 395.488 353.011 393.519 351.043C391.549 349.075 390.442 346.405 390.44 343.621C390.439 340.836 391.544 338.166 393.511 336.195C395.479 334.225 398.148 333.118 400.933 333.115C403.717 333.113 406.388 334.217 408.359 336.184C410.329 338.151 411.438 340.821 411.44 343.605V343.615Z" fill="#2D70B3"/>
<path d="M312.267 229.555C312.267 232.339 311.161 235.01 309.193 236.979C307.224 238.948 304.554 240.054 301.77 240.055C298.985 240.056 296.315 238.95 294.345 236.982C292.376 235.014 291.268 232.344 291.267 229.56C291.266 226.776 292.37 224.105 294.338 222.135C296.305 220.165 298.975 219.057 301.759 219.055C304.543 219.053 307.215 220.157 309.185 222.124C311.156 224.091 312.264 226.76 312.267 229.544L312.267 229.555Z" fill="#C74440"/>
<path d="M300.579 344.531C301.085 345.188 302.027 345.309 302.683 344.803C303.339 344.298 303.461 343.356 302.955 342.7L301.767 343.616L300.579 344.531ZM251.833 277.115C251.012 277.009 250.26 277.589 250.153 278.41L248.422 291.799C248.316 292.62 248.896 293.372 249.718 293.479C250.539 293.585 251.291 293.005 251.398 292.183L252.936 280.282L264.837 281.821C265.659 281.927 266.411 281.348 266.517 280.526C266.624 279.704 266.044 278.952 265.222 278.846L251.833 277.115ZM301.767 343.616L302.955 342.7L252.829 277.687L251.641 278.603L250.453 279.518L300.579 344.531L301.767 343.616Z" fill="#FA7E19"/>
<path d="M302.378 344.407C302.815 344.07 302.896 343.442 302.559 343.005C302.222 342.568 301.594 342.486 301.156 342.824L301.767 343.615L302.378 344.407ZM275.762 363.666L287.206 362.132L280.156 352.988L275.762 363.666ZM301.767 343.615L301.156 342.824L282.279 357.379L282.889 358.17L283.5 358.962L302.378 344.407L301.767 343.615Z" fill="black"/>
<path d="M301.767 343.615H314.087M321.927 343.615H334.247M342.087 343.615H354.407M362.247 343.615H374.567M382.407 343.615H394.727" stroke="#2D70B3" stroke-width="2.8" stroke-miterlimit="10" stroke-linecap="round" stroke-linejoin="round"/>
<path d="M301.767 343.615V331.295M301.767 323.455V311.135M301.767 303.295V290.975M301.767 283.135V270.815M301.767 262.975V250.655M301.767 242.815V230.495" stroke="#C74440" stroke-width="2.8" stroke-miterlimit="10" stroke-linecap="round" stroke-linejoin="round"/>
</g>
<defs>
<clipPath id="clip0_67_2">
<rect width="835" height="599" fill="white"/>
</clipPath>
</defs>
</svg>
