<svg width="376" height="347" viewBox="0 0 376 347" fill="none" xmlns="http://www.w3.org/2000/svg">
<g clip-path="url(#clip0_116_108)">
<path d="M765 -210H-35V590H765V-210Z" fill="white"/>
<path d="M0 -210V590" stroke="black" stroke-opacity="0.2" stroke-width="2" stroke-miterlimit="10"/>
<path d="M40 -210V590" stroke="black" stroke-opacity="0.2" stroke-width="2" stroke-miterlimit="10"/>
<path d="M124 -210V590" stroke="black" stroke-opacity="0.2" stroke-width="2" stroke-miterlimit="10"/>
<path d="M164 -210V590" stroke="black" stroke-opacity="0.2" stroke-width="2" stroke-miterlimit="10"/>
<path d="M206 -210V590" stroke="black" stroke-opacity="0.2" stroke-width="2" stroke-miterlimit="10"/>
<path d="M246 -210V590" stroke="black" stroke-opacity="0.2" stroke-width="2" stroke-miterlimit="10"/>
<path d="M288 -210V590" stroke="black" stroke-opacity="0.2" stroke-width="2" stroke-miterlimit="10"/>
<path d="M328 -210V590" stroke="black" stroke-opacity="0.2" stroke-width="2" stroke-miterlimit="10"/>
<path d="M370 -210V590" stroke="black" stroke-opacity="0.2" stroke-width="2" stroke-miterlimit="10"/>
<path d="M-35 347H765" stroke="black" stroke-opacity="0.2" stroke-width="2" stroke-miterlimit="10"/>
<path d="M-35 265H765" stroke="black" stroke-opacity="0.2" stroke-width="2" stroke-miterlimit="10"/>
<path d="M-35 223H765" stroke="black" stroke-opacity="0.2" stroke-width="2" stroke-miterlimit="10"/>
<path d="M-35 183H765" stroke="black" stroke-opacity="0.2" stroke-width="2" stroke-miterlimit="10"/>
<path d="M-35 141H765" stroke="black" stroke-opacity="0.2" stroke-width="2" stroke-miterlimit="10"/>
<path d="M-35 101H765" stroke="black" stroke-opacity="0.2" stroke-width="2" stroke-miterlimit="10"/>
<path d="M-35 59H765" stroke="black" stroke-opacity="0.2" stroke-width="2" stroke-miterlimit="10"/>
<path d="M-35 19H765" stroke="black" stroke-opacity="0.2" stroke-width="2" stroke-miterlimit="10"/>
<path d="M288 -210V590" stroke="black" stroke-opacity="0.25" stroke-width="2" stroke-miterlimit="10"/>
<path d="M-35 101H765" stroke="black" stroke-opacity="0.69" stroke-width="2" stroke-miterlimit="10" stroke-dasharray="4 4"/>
<path d="M83 -210V590" stroke="black" stroke-opacity="0.9" stroke-width="3" stroke-miterlimit="10"/>
<path d="M-35 306H765" stroke="black" stroke-opacity="0.9" stroke-width="3" stroke-miterlimit="10"/>
<path d="M57.7017 322.922L55.8567 325.288L55.866 325.295L57.7017 322.922ZM56.4936 321.138L53.6673 322.144L53.6686 322.147L56.4936 321.138ZM56.4936 315.485L53.671 314.468L53.6686 314.475L56.4936 315.485ZM57.7066 313.695L59.5515 316.061L59.5536 316.059L57.7066 313.695ZM61.5198 313.695L59.6657 316.054L59.6739 316.06L59.6821 316.066L61.5198 313.695ZM62.7329 315.485L59.9066 316.491L59.9092 316.498L59.9118 316.505L62.7329 315.485ZM62.7379 321.138L65.5628 322.147L65.5642 322.144L62.7379 321.138ZM61.5298 322.922L63.3654 325.295L63.3747 325.288L61.5298 322.922ZM61.3458 321.366L58.7441 319.873L58.7441 319.873L61.3458 321.366ZM61.6789 316.052L58.805 316.912L58.8071 316.919L58.8093 316.926L61.6789 316.052ZM60.8735 314.635L58.8266 316.828L58.8318 316.833L58.837 316.838L60.8735 314.635ZM57.8906 315.236L60.4931 316.729L60.496 316.724L57.8906 315.236ZM57.5475 320.551L54.6749 321.416L54.6749 321.416L57.5475 320.551ZM58.348 321.958L56.3123 324.162L56.3175 324.166L56.3227 324.171L58.348 321.958ZM59.6157 323.534V320.534C59.5148 320.534 59.4796 320.521 59.4884 320.523C59.4919 320.525 59.5006 320.528 59.512 320.534C59.5235 320.54 59.5322 320.546 59.5373 320.55L57.7017 322.922L55.866 325.295C56.9834 326.16 58.2892 326.534 59.6157 326.534V323.534ZM57.7017 322.922L59.5466 320.557C59.5461 320.556 59.5415 320.553 59.5329 320.544C59.5241 320.534 59.5089 320.516 59.4888 320.486C59.4481 320.426 59.3854 320.315 59.3185 320.128L56.4936 321.138L53.6686 322.147C54.093 323.335 54.7852 324.452 55.8567 325.288L57.7017 322.922ZM56.4936 321.138L59.3199 320.132C59.1876 319.76 59.0759 319.175 59.0759 318.304H56.0759H53.0759C53.0759 319.646 53.2427 320.951 53.6673 322.144L56.4936 321.138ZM56.0759 318.304H59.0759C59.0759 317.441 59.1871 316.862 59.3185 316.495L56.4936 315.485L53.6686 314.475C53.2432 315.665 53.0759 316.966 53.0759 318.304H56.0759ZM56.4936 315.485L59.3161 316.502C59.3848 316.311 59.4492 316.196 59.4915 316.134C59.5123 316.103 59.5282 316.085 59.5374 316.075C59.5465 316.065 59.5512 316.061 59.5515 316.061L57.7066 313.695L55.8617 311.33C54.7905 312.165 54.098 313.283 53.6711 314.468L56.4936 315.485ZM57.7066 313.695L59.5536 316.059C59.5516 316.061 59.545 316.066 59.5346 316.071C59.5242 316.077 59.5153 316.08 59.5102 316.082C59.5054 316.083 59.5092 316.082 59.5245 316.079C59.5401 316.077 59.5697 316.074 59.6157 316.074V313.074V310.074C58.2772 310.074 56.9724 310.462 55.8597 311.331L57.7066 313.695ZM59.6157 313.074V316.074C59.6617 316.074 59.691 316.077 59.7061 316.079C59.7208 316.081 59.7238 316.083 59.7178 316.081C59.7115 316.079 59.7013 316.075 59.6893 316.069C59.6774 316.062 59.6692 316.056 59.6657 316.054L61.5198 313.695L63.374 311.337C62.2611 310.462 60.954 310.074 59.6157 310.074V313.074ZM61.5198 313.695L59.6821 316.066C59.6822 316.067 59.6863 316.07 59.6945 316.078C59.7029 316.088 59.7177 316.105 59.7375 316.134C59.7775 316.193 59.84 316.304 59.9066 316.491L62.7329 315.485L65.5592 314.479C65.1342 313.285 64.438 312.161 63.3576 311.324L61.5198 313.695ZM62.7329 315.485L59.9118 316.505C60.0434 316.869 60.1555 317.444 60.1555 318.304H63.1555H66.1555C66.1555 316.963 65.9859 315.658 65.554 314.465L62.7329 315.485ZM63.1555 318.304H60.1555C60.1555 319.175 60.0439 319.76 59.9116 320.132L62.7379 321.138L65.5642 322.144C65.9887 320.951 66.1555 319.646 66.1555 318.304H63.1555ZM62.7379 321.138L59.9129 320.128C59.8461 320.315 59.7833 320.426 59.7427 320.486C59.7226 320.516 59.7074 320.534 59.6986 320.544C59.6899 320.553 59.6853 320.556 59.6849 320.557L61.5298 322.922L63.3747 325.288C64.4462 324.452 65.1384 323.335 65.5628 322.147L62.7379 321.138ZM61.5298 322.922L59.6942 320.55C59.6992 320.546 59.708 320.54 59.7194 320.534C59.7309 320.528 59.7396 320.525 59.743 320.523C59.7518 320.521 59.7166 320.534 59.6157 320.534V323.534V326.534C60.9423 326.534 62.248 326.16 63.3654 325.295L61.5298 322.922ZM59.6157 322.44V325.44C61.5705 325.44 63.0741 324.382 63.9476 322.86L61.3458 321.366L58.7441 319.873C58.7329 319.892 58.8073 319.757 59.023 319.623C59.2538 319.48 59.4821 319.44 59.6157 319.44V322.44ZM61.3458 321.366L63.9476 322.86C64.7322 321.493 64.9623 319.868 64.9623 318.304H61.9623H58.9623C58.9623 319.391 58.7814 319.808 58.7441 319.873L61.3458 321.366ZM61.9623 318.304H64.9623C64.9623 317.225 64.8487 316.162 64.5486 315.177L61.6789 316.052L58.8093 316.926C58.887 317.181 58.9623 317.62 58.9623 318.304H61.9623ZM61.6789 316.052L64.5528 315.191C64.2655 314.232 63.7708 313.228 62.9101 312.432L60.8735 314.635L58.837 316.838C58.7579 316.765 58.7281 316.711 58.7303 316.715C58.7339 316.722 58.7652 316.779 58.805 316.912L61.6789 316.052ZM60.8735 314.635L62.9205 312.442C61.9985 311.581 60.8405 311.148 59.6157 311.148V314.148V317.148C59.5242 317.148 59.3806 317.131 59.2145 317.067C59.0468 317.002 58.9156 316.911 58.8266 316.828L60.8735 314.635ZM59.6157 314.148V311.148C57.6375 311.148 56.146 312.241 55.2851 313.749L57.8906 315.236L60.496 316.724C60.5146 316.691 60.4467 316.822 60.2337 316.957C60.0027 317.103 59.7662 317.148 59.6157 317.148V314.148ZM57.8906 315.236L55.2881 313.744C54.5031 315.113 54.2691 316.736 54.2691 318.304H57.2691H60.2691C60.2691 317.227 60.4495 316.805 60.4931 316.729L57.8906 315.236ZM57.2691 318.304H54.2691C54.2691 319.378 54.3802 320.437 54.6749 321.416L57.5475 320.551L60.4202 319.686C60.3437 319.432 60.2691 318.993 60.2691 318.304H57.2691ZM57.5475 320.551L54.6749 321.416C54.9616 322.368 55.4541 323.369 56.3123 324.162L58.348 321.958L60.3837 319.754C60.4651 319.83 60.4961 319.885 60.4944 319.882C60.4933 319.88 60.4847 319.864 60.4711 319.832C60.4574 319.799 60.4398 319.751 60.4202 319.686L57.5475 320.551ZM58.348 321.958L56.3227 324.171C57.2492 325.019 58.4027 325.44 59.6157 325.44V322.44V319.44C59.6996 319.44 59.8355 319.455 59.995 319.516C60.1563 319.577 60.2846 319.664 60.3732 319.745L58.348 321.958Z" fill="white"/>
<path d="M59.6157 323.534C58.8667 323.534 58.2286 323.33 57.7017 322.922C57.1747 322.511 56.772 321.917 56.4936 321.138C56.2152 320.355 56.0759 319.411 56.0759 318.304C56.0759 317.203 56.2152 316.264 56.4936 315.485C56.7753 314.703 57.1796 314.106 57.7066 313.695C58.2369 313.281 58.8733 313.074 59.6157 313.074C60.3581 313.074 60.9929 313.281 61.5198 313.695C62.0501 314.106 62.4545 314.703 62.7329 315.485C63.0146 316.264 63.1555 317.203 63.1555 318.304C63.1555 319.411 63.0163 320.355 62.7379 321.138C62.4595 321.917 62.0568 322.511 61.5298 322.922C61.0028 323.33 60.3648 323.534 59.6157 323.534ZM59.6157 322.44C60.3581 322.44 60.9349 322.082 61.3458 321.366C61.7568 320.65 61.9623 319.63 61.9623 318.304C61.9623 317.422 61.8679 316.672 61.6789 316.052C61.4933 315.432 61.2249 314.96 60.8735 314.635C60.5255 314.31 60.1063 314.148 59.6157 314.148C58.8799 314.148 58.3049 314.511 57.8906 315.236C57.4763 315.959 57.2691 316.981 57.2691 318.304C57.2691 319.185 57.3619 319.935 57.5475 320.551C57.7331 321.168 58 321.636 58.348 321.958C58.6993 322.279 59.1219 322.44 59.6157 322.44Z" fill="black"/>
<path d="M275.985 313.213H278.985V310.213H275.985V313.213ZM275.985 323.395V326.395H278.985V323.395H275.985ZM274.752 323.395H271.752V326.395H274.752V323.395ZM274.752 314.506H277.752V311.506H274.752V314.506ZM274.692 314.506V311.506H273.787L273.033 312.006L274.692 314.506ZM272.207 316.156H269.207L273.866 318.655L272.207 316.156ZM272.207 314.903L270.547 312.404L269.207 313.294V314.903H272.207ZM274.752 313.213V310.213H273.847L273.093 310.714L274.752 313.213ZM275.985 313.213H272.985V323.395H275.985H278.985V313.213H275.985ZM275.985 323.395V320.395H274.752V323.395V326.395H275.985V323.395ZM274.752 323.395H277.752V314.506H274.752H271.752V323.395H274.752ZM274.752 314.506V311.506H274.692V314.506V317.506H274.752V314.506ZM274.692 314.506L273.033 312.006L270.547 313.657L272.207 316.156L273.866 318.655L276.352 317.005L274.692 314.506ZM272.207 316.156H275.207V314.903H272.207H269.207V316.156H272.207ZM272.207 314.903L273.866 317.402L276.412 315.712L274.752 313.213L273.093 310.714L270.547 312.404L272.207 314.903ZM274.752 313.213V316.213H275.985V313.213V310.213H274.752V313.213ZM280.32 322.922L278.475 325.288L278.485 325.295L280.32 322.922ZM279.112 321.138L276.286 322.144L276.287 322.147L279.112 321.138ZM279.112 315.485L276.29 314.468L276.287 314.475L279.112 315.485ZM280.325 313.695L282.17 316.061L282.172 316.059L280.325 313.695ZM284.138 313.695L282.284 316.054L282.293 316.06L282.301 316.066L284.138 313.695ZM285.352 315.485L282.525 316.491L282.528 316.498L282.53 316.505L285.352 315.485ZM285.357 321.138L288.181 322.147L288.183 322.144L285.357 321.138ZM284.148 322.922L285.984 325.295L285.993 325.288L284.148 322.922ZM283.964 321.366L281.363 319.873L281.363 319.873L283.964 321.366ZM284.298 316.052L281.424 316.912L281.426 316.919L281.428 316.926L284.298 316.052ZM283.492 314.635L281.445 316.828L281.45 316.833L281.456 316.838L283.492 314.635ZM280.509 315.236L283.112 316.729L283.115 316.724L280.509 315.236ZM280.166 320.551L277.294 321.416L277.294 321.416L280.166 320.551ZM280.967 321.958L278.931 324.162L278.936 324.166L278.941 324.171L280.967 321.958ZM282.234 323.534V320.534C282.133 320.534 282.098 320.521 282.107 320.523C282.111 320.525 282.119 320.528 282.131 320.534C282.142 320.54 282.151 320.546 282.156 320.55L280.32 322.922L278.485 325.295C279.602 326.16 280.908 326.534 282.234 326.534V323.534ZM280.32 322.922L282.165 320.557C282.165 320.556 282.16 320.553 282.152 320.544C282.143 320.534 282.128 320.516 282.107 320.486C282.067 320.426 282.004 320.315 281.937 320.128L279.112 321.138L276.287 322.147C276.712 323.335 277.404 324.452 278.475 325.288L280.32 322.922ZM279.112 321.138L281.939 320.132C281.806 319.76 281.695 319.175 281.695 318.304H278.695H275.695C275.695 319.646 275.861 320.951 276.286 322.144L279.112 321.138ZM278.695 318.304H281.695C281.695 317.441 281.806 316.862 281.937 316.495L279.112 315.485L276.287 314.475C275.862 315.665 275.695 316.966 275.695 318.304H278.695ZM279.112 315.485L281.935 316.502C282.003 316.311 282.068 316.196 282.11 316.134C282.131 316.103 282.147 316.085 282.156 316.075C282.165 316.065 282.17 316.061 282.17 316.061L280.325 313.695L278.48 311.33C277.409 312.165 276.717 313.283 276.29 314.468L279.112 315.485ZM280.325 313.695L282.172 316.059C282.17 316.061 282.164 316.066 282.153 316.071C282.143 316.077 282.134 316.08 282.129 316.082C282.124 316.083 282.128 316.082 282.143 316.079C282.159 316.077 282.188 316.074 282.234 316.074V313.074V310.074C280.896 310.074 279.591 310.462 278.478 311.331L280.325 313.695ZM282.234 313.074V316.074C282.28 316.074 282.31 316.077 282.325 316.079C282.339 316.081 282.342 316.083 282.336 316.081C282.33 316.079 282.32 316.075 282.308 316.069C282.296 316.062 282.288 316.056 282.284 316.054L284.138 313.695L285.993 311.337C284.88 310.462 283.573 310.074 282.234 310.074V313.074ZM284.138 313.695L282.301 316.066C282.301 316.067 282.305 316.07 282.313 316.078C282.322 316.088 282.336 316.105 282.356 316.134C282.396 316.193 282.459 316.304 282.525 316.491L285.352 315.485L288.178 314.479C287.753 313.285 287.057 312.161 285.976 311.324L284.138 313.695ZM285.352 315.485L282.53 316.505C282.662 316.869 282.774 317.444 282.774 318.304H285.774H288.774C288.774 316.963 288.605 315.658 288.173 314.465L285.352 315.485ZM285.774 318.304H282.774C282.774 319.175 282.663 319.76 282.53 320.132L285.357 321.138L288.183 322.144C288.607 320.951 288.774 319.646 288.774 318.304H285.774ZM285.357 321.138L282.532 320.128C282.465 320.315 282.402 320.426 282.361 320.486C282.341 320.516 282.326 320.534 282.317 320.544C282.309 320.553 282.304 320.556 282.304 320.557L284.148 322.922L285.993 325.288C287.065 324.452 287.757 323.335 288.181 322.147L285.357 321.138ZM284.148 322.922L282.313 320.55C282.318 320.546 282.327 320.54 282.338 320.534C282.35 320.528 282.358 320.525 282.362 320.523C282.37 320.521 282.335 320.534 282.234 320.534V323.534V326.534C283.561 326.534 284.867 326.16 285.984 325.295L284.148 322.922ZM282.234 322.44V325.44C284.189 325.44 285.693 324.382 286.566 322.86L283.964 321.366L281.363 319.873C281.352 319.892 281.426 319.757 281.642 319.623C281.872 319.48 282.101 319.44 282.234 319.44V322.44ZM283.964 321.366L286.566 322.86C287.351 321.493 287.581 319.868 287.581 318.304H284.581H281.581C281.581 319.391 281.4 319.808 281.363 319.873L283.964 321.366ZM284.581 318.304H287.581C287.581 317.225 287.467 316.162 287.167 315.177L284.298 316.052L281.428 316.926C281.506 317.181 281.581 317.62 281.581 318.304H284.581ZM284.298 316.052L287.171 315.191C286.884 314.232 286.389 313.228 285.529 312.432L283.492 314.635L281.456 316.838C281.377 316.765 281.347 316.711 281.349 316.715C281.353 316.722 281.384 316.779 281.424 316.912L284.298 316.052ZM283.492 314.635L285.539 312.442C284.617 311.581 283.459 311.148 282.234 311.148V314.148V317.148C282.143 317.148 281.999 317.131 281.833 317.067C281.665 317.002 281.534 316.911 281.445 316.828L283.492 314.635ZM282.234 314.148V311.148C280.256 311.148 278.765 312.241 277.904 313.749L280.509 315.236L283.115 316.724C283.133 316.691 283.065 316.822 282.852 316.957C282.621 317.103 282.385 317.148 282.234 317.148V314.148ZM280.509 315.236L277.907 313.744C277.122 315.113 276.888 316.736 276.888 318.304H279.888H282.888C282.888 317.227 283.068 316.805 283.112 316.729L280.509 315.236ZM279.888 318.304H276.888C276.888 319.378 276.999 320.437 277.294 321.416L280.166 320.551L283.039 319.686C282.962 319.432 282.888 318.993 282.888 318.304H279.888ZM280.166 320.551L277.294 321.416C277.58 322.368 278.073 323.369 278.931 324.162L280.967 321.958L283.002 319.754C283.084 319.83 283.115 319.885 283.113 319.882C283.112 319.88 283.103 319.864 283.09 319.832C283.076 319.799 283.058 319.751 283.039 319.686L280.166 320.551ZM280.967 321.958L278.941 324.171C279.868 325.019 281.021 325.44 282.234 325.44V322.44V319.44C282.318 319.44 282.454 319.455 282.614 319.516C282.775 319.577 282.903 319.664 282.992 319.745L280.967 321.958Z" fill="white"/>
<path d="M275.985 313.213V323.395H274.752V314.506H274.692L272.207 316.156V314.903L274.752 313.213H275.985ZM282.234 323.534C281.485 323.534 280.847 323.33 280.32 322.922C279.793 322.511 279.391 321.917 279.112 321.138C278.834 320.355 278.695 319.411 278.695 318.304C278.695 317.203 278.834 316.264 279.112 315.485C279.394 314.703 279.798 314.106 280.325 313.695C280.856 313.281 281.492 313.074 282.234 313.074C282.977 313.074 283.612 313.281 284.138 313.695C284.669 314.106 285.073 314.703 285.352 315.485C285.633 316.264 285.774 317.203 285.774 318.304C285.774 319.411 285.635 320.355 285.357 321.138C285.078 321.917 284.675 322.511 284.148 322.922C283.621 323.33 282.983 323.534 282.234 323.534ZM282.234 322.44C282.977 322.44 283.554 322.082 283.964 321.366C284.375 320.65 284.581 319.63 284.581 318.304C284.581 317.422 284.487 316.672 284.298 316.052C284.112 315.432 283.844 314.96 283.492 314.635C283.144 314.31 282.725 314.148 282.234 314.148C281.499 314.148 280.924 314.511 280.509 315.236C280.095 315.959 279.888 316.981 279.888 318.304C279.888 319.185 279.981 319.935 280.166 320.551C280.352 321.168 280.619 321.636 280.967 321.958C281.318 322.279 281.741 322.44 282.234 322.44Z" fill="black"/>
<path d="M45.0881 83.8881H48.0881V80.8881H45.0881V83.8881ZM45.0881 94.0699V97.0699H48.0881V94.0699H45.0881ZM43.8552 94.0699H40.8552V97.0699H43.8552V94.0699ZM43.8552 85.1807H46.8552V82.1807H43.8552V85.1807ZM43.7955 85.1807V82.1807H42.8902L42.136 82.6815L43.7955 85.1807ZM41.3097 86.8313H38.3097L42.9692 89.3305L41.3097 86.8313ZM41.3097 85.5785L39.6501 83.0793L38.3097 83.9694V85.5785H41.3097ZM43.8552 83.8881V80.8881H42.9498L42.1956 81.389L43.8552 83.8881ZM45.0881 83.8881H42.0881V94.0699H45.0881H48.0881V83.8881H45.0881ZM45.0881 94.0699V91.0699H43.8552V94.0699V97.0699H45.0881V94.0699ZM43.8552 94.0699H46.8552V85.1807H43.8552H40.8552V94.0699H43.8552ZM43.8552 85.1807V82.1807H43.7955V85.1807V88.1807H43.8552V85.1807ZM43.7955 85.1807L42.136 82.6815L39.6502 84.3321L41.3097 86.8313L42.9692 89.3305L45.455 87.68L43.7955 85.1807ZM41.3097 86.8313H44.3097V85.5785H41.3097H38.3097V86.8313H41.3097ZM41.3097 85.5785L42.9693 88.0776L45.5148 86.3873L43.8552 83.8881L42.1956 81.389L39.6501 83.0793L41.3097 85.5785ZM43.8552 83.8881V86.8881H45.0881V83.8881V80.8881H43.8552V83.8881ZM49.4233 93.5976L47.5784 95.9633L47.5877 95.9705L49.4233 93.5976ZM48.2152 91.8128L45.3889 92.8188L45.3903 92.8226L48.2152 91.8128ZM48.2152 86.1601L45.3927 85.1436L45.3903 85.1504L48.2152 86.1601ZM49.4283 84.3704L51.2732 86.736L51.2752 86.7344L49.4283 84.3704ZM53.2415 84.3704L51.3874 86.7288L51.3956 86.7352L51.4038 86.7416L53.2415 84.3704ZM54.4546 86.1601L51.6283 87.1661L51.6309 87.1733L51.6335 87.1806L54.4546 86.1601ZM54.4596 91.8128L57.2845 92.8226L57.2859 92.8188L54.4596 91.8128ZM53.2515 93.5976L55.0871 95.9705L55.0964 95.9633L53.2515 93.5976ZM53.0675 92.0415L50.4658 90.5479L50.4658 90.5479L53.0675 92.0415ZM53.4006 86.7269L50.5267 87.5875L50.5288 87.5946L50.531 87.6016L53.4006 86.7269ZM52.5952 85.31L50.5483 87.5032L50.5534 87.508L50.5586 87.5128L52.5952 85.31ZM49.6123 85.9116L52.2148 87.4038L52.2177 87.3987L49.6123 85.9116ZM49.2692 91.2262L46.3966 92.0911L46.3966 92.0911L49.2692 91.2262ZM50.0696 92.6332L48.0339 94.8368L48.0391 94.8416L48.0444 94.8464L50.0696 92.6332ZM51.3374 94.2092V91.2092C51.2365 91.2092 51.2013 91.1958 51.2101 91.1986C51.2135 91.1997 51.2223 91.2029 51.2337 91.2089C51.2451 91.2149 51.2539 91.2209 51.259 91.2248L49.4233 93.5976L47.5877 95.9705C48.7051 96.8349 50.0108 97.2092 51.3374 97.2092V94.2092ZM49.4233 93.5976L51.2683 91.232C51.2678 91.2316 51.2632 91.2281 51.2546 91.2187C51.2457 91.2092 51.2306 91.1913 51.2105 91.1616C51.1698 91.1015 51.1071 90.9901 51.0402 90.8031L48.2152 91.8128L45.3903 92.8226C45.8147 94.0099 46.5069 95.1277 47.5784 95.9633L49.4233 93.5976ZM48.2152 91.8128L51.0416 90.8069C50.9093 90.4352 50.7976 89.8505 50.7976 88.979H47.7976H44.7976C44.7976 90.3216 44.9644 91.6261 45.3889 92.8188L48.2152 91.8128ZM47.7976 88.979H50.7976C50.7976 88.116 50.9088 87.5375 51.0402 87.1699L48.2152 86.1601L45.3903 85.1504C44.9649 86.3406 44.7976 87.6413 44.7976 88.979H47.7976ZM48.2152 86.1601L51.0378 87.1767C51.1065 86.9859 51.1709 86.8715 51.2131 86.8092C51.234 86.7784 51.2498 86.7598 51.2591 86.7498C51.2682 86.7399 51.2729 86.7363 51.2732 86.736L49.4283 84.3704L47.5834 82.0047C46.5122 82.8401 45.8197 83.9582 45.3927 85.1436L48.2152 86.1601ZM49.4283 84.3704L51.2752 86.7344C51.2733 86.736 51.2667 86.7407 51.2563 86.7463C51.2459 86.7518 51.237 86.7553 51.2319 86.757C51.2271 86.7585 51.2309 86.7568 51.2462 86.7545C51.2618 86.7521 51.2914 86.7489 51.3374 86.7489V83.7489V80.7489C49.9989 80.7489 48.6941 81.137 47.5814 82.0063L49.4283 84.3704ZM51.3374 83.7489V86.7489C51.3834 86.7489 51.4127 86.7521 51.4278 86.7544C51.4425 86.7566 51.4454 86.7582 51.4395 86.7562C51.4332 86.7542 51.4229 86.7502 51.411 86.7438C51.3991 86.7374 51.3909 86.7316 51.3874 86.7288L53.2415 84.3704L55.0956 82.0119C53.9827 81.137 52.6757 80.7489 51.3374 80.7489V83.7489ZM53.2415 84.3704L51.4038 86.7416C51.4039 86.7417 51.408 86.7448 51.4162 86.7537C51.4246 86.7627 51.4394 86.78 51.4592 86.8092C51.4992 86.8682 51.5617 86.9789 51.6283 87.1661L54.4546 86.1601L57.2809 85.1542C56.8559 83.9602 56.1597 82.8365 55.0792 81.9991L53.2415 84.3704ZM54.4546 86.1601L51.6335 87.1806C51.7651 87.5445 51.8772 88.1191 51.8772 88.979H54.8772H57.8772C57.8772 87.6382 57.7075 86.3336 57.2757 85.1397L54.4546 86.1601ZM54.8772 88.979H51.8772C51.8772 89.8505 51.7656 90.4352 51.6333 90.8069L54.4596 91.8128L57.2859 92.8188C57.7104 91.6261 57.8772 90.3216 57.8772 88.979H54.8772ZM54.4596 91.8128L51.6346 90.8031C51.5677 90.9901 51.505 91.1015 51.4644 91.1616C51.4442 91.1913 51.4291 91.2092 51.4202 91.2187C51.4116 91.2281 51.407 91.2316 51.4066 91.232L53.2515 93.5976L55.0964 95.9633C56.1679 95.1277 56.8601 94.0099 57.2845 92.8226L54.4596 91.8128ZM53.2515 93.5976L51.4158 91.2248C51.4209 91.2209 51.4297 91.2149 51.4411 91.2089C51.4526 91.2029 51.4613 91.1997 51.4647 91.1986C51.4735 91.1958 51.4383 91.2092 51.3374 91.2092V94.2092V97.2092C52.664 97.2092 53.9697 96.8349 55.0871 95.9705L53.2515 93.5976ZM51.3374 93.1154V96.1154C53.2922 96.1154 54.7958 95.0567 55.6693 93.5351L53.0675 92.0415L50.4658 90.5479C50.4546 90.5674 50.529 90.4319 50.7447 90.298C50.9755 90.1548 51.2038 90.1154 51.3374 90.1154V93.1154ZM53.0675 92.0415L55.6693 93.5351C56.4539 92.1683 56.684 90.543 56.684 88.979H53.684H50.684C50.684 90.0666 50.5031 90.4829 50.4658 90.5479L53.0675 92.0415ZM53.684 88.979H56.684C56.684 87.9001 56.5704 86.8368 56.2703 85.8522L53.4006 86.7269L50.531 87.6016C50.6087 87.8566 50.684 88.2947 50.684 88.979H53.684ZM53.4006 86.7269L56.2745 85.8663C55.9872 84.9068 55.4925 83.9029 54.6318 83.1072L52.5952 85.31L50.5586 87.5128C50.4796 87.4397 50.4498 87.3865 50.452 87.3903C50.4556 87.3968 50.4869 87.4545 50.5267 87.5875L53.4006 86.7269ZM52.5952 85.31L54.6422 83.1168C53.7202 82.2563 52.5622 81.8228 51.3374 81.8228V84.8228V87.8228C51.2459 87.8228 51.1023 87.8064 50.9362 87.7421C50.7685 87.6771 50.6373 87.5862 50.5483 87.5032L52.5952 85.31ZM51.3374 84.8228V81.8228C49.3592 81.8228 47.8677 82.9161 47.0068 84.4244L49.6123 85.9116L52.2177 87.3987C52.2363 87.3662 52.1684 87.4975 51.9554 87.632C51.7243 87.7778 51.4879 87.8228 51.3374 87.8228V84.8228ZM49.6123 85.9116L47.0097 84.4193C46.2248 85.7883 45.9908 87.4113 45.9908 88.979H48.9908H51.9908C51.9908 87.9018 52.1712 87.4799 52.2148 87.4038L49.6123 85.9116ZM48.9908 88.979H45.9908C45.9908 90.0536 46.1019 91.1121 46.3966 92.0911L49.2692 91.2262L52.1418 90.3613C52.0654 90.1073 51.9908 89.6677 51.9908 88.979H48.9908ZM49.2692 91.2262L46.3966 92.0911C46.6833 93.0434 47.1758 94.044 48.0339 94.8368L50.0696 92.6332L52.1054 90.4296C52.1868 90.5048 52.2178 90.5599 52.2161 90.5568C52.215 90.5549 52.2064 90.5394 52.1928 90.5068C52.1791 90.4741 52.1614 90.4264 52.1418 90.3613L49.2692 91.2262ZM50.0696 92.6332L48.0444 94.8464C48.9709 95.6942 50.1244 96.1154 51.3374 96.1154V93.1154V90.1154C51.4213 90.1154 51.5572 90.1302 51.7167 90.1909C51.878 90.2522 52.0063 90.3388 52.0949 90.42L50.0696 92.6332Z" fill="white"/>
<path d="M45.0881 83.8881V94.0699H43.8552V85.1807H43.7955L41.3097 86.8313V85.5785L43.8552 83.8881H45.0881ZM51.3374 94.2092C50.5883 94.2092 49.9503 94.0053 49.4233 93.5976C48.8964 93.1867 48.4937 92.5917 48.2152 91.8128C47.9368 91.0306 47.7976 90.086 47.7976 88.979C47.7976 87.8787 47.9368 86.939 48.2152 86.1601C48.497 85.3779 48.9013 84.7814 49.4283 84.3704C49.9586 83.9561 50.595 83.7489 51.3374 83.7489C52.0798 83.7489 52.7145 83.9561 53.2415 84.3704C53.7718 84.7814 54.1762 85.3779 54.4546 86.1601C54.7363 86.939 54.8772 87.8787 54.8772 88.979C54.8772 90.086 54.738 91.0306 54.4596 91.8128C54.1812 92.5917 53.7785 93.1867 53.2515 93.5976C52.7245 94.0053 52.0865 94.2092 51.3374 94.2092ZM51.3374 93.1154C52.0798 93.1154 52.6565 92.7574 53.0675 92.0415C53.4785 91.3256 53.684 90.3048 53.684 88.979C53.684 88.0974 53.5895 87.3467 53.4006 86.7269C53.215 86.1071 52.9465 85.6348 52.5952 85.31C52.2472 84.9852 51.8279 84.8228 51.3374 84.8228C50.6016 84.8228 50.0266 85.1857 49.6123 85.9116C49.198 86.6341 48.9908 87.6566 48.9908 88.979C48.9908 89.8607 49.0836 90.6097 49.2692 91.2262C49.4548 91.8427 49.7216 92.3117 50.0696 92.6332C50.421 92.9547 50.8436 93.1154 51.3374 93.1154Z" fill="black"/>
<path d="M90.0269 305.779C90.0269 307.9 89.1843 309.935 87.6844 311.435C86.1846 312.935 84.1502 313.778 82.0289 313.779C79.9075 313.779 77.8727 312.937 76.3721 311.438C74.8715 309.938 74.0279 307.904 74.0269 305.783C74.0258 303.661 74.8674 301.626 76.3665 300.125C77.8656 298.625 79.8995 297.78 82.0209 297.779C84.1422 297.777 86.1774 298.618 87.6788 300.117C89.1801 301.616 90.0247 303.649 90.0269 305.771V305.779Z" fill="#6042A6"/>
<path d="M192.689 59.3889C192.689 61.5103 191.847 63.5448 190.347 65.045C188.847 66.5453 186.813 67.3884 184.691 67.3889C182.57 67.3894 180.535 66.5474 179.035 65.0479C177.534 63.5484 176.691 61.5143 176.689 59.3929C176.688 57.2715 177.53 55.2366 179.029 53.7356C180.528 52.2346 182.562 51.3905 184.683 51.3889C186.805 51.3873 188.84 52.2284 190.341 53.7271C191.843 55.2258 192.687 57.2595 192.689 59.3809L192.689 59.3889Z" fill="#6042A6"/>
<path d="M295.352 100.454C295.352 102.575 294.509 104.61 293.01 106.11C291.51 107.61 289.475 108.453 287.354 108.454C285.233 108.454 283.198 107.612 281.697 106.113C280.197 104.613 279.353 102.579 279.352 100.458C279.351 98.3365 280.193 96.3015 281.692 94.8005C283.191 93.2996 285.225 92.4555 287.346 92.4539C289.467 92.4523 291.503 93.2933 293.004 94.7921C294.505 96.2908 295.35 98.3245 295.352 100.446V100.454Z" fill="#D92424"/>
<path d="M184.608 58.5798C184.1 58.7961 183.864 59.3834 184.08 59.8916L187.604 68.1729C187.82 68.6811 188.407 68.9178 188.916 68.7015C189.424 68.4853 189.66 67.898 189.444 67.3898L186.312 60.0286L193.673 56.8962C194.181 56.6799 194.418 56.0926 194.202 55.5844C193.985 55.0763 193.398 54.8396 192.89 55.0558L184.608 58.5798ZM308.707 100.707C309.098 100.317 309.098 99.6834 308.707 99.2929L302.343 92.9289C301.953 92.5384 301.319 92.5384 300.929 92.9289C300.538 93.3195 300.538 93.9526 300.929 94.3431L306.586 100L300.929 105.657C300.538 106.047 300.538 106.681 300.929 107.071C301.319 107.462 301.953 107.462 302.343 107.071L308.707 100.707ZM285.5 100L285.874 99.0725L185.374 58.5725L185 59.5L184.626 60.4275L285.126 100.928L285.5 100ZM294.72 100V101H308V100V99H294.72V100Z" fill="black"/>
<path d="M288 52.5059C300.55 52.6364 312.558 57.6748 321.441 66.5586C330.443 75.5603 335.5 87.7696 335.5 100.5C335.5 113.23 330.443 125.44 321.441 134.441C312.558 143.325 300.55 148.364 288 148.494L288 52.5059Z" stroke="black"/>
<path d="M223.525 63.7932C223.525 62.5118 223.692 61.3339 224.024 60.2593C224.359 59.1813 224.837 58.1898 225.458 57.2847H226.515C226.271 57.6203 226.042 58.0338 225.829 58.5254C225.619 59.0135 225.434 59.5508 225.275 60.1372C225.115 60.7203 224.99 61.3237 224.898 61.9474C224.81 62.5712 224.766 63.1864 224.766 63.7932C224.766 64.6 224.844 65.4186 225 66.2491C225.156 67.0797 225.366 67.8508 225.631 68.5627C225.895 69.2746 226.19 69.8542 226.515 70.3017H225.458C224.837 69.3966 224.359 68.4068 224.024 67.3322C223.692 66.2542 223.525 65.0746 223.525 63.7932ZM232.761 63.2339V64.3525H228.205V63.2339H232.761ZM238.106 69.1424C237.509 69.1424 236.972 69.0237 236.494 68.7864C236.016 68.5492 235.633 68.2237 235.345 67.8102C235.057 67.3966 234.899 66.9254 234.872 66.3966H236.092C236.14 66.8678 236.353 67.2576 236.733 67.5661C237.116 67.8712 237.574 68.0237 238.106 68.0237C238.533 68.0237 238.913 67.9237 239.245 67.7237C239.581 67.5237 239.843 67.2491 240.033 66.9C240.226 66.5474 240.323 66.1491 240.323 65.7051C240.323 65.2508 240.223 64.8457 240.023 64.4898C239.826 64.1305 239.555 63.8474 239.209 63.6406C238.864 63.4339 238.469 63.3288 238.025 63.3254C237.706 63.322 237.379 63.3712 237.043 63.4729C236.708 63.5712 236.431 63.6983 236.214 63.8542L235.035 63.7118L235.665 58.5864H241.076V59.705H236.723L236.357 62.7762H236.418C236.631 62.6067 236.899 62.4661 237.221 62.3542C237.543 62.2423 237.879 62.1864 238.228 62.1864C238.865 62.1864 239.433 62.3389 239.931 62.644C240.433 62.9457 240.826 63.3593 241.111 63.8847C241.399 64.4101 241.543 65.0101 241.543 65.6847C241.543 66.3491 241.394 66.9424 241.096 67.4644C240.801 67.983 240.394 68.3932 239.876 68.6949C239.357 68.9932 238.767 69.1424 238.106 69.1424ZM244.982 67.5763L244.901 68.1254C244.843 68.5119 244.755 68.9254 244.636 69.3661C244.521 69.8068 244.401 70.222 244.275 70.6119C244.15 71.0017 244.046 71.3119 243.965 71.5424H243.05C243.094 71.3254 243.151 71.039 243.223 70.6831C243.294 70.3271 243.365 69.9288 243.436 69.4881C243.511 69.0508 243.572 68.6034 243.619 68.1458L243.68 67.5763H244.982ZM247.185 69V68.0847L250.622 64.322C251.026 63.8813 251.358 63.4983 251.619 63.1728C251.88 62.844 252.073 62.5356 252.198 62.2474C252.327 61.9559 252.392 61.6508 252.392 61.3322C252.392 60.9661 252.304 60.6491 252.127 60.3813C251.954 60.1135 251.717 59.9067 251.415 59.761C251.114 59.6152 250.775 59.5423 250.398 59.5423C249.998 59.5423 249.649 59.6254 249.351 59.7915C249.056 59.9542 248.827 60.183 248.665 60.4779C248.505 60.7728 248.426 61.1186 248.426 61.5152H247.226C247.226 60.905 247.366 60.3694 247.648 59.9084C247.929 59.4474 248.312 59.0881 248.797 58.8305C249.285 58.5728 249.832 58.444 250.439 58.444C251.049 58.444 251.59 58.5728 252.061 58.8305C252.532 59.0881 252.902 59.4355 253.17 59.8728C253.437 60.3101 253.571 60.7966 253.571 61.3322C253.571 61.7152 253.502 62.0898 253.363 62.4559C253.227 62.8186 252.99 63.2237 252.651 63.6712C252.315 64.1152 251.849 64.6576 251.253 65.2983L248.914 67.8V67.8813H253.754V69H247.185ZM258.437 63.7932C258.437 65.0746 258.27 66.2542 257.934 67.3322C257.602 68.4068 257.126 69.3966 256.505 70.3017H255.448C255.692 69.9661 255.919 69.5525 256.129 69.061C256.343 68.5729 256.529 68.0373 256.688 67.4542C256.848 66.8678 256.971 66.2627 257.06 65.639C257.151 65.0118 257.197 64.3966 257.197 63.7932C257.197 62.9864 257.119 62.1678 256.963 61.3372C256.807 60.5067 256.597 59.7355 256.332 59.0237C256.068 58.3118 255.773 57.7321 255.448 57.2847H256.505C257.126 58.1898 257.602 59.1813 257.934 60.2593C258.27 61.3339 258.437 62.5118 258.437 63.7932Z" fill="black"/>
<path d="M166.525 35.7932C166.525 34.5118 166.692 33.3339 167.024 32.2593C167.359 31.1813 167.837 30.1898 168.458 29.2847H169.515C169.271 29.6203 169.042 30.0338 168.829 30.5254C168.619 31.0135 168.434 31.5508 168.275 32.1372C168.115 32.7203 167.99 33.3237 167.898 33.9474C167.81 34.5712 167.766 35.1864 167.766 35.7932C167.766 36.6 167.844 37.4186 168 38.2491C168.156 39.0797 168.366 39.8508 168.631 40.5627C168.895 41.2746 169.19 41.8542 169.515 42.3017H168.458C167.837 41.3966 167.359 40.4068 167.024 39.3322C166.692 38.2542 166.525 37.0746 166.525 35.7932ZM174.52 41.1424C173.923 41.1424 173.386 41.0237 172.908 40.7864C172.43 40.5492 172.047 40.2237 171.759 39.8102C171.471 39.3966 171.313 38.9254 171.286 38.3966H172.506C172.554 38.8678 172.767 39.2576 173.147 39.5661C173.53 39.8712 173.988 40.0237 174.52 40.0237C174.947 40.0237 175.327 39.9237 175.659 39.7237C175.995 39.5237 176.257 39.2491 176.447 38.9C176.64 38.5474 176.737 38.1491 176.737 37.7051C176.737 37.2508 176.637 36.8457 176.437 36.4898C176.24 36.1305 175.969 35.8474 175.623 35.6406C175.278 35.4339 174.883 35.3288 174.439 35.3254C174.12 35.322 173.793 35.3712 173.457 35.4729C173.122 35.5712 172.845 35.6983 172.628 35.8542L171.449 35.7118L172.079 30.5864H177.489V31.705H173.137L172.771 34.7762H172.832C173.045 34.6067 173.313 34.4661 173.635 34.3542C173.957 34.2423 174.293 34.1864 174.642 34.1864C175.279 34.1864 175.847 34.3389 176.345 34.644C176.847 34.9457 177.24 35.3593 177.525 35.8847C177.813 36.4101 177.957 37.0101 177.957 37.6847C177.957 38.3491 177.808 38.9424 177.51 39.4644C177.215 39.983 176.808 40.3932 176.289 40.6949C175.771 40.9932 175.181 41.1424 174.52 41.1424ZM181.396 39.5763L181.314 40.1254C181.257 40.5119 181.169 40.9254 181.05 41.3661C180.935 41.8068 180.814 42.222 180.689 42.6119C180.564 43.0017 180.46 43.3119 180.379 43.5424H179.464C179.508 43.3254 179.565 43.039 179.637 42.6831C179.708 42.3271 179.779 41.9288 179.85 41.4881C179.925 41.0508 179.986 40.6034 180.033 40.1458L180.094 39.5763H181.396ZM186.015 30.5864V41H184.754V31.9084H184.693L182.151 33.5966V32.3152L184.754 30.5864H186.015ZM189.01 41V40.0847L192.448 36.322C192.851 35.8813 193.183 35.4983 193.444 35.1728C193.705 34.844 193.898 34.5356 194.024 34.2474C194.153 33.9559 194.217 33.6508 194.217 33.3322C194.217 32.9661 194.129 32.6491 193.953 32.3813C193.78 32.1135 193.543 31.9067 193.241 31.761C192.939 31.6152 192.6 31.5423 192.224 31.5423C191.824 31.5423 191.475 31.6254 191.176 31.7915C190.881 31.9542 190.653 32.183 190.49 32.4779C190.331 32.7728 190.251 33.1186 190.251 33.5152H189.051C189.051 32.905 189.192 32.3694 189.473 31.9084C189.754 31.4474 190.137 31.0881 190.622 30.8305C191.11 30.5728 191.658 30.444 192.265 30.444C192.875 30.444 193.415 30.5728 193.887 30.8305C194.358 31.0881 194.727 31.4355 194.995 31.8728C195.263 32.3101 195.397 32.7966 195.397 33.3322C195.397 33.7152 195.327 34.0898 195.188 34.4559C195.053 34.8186 194.815 35.2237 194.476 35.6712C194.141 36.1152 193.675 36.6576 193.078 37.2983L190.739 39.8V39.8813H195.58V41H189.01ZM200.263 35.7932C200.263 37.0746 200.095 38.2542 199.76 39.3322C199.427 40.4068 198.951 41.3966 198.331 42.3017H197.273C197.517 41.9661 197.744 41.5525 197.954 41.061C198.168 40.5729 198.354 40.0373 198.514 39.4542C198.673 38.8678 198.797 38.2627 198.885 37.639C198.976 37.0118 199.022 36.3966 199.022 35.7932C199.022 34.9864 198.944 34.1678 198.788 33.3372C198.632 32.5067 198.422 31.7355 198.158 31.0237C197.893 30.3118 197.598 29.7321 197.273 29.2847H198.331C198.951 30.1898 199.427 31.1813 199.76 32.2593C200.095 33.3339 200.263 34.5118 200.263 35.7932Z" fill="#6042A6"/>
<path d="M267.525 78.7932C267.525 77.5118 267.692 76.3339 268.024 75.2593C268.359 74.1813 268.837 73.1898 269.458 72.2847H270.515C270.271 72.6203 270.042 73.0338 269.829 73.5254C269.619 74.0135 269.434 74.5508 269.275 75.1372C269.115 75.7203 268.99 76.3237 268.898 76.9474C268.81 77.5712 268.766 78.1864 268.766 78.7932C268.766 79.6 268.844 80.4186 269 81.2491C269.156 82.0797 269.366 82.8508 269.631 83.5627C269.895 84.2746 270.19 84.8542 270.515 85.3017H269.458C268.837 84.3966 268.359 83.4068 268.024 82.3322C267.692 81.2542 267.525 80.0746 267.525 78.7932ZM275.927 73.5864V84H274.666V74.9084H274.605L272.062 76.5966V75.3152L274.666 73.5864H275.927ZM282.318 84.1424C281.552 84.1424 280.9 83.9339 280.361 83.5169C279.822 83.0966 279.41 82.4881 279.125 81.6915C278.84 80.8915 278.698 79.9254 278.698 78.7932C278.698 77.6678 278.84 76.7067 279.125 75.9101C279.413 75.1101 279.827 74.4999 280.366 74.0796C280.908 73.6559 281.559 73.444 282.318 73.444C283.078 73.444 283.727 73.6559 284.266 74.0796C284.808 74.4999 285.222 75.1101 285.506 75.9101C285.795 76.7067 285.939 77.6678 285.939 78.7932C285.939 79.9254 285.796 80.8915 285.512 81.6915C285.227 82.4881 284.815 83.0966 284.276 83.5169C283.737 83.9339 283.084 84.1424 282.318 84.1424ZM282.318 83.0237C283.078 83.0237 283.667 82.6576 284.088 81.9254C284.508 81.1932 284.718 80.1491 284.718 78.7932C284.718 77.8915 284.622 77.1237 284.428 76.4898C284.239 75.8559 283.964 75.3728 283.605 75.0406C283.249 74.7084 282.82 74.5423 282.318 74.5423C281.566 74.5423 280.978 74.9135 280.554 75.6559C280.13 76.3949 279.918 77.4406 279.918 78.7932C279.918 79.6949 280.013 80.461 280.203 81.0915C280.393 81.722 280.666 82.2017 281.022 82.5305C281.381 82.8593 281.813 83.0237 282.318 83.0237ZM289.317 82.5763L289.236 83.1254C289.179 83.5119 289.09 83.9254 288.972 84.3661C288.856 84.8068 288.736 85.222 288.611 85.6119C288.485 86.0017 288.382 86.3119 288.301 86.5424H287.385C287.429 86.3254 287.487 86.039 287.558 85.6831C287.629 85.3271 287.701 84.9288 287.772 84.4881C287.846 84.0508 287.907 83.6034 287.955 83.1458L288.016 82.5763H289.317ZM293.937 73.5864V84H292.676V74.9084H292.615L290.073 76.5966V75.3152L292.676 73.5864H293.937ZM300.329 84.1424C299.562 84.1424 298.91 83.9339 298.371 83.5169C297.832 83.0966 297.42 82.4881 297.135 81.6915C296.851 80.8915 296.708 79.9254 296.708 78.7932C296.708 77.6678 296.851 76.7067 297.135 75.9101C297.423 75.1101 297.837 74.4999 298.376 74.0796C298.918 73.6559 299.569 73.444 300.329 73.444C301.088 73.444 301.737 73.6559 302.276 74.0796C302.818 74.4999 303.232 75.1101 303.517 75.9101C303.805 76.7067 303.949 77.6678 303.949 78.7932C303.949 79.9254 303.807 80.8915 303.522 81.6915C303.237 82.4881 302.825 83.0966 302.286 83.5169C301.747 83.9339 301.095 84.1424 300.329 84.1424ZM300.329 83.0237C301.088 83.0237 301.678 82.6576 302.098 81.9254C302.518 81.1932 302.729 80.1491 302.729 78.7932C302.729 77.8915 302.632 77.1237 302.439 76.4898C302.249 75.8559 301.974 75.3728 301.615 75.0406C301.259 74.7084 300.83 74.5423 300.329 74.5423C299.576 74.5423 298.988 74.9135 298.564 75.6559C298.14 76.3949 297.929 77.4406 297.929 78.7932C297.929 79.6949 298.023 80.461 298.213 81.0915C298.403 81.722 298.676 82.2017 299.032 82.5305C299.391 82.8593 299.823 83.0237 300.329 83.0237ZM308.464 78.7932C308.464 80.0746 308.296 81.2542 307.961 82.3322C307.629 83.4068 307.152 84.3966 306.532 85.3017H305.474C305.718 84.9661 305.946 84.5525 306.156 84.061C306.369 83.5729 306.556 83.0373 306.715 82.4542C306.874 81.8678 306.998 81.2627 307.086 80.639C307.178 80.0118 307.224 79.3966 307.224 78.7932C307.224 77.9864 307.146 77.1678 306.99 76.3372C306.834 75.5067 306.624 74.7355 306.359 74.0237C306.095 73.3118 305.8 72.7321 305.474 72.2847H306.532C307.152 73.1898 307.629 74.1813 307.961 75.2593C308.296 76.3339 308.464 77.5118 308.464 78.7932Z" fill="#D92424"/>
<path d="M185 67.5V100M185 92H192.5V100" stroke="#366FCA"/>
</g>
<defs>
<clipPath id="clip0_116_108">
<rect width="376" height="347" fill="white"/>
</clipPath>
</defs>
</svg>
