<svg width="663" height="124" viewBox="0 0 663 124" fill="none" xmlns="http://www.w3.org/2000/svg">
<g clip-path="url(#clip0_116_384)">
<path d="M738 -365H-62V435H738V-365Z" fill="white"/>
<path d="M13 -365V435" stroke="black" stroke-opacity="0.2" stroke-width="2" stroke-miterlimit="10"/>
<path d="M121 -365V435" stroke="black" stroke-opacity="0.2" stroke-width="2" stroke-miterlimit="10"/>
<path d="M177 -365V435" stroke="black" stroke-opacity="0.2" stroke-width="2" stroke-miterlimit="10"/>
<path d="M231 -365V435" stroke="black" stroke-opacity="0.2" stroke-width="2" stroke-miterlimit="10"/>
<path d="M285 -365V435" stroke="black" stroke-opacity="0.2" stroke-width="2" stroke-miterlimit="10"/>
<path d="M339 -365V435" stroke="black" stroke-opacity="0.2" stroke-width="2" stroke-miterlimit="10"/>
<path d="M393 -365V435" stroke="black" stroke-opacity="0.2" stroke-width="2" stroke-miterlimit="10"/>
<path d="M447 -365V435" stroke="black" stroke-opacity="0.2" stroke-width="2" stroke-miterlimit="10"/>
<path d="M501 -365V435" stroke="black" stroke-opacity="0.2" stroke-width="2" stroke-miterlimit="10"/>
<path d="M555 -365V435" stroke="black" stroke-opacity="0.2" stroke-width="2" stroke-miterlimit="10"/>
<path d="M609 -365V435" stroke="black" stroke-opacity="0.2" stroke-width="2" stroke-miterlimit="10"/>
<path d="M663 -365V435" stroke="black" stroke-opacity="0.2" stroke-width="2" stroke-miterlimit="10"/>
<path d="M-62 124H738" stroke="black" stroke-opacity="0.2" stroke-width="2" stroke-miterlimit="10"/>
<path d="M-62 16H738" stroke="black" stroke-opacity="0.2" stroke-width="2" stroke-miterlimit="10"/>
<path d="M339 -365V435" stroke="black" stroke-opacity="0.25" stroke-width="2" stroke-miterlimit="10"/>
<path d="M609 -365V435" stroke="black" stroke-opacity="0.25" stroke-width="2" stroke-miterlimit="10"/>
<path d="M68 -365V435" stroke="black" stroke-opacity="0.9" stroke-width="3" stroke-miterlimit="10"/>
<path d="M-62 69H738" stroke="black" stroke-opacity="0.9" stroke-width="3" stroke-miterlimit="10"/>
<path d="M43.5332 86.454L41.6883 88.8196L41.6976 88.8268L43.5332 86.454ZM42.3251 84.6692L39.4988 85.6751L39.5002 85.6789L42.3251 84.6692ZM42.3251 79.0165L39.5026 77.9999L39.5002 78.0067L42.3251 79.0165ZM43.5382 77.2267L45.3831 79.5923L45.3851 79.5908L43.5382 77.2267ZM47.3514 77.2267L45.4973 79.5851L45.5054 79.5916L45.5137 79.5979L47.3514 77.2267ZM48.5645 79.0165L45.7381 80.0224L45.7407 80.0297L45.7433 80.0369L48.5645 79.0165ZM48.5694 84.6692L51.3944 85.6789L51.3957 85.6751L48.5694 84.6692ZM47.3613 86.454L49.197 88.8269L49.2062 88.8196L47.3613 86.454ZM47.1774 84.8979L44.5756 83.4043L44.5756 83.4043L47.1774 84.8979ZM47.5105 79.5832L44.6366 80.4439L44.6387 80.4509L44.6408 80.4579L47.5105 79.5832ZM46.7051 78.1663L44.6581 80.3595L44.6633 80.3643L44.6685 80.3691L46.7051 78.1663ZM43.7221 78.7679L46.3247 80.2602L46.3276 80.255L43.7221 78.7679ZM43.3791 84.0825L40.5065 84.9474L40.5065 84.9474L43.3791 84.0825ZM44.1795 85.4895L42.1438 87.6931L42.149 87.6979L42.1542 87.7027L44.1795 85.4895ZM45.4473 87.0655V84.0655C45.3464 84.0655 45.3112 84.0521 45.3199 84.0549C45.3234 84.056 45.3321 84.0592 45.3435 84.0652C45.355 84.0712 45.3638 84.0772 45.3688 84.0811L43.5332 86.454L41.6976 88.8268C42.815 89.6912 44.1207 90.0655 45.4473 90.0655V87.0655ZM43.5332 86.454L45.3781 84.0883C45.3776 84.0879 45.3731 84.0844 45.3644 84.075C45.3556 84.0655 45.3404 84.0476 45.3203 84.0179C45.2797 83.9579 45.2169 83.8465 45.1501 83.6594L42.3251 84.6692L39.5002 85.6789C39.9246 86.8662 40.6168 87.984 41.6883 88.8196L43.5332 86.454ZM42.3251 84.6692L45.1514 83.6632C45.0191 83.2915 44.9075 82.7068 44.9075 81.8354H41.9075H38.9075C38.9075 83.1779 39.0743 84.4824 39.4988 85.6751L42.3251 84.6692ZM41.9075 81.8354H44.9075C44.9075 80.9723 45.0187 80.3938 45.1501 80.0262L42.3251 79.0165L39.5002 78.0067C39.0747 79.1969 38.9075 80.4976 38.9075 81.8354H41.9075ZM42.3251 79.0165L45.1476 80.0331C45.2163 79.8422 45.2808 79.7278 45.323 79.6655C45.3439 79.6347 45.3597 79.6161 45.3689 79.6061C45.378 79.5963 45.3828 79.5926 45.3831 79.5923L43.5382 77.2267L41.6933 74.861C40.622 75.6965 39.9295 76.8145 39.5026 77.9999L42.3251 79.0165ZM43.5382 77.2267L45.3851 79.5908C45.3832 79.5923 45.3766 79.5971 45.3662 79.6026C45.3558 79.6081 45.3469 79.6116 45.3418 79.6133C45.3369 79.6149 45.3407 79.6131 45.3561 79.6108C45.3717 79.6084 45.4013 79.6052 45.4473 79.6052V76.6052V73.6052C44.1087 73.6052 42.804 73.9933 41.6912 74.8626L43.5382 77.2267ZM45.4473 76.6052V79.6052C45.4933 79.6052 45.5226 79.6084 45.5376 79.6107C45.5524 79.6129 45.5553 79.6145 45.5493 79.6126C45.5431 79.6105 45.5328 79.6065 45.5209 79.6001C45.5089 79.5937 45.5008 79.5879 45.4973 79.5851L47.3514 77.2267L49.2055 74.8683C48.0926 73.9933 46.7855 73.6052 45.4473 73.6052V76.6052ZM47.3514 77.2267L45.5137 79.5979C45.5138 79.598 45.5179 79.6011 45.5261 79.61C45.5345 79.619 45.5493 79.6363 45.569 79.6655C45.609 79.7245 45.6715 79.8352 45.7381 80.0224L48.5645 79.0165L51.3908 78.0105C50.9658 76.8165 50.2695 75.6928 49.1891 74.8555L47.3514 77.2267ZM48.5645 79.0165L45.7433 80.0369C45.875 80.4008 45.987 80.9754 45.987 81.8354H48.987H51.987C51.987 80.4945 51.8174 79.1899 51.3856 77.9961L48.5645 79.0165ZM48.987 81.8354H45.987C45.987 82.7068 45.8754 83.2915 45.7431 83.6632L48.5694 84.6692L51.3957 85.6751C51.8203 84.4824 51.987 83.1779 51.987 81.8354H48.987ZM48.5694 84.6692L45.7445 83.6594C45.6776 83.8465 45.6149 83.9579 45.5742 84.0179C45.5541 84.0476 45.5389 84.0655 45.5301 84.075C45.5215 84.0844 45.5169 84.0879 45.5164 84.0883L47.3613 86.454L49.2062 88.8196C50.2777 87.984 50.97 86.8662 51.3944 85.6789L48.5694 84.6692ZM47.3613 86.454L45.5257 84.0811C45.5307 84.0772 45.5395 84.0712 45.551 84.0652C45.5624 84.0592 45.5711 84.056 45.5746 84.0549C45.5834 84.0521 45.5482 84.0655 45.4473 84.0655V87.0655V90.0655C46.7738 90.0655 48.0796 89.6912 49.1969 88.8268L47.3613 86.454ZM45.4473 85.9717V88.9717C47.4021 88.9717 48.9057 87.913 49.7791 86.3915L47.1774 84.8979L44.5756 83.4043C44.5644 83.4237 44.6389 83.2882 44.8545 83.1543C45.0853 83.0111 45.3137 82.9717 45.4473 82.9717V85.9717ZM47.1774 84.8979L49.7791 86.3915C50.5638 85.0246 50.7939 83.3993 50.7939 81.8354H47.7939H44.7939C44.7939 82.923 44.6129 83.3393 44.5756 83.4043L47.1774 84.8979ZM47.7939 81.8354H50.7939C50.7939 80.7564 50.6803 79.6932 50.3801 78.7085L47.5105 79.5832L44.6408 80.4579C44.7185 80.7129 44.7939 81.1511 44.7939 81.8354H47.7939ZM47.5105 79.5832L50.3844 78.7226C50.0971 77.7632 49.6023 76.7592 48.7416 75.9635L46.7051 78.1663L44.6685 80.3691C44.5895 80.2961 44.5597 80.2428 44.5618 80.2467C44.5655 80.2531 44.5967 80.3108 44.6366 80.4439L47.5105 79.5832ZM46.7051 78.1663L48.752 75.9732C47.8301 75.1127 46.6721 74.6791 45.4473 74.6791V77.6791V80.6791C45.3557 80.6791 45.2122 80.6627 45.046 80.5984C44.8783 80.5334 44.7471 80.4426 44.6581 80.3595L46.7051 78.1663ZM45.4473 77.6791V74.6791C43.4691 74.6791 41.9776 75.7724 41.1167 77.2808L43.7221 78.7679L46.3276 80.255C46.3461 80.2225 46.2783 80.3539 46.0653 80.4883C45.8342 80.6341 45.5977 80.6791 45.4473 80.6791V77.6791ZM43.7221 78.7679L41.1196 77.2756C40.3346 78.6446 40.1007 80.2677 40.1007 81.8354H43.1007H46.1007C46.1007 80.7582 46.281 80.3362 46.3246 80.2602L43.7221 78.7679ZM43.1007 81.8354H40.1007C40.1007 82.9099 40.2117 83.9685 40.5065 84.9474L43.3791 84.0825L46.2517 83.2176C46.1752 82.9636 46.1007 82.5241 46.1007 81.8354H43.1007ZM43.3791 84.0825L40.5065 84.9474C40.7932 85.8997 41.2856 86.9003 42.1438 87.6931L44.1795 85.4895L46.2152 83.2859C46.2967 83.3611 46.3277 83.4162 46.326 83.4132C46.3249 83.4113 46.3162 83.3957 46.3026 83.3631C46.289 83.3304 46.2713 83.2827 46.2517 83.2176L43.3791 84.0825ZM44.1795 85.4895L42.1542 87.7027C43.0808 88.5505 44.2343 88.9717 45.4473 88.9717V85.9717V82.9717C45.5311 82.9717 45.667 82.9865 45.8266 83.0472C45.9879 83.1085 46.1162 83.1952 46.2048 83.2763L44.1795 85.4895Z" fill="white"/>
<path d="M45.4473 87.0655C44.6982 87.0655 44.0602 86.8616 43.5332 86.454C43.0062 86.043 42.6035 85.448 42.3251 84.6692C42.0467 83.887 41.9075 82.9424 41.9075 81.8354C41.9075 80.735 42.0467 79.7954 42.3251 79.0165C42.6068 78.2343 43.0112 77.6377 43.5382 77.2267C44.0685 76.8124 44.7048 76.6052 45.4473 76.6052C46.1897 76.6052 46.8244 76.8124 47.3514 77.2267C47.8817 77.6377 48.286 78.2343 48.5645 79.0165C48.8462 79.7954 48.987 80.735 48.987 81.8354C48.987 82.9424 48.8478 83.887 48.5694 84.6692C48.291 85.448 47.8883 86.043 47.3613 86.454C46.8343 86.8616 46.1963 87.0655 45.4473 87.0655ZM45.4473 85.9717C46.1897 85.9717 46.7664 85.6138 47.1774 84.8979C47.5884 84.182 47.7939 83.1611 47.7939 81.8354C47.7939 80.9537 47.6994 80.203 47.5105 79.5832C47.3249 78.9634 47.0564 78.4911 46.7051 78.1663C46.3571 77.8415 45.9378 77.6791 45.4473 77.6791C44.7115 77.6791 44.1364 78.042 43.7221 78.7679C43.3078 79.4904 43.1007 80.5129 43.1007 81.8354C43.1007 82.717 43.1935 83.466 43.3791 84.0825C43.5647 84.699 43.8315 85.168 44.1795 85.4895C44.5308 85.811 44.9534 85.9717 45.4473 85.9717Z" fill="black"/>
<path d="M323.023 86.7175L321.689 89.4045L321.689 89.4045L323.023 86.7175ZM321.9 85.7629L324.361 84.048L324.361 84.048L321.9 85.7629ZM321.437 84.3808V81.3808H318.279L318.441 84.5345L321.437 84.3808ZM322.63 84.3808L325.615 84.0802L325.343 81.3808H322.63V84.3808ZM323.257 85.5243L321.365 87.8526L321.376 87.8618L321.388 87.8709L323.257 85.5243ZM325.713 85.6784L324.177 83.1013L324.165 83.1082L325.713 85.6784ZM326.483 84.873L323.853 83.4311L323.848 83.44L326.483 84.873ZM326.473 82.5165L323.842 83.9565L323.85 83.9713L323.858 83.9861L326.473 82.5165ZM324.52 81.378L324.488 84.3778L324.497 84.3779L324.52 81.378ZM323.56 81.5222L324.403 84.4012L324.417 84.3973L324.43 84.3932L323.56 81.5222ZM322.75 81.895L322.39 84.8734L323.551 85.0135L324.501 84.3311L322.75 81.895ZM321.596 81.7558L318.619 81.3895L318.252 84.3739L321.237 84.7342L321.596 81.7558ZM322.213 76.7445V73.7445H319.559L319.235 76.3782L322.213 76.7445ZM327.502 76.7445H330.502V73.7445H327.502V76.7445ZM327.502 77.8382V80.8382H330.502V77.8382H327.502ZM323.247 77.8382V74.8382H320.583L320.268 77.4831L323.247 77.8382ZM322.889 80.841L319.91 80.4859L319.51 83.841H322.889V80.841ZM322.949 80.841V83.841H323.994L324.813 83.1909L322.949 80.841ZM326.384 80.7118L324.817 83.2703L324.828 83.2766L324.838 83.2827L326.384 80.7118ZM327.537 81.9248L324.9 83.3542L324.903 83.3608L324.907 83.3673L327.537 81.9248ZM327.522 85.4248L324.918 83.9364L324.915 83.9419L327.522 85.4248ZM326.329 86.628L327.825 89.2285L327.831 89.2248L327.838 89.2212L326.329 86.628ZM324.599 87.0655V84.0655C324.423 84.0655 324.363 84.0334 324.357 84.0304L323.023 86.7175L321.689 89.4045C322.618 89.8656 323.608 90.0655 324.599 90.0655V87.0655ZM323.023 86.7175L324.357 84.0304C324.342 84.0229 324.334 84.0178 324.331 84.016C324.329 84.0143 324.33 84.015 324.334 84.0185C324.338 84.0221 324.343 84.027 324.349 84.033C324.354 84.039 324.358 84.0443 324.361 84.048L321.9 85.7629L319.438 87.4779C320.025 88.3202 320.798 88.962 321.689 89.4045L323.023 86.7175ZM321.9 85.7629L324.361 84.048C324.381 84.0771 324.403 84.1174 324.418 84.1624C324.432 84.2064 324.433 84.2318 324.433 84.2272L321.437 84.3808L318.441 84.5345C318.495 85.582 318.819 86.5895 319.438 87.4779L321.9 85.7629ZM321.437 84.3808V87.3808H322.63V84.3808V81.3808H321.437V84.3808ZM322.63 84.3808L319.645 84.6815C319.775 85.9654 320.397 87.0661 321.365 87.8526L323.257 85.5243L325.149 83.1959C325.234 83.2654 325.353 83.3879 325.453 83.5708C325.554 83.7556 325.601 83.937 325.615 84.0802L322.63 84.3808ZM323.257 85.5243L321.388 87.8709C322.341 88.6298 323.463 88.9717 324.599 88.9717V85.9717V82.9717C324.628 82.9717 324.71 82.9765 324.822 83.0138C324.937 83.0522 325.042 83.111 325.126 83.1776L323.257 85.5243ZM324.599 85.9717V88.9717C325.505 88.9717 326.422 88.7534 327.26 88.2486L325.713 85.6784L324.165 83.1082C324.25 83.0572 324.34 83.0201 324.427 82.9973C324.511 82.9751 324.572 82.9717 324.599 82.9717V85.9717ZM325.713 85.6784L327.249 88.2555C328.048 87.7792 328.681 87.1119 329.119 86.306L326.483 84.873L323.848 83.44C323.876 83.388 323.92 83.3228 323.984 83.2564C324.048 83.1898 324.115 83.1381 324.177 83.1013L325.713 85.6784ZM326.483 84.873L329.114 86.3149C329.57 85.4833 329.767 84.589 329.767 83.7047H326.767H323.767C323.767 83.7032 323.767 83.6704 323.78 83.6152C323.794 83.5586 323.818 83.4946 323.853 83.4311L326.483 84.873ZM326.767 83.7047H329.767C329.767 82.805 329.564 81.8926 329.089 81.0469L326.473 82.5165L323.858 83.9861C323.82 83.9192 323.795 83.8521 323.781 83.7935C323.767 83.7365 323.767 83.7037 323.767 83.7047H326.767ZM326.473 82.5165L329.105 81.0764C328.661 80.2646 328.022 79.5927 327.218 79.1115L325.678 81.6862L324.138 84.2609C324.083 84.2282 324.022 84.1815 323.964 84.1208C323.906 84.0604 323.866 84.0018 323.842 83.9565L326.473 82.5165ZM325.678 81.6862L327.218 79.1115C326.375 78.6075 325.455 78.385 324.542 78.3781L324.52 81.378L324.497 84.3779C324.483 84.3778 324.435 84.3756 324.363 84.3566C324.29 84.3372 324.212 84.3053 324.138 84.2609L325.678 81.6862ZM324.52 81.378L324.551 78.3781C323.905 78.3713 323.281 78.4719 322.69 78.6511L323.56 81.5222L324.43 84.3932C324.463 84.3831 324.484 84.3794 324.492 84.3782C324.5 84.3771 324.498 84.3779 324.488 84.3778L324.52 81.378ZM323.56 81.5222L322.717 78.6431C322.158 78.8068 321.556 79.0582 320.999 79.459L322.75 81.895L324.501 84.3311C324.431 84.3811 324.381 84.4054 324.365 84.4128C324.349 84.4201 324.359 84.414 324.403 84.4012L323.56 81.5222ZM322.75 81.895L323.109 78.9166L321.956 78.7774L321.596 81.7558L321.237 84.7342L322.39 84.8734L322.75 81.895ZM321.596 81.7558L324.574 82.1221L325.19 77.1107L322.213 76.7445L319.235 76.3782L318.619 81.3895L321.596 81.7558ZM322.213 76.7445V79.7445H327.502V76.7445V73.7445H322.213V76.7445ZM327.502 76.7445H324.502V77.8382H327.502H330.502V76.7445H327.502ZM327.502 77.8382V74.8382H323.247V77.8382V80.8382H327.502V77.8382ZM323.247 77.8382L320.268 77.4831L319.91 80.4859L322.889 80.841L325.868 81.1961L326.226 78.1933L323.247 77.8382ZM322.889 80.841V83.841H322.949V80.841V77.841H322.889V80.841ZM322.949 80.841L324.813 83.1909C324.756 83.2363 324.714 83.2604 324.697 83.2694C324.68 83.2782 324.685 83.274 324.718 83.2623L323.734 80.4284L322.75 77.5945C322.193 77.788 321.613 78.0707 321.084 78.4912L322.949 80.841ZM323.734 80.4284L324.718 83.2623C324.718 83.2626 324.716 83.263 324.714 83.2635C324.712 83.264 324.711 83.2643 324.709 83.2645C324.706 83.2651 324.709 83.2643 324.718 83.2643V80.2643V77.2643C324.05 77.2643 323.389 77.3725 322.75 77.5945L323.734 80.4284ZM324.718 80.2643V83.2643C324.789 83.2643 324.82 83.2725 324.824 83.2735C324.826 83.2741 324.825 83.274 324.822 83.2728C324.821 83.2722 324.82 83.2716 324.819 83.2711C324.818 83.2706 324.817 83.2703 324.817 83.2703L326.384 80.7118L327.95 78.1532C326.949 77.5403 325.842 77.2643 324.718 77.2643V80.2643ZM326.384 80.7118L324.838 83.2827C324.858 83.2949 324.864 83.3017 324.866 83.3035C324.868 83.3055 324.88 83.3185 324.9 83.3542L327.537 81.9248L330.175 80.4955C329.647 79.5208 328.89 78.718 327.93 78.1408L326.384 80.7118ZM327.537 81.9248L324.907 83.3673C324.917 83.3857 324.96 83.4651 324.96 83.6848H327.96H330.96C330.96 82.5854 330.721 81.4914 330.168 80.4824L327.537 81.9248ZM327.96 83.6848H324.96C324.96 83.8685 324.924 83.9257 324.918 83.9364L327.522 85.4248L330.127 86.9133C330.704 85.9031 330.96 84.8003 330.96 83.6848H327.96ZM327.522 85.4248L324.915 83.9419C324.89 83.9856 324.872 84.0047 324.821 84.0348L326.329 86.628L327.838 89.2212C328.8 88.6613 329.578 87.8783 330.13 86.9078L327.522 85.4248ZM326.329 86.628L324.833 84.0274C324.828 84.0306 324.777 84.0655 324.599 84.0655V87.0655V90.0655C325.714 90.0655 326.816 89.8087 327.825 89.2285L326.329 86.628ZM331.342 86.454L329.497 88.8196L329.506 88.8268L331.342 86.454ZM330.134 84.6692L327.307 85.6751L327.309 85.6789L330.134 84.6692ZM330.134 79.0165L327.311 77.9999L327.309 78.0067L330.134 79.0165ZM331.347 77.2267L333.192 79.5923L333.194 79.5908L331.347 77.2267ZM335.16 77.2267L333.306 79.5851L333.314 79.5916L333.322 79.5979L335.16 77.2267ZM336.373 79.0165L333.547 80.0224L333.549 80.0297L333.552 80.0369L336.373 79.0165ZM336.378 84.6692L339.203 85.6789L339.204 85.6751L336.378 84.6692ZM335.17 86.454L337.006 88.8269L337.015 88.8196L335.17 86.454ZM334.986 84.8979L332.384 83.4043L332.384 83.4043L334.986 84.8979ZM335.319 79.5832L332.445 80.4439L332.447 80.4509L332.449 80.4579L335.319 79.5832ZM334.514 78.1663L332.467 80.3595L332.472 80.3643L332.477 80.3691L334.514 78.1663ZM331.531 78.7679L334.133 80.2602L334.136 80.255L331.531 78.7679ZM331.188 84.0825L328.315 84.9474L328.315 84.9474L331.188 84.0825ZM331.988 85.4895L329.952 87.6931L329.958 87.6979L329.963 87.7027L331.988 85.4895ZM333.256 87.0655V84.0655C333.155 84.0655 333.12 84.0521 333.129 84.0549C333.132 84.056 333.141 84.0592 333.152 84.0652C333.164 84.0712 333.172 84.0772 333.177 84.0811L331.342 86.454L329.506 88.8268C330.624 89.6912 331.929 90.0655 333.256 90.0655V87.0655ZM331.342 86.454L333.187 84.0883C333.186 84.0879 333.182 84.0844 333.173 84.075C333.164 84.0655 333.149 84.0476 333.129 84.0179C333.088 83.9579 333.026 83.8465 332.959 83.6594L330.134 84.6692L327.309 85.6789C327.733 86.8662 328.425 87.984 329.497 88.8196L331.342 86.454ZM330.134 84.6692L332.96 83.6632C332.828 83.2915 332.716 82.7068 332.716 81.8354H329.716H326.716C326.716 83.1779 326.883 84.4824 327.307 85.6751L330.134 84.6692ZM329.716 81.8354H332.716C332.716 80.9723 332.827 80.3938 332.959 80.0262L330.134 79.0165L327.309 78.0067C326.883 79.1969 326.716 80.4976 326.716 81.8354H329.716ZM330.134 79.0165L332.956 80.0331C333.025 79.8422 333.089 79.7278 333.132 79.6655C333.152 79.6347 333.168 79.6161 333.178 79.6061C333.187 79.5963 333.191 79.5926 333.192 79.5923L331.347 77.2267L329.502 74.861C328.431 75.6965 327.738 76.8145 327.311 77.9999L330.134 79.0165ZM331.347 77.2267L333.194 79.5908C333.192 79.5923 333.185 79.5971 333.175 79.6026C333.164 79.6081 333.155 79.6116 333.15 79.6133C333.146 79.6149 333.149 79.6131 333.165 79.6108C333.18 79.6084 333.21 79.6052 333.256 79.6052V76.6052V73.6052C331.917 73.6052 330.613 73.9933 329.5 74.8626L331.347 77.2267ZM333.256 76.6052V79.6052C333.302 79.6052 333.331 79.6084 333.346 79.6107C333.361 79.6129 333.364 79.6145 333.358 79.6126C333.352 79.6105 333.341 79.6065 333.329 79.6001C333.318 79.5937 333.309 79.5879 333.306 79.5851L335.16 77.2267L337.014 74.8683C335.901 73.9933 334.594 73.6052 333.256 73.6052V76.6052ZM335.16 77.2267L333.322 79.5979C333.322 79.598 333.326 79.6011 333.335 79.61C333.343 79.619 333.358 79.6363 333.378 79.6655C333.418 79.7245 333.48 79.8352 333.547 80.0224L336.373 79.0165L339.199 78.0105C338.774 76.8165 338.078 75.6928 336.998 74.8555L335.16 77.2267ZM336.373 79.0165L333.552 80.0369C333.684 80.4008 333.796 80.9754 333.796 81.8354H336.796H339.796C339.796 80.4945 339.626 79.1899 339.194 77.9961L336.373 79.0165ZM336.796 81.8354H333.796C333.796 82.7068 333.684 83.2915 333.552 83.6632L336.378 84.6692L339.204 85.6751C339.629 84.4824 339.796 83.1779 339.796 81.8354H336.796ZM336.378 84.6692L333.553 83.6594C333.486 83.8465 333.423 83.9579 333.383 84.0179C333.363 84.0476 333.348 84.0655 333.339 84.075C333.33 84.0844 333.325 84.0879 333.325 84.0883L335.17 86.454L337.015 88.8196C338.086 87.984 338.779 86.8662 339.203 85.6789L336.378 84.6692ZM335.17 86.454L333.334 84.0811C333.339 84.0772 333.348 84.0712 333.36 84.0652C333.371 84.0592 333.38 84.056 333.383 84.0549C333.392 84.0521 333.357 84.0655 333.256 84.0655V87.0655V90.0655C334.582 90.0655 335.888 89.6912 337.006 88.8268L335.17 86.454ZM333.256 85.9717V88.9717C335.211 88.9717 336.714 87.913 337.588 86.3915L334.986 84.8979L332.384 83.4043C332.373 83.4237 332.447 83.2882 332.663 83.1543C332.894 83.0111 333.122 82.9717 333.256 82.9717V85.9717ZM334.986 84.8979L337.588 86.3915C338.372 85.0246 338.602 83.3993 338.602 81.8354H335.602H332.602C332.602 82.923 332.422 83.3393 332.384 83.4043L334.986 84.8979ZM335.602 81.8354H338.602C338.602 80.7564 338.489 79.6932 338.189 78.7085L335.319 79.5832L332.449 80.4579C332.527 80.7129 332.602 81.1511 332.602 81.8354H335.602ZM335.319 79.5832L338.193 78.7226C337.906 77.7632 337.411 76.7592 336.55 75.9635L334.514 78.1663L332.477 80.3691C332.398 80.2961 332.368 80.2428 332.37 80.2467C332.374 80.2531 332.405 80.3108 332.445 80.4439L335.319 79.5832ZM334.514 78.1663L336.561 75.9732C335.639 75.1127 334.481 74.6791 333.256 74.6791V77.6791V80.6791C333.164 80.6791 333.021 80.6627 332.855 80.5984C332.687 80.5334 332.556 80.4426 332.467 80.3595L334.514 78.1663ZM333.256 77.6791V74.6791C331.278 74.6791 329.786 75.7724 328.925 77.2808L331.531 78.7679L334.136 80.255C334.155 80.2225 334.087 80.3539 333.874 80.4883C333.643 80.6341 333.406 80.6791 333.256 80.6791V77.6791ZM331.531 78.7679L328.928 77.2756C328.143 78.6446 327.909 80.2677 327.909 81.8354H330.909H333.909C333.909 80.7582 334.09 80.3362 334.133 80.2602L331.531 78.7679ZM330.909 81.8354H327.909C327.909 82.9099 328.02 83.9685 328.315 84.9474L331.188 84.0825L334.06 83.2176C333.984 82.9636 333.909 82.5241 333.909 81.8354H330.909ZM331.188 84.0825L328.315 84.9474C328.602 85.8997 329.094 86.9003 329.952 87.6931L331.988 85.4895L334.024 83.2859C334.105 83.3611 334.136 83.4162 334.135 83.4132C334.133 83.4113 334.125 83.3957 334.111 83.3631C334.098 83.3304 334.08 83.2827 334.06 83.2176L331.188 84.0825ZM331.988 85.4895L329.963 87.7027C330.889 88.5505 332.043 88.9717 333.256 88.9717V85.9717V82.9717C333.34 82.9717 333.476 82.9865 333.635 83.0472C333.796 83.1085 333.925 83.1952 334.013 83.2763L331.988 85.4895Z" fill="white"/>
<path d="M324.599 87.0655C324.016 87.0655 323.49 86.9495 323.023 86.7175C322.556 86.4855 322.181 86.1673 321.9 85.7629C321.618 85.3586 321.464 84.8979 321.437 84.3808H322.63C322.677 84.8415 322.886 85.2227 323.257 85.5243C323.631 85.8226 324.079 85.9717 324.599 85.9717C325.017 85.9717 325.388 85.8739 325.713 85.6784C326.041 85.4829 326.298 85.2144 326.483 84.873C326.672 84.5283 326.767 84.1389 326.767 83.7047C326.767 83.2605 326.669 82.8645 326.473 82.5165C326.281 82.1651 326.016 81.8884 325.678 81.6862C325.34 81.484 324.954 81.3813 324.52 81.378C324.208 81.3747 323.888 81.4227 323.56 81.5222C323.232 81.6183 322.962 81.7426 322.75 81.895L321.596 81.7558L322.213 76.7445H327.502V77.8382H323.247L322.889 80.841H322.949C323.157 80.6753 323.419 80.5378 323.734 80.4284C324.049 80.319 324.377 80.2643 324.718 80.2643C325.342 80.2643 325.897 80.4135 326.384 80.7118C326.874 81.0068 327.259 81.4111 327.537 81.9248C327.819 82.4386 327.96 83.0252 327.96 83.6848C327.96 84.3344 327.814 84.9144 327.522 85.4248C327.234 85.932 326.836 86.333 326.329 86.628C325.822 86.9196 325.245 87.0655 324.599 87.0655ZM333.256 87.0655C332.507 87.0655 331.869 86.8616 331.342 86.454C330.815 86.043 330.412 85.448 330.134 84.6692C329.855 83.887 329.716 82.9424 329.716 81.8354C329.716 80.735 329.855 79.7954 330.134 79.0165C330.415 78.2343 330.82 77.6377 331.347 77.2267C331.877 76.8124 332.513 76.6052 333.256 76.6052C333.998 76.6052 334.633 76.8124 335.16 77.2267C335.69 77.6377 336.095 78.2343 336.373 79.0165C336.655 79.7954 336.796 80.735 336.796 81.8354C336.796 82.9424 336.656 83.887 336.378 84.6692C336.1 85.448 335.697 86.043 335.17 86.454C334.643 86.8616 334.005 87.0655 333.256 87.0655ZM333.256 85.9717C333.998 85.9717 334.575 85.6138 334.986 84.8979C335.397 84.182 335.602 83.1611 335.602 81.8354C335.602 80.9537 335.508 80.203 335.319 79.5832C335.133 78.9634 334.865 78.4911 334.514 78.1663C334.166 77.8415 333.746 77.6791 333.256 77.6791C332.52 77.6791 331.945 78.042 331.531 78.7679C331.116 79.4904 330.909 80.5129 330.909 81.8354C330.909 82.717 331.002 83.466 331.188 84.0825C331.373 84.699 331.64 85.168 331.988 85.4895C332.339 85.811 332.762 85.9717 333.256 85.9717Z" fill="black"/>
<path d="M588.502 76.7445H591.502V73.7445H588.502V76.7445ZM588.502 86.9263V89.9263H591.502V86.9263H588.502ZM587.269 86.9263H584.269V89.9263H587.269V86.9263ZM587.269 78.0371H590.269V75.0371H587.269V78.0371ZM587.209 78.0371V75.0371H586.304L585.55 75.5378L587.209 78.0371ZM584.723 79.6876H581.723L586.383 82.1869L584.723 79.6876ZM584.723 78.4348L583.064 75.9356L581.723 76.8258V78.4348H584.723ZM587.269 76.7445V73.7445H586.363L585.609 74.2453L587.269 76.7445ZM588.502 76.7445H585.502V86.9263H588.502H591.502V76.7445H588.502ZM588.502 86.9263V83.9263H587.269V86.9263V89.9263H588.502V86.9263ZM587.269 86.9263H590.269V78.0371H587.269H584.269V86.9263H587.269ZM587.269 78.0371V75.0371H587.209V78.0371V81.0371H587.269V78.0371ZM587.209 78.0371L585.55 75.5378L583.064 77.1884L584.723 79.6876L586.383 82.1869L588.869 80.5363L587.209 78.0371ZM584.723 79.6876H587.723V78.4348H584.723H581.723V79.6876H584.723ZM584.723 78.4348L586.383 80.9339L588.928 79.2436L587.269 76.7445L585.609 74.2453L583.064 75.9356L584.723 78.4348ZM587.269 76.7445V79.7445H588.502V76.7445V73.7445H587.269V76.7445ZM592.837 86.454L590.992 88.8196L591.001 88.8268L592.837 86.454ZM591.629 84.6692L588.803 85.6751L588.804 85.6789L591.629 84.6692ZM591.629 79.0165L588.806 77.9999L588.804 78.0067L591.629 79.0165ZM592.842 77.2267L594.687 79.5923L594.689 79.5908L592.842 77.2267ZM596.655 77.2267L594.801 79.5851L594.809 79.5916L594.817 79.5979L596.655 77.2267ZM597.868 79.0165L595.042 80.0224L595.044 80.0297L595.047 80.0369L597.868 79.0165ZM597.873 84.6692L600.698 85.6789L600.699 85.6751L597.873 84.6692ZM596.665 86.454L598.501 88.8269L598.51 88.8196L596.665 86.454ZM596.481 84.8979L593.879 83.4043L593.879 83.4043L596.481 84.8979ZM596.814 79.5832L593.94 80.4439L593.942 80.4509L593.945 80.4579L596.814 79.5832ZM596.009 78.1663L593.962 80.3595L593.967 80.3643L593.972 80.3691L596.009 78.1663ZM593.026 78.7679L595.628 80.2602L595.631 80.255L593.026 78.7679ZM592.683 84.0825L589.81 84.9474L589.81 84.9474L592.683 84.0825ZM593.483 85.4895L591.448 87.6931L591.453 87.6979L591.458 87.7027L593.483 85.4895ZM594.751 87.0655V84.0655C594.65 84.0655 594.615 84.0521 594.624 84.0549C594.627 84.056 594.636 84.0592 594.647 84.0652C594.659 84.0712 594.667 84.0772 594.673 84.0811L592.837 86.454L591.001 88.8268C592.119 89.6912 593.424 90.0655 594.751 90.0655V87.0655ZM592.837 86.454L594.682 84.0883C594.681 84.0879 594.677 84.0844 594.668 84.075C594.659 84.0655 594.644 84.0476 594.624 84.0179C594.583 83.9579 594.521 83.8465 594.454 83.6594L591.629 84.6692L588.804 85.6789C589.228 86.8662 589.921 87.984 590.992 88.8196L592.837 86.454ZM591.629 84.6692L594.455 83.6632C594.323 83.2915 594.211 82.7068 594.211 81.8354H591.211H588.211C588.211 83.1779 588.378 84.4824 588.803 85.6751L591.629 84.6692ZM591.211 81.8354H594.211C594.211 80.9723 594.322 80.3938 594.454 80.0262L591.629 79.0165L588.804 78.0067C588.378 79.1969 588.211 80.4976 588.211 81.8354H591.211ZM591.629 79.0165L594.451 80.0331C594.52 79.8422 594.584 79.7278 594.627 79.6655C594.648 79.6347 594.663 79.6161 594.673 79.6061C594.682 79.5963 594.686 79.5926 594.687 79.5923L592.842 77.2267L590.997 74.861C589.926 75.6965 589.233 76.8145 588.806 77.9999L591.629 79.0165ZM592.842 77.2267L594.689 79.5908C594.687 79.5923 594.68 79.5971 594.67 79.6026C594.659 79.6081 594.651 79.6116 594.645 79.6133C594.641 79.6149 594.644 79.6131 594.66 79.6108C594.675 79.6084 594.705 79.6052 594.751 79.6052V76.6052V73.6052C593.412 73.6052 592.108 73.9933 590.995 74.8626L592.842 77.2267ZM594.751 76.6052V79.6052C594.797 79.6052 594.826 79.6084 594.841 79.6107C594.856 79.6129 594.859 79.6145 594.853 79.6126C594.847 79.6105 594.837 79.6065 594.825 79.6001C594.813 79.5937 594.804 79.5879 594.801 79.5851L596.655 77.2267L598.509 74.8683C597.396 73.9933 596.089 73.6052 594.751 73.6052V76.6052ZM596.655 77.2267L594.817 79.5979C594.817 79.598 594.822 79.6011 594.83 79.61C594.838 79.619 594.853 79.6363 594.873 79.6655C594.913 79.7245 594.975 79.8352 595.042 80.0224L597.868 79.0165L600.694 78.0105C600.269 76.8165 599.573 75.6928 598.493 74.8555L596.655 77.2267ZM597.868 79.0165L595.047 80.0369C595.179 80.4008 595.291 80.9754 595.291 81.8354H598.291H601.291C601.291 80.4945 601.121 79.1899 600.689 77.9961L597.868 79.0165ZM598.291 81.8354H595.291C595.291 82.7068 595.179 83.2915 595.047 83.6632L597.873 84.6692L600.699 85.6751C601.124 84.4824 601.291 83.1779 601.291 81.8354H598.291ZM597.873 84.6692L595.048 83.6594C594.981 83.8465 594.919 83.9579 594.878 84.0179C594.858 84.0476 594.843 84.0655 594.834 84.075C594.825 84.0844 594.821 84.0879 594.82 84.0883L596.665 86.454L598.51 88.8196C599.581 87.984 600.274 86.8662 600.698 85.6789L597.873 84.6692ZM596.665 86.454L594.829 84.0811C594.834 84.0772 594.843 84.0712 594.855 84.0652C594.866 84.0592 594.875 84.056 594.878 84.0549C594.887 84.0521 594.852 84.0655 594.751 84.0655V87.0655V90.0655C596.078 90.0655 597.383 89.6912 598.501 88.8268L596.665 86.454ZM594.751 85.9717V88.9717C596.706 88.9717 598.209 87.913 599.083 86.3915L596.481 84.8979L593.879 83.4043C593.868 83.4237 593.943 83.2882 594.158 83.1543C594.389 83.0111 594.617 82.9717 594.751 82.9717V85.9717ZM596.481 84.8979L599.083 86.3915C599.868 85.0246 600.098 83.3993 600.098 81.8354H597.098H594.098C594.098 82.923 593.917 83.3393 593.879 83.4043L596.481 84.8979ZM597.098 81.8354H600.098C600.098 80.7564 599.984 79.6932 599.684 78.7085L596.814 79.5832L593.945 80.4579C594.022 80.7129 594.098 81.1511 594.098 81.8354H597.098ZM596.814 79.5832L599.688 78.7226C599.401 77.7632 598.906 76.7592 598.045 75.9635L596.009 78.1663L593.972 80.3691C593.893 80.2961 593.863 80.2428 593.866 80.2467C593.869 80.2531 593.9 80.3108 593.94 80.4439L596.814 79.5832ZM596.009 78.1663L598.056 75.9732C597.134 75.1127 595.976 74.6791 594.751 74.6791V77.6791V80.6791C594.659 80.6791 594.516 80.6627 594.35 80.5984C594.182 80.5334 594.051 80.4426 593.962 80.3595L596.009 78.1663ZM594.751 77.6791V74.6791C592.773 74.6791 591.281 75.7724 590.42 77.2808L593.026 78.7679L595.631 80.255C595.65 80.2225 595.582 80.3539 595.369 80.4883C595.138 80.6341 594.901 80.6791 594.751 80.6791V77.6791ZM593.026 78.7679L590.423 77.2756C589.638 78.6446 589.404 80.2677 589.404 81.8354H592.404H595.404C595.404 80.7582 595.585 80.3362 595.628 80.2602L593.026 78.7679ZM592.404 81.8354H589.404C589.404 82.9099 589.515 83.9685 589.81 84.9474L592.683 84.0825L595.555 83.2176C595.479 82.9636 595.404 82.5241 595.404 81.8354H592.404ZM592.683 84.0825L589.81 84.9474C590.097 85.8997 590.589 86.9003 591.448 87.6931L593.483 85.4895L595.519 83.2859C595.6 83.3611 595.631 83.4162 595.63 83.4132C595.629 83.4113 595.62 83.3957 595.606 83.3631C595.593 83.3304 595.575 83.2827 595.555 83.2176L592.683 84.0825ZM593.483 85.4895L591.458 87.7027C592.384 88.5505 593.538 88.9717 594.751 88.9717V85.9717V82.9717C594.835 82.9717 594.971 82.9865 595.13 83.0472C595.292 83.1085 595.42 83.1952 595.509 83.2763L593.483 85.4895ZM601.587 86.454L599.742 88.8196L599.751 88.8268L601.587 86.454ZM600.379 84.6692L597.553 85.6751L597.554 85.6789L600.379 84.6692ZM600.379 79.0165L597.556 77.9999L597.554 78.0067L600.379 79.0165ZM601.592 77.2267L603.437 79.5923L603.439 79.5908L601.592 77.2267ZM605.405 77.2267L603.551 79.5851L603.559 79.5916L603.567 79.5979L605.405 77.2267ZM606.618 79.0165L603.792 80.0224L603.794 80.0297L603.797 80.0369L606.618 79.0165ZM606.623 84.6692L609.448 85.6789L609.449 85.6751L606.623 84.6692ZM605.415 86.454L607.251 88.8269L607.26 88.8196L605.415 86.454ZM605.231 84.8979L602.629 83.4043L602.629 83.4043L605.231 84.8979ZM605.564 79.5832L602.69 80.4439L602.692 80.4509L602.695 80.4579L605.564 79.5832ZM604.759 78.1663L602.712 80.3595L602.717 80.3643L602.722 80.3691L604.759 78.1663ZM601.776 78.7679L604.378 80.2602L604.381 80.255L601.776 78.7679ZM601.433 84.0825L598.56 84.9474L598.56 84.9474L601.433 84.0825ZM602.233 85.4895L600.198 87.6931L600.203 87.6979L600.208 87.7027L602.233 85.4895ZM603.501 87.0655V84.0655C603.4 84.0655 603.365 84.0521 603.374 84.0549C603.377 84.056 603.386 84.0592 603.397 84.0652C603.409 84.0712 603.417 84.0772 603.423 84.0811L601.587 86.454L599.751 88.8268C600.869 89.6912 602.174 90.0655 603.501 90.0655V87.0655ZM601.587 86.454L603.432 84.0883C603.431 84.0879 603.427 84.0844 603.418 84.075C603.409 84.0655 603.394 84.0476 603.374 84.0179C603.333 83.9579 603.271 83.8465 603.204 83.6594L600.379 84.6692L597.554 85.6789C597.978 86.8662 598.671 87.984 599.742 88.8196L601.587 86.454ZM600.379 84.6692L603.205 83.6632C603.073 83.2915 602.961 82.7068 602.961 81.8354H599.961H596.961C596.961 83.1779 597.128 84.4824 597.553 85.6751L600.379 84.6692ZM599.961 81.8354H602.961C602.961 80.9723 603.072 80.3938 603.204 80.0262L600.379 79.0165L597.554 78.0067C597.128 79.1969 596.961 80.4976 596.961 81.8354H599.961ZM600.379 79.0165L603.201 80.0331C603.27 79.8422 603.334 79.7278 603.377 79.6655C603.398 79.6347 603.413 79.6161 603.423 79.6061C603.432 79.5963 603.436 79.5926 603.437 79.5923L601.592 77.2267L599.747 74.861C598.676 75.6965 597.983 76.8145 597.556 77.9999L600.379 79.0165ZM601.592 77.2267L603.439 79.5908C603.437 79.5923 603.43 79.5971 603.42 79.6026C603.409 79.6081 603.401 79.6116 603.395 79.6133C603.391 79.6149 603.394 79.6131 603.41 79.6108C603.425 79.6084 603.455 79.6052 603.501 79.6052V76.6052V73.6052C602.162 73.6052 600.858 73.9933 599.745 74.8626L601.592 77.2267ZM603.501 76.6052V79.6052C603.547 79.6052 603.576 79.6084 603.591 79.6107C603.606 79.6129 603.609 79.6145 603.603 79.6126C603.597 79.6105 603.587 79.6065 603.575 79.6001C603.563 79.5937 603.554 79.5879 603.551 79.5851L605.405 77.2267L607.259 74.8683C606.146 73.9933 604.839 73.6052 603.501 73.6052V76.6052ZM605.405 77.2267L603.567 79.5979C603.567 79.598 603.572 79.6011 603.58 79.61C603.588 79.619 603.603 79.6363 603.623 79.6655C603.663 79.7245 603.725 79.8352 603.792 80.0224L606.618 79.0165L609.444 78.0105C609.019 76.8165 608.323 75.6928 607.243 74.8555L605.405 77.2267ZM606.618 79.0165L603.797 80.0369C603.929 80.4008 604.041 80.9754 604.041 81.8354H607.041H610.041C610.041 80.4945 609.871 79.1899 609.439 77.9961L606.618 79.0165ZM607.041 81.8354H604.041C604.041 82.7068 603.929 83.2915 603.797 83.6632L606.623 84.6692L609.449 85.6751C609.874 84.4824 610.041 83.1779 610.041 81.8354H607.041ZM606.623 84.6692L603.798 83.6594C603.731 83.8465 603.669 83.9579 603.628 84.0179C603.608 84.0476 603.593 84.0655 603.584 84.075C603.575 84.0844 603.571 84.0879 603.57 84.0883L605.415 86.454L607.26 88.8196C608.331 87.984 609.024 86.8662 609.448 85.6789L606.623 84.6692ZM605.415 86.454L603.579 84.0811C603.584 84.0772 603.593 84.0712 603.605 84.0652C603.616 84.0592 603.625 84.056 603.628 84.0549C603.637 84.0521 603.602 84.0655 603.501 84.0655V87.0655V90.0655C604.828 90.0655 606.133 89.6912 607.251 88.8268L605.415 86.454ZM603.501 85.9717V88.9717C605.456 88.9717 606.959 87.913 607.833 86.3915L605.231 84.8979L602.629 83.4043C602.618 83.4237 602.693 83.2882 602.908 83.1543C603.139 83.0111 603.367 82.9717 603.501 82.9717V85.9717ZM605.231 84.8979L607.833 86.3915C608.618 85.0246 608.848 83.3993 608.848 81.8354H605.848H602.848C602.848 82.923 602.667 83.3393 602.629 83.4043L605.231 84.8979ZM605.848 81.8354H608.848C608.848 80.7564 608.734 79.6932 608.434 78.7085L605.564 79.5832L602.695 80.4579C602.772 80.7129 602.848 81.1511 602.848 81.8354H605.848ZM605.564 79.5832L608.438 78.7226C608.151 77.7632 607.656 76.7592 606.795 75.9635L604.759 78.1663L602.722 80.3691C602.643 80.2961 602.613 80.2428 602.616 80.2467C602.619 80.2531 602.65 80.3108 602.69 80.4439L605.564 79.5832ZM604.759 78.1663L606.806 75.9732C605.884 75.1127 604.726 74.6791 603.501 74.6791V77.6791V80.6791C603.409 80.6791 603.266 80.6627 603.1 80.5984C602.932 80.5334 602.801 80.4426 602.712 80.3595L604.759 78.1663ZM603.501 77.6791V74.6791C601.523 74.6791 600.031 75.7724 599.17 77.2808L601.776 78.7679L604.381 80.255C604.4 80.2225 604.332 80.3539 604.119 80.4883C603.888 80.6341 603.651 80.6791 603.501 80.6791V77.6791ZM601.776 78.7679L599.173 77.2756C598.388 78.6446 598.154 80.2677 598.154 81.8354H601.154H604.154C604.154 80.7582 604.335 80.3362 604.378 80.2602L601.776 78.7679ZM601.154 81.8354H598.154C598.154 82.9099 598.265 83.9685 598.56 84.9474L601.433 84.0825L604.305 83.2176C604.229 82.9636 604.154 82.5241 604.154 81.8354H601.154ZM601.433 84.0825L598.56 84.9474C598.847 85.8997 599.339 86.9003 600.198 87.6931L602.233 85.4895L604.269 83.2859C604.35 83.3611 604.381 83.4162 604.38 83.4132C604.379 83.4113 604.37 83.3957 604.356 83.3631C604.343 83.3304 604.325 83.2827 604.305 83.2176L601.433 84.0825ZM602.233 85.4895L600.208 87.7027C601.134 88.5505 602.288 88.9717 603.501 88.9717V85.9717V82.9717C603.585 82.9717 603.721 82.9865 603.88 83.0472C604.042 83.1085 604.17 83.1952 604.259 83.2763L602.233 85.4895Z" fill="white"/>
<path d="M588.502 76.7445V86.9263H587.269V78.0371H587.209L584.723 79.6876V78.4348L587.269 76.7445H588.502ZM594.751 87.0655C594.002 87.0655 593.364 86.8616 592.837 86.454C592.31 86.043 591.907 85.448 591.629 84.6692C591.35 83.887 591.211 82.9424 591.211 81.8354C591.211 80.735 591.35 79.7954 591.629 79.0165C591.911 78.2343 592.315 77.6377 592.842 77.2267C593.372 76.8124 594.009 76.6052 594.751 76.6052C595.493 76.6052 596.128 76.8124 596.655 77.2267C597.185 77.6377 597.59 78.2343 597.868 79.0165C598.15 79.7954 598.291 80.735 598.291 81.8354C598.291 82.9424 598.152 83.887 597.873 84.6692C597.595 85.448 597.192 86.043 596.665 86.454C596.138 86.8616 595.5 87.0655 594.751 87.0655ZM594.751 85.9717C595.493 85.9717 596.07 85.6138 596.481 84.8979C596.892 84.182 597.098 83.1611 597.098 81.8354C597.098 80.9537 597.003 80.203 596.814 79.5832C596.629 78.9634 596.36 78.4911 596.009 78.1663C595.661 77.8415 595.242 77.6791 594.751 77.6791C594.015 77.6791 593.44 78.042 593.026 78.7679C592.612 79.4904 592.404 80.5129 592.404 81.8354C592.404 82.717 592.497 83.466 592.683 84.0825C592.868 84.699 593.135 85.168 593.483 85.4895C593.835 85.811 594.257 85.9717 594.751 85.9717ZM603.501 87.0655C602.752 87.0655 602.114 86.8616 601.587 86.454C601.06 86.043 600.657 85.448 600.379 84.6692C600.1 83.887 599.961 82.9424 599.961 81.8354C599.961 80.735 600.1 79.7954 600.379 79.0165C600.661 78.2343 601.065 77.6377 601.592 77.2267C602.122 76.8124 602.759 76.6052 603.501 76.6052C604.243 76.6052 604.878 76.8124 605.405 77.2267C605.935 77.6377 606.34 78.2343 606.618 79.0165C606.9 79.7954 607.041 80.735 607.041 81.8354C607.041 82.9424 606.902 83.887 606.623 84.6692C606.345 85.448 605.942 86.043 605.415 86.454C604.888 86.8616 604.25 87.0655 603.501 87.0655ZM603.501 85.9717C604.243 85.9717 604.82 85.6138 605.231 84.8979C605.642 84.182 605.848 83.1611 605.848 81.8354C605.848 80.9537 605.753 80.203 605.564 79.5832C605.379 78.9634 605.11 78.4911 604.759 78.1663C604.411 77.8415 603.992 77.6791 603.501 77.6791C602.765 77.6791 602.19 78.042 601.776 78.7679C601.362 79.4904 601.154 80.5129 601.154 81.8354C601.154 82.717 601.247 83.466 601.433 84.0825C601.618 84.699 601.885 85.168 602.233 85.4895C602.585 85.811 603.007 85.9717 603.501 85.9717Z" fill="black"/>
<path d="M75.8584 69.3102C75.8584 71.4316 75.0158 73.4661 73.516 74.9663C72.0161 76.4666 69.9818 77.3097 67.8604 77.3102C65.739 77.3107 63.7043 76.4686 62.2037 74.9691C60.7031 73.4697 59.8595 71.4356 59.8584 69.3142C59.8573 67.1928 60.6989 65.1578 62.198 63.6569C63.6971 62.1559 65.731 61.3118 67.8524 61.3102C69.9738 61.3086 72.0089 62.1496 73.5103 63.6484C75.0117 65.1471 75.8563 67.1808 75.8584 69.3022V69.3102Z" fill="#6042A6"/>
<path d="M616.867 69.3102C616.867 71.4316 616.025 73.4661 614.525 74.9663C613.025 76.4666 610.991 77.3097 608.869 77.3102C606.748 77.3107 604.713 76.4686 603.212 74.9691C601.712 73.4697 600.868 71.4356 600.867 69.3142C600.866 67.1928 601.708 65.1578 603.207 63.6569C604.706 62.1559 606.74 61.3118 608.861 61.3102C610.983 61.3086 613.018 62.1496 614.519 63.6484C616.02 65.1471 616.865 67.1808 616.867 69.3022V69.3102Z" fill="#6042A6"/>
<path d="M343.104 42.2598C343.104 43.5167 342.604 44.7223 341.716 45.6112C340.827 46.5001 339.621 46.9997 338.364 47C337.107 47.0003 335.902 46.5014 335.013 45.6129C334.124 44.7244 333.624 43.5191 333.623 42.2621C333.622 41.0052 334.121 39.7994 335.009 38.91C335.898 38.0206 337.103 37.5205 338.36 37.5195C339.617 37.5186 340.823 38.0169 341.712 38.905C342.602 39.793 343.102 40.998 343.104 42.255V42.2598Z" fill="#6042A6"/>
<path d="M609.708 69.7071C610.099 69.3166 610.099 68.6834 609.708 68.2929L603.344 61.9289C602.954 61.5384 602.32 61.5384 601.93 61.9289C601.539 62.3195 601.539 62.9526 601.93 63.3431L607.587 69L601.93 74.6569C601.539 75.0474 601.539 75.6805 601.93 76.0711C602.32 76.4616 602.954 76.4616 603.344 76.0711L609.708 69.7071ZM68 69V70H609.001V69V68H68V69Z" fill="#F72B2B"/>
<path d="M338 43V69" stroke="#B20BB5" stroke-width="2" stroke-dasharray="2 2"/>
<path d="M319.525 25.7932C319.525 24.5118 319.692 23.3339 320.024 22.2593C320.359 21.1813 320.837 20.1898 321.458 19.2847H322.515C322.271 19.6203 322.042 20.0338 321.829 20.5254C321.619 21.0135 321.434 21.5508 321.275 22.1372C321.115 22.7203 320.99 23.3237 320.898 23.9474C320.81 24.5712 320.766 25.1864 320.766 25.7932C320.766 26.6 320.844 27.4186 321 28.2491C321.156 29.0797 321.366 29.8508 321.631 30.5627C321.895 31.2746 322.19 31.8542 322.515 32.3017H321.458C320.837 31.3966 320.359 30.4068 320.024 29.3322C319.692 28.2542 319.525 27.0746 319.525 25.7932ZM327.52 31.1424C326.923 31.1424 326.386 31.0237 325.908 30.7864C325.43 30.5492 325.047 30.2237 324.759 29.8102C324.471 29.3966 324.313 28.9254 324.286 28.3966H325.506C325.554 28.8678 325.767 29.2576 326.147 29.5661C326.53 29.8712 326.988 30.0237 327.52 30.0237C327.947 30.0237 328.327 29.9237 328.659 29.7237C328.995 29.5237 329.257 29.2491 329.447 28.9C329.64 28.5474 329.737 28.1491 329.737 27.7051C329.737 27.2508 329.637 26.8457 329.437 26.4898C329.24 26.1305 328.969 25.8474 328.623 25.6406C328.278 25.4339 327.883 25.3288 327.439 25.3254C327.12 25.322 326.793 25.3712 326.457 25.4729C326.122 25.5712 325.845 25.6983 325.628 25.8542L324.449 25.7118L325.079 20.5864H330.489V21.705H326.137L325.771 24.7762H325.832C326.045 24.6067 326.313 24.4661 326.635 24.3542C326.957 24.2423 327.293 24.1864 327.642 24.1864C328.279 24.1864 328.847 24.3389 329.345 24.644C329.847 24.9457 330.24 25.3593 330.525 25.8847C330.813 26.4101 330.957 27.0101 330.957 27.6847C330.957 28.3491 330.808 28.9424 330.51 29.4644C330.215 29.983 329.808 30.3932 329.289 30.6949C328.771 30.9932 328.181 31.1424 327.52 31.1424ZM336.374 31.1424C335.608 31.1424 334.955 30.9339 334.416 30.5169C333.877 30.0966 333.465 29.4881 333.181 28.6915C332.896 27.8915 332.753 26.9254 332.753 25.7932C332.753 24.6678 332.896 23.7067 333.181 22.9101C333.469 22.1101 333.882 21.4999 334.421 21.0796C334.964 20.6559 335.615 20.444 336.374 20.444C337.133 20.444 337.782 20.6559 338.321 21.0796C338.864 21.4999 339.277 22.1101 339.562 22.9101C339.85 23.7067 339.994 24.6678 339.994 25.7932C339.994 26.9254 339.852 27.8915 339.567 28.6915C339.282 29.4881 338.87 30.0966 338.331 30.5169C337.792 30.9339 337.14 31.1424 336.374 31.1424ZM336.374 30.0237C337.133 30.0237 337.723 29.6576 338.143 28.9254C338.564 28.1932 338.774 27.1491 338.774 25.7932C338.774 24.8915 338.677 24.1237 338.484 23.4898C338.294 22.8559 338.02 22.3728 337.66 22.0406C337.304 21.7084 336.876 21.5423 336.374 21.5423C335.621 21.5423 335.033 21.9135 334.609 22.6559C334.186 23.3949 333.974 24.4406 333.974 25.7932C333.974 26.6949 334.069 27.461 334.259 28.0915C334.448 28.722 334.721 29.2017 335.077 29.5305C335.437 29.8593 335.869 30.0237 336.374 30.0237ZM343.373 29.5763L343.292 30.1254C343.234 30.5119 343.146 30.9254 343.027 31.3661C342.912 31.8068 342.792 32.222 342.666 32.6119C342.541 33.0017 342.437 33.3119 342.356 33.5424H341.441C341.485 33.3254 341.543 33.039 341.614 32.6831C341.685 32.3271 341.756 31.9288 341.827 31.4881C341.902 31.0508 341.963 30.6034 342.01 30.1458L342.071 29.5763H343.373ZM348.621 31.1424C348.024 31.1424 347.487 31.0237 347.009 30.7864C346.531 30.5492 346.148 30.2237 345.859 29.8102C345.571 29.3966 345.414 28.9254 345.387 28.3966H346.607C346.654 28.8678 346.868 29.2576 347.248 29.5661C347.631 29.8712 348.088 30.0237 348.621 30.0237C349.048 30.0237 349.427 29.9237 349.759 29.7237C350.095 29.5237 350.358 29.2491 350.548 28.9C350.741 28.5474 350.837 28.1491 350.837 27.7051C350.837 27.2508 350.737 26.8457 350.537 26.4898C350.341 26.1305 350.07 25.8474 349.724 25.6406C349.378 25.4339 348.983 25.3288 348.539 25.3254C348.221 25.322 347.893 25.3712 347.558 25.4729C347.222 25.5712 346.946 25.6983 346.729 25.8542L345.549 25.7118L346.18 20.5864H351.59V21.705H347.237L346.871 24.7762H346.932C347.146 24.6067 347.414 24.4661 347.736 24.3542C348.058 24.2423 348.393 24.1864 348.743 24.1864C349.38 24.1864 349.948 24.3389 350.446 24.644C350.948 24.9457 351.341 25.3593 351.626 25.8847C351.914 26.4101 352.058 27.0101 352.058 27.6847C352.058 28.3491 351.909 28.9424 351.61 29.4644C351.315 29.983 350.909 30.3932 350.39 30.6949C349.871 30.9932 349.282 31.1424 348.621 31.1424ZM356.661 25.7932C356.661 27.0746 356.493 28.2542 356.157 29.3322C355.825 30.4068 355.349 31.3966 354.729 32.3017H353.671C353.915 31.9661 354.142 31.5525 354.352 31.061C354.566 30.5729 354.752 30.0373 354.912 29.4542C355.071 28.8678 355.195 28.2627 355.283 27.639C355.374 27.0118 355.42 26.3966 355.42 25.7932C355.42 24.9864 355.342 24.1678 355.186 23.3372C355.03 22.5067 354.82 21.7355 354.556 21.0237C354.291 20.3118 353.996 19.7321 353.671 19.2847H354.729C355.349 20.1898 355.825 21.1813 356.157 22.2593C356.493 23.3339 356.661 24.5118 356.661 25.7932Z" fill="black"/>
<path d="M585.525 46.7932C585.525 45.5118 585.692 44.3339 586.024 43.2593C586.359 42.1813 586.837 41.1898 587.458 40.2847H588.515C588.271 40.6203 588.042 41.0338 587.829 41.5254C587.619 42.0135 587.434 42.5508 587.275 43.1372C587.115 43.7203 586.99 44.3237 586.898 44.9474C586.81 45.5712 586.766 46.1864 586.766 46.7932C586.766 47.6 586.844 48.4186 587 49.2491C587.156 50.0797 587.366 50.8508 587.631 51.5627C587.895 52.2746 588.19 52.8542 588.515 53.3017H587.458C586.837 52.3966 586.359 51.4068 586.024 50.3322C585.692 49.2542 585.525 48.0746 585.525 46.7932ZM593.927 41.5864V52H592.666V42.9084H592.605L590.062 44.5966V43.3152L592.666 41.5864H593.927ZM600.318 52.1424C599.552 52.1424 598.9 51.9339 598.361 51.5169C597.822 51.0966 597.41 50.4881 597.125 49.6915C596.84 48.8915 596.698 47.9254 596.698 46.7932C596.698 45.6678 596.84 44.7067 597.125 43.9101C597.413 43.1101 597.827 42.4999 598.366 42.0796C598.908 41.6559 599.559 41.444 600.318 41.444C601.078 41.444 601.727 41.6559 602.266 42.0796C602.808 42.4999 603.222 43.1101 603.506 43.9101C603.795 44.7067 603.939 45.6678 603.939 46.7932C603.939 47.9254 603.796 48.8915 603.512 49.6915C603.227 50.4881 602.815 51.0966 602.276 51.5169C601.737 51.9339 601.084 52.1424 600.318 52.1424ZM600.318 51.0237C601.078 51.0237 601.667 50.6576 602.088 49.9254C602.508 49.1932 602.718 48.1491 602.718 46.7932C602.718 45.8915 602.622 45.1237 602.428 44.4898C602.239 43.8559 601.964 43.3728 601.605 43.0406C601.249 42.7084 600.82 42.5423 600.318 42.5423C599.566 42.5423 598.978 42.9135 598.554 43.6559C598.13 44.3949 597.918 45.4406 597.918 46.7932C597.918 47.6949 598.013 48.461 598.203 49.0915C598.393 49.722 598.666 50.2017 599.022 50.5305C599.381 50.8593 599.813 51.0237 600.318 51.0237ZM609.268 52.1424C608.501 52.1424 607.849 51.9339 607.31 51.5169C606.771 51.0966 606.359 50.4881 606.074 49.6915C605.79 48.8915 605.647 47.9254 605.647 46.7932C605.647 45.6678 605.79 44.7067 606.074 43.9101C606.362 43.1101 606.776 42.4999 607.315 42.0796C607.857 41.6559 608.508 41.444 609.268 41.444C610.027 41.444 610.676 41.6559 611.215 42.0796C611.757 42.4999 612.171 43.1101 612.456 43.9101C612.744 44.7067 612.888 45.6678 612.888 46.7932C612.888 47.9254 612.745 48.8915 612.461 49.6915C612.176 50.4881 611.764 51.0966 611.225 51.5169C610.686 51.9339 610.034 52.1424 609.268 52.1424ZM609.268 51.0237C610.027 51.0237 610.617 50.6576 611.037 49.9254C611.457 49.1932 611.668 48.1491 611.668 46.7932C611.668 45.8915 611.571 45.1237 611.378 44.4898C611.188 43.8559 610.913 43.3728 610.554 43.0406C610.198 42.7084 609.769 42.5423 609.268 42.5423C608.515 42.5423 607.927 42.9135 607.503 43.6559C607.079 44.3949 606.867 45.4406 606.867 46.7932C606.867 47.6949 606.962 48.461 607.152 49.0915C607.342 49.722 607.615 50.2017 607.971 50.5305C608.33 50.8593 608.762 51.0237 609.268 51.0237ZM616.267 50.5763L616.185 51.1254C616.128 51.5119 616.04 51.9254 615.921 52.3661C615.806 52.8068 615.685 53.222 615.56 53.6119C615.434 54.0017 615.331 54.3119 615.25 54.5424H614.334C614.379 54.3254 614.436 54.039 614.507 53.6831C614.579 53.3271 614.65 52.9288 614.721 52.4881C614.796 52.0508 614.857 51.6034 614.904 51.1458L614.965 50.5763H616.267ZM621.503 52.1424C620.737 52.1424 620.084 51.9339 619.545 51.5169C619.006 51.0966 618.594 50.4881 618.31 49.6915C618.025 48.8915 617.882 47.9254 617.882 46.7932C617.882 45.6678 618.025 44.7067 618.31 43.9101C618.598 43.1101 619.011 42.4999 619.55 42.0796C620.093 41.6559 620.743 41.444 621.503 41.444C622.262 41.444 622.911 41.6559 623.45 42.0796C623.993 42.4999 624.406 43.1101 624.691 43.9101C624.979 44.7067 625.123 45.6678 625.123 46.7932C625.123 47.9254 624.981 48.8915 624.696 49.6915C624.411 50.4881 623.999 51.0966 623.46 51.5169C622.921 51.9339 622.269 52.1424 621.503 52.1424ZM621.503 51.0237C622.262 51.0237 622.852 50.6576 623.272 49.9254C623.693 49.1932 623.903 48.1491 623.903 46.7932C623.903 45.8915 623.806 45.1237 623.613 44.4898C623.423 43.8559 623.149 43.3728 622.789 43.0406C622.433 42.7084 622.004 42.5423 621.503 42.5423C620.75 42.5423 620.162 42.9135 619.738 43.6559C619.315 44.3949 619.103 45.4406 619.103 46.7932C619.103 47.6949 619.198 48.461 619.387 49.0915C619.577 49.722 619.85 50.2017 620.206 50.5305C620.565 50.8593 620.998 51.0237 621.503 51.0237ZM629.638 46.7932C629.638 48.0746 629.471 49.2542 629.135 50.3322C628.803 51.4068 628.327 52.3966 627.706 53.3017H626.649C626.893 52.9661 627.12 52.5525 627.33 52.061C627.543 51.5729 627.73 51.0373 627.889 50.4542C628.049 49.8678 628.172 49.2627 628.26 48.639C628.352 48.0118 628.398 47.3966 628.398 46.7932C628.398 45.9864 628.32 45.1678 628.164 44.3372C628.008 43.5067 627.798 42.7355 627.533 42.0237C627.269 41.3118 626.974 40.7321 626.649 40.2847H627.706C628.327 41.1898 628.803 42.1813 629.135 43.2593C629.471 44.3339 629.638 45.5118 629.638 46.7932Z" fill="black"/>
</g>
<defs>
<clipPath id="clip0_116_384">
<rect width="663" height="124" fill="white"/>
</clipPath>
</defs>
</svg>
