<svg width="372" height="300" viewBox="0 0 372 300" fill="none" xmlns="http://www.w3.org/2000/svg">
<rect x="8" y="24" width="96" height="96" fill="#9B9494"/>
<rect x="8" y="24" width="4" height="4" fill="#D9D9D9"/>
<path d="M8.66667 26C8.66667 26.7364 9.26362 27.3333 10 27.3333C10.7364 27.3333 11.3333 26.7364 11.3333 26C11.3333 25.2636 10.7364 24.6667 10 24.6667C9.26362 24.6667 8.66667 25.2636 8.66667 26ZM335.167 88C335.167 88.7364 335.764 89.3333 336.5 89.3333C337.236 89.3333 337.833 88.7364 337.833 88C337.833 87.2636 337.236 86.6667 336.5 86.6667C335.764 86.6667 335.167 87.2636 335.167 88ZM42 13.5L42.0613 13.2576L41.9837 13.238L41.909 13.2671L42 13.5ZM10 26L10.091 26.2329L42.091 13.7329L42 13.5L41.909 13.2671L9.90904 25.7671L10 26ZM42 13.5L41.9387 13.7424L336.439 88.2424L336.5 88L336.561 87.7576L42.0613 13.2576L42 13.5Z" fill="black"/>
<path d="M0.699545 10V5.02545H1.43795V5.77682H1.48977C1.58045 5.53068 1.74455 5.33097 1.98205 5.17767C2.21955 5.02437 2.48727 4.94773 2.78523 4.94773C2.84136 4.94773 2.91153 4.94881 2.99574 4.95097C3.07994 4.95312 3.14364 4.95636 3.18682 4.96068V5.73795C3.16091 5.73148 3.10153 5.72176 3.00869 5.70881C2.91801 5.69369 2.82193 5.68614 2.72045 5.68614C2.47864 5.68614 2.26273 5.73687 2.07273 5.83835C1.88489 5.93767 1.73591 6.07585 1.6258 6.2529C1.51784 6.42778 1.46386 6.6275 1.46386 6.85205V10H0.699545ZM5.94937 11.9691C5.58017 11.9691 5.26278 11.9216 4.99722 11.8266C4.73165 11.7337 4.51034 11.6107 4.3333 11.4574C4.15841 11.3063 4.01915 11.1443 3.91551 10.9716L4.52437 10.5441C4.59347 10.6348 4.68091 10.7384 4.7867 10.855C4.8925 10.9737 5.03716 11.0763 5.22068 11.1627C5.40636 11.2512 5.64926 11.2955 5.94937 11.2955C6.35097 11.2955 6.68239 11.1983 6.94364 11.004C7.20489 10.8097 7.33551 10.5052 7.33551 10.0907V9.08023H7.27074C7.2146 9.17091 7.13472 9.28318 7.03108 9.41705C6.9296 9.54875 6.78278 9.66642 6.59062 9.77006C6.40062 9.87153 6.14369 9.92227 5.81983 9.92227C5.41824 9.92227 5.05767 9.82727 4.73812 9.63727C4.42074 9.44727 4.1692 9.17091 3.98352 8.80818C3.8 8.44545 3.70824 8.005 3.70824 7.48682C3.70824 6.97727 3.79784 6.53358 3.97705 6.15574C4.15625 5.77574 4.40562 5.4821 4.72517 5.27483C5.04472 5.0654 5.41392 4.96068 5.83278 4.96068C6.15665 4.96068 6.41358 5.01466 6.60358 5.12261C6.79574 5.22841 6.94256 5.34932 7.04403 5.48534C7.14767 5.6192 7.22756 5.72932 7.28369 5.81568H7.36142V5.02545H8.09983V10.1425C8.09983 10.57 8.00267 10.9176 7.80835 11.1853C7.61619 11.4552 7.3571 11.6528 7.03108 11.778C6.70722 11.9054 6.34665 11.9691 5.94937 11.9691ZM5.92347 9.23568C6.23006 9.23568 6.48915 9.16551 6.70074 9.02517C6.91233 8.88483 7.07318 8.68295 7.1833 8.41955C7.29341 8.15614 7.34847 7.84091 7.34847 7.47386C7.34847 7.11545 7.29449 6.79915 7.18653 6.52494C7.07858 6.25074 6.91881 6.03591 6.70722 5.88045C6.49562 5.725 6.23437 5.64727 5.92347 5.64727C5.5996 5.64727 5.32972 5.72932 5.11381 5.89341C4.90006 6.0575 4.7392 6.27773 4.63125 6.55409C4.52545 6.83045 4.47256 7.13705 4.47256 7.47386C4.47256 7.81932 4.52653 8.12483 4.63449 8.3904C4.7446 8.65381 4.90653 8.86108 5.12028 9.01222C5.33619 9.16119 5.60392 9.23568 5.92347 9.23568ZM9.60256 10V3.36727H10.3669V5.81568H10.4316C10.4878 5.72932 10.5655 5.6192 10.6648 5.48534C10.7663 5.34932 10.911 5.22841 11.0988 5.12261C11.2888 5.01466 11.5457 4.96068 11.8696 4.96068C12.2885 4.96068 12.6577 5.0654 12.9772 5.27483C13.2968 5.48426 13.5461 5.78114 13.7253 6.16545C13.9045 6.54977 13.9941 7.00318 13.9941 7.52568C13.9941 8.0525 13.9045 8.50915 13.7253 8.89563C13.5461 9.27994 13.2978 9.5779 12.9805 9.78949C12.6631 9.99892 12.2971 10.1036 11.8826 10.1036C11.563 10.1036 11.3072 10.0507 11.115 9.94494C10.9228 9.83699 10.7749 9.715 10.6713 9.57898C10.5677 9.4408 10.4878 9.32636 10.4316 9.23568H10.341V10H9.60256ZM10.3539 7.51273C10.3539 7.88841 10.409 8.21983 10.5191 8.50699C10.6292 8.79199 10.7901 9.01545 11.0016 9.17739C11.2132 9.33716 11.4723 9.41705 11.7789 9.41705C12.0985 9.41705 12.3651 9.33284 12.5789 9.16443C12.7948 8.99386 12.9567 8.765 13.0647 8.47784C13.1748 8.18852 13.2298 7.86682 13.2298 7.51273C13.2298 7.16295 13.1759 6.84773 13.0679 6.56705C12.9621 6.2842 12.8012 6.06074 12.5853 5.89665C12.3716 5.7304 12.1028 5.64727 11.7789 5.64727C11.468 5.64727 11.2068 5.72608 10.9952 5.88369C10.7836 6.03915 10.6238 6.25722 10.5159 6.5379C10.4079 6.81642 10.3539 7.14136 10.3539 7.51273ZM16.6272 10.1166C16.3119 10.1166 16.0259 10.0572 15.7689 9.93847C15.512 9.81756 15.308 9.64375 15.1568 9.41705C15.0057 9.18818 14.9301 8.91182 14.9301 8.58795C14.9301 8.30295 14.9862 8.07193 15.0985 7.89489C15.2108 7.71568 15.3609 7.57534 15.5487 7.47386C15.7365 7.37239 15.9438 7.29682 16.1705 7.24716C16.3994 7.19534 16.6293 7.15432 16.8603 7.12409C17.1626 7.08523 17.4077 7.05608 17.5955 7.03665C17.7855 7.01506 17.9237 6.97943 18.0101 6.92977C18.0986 6.88011 18.1428 6.79375 18.1428 6.67068V6.64477C18.1428 6.32523 18.0554 6.07693 17.8805 5.89989C17.7078 5.72284 17.4455 5.63432 17.0935 5.63432C16.7286 5.63432 16.4426 5.7142 16.2353 5.87398C16.028 6.03375 15.8823 6.20432 15.7981 6.38568L15.0726 6.12659C15.2022 5.82432 15.3749 5.58898 15.5908 5.42057C15.8089 5.25 16.0464 5.13125 16.3033 5.06432C16.5624 4.99523 16.8172 4.96068 17.0676 4.96068C17.2274 4.96068 17.4109 4.98011 17.6182 5.01898C17.8276 5.05568 18.0295 5.13233 18.2238 5.24892C18.4203 5.36551 18.5833 5.54148 18.7128 5.77682C18.8424 6.01216 18.9072 6.32739 18.9072 6.7225V10H18.1428V9.32636H18.104C18.0522 9.43432 17.9658 9.54983 17.8449 9.6729C17.724 9.79597 17.5631 9.90068 17.3623 9.98705C17.1615 10.0734 16.9165 10.1166 16.6272 10.1166ZM16.7437 9.43C17.046 9.43 17.3008 9.37063 17.5081 9.25188C17.7175 9.13313 17.8751 8.97983 17.9809 8.79199C18.0889 8.60415 18.1428 8.40659 18.1428 8.19932V7.49977C18.1105 7.53864 18.0392 7.57426 17.9291 7.60665C17.8211 7.63687 17.6959 7.66386 17.5534 7.68761C17.4131 7.7092 17.276 7.72864 17.1421 7.74591C17.0104 7.76102 16.9035 7.77398 16.8215 7.78477C16.6228 7.81068 16.4372 7.85278 16.2644 7.91108C16.0939 7.96722 15.9557 8.0525 15.8499 8.16693C15.7462 8.2792 15.6944 8.4325 15.6944 8.62682C15.6944 8.89239 15.7927 9.09318 15.9891 9.2292C16.1878 9.36307 16.4393 9.43 16.7437 9.43Z" fill="black"/>
<rect x="16" y="24" width="4" height="4" fill="#D9D9D9"/>
<rect x="24" y="24" width="4" height="4" fill="#D9D9D9"/>
<rect x="32" y="24" width="4" height="4" fill="#D9D9D9"/>
<rect x="40" y="24" width="4" height="4" fill="#D9D9D9"/>
<rect x="48" y="24" width="4" height="4" fill="#D9D9D9"/>
<rect x="56" y="24" width="4" height="4" fill="#D9D9D9"/>
<rect x="64" y="24" width="4" height="4" fill="#D9D9D9"/>
<rect x="72" y="24" width="4" height="4" fill="#D9D9D9"/>
<rect x="12" y="24" width="4" height="4" fill="#BA9696"/>
<rect x="20" y="24" width="4" height="4" fill="#BA9696"/>
<rect x="28" y="24" width="4" height="4" fill="#BA9696"/>
<rect x="36" y="24" width="4" height="4" fill="#BA9696"/>
<rect x="44" y="24" width="4" height="4" fill="#BA9696"/>
<rect x="52" y="24" width="4" height="4" fill="#BA9696"/>
<rect x="60" y="24" width="4" height="4" fill="#BA9696"/>
<rect x="68" y="24" width="4" height="4" fill="#BA9696"/>
<rect x="76" y="24" width="4" height="4" fill="#BA9696"/>
<path d="M31.8536 8.35355C32.0488 8.15829 32.0488 7.84171 31.8536 7.64645L28.6716 4.46447C28.4763 4.2692 28.1597 4.2692 27.9645 4.46447C27.7692 4.65973 27.7692 4.97631 27.9645 5.17157L30.7929 8L27.9645 10.8284C27.7692 11.0237 27.7692 11.3403 27.9645 11.5355C28.1597 11.7308 28.4763 11.7308 28.6716 11.5355L31.8536 8.35355ZM22 8V8.5H31.5V8V7.5H22V8Z" fill="black"/>
<path d="M185 185L78 273.5L217.5 296.5L185 185Z" stroke="black" stroke-width="0.5"/>
<circle cx="78" cy="273" r="3.5" fill="#D9D9D9" stroke="black"/>
<path d="M44.9148 201.025V201.673H42.2332V201.025H44.9148ZM43.0364 206V200.339C43.0364 200.054 43.1033 199.816 43.2372 199.626C43.371 199.436 43.5448 199.294 43.7586 199.199C43.9723 199.104 44.198 199.056 44.4355 199.056C44.6233 199.056 44.7766 199.071 44.8953 199.102C45.0141 199.132 45.1026 199.16 45.1609 199.186L44.9407 199.847C44.9018 199.834 44.8478 199.817 44.7787 199.798C44.7118 199.779 44.6233 199.769 44.5132 199.769C44.2606 199.769 44.0781 199.833 43.9659 199.96C43.8557 200.087 43.8007 200.274 43.8007 200.52V206H43.0364ZM45.986 206V201.025H46.7244V201.777H46.7762C46.8669 201.531 47.031 201.331 47.2685 201.178C47.506 201.024 47.7737 200.948 48.0716 200.948C48.1278 200.948 48.1979 200.949 48.2821 200.951C48.3663 200.953 48.43 200.956 48.4732 200.961V201.738C48.4473 201.731 48.3879 201.722 48.2951 201.709C48.2044 201.694 48.1083 201.686 48.0069 201.686C47.765 201.686 47.5491 201.737 47.3591 201.838C47.1713 201.938 47.0223 202.076 46.9122 202.253C46.8042 202.428 46.7503 202.627 46.7503 202.852V206H45.986ZM50.8431 206.117C50.5279 206.117 50.2418 206.057 49.9849 205.938C49.7279 205.818 49.5239 205.644 49.3728 205.417C49.2216 205.188 49.1461 204.912 49.1461 204.588C49.1461 204.303 49.2022 204.072 49.3145 203.895C49.4267 203.716 49.5768 203.575 49.7646 203.474C49.9525 203.372 50.1597 203.297 50.3864 203.247C50.6153 203.195 50.8453 203.154 51.0763 203.124C51.3786 203.085 51.6236 203.056 51.8114 203.037C52.0014 203.015 52.1396 202.979 52.226 202.93C52.3145 202.88 52.3588 202.794 52.3588 202.671V202.645C52.3588 202.325 52.2713 202.077 52.0964 201.9C51.9237 201.723 51.6614 201.634 51.3095 201.634C50.9446 201.634 50.6585 201.714 50.4512 201.874C50.2439 202.034 50.0982 202.204 50.014 202.386L49.2886 202.127C49.4181 201.824 49.5908 201.589 49.8067 201.421C50.0248 201.25 50.2623 201.131 50.5192 201.064C50.7783 200.995 51.0331 200.961 51.2836 200.961C51.4433 200.961 51.6268 200.98 51.8341 201.019C52.0436 201.056 52.2454 201.132 52.4397 201.249C52.6362 201.366 52.7992 201.541 52.9288 201.777C53.0583 202.012 53.1231 202.327 53.1231 202.723V206H52.3588V205.326H52.3199C52.2681 205.434 52.1817 205.55 52.0608 205.673C51.9399 205.796 51.7791 205.901 51.5783 205.987C51.3775 206.073 51.1324 206.117 50.8431 206.117ZM50.9597 205.43C51.262 205.43 51.5167 205.371 51.724 205.252C51.9334 205.133 52.0911 204.98 52.1968 204.792C52.3048 204.604 52.3588 204.407 52.3588 204.199V203.5C52.3264 203.539 52.2551 203.574 52.145 203.607C52.0371 203.637 51.9118 203.664 51.7693 203.688C51.629 203.709 51.4919 203.729 51.358 203.746C51.2263 203.761 51.1195 203.774 51.0374 203.785C50.8388 203.811 50.6531 203.853 50.4804 203.911C50.3098 203.967 50.1716 204.052 50.0658 204.167C49.9622 204.279 49.9104 204.432 49.9104 204.627C49.9104 204.892 50.0086 205.093 50.2051 205.229C50.4037 205.363 50.6553 205.43 50.9597 205.43ZM56.5261 207.969C56.1569 207.969 55.8395 207.922 55.5739 207.827C55.3084 207.734 55.0871 207.611 54.91 207.457C54.7351 207.306 54.5959 207.144 54.4922 206.972L55.1011 206.544C55.1702 206.635 55.2576 206.738 55.3634 206.855C55.4692 206.974 55.6139 207.076 55.7974 207.163C55.9831 207.251 56.226 207.295 56.5261 207.295C56.9277 207.295 57.2591 207.198 57.5204 207.004C57.7816 206.81 57.9122 206.505 57.9122 206.091V205.08H57.8475C57.7913 205.171 57.7114 205.283 57.6078 205.417C57.5063 205.549 57.3595 205.666 57.1673 205.77C56.9773 205.872 56.7204 205.922 56.3965 205.922C55.995 205.922 55.6344 205.827 55.3148 205.637C54.9975 205.447 54.7459 205.171 54.5602 204.808C54.3767 204.445 54.285 204.005 54.285 203.487C54.285 202.977 54.3746 202.534 54.5538 202.156C54.733 201.776 54.9823 201.482 55.3019 201.275C55.6214 201.065 55.9906 200.961 56.4095 200.961C56.7334 200.961 56.9903 201.015 57.1803 201.123C57.3725 201.228 57.5193 201.349 57.6208 201.485C57.7244 201.619 57.8043 201.729 57.8604 201.816H57.9381V201.025H58.6765V206.142C58.6765 206.57 58.5794 206.918 58.3851 207.185C58.1929 207.455 57.9338 207.653 57.6078 207.778C57.2839 207.905 56.9234 207.969 56.5261 207.969ZM56.5002 205.236C56.8068 205.236 57.0659 205.166 57.2775 205.025C57.489 204.885 57.6499 204.683 57.76 204.42C57.8701 204.156 57.9252 203.841 57.9252 203.474C57.9252 203.115 57.8712 202.799 57.7633 202.525C57.6553 202.251 57.4955 202.036 57.2839 201.88C57.0723 201.725 56.8111 201.647 56.5002 201.647C56.1763 201.647 55.9064 201.729 55.6905 201.893C55.4768 202.057 55.3159 202.278 55.208 202.554C55.1022 202.83 55.0493 203.137 55.0493 203.474C55.0493 203.819 55.1033 204.125 55.2112 204.39C55.3213 204.654 55.4833 204.861 55.697 205.012C55.9129 205.161 56.1806 205.236 56.5002 205.236ZM60.0756 206V201.025H60.814V201.803H60.8788C60.9825 201.537 61.1498 201.331 61.3808 201.184C61.6118 201.035 61.8893 200.961 62.2131 200.961C62.5413 200.961 62.8144 201.035 63.0325 201.184C63.2527 201.331 63.4244 201.537 63.5475 201.803H63.5993C63.7267 201.546 63.9177 201.342 64.1725 201.191C64.4273 201.037 64.7328 200.961 65.089 200.961C65.5338 200.961 65.8976 201.1 66.1805 201.378C66.4633 201.655 66.6047 202.086 66.6047 202.671V206H65.8404V202.671C65.8404 202.304 65.74 202.041 65.5392 201.884C65.3384 201.726 65.102 201.647 64.83 201.647C64.4802 201.647 64.2092 201.753 64.0171 201.965C63.8249 202.174 63.7288 202.44 63.7288 202.761V206H62.9515V202.593C62.9515 202.31 62.8598 202.082 62.6763 201.91C62.4927 201.735 62.2563 201.647 61.967 201.647C61.7684 201.647 61.5827 201.7 61.41 201.806C61.2394 201.912 61.1012 202.059 60.9954 202.246C60.8918 202.432 60.84 202.647 60.84 202.891V206H60.0756ZM70.0879 206.104C69.6086 206.104 69.1951 205.998 68.8475 205.786C68.502 205.573 68.2354 205.275 68.0475 204.892C67.8619 204.508 67.769 204.061 67.769 203.552C67.769 203.042 67.8619 202.593 68.0475 202.204C68.2354 201.814 68.4966 201.509 68.8313 201.291C69.1681 201.071 69.5611 200.961 70.0102 200.961C70.2692 200.961 70.5251 201.004 70.7777 201.09C71.0303 201.177 71.2603 201.317 71.4675 201.511C71.6748 201.703 71.84 201.958 71.9631 202.276C72.0861 202.593 72.1477 202.984 72.1477 203.448V203.772H68.3131V203.111H71.3704C71.3704 202.83 71.3142 202.58 71.202 202.36C71.0919 202.14 70.9342 201.966 70.7291 201.838C70.5262 201.711 70.2865 201.647 70.0102 201.647C69.7057 201.647 69.4423 201.723 69.2199 201.874C68.9997 202.023 68.8302 202.217 68.7115 202.457C68.5927 202.697 68.5333 202.954 68.5333 203.228V203.668C68.5333 204.044 68.5981 204.362 68.7277 204.624C68.8594 204.883 69.0418 205.08 69.275 205.216C69.5082 205.35 69.7791 205.417 70.0879 205.417C70.2887 205.417 70.47 205.389 70.632 205.333C70.7961 205.275 70.9375 205.188 71.0562 205.074C71.175 204.957 71.2667 204.812 71.3315 204.64L72.0699 204.847C71.9922 205.098 71.8616 205.318 71.6781 205.508C71.4945 205.696 71.2678 205.842 70.9979 205.948C70.7281 206.052 70.4247 206.104 70.0879 206.104ZM74.0746 203.008V206H73.3103V201.025H74.0487V201.803H74.1135C74.2301 201.55 74.4071 201.347 74.6446 201.194C74.8821 201.038 75.1887 200.961 75.5644 200.961C75.9012 200.961 76.196 201.03 76.4486 201.168C76.7012 201.304 76.8977 201.511 77.038 201.79C77.1783 202.066 77.2485 202.416 77.2485 202.839V206H76.4842V202.891C76.4842 202.5 76.3827 202.196 76.1798 201.978C75.9768 201.757 75.6983 201.647 75.3442 201.647C75.1002 201.647 74.8821 201.7 74.69 201.806C74.5 201.912 74.3499 202.066 74.2398 202.269C74.1297 202.472 74.0746 202.718 74.0746 203.008ZM80.8086 201.025V201.673H78.2306V201.025H80.8086ZM78.982 199.834H79.7463V204.575C79.7463 204.791 79.7776 204.953 79.8402 205.061C79.905 205.167 79.987 205.238 80.0864 205.275C80.1878 205.309 80.2947 205.326 80.407 205.326C80.4912 205.326 80.5603 205.322 80.6143 205.313C80.6682 205.303 80.7114 205.294 80.7438 205.288L80.8993 205.974C80.8474 205.994 80.7751 206.013 80.6823 206.032C80.5894 206.054 80.4718 206.065 80.3293 206.065C80.1134 206.065 79.9018 206.018 79.6945 205.926C79.4894 205.833 79.3188 205.691 79.1828 205.501C79.0489 205.311 78.982 205.072 78.982 204.782V199.834ZM88.0469 202.14L87.3603 202.334C87.3172 202.219 87.2535 202.108 87.1693 202C87.0872 201.89 86.9749 201.799 86.8324 201.728C86.6899 201.657 86.5075 201.621 86.2851 201.621C85.9807 201.621 85.727 201.692 85.524 201.832C85.3232 201.97 85.2228 202.146 85.2228 202.36C85.2228 202.55 85.2919 202.7 85.4301 202.81C85.5683 202.92 85.7842 203.012 86.0778 203.085L86.8162 203.267C87.261 203.375 87.5924 203.54 87.8105 203.762C88.0286 203.982 88.1376 204.266 88.1376 204.614C88.1376 204.899 88.0556 205.154 87.8915 205.378C87.7295 205.603 87.5028 205.78 87.2114 205.909C86.9199 206.039 86.5809 206.104 86.1944 206.104C85.687 206.104 85.2671 205.994 84.9346 205.773C84.6021 205.553 84.3916 205.231 84.3031 204.808L85.0285 204.627C85.0976 204.895 85.2282 205.095 85.4204 205.229C85.6147 205.363 85.8684 205.43 86.1815 205.43C86.5377 205.43 86.8206 205.354 87.03 205.203C87.2416 205.05 87.3474 204.866 87.3474 204.653C87.3474 204.48 87.2869 204.335 87.166 204.219C87.0451 204.1 86.8594 204.011 86.609 203.953L85.7799 203.759C85.3243 203.651 84.9897 203.484 84.7759 203.257C84.5643 203.028 84.4585 202.742 84.4585 202.399C84.4585 202.118 84.5373 201.87 84.6949 201.654C84.8547 201.438 85.0717 201.268 85.3459 201.145C85.6223 201.022 85.9353 200.961 86.2851 200.961C86.7774 200.961 87.1639 201.069 87.4445 201.285C87.7274 201.5 87.9282 201.785 88.0469 202.14ZM90.0525 203.008V206H89.2881V199.367H90.0525V201.803H90.1172C90.2338 201.546 90.4087 201.342 90.6419 201.191C90.8772 201.037 91.1903 200.961 91.5811 200.961C91.9201 200.961 92.2169 201.029 92.4717 201.165C92.7265 201.299 92.924 201.505 93.0644 201.783C93.2069 202.06 93.2781 202.412 93.2781 202.839V206H92.5138V202.891C92.5138 202.496 92.4113 202.19 92.2061 201.974C92.0032 201.756 91.7214 201.647 91.3609 201.647C91.1104 201.647 90.8859 201.7 90.6872 201.806C90.4908 201.912 90.3353 202.066 90.2209 202.269C90.1086 202.472 90.0525 202.718 90.0525 203.008ZM96.1403 206.117C95.8251 206.117 95.539 206.057 95.282 205.938C95.0251 205.818 94.8211 205.644 94.6699 205.417C94.5188 205.188 94.4432 204.912 94.4432 204.588C94.4432 204.303 94.4994 204.072 94.6116 203.895C94.7239 203.716 94.874 203.575 95.0618 203.474C95.2497 203.372 95.4569 203.297 95.6836 203.247C95.9125 203.195 96.1424 203.154 96.3735 203.124C96.6757 203.085 96.9208 203.056 97.1086 203.037C97.2986 203.015 97.4368 202.979 97.5232 202.93C97.6117 202.88 97.656 202.794 97.656 202.671V202.645C97.656 202.325 97.5685 202.077 97.3936 201.9C97.2209 201.723 96.9586 201.634 96.6066 201.634C96.2418 201.634 95.9557 201.714 95.7484 201.874C95.5411 202.034 95.3954 202.204 95.3112 202.386L94.5857 202.127C94.7153 201.824 94.888 201.589 95.1039 201.421C95.322 201.25 95.5595 201.131 95.8164 201.064C96.0755 200.995 96.3303 200.961 96.5807 200.961C96.7405 200.961 96.924 200.98 97.1313 201.019C97.3407 201.056 97.5426 201.132 97.7369 201.249C97.9334 201.366 98.0964 201.541 98.226 201.777C98.3555 202.012 98.4203 202.327 98.4203 202.723V206H97.656V205.326H97.6171C97.5653 205.434 97.4789 205.55 97.358 205.673C97.2371 205.796 97.0763 205.901 96.8755 205.987C96.6747 206.073 96.4296 206.117 96.1403 206.117ZM96.2569 205.43C96.5591 205.43 96.8139 205.371 97.0212 205.252C97.2306 205.133 97.3882 204.98 97.494 204.792C97.602 204.604 97.656 204.407 97.656 204.199V203.5C97.6236 203.539 97.5523 203.574 97.4422 203.607C97.3343 203.637 97.209 203.664 97.0665 203.688C96.9262 203.709 96.7891 203.729 96.6552 203.746C96.5235 203.761 96.4166 203.774 96.3346 203.785C96.136 203.811 95.9503 203.853 95.7776 203.911C95.607 203.967 95.4688 204.052 95.363 204.167C95.2594 204.279 95.2076 204.432 95.2076 204.627C95.2076 204.892 95.3058 205.093 95.5023 205.229C95.7009 205.363 95.9524 205.43 96.2569 205.43ZM101.694 206.104C101.279 206.104 100.913 205.999 100.596 205.789C100.278 205.578 100.03 205.28 99.851 204.896C99.6717 204.509 99.5821 204.053 99.5821 203.526C99.5821 203.003 99.6717 202.55 99.851 202.165C100.03 201.781 100.28 201.484 100.599 201.275C100.919 201.065 101.288 200.961 101.707 200.961C102.031 200.961 102.286 201.015 102.474 201.123C102.664 201.228 102.809 201.349 102.908 201.485C103.01 201.619 103.089 201.729 103.145 201.816H103.209V199.367H103.974V206H103.235V205.236H103.145C103.089 205.326 103.009 205.441 102.905 205.579C102.801 205.715 102.653 205.837 102.461 205.945C102.269 206.051 102.013 206.104 101.694 206.104ZM101.797 205.417C102.104 205.417 102.363 205.337 102.575 205.177C102.786 205.015 102.947 204.792 103.057 204.507C103.167 204.22 103.222 203.888 103.222 203.513C103.222 203.141 103.168 202.816 103.06 202.538C102.952 202.257 102.793 202.039 102.581 201.884C102.37 201.726 102.108 201.647 101.797 201.647C101.474 201.647 101.204 201.73 100.988 201.897C100.774 202.061 100.613 202.284 100.505 202.567C100.399 202.848 100.346 203.163 100.346 203.513C100.346 203.867 100.4 204.189 100.508 204.478C100.619 204.765 100.78 204.994 100.994 205.164C101.21 205.333 101.478 205.417 101.797 205.417ZM107.565 206.104C107.086 206.104 106.673 205.998 106.325 205.786C105.98 205.573 105.713 205.275 105.525 204.892C105.339 204.508 105.247 204.061 105.247 203.552C105.247 203.042 105.339 202.593 105.525 202.204C105.713 201.814 105.974 201.509 106.309 201.291C106.646 201.071 107.039 200.961 107.488 200.961C107.747 200.961 108.003 201.004 108.255 201.09C108.508 201.177 108.738 201.317 108.945 201.511C109.152 201.703 109.317 201.958 109.441 202.276C109.564 202.593 109.625 202.984 109.625 203.448V203.772H105.791V203.111H108.848C108.848 202.83 108.792 202.58 108.679 202.36C108.569 202.14 108.412 201.966 108.207 201.838C108.004 201.711 107.764 201.647 107.488 201.647C107.183 201.647 106.92 201.723 106.697 201.874C106.477 202.023 106.308 202.217 106.189 202.457C106.07 202.697 106.011 202.954 106.011 203.228V203.668C106.011 204.044 106.076 204.362 106.205 204.624C106.337 204.883 106.519 205.08 106.752 205.216C106.986 205.35 107.257 205.417 107.565 205.417C107.766 205.417 107.948 205.389 108.109 205.333C108.274 205.275 108.415 205.188 108.534 205.074C108.652 204.957 108.744 204.812 108.809 204.64L109.547 204.847C109.47 205.098 109.339 205.318 109.156 205.508C108.972 205.696 108.745 205.842 108.475 205.948C108.206 206.052 107.902 206.104 107.565 206.104ZM110.788 206V201.025H111.526V201.777H111.578C111.669 201.531 111.833 201.331 112.07 201.178C112.308 201.024 112.576 200.948 112.874 200.948C112.93 200.948 113 200.949 113.084 200.951C113.168 200.953 113.232 200.956 113.275 200.961V201.738C113.249 201.731 113.19 201.722 113.097 201.709C113.006 201.694 112.91 201.686 112.809 201.686C112.567 201.686 112.351 201.737 112.161 201.838C111.973 201.938 111.824 202.076 111.714 202.253C111.606 202.428 111.552 202.627 111.552 202.852V206H110.788Z" fill="black"/>
<path d="M137.214 249.13C137.285 249.012 137.248 248.858 137.13 248.786L135.206 247.619C135.088 247.548 134.934 247.585 134.862 247.703C134.791 247.822 134.829 247.975 134.947 248.047L136.657 249.084L135.619 250.794C135.548 250.912 135.585 251.066 135.703 251.138C135.822 251.209 135.975 251.171 136.047 251.053L137.214 249.13ZM62 221L61.8604 221.207C70.2867 226.881 84.1501 235.089 98.3627 241.279C105.469 244.375 112.669 246.968 119.324 248.487C125.975 250.006 132.105 250.456 137.059 249.243L137 249L136.941 248.757C132.095 249.944 126.054 249.511 119.435 248C112.821 246.49 105.652 243.909 98.5623 240.821C84.3833 234.645 70.5466 226.453 62.1396 220.793L62 221Z" fill="black"/>
<path d="M188.25 179.494C188.247 179.632 188.356 179.747 188.494 179.75L190.743 179.805C190.881 179.808 190.996 179.699 190.999 179.561C191.003 179.423 190.893 179.308 190.755 179.305L188.756 179.256L188.805 177.257C188.808 177.119 188.699 177.004 188.561 177.001C188.423 176.997 188.308 177.107 188.305 177.245L188.25 179.494ZM222.5 169.5L222.607 169.274C217.784 166.99 211.842 166.999 205.803 168.823C199.761 170.648 193.603 174.295 188.328 179.319L188.5 179.5L188.672 179.681C193.897 174.705 199.988 171.102 205.947 169.302C211.908 167.501 217.716 167.51 222.393 169.726L222.5 169.5Z" fill="black"/>
<path d="M224.25 291.494C224.247 291.632 224.356 291.747 224.494 291.75L226.743 291.805C226.881 291.808 226.996 291.699 226.999 291.561C227.003 291.423 226.893 291.308 226.755 291.305L224.756 291.256L224.805 289.257C224.808 289.119 224.699 289.004 224.561 289.001C224.423 288.997 224.308 289.107 224.305 289.245L224.25 291.494ZM256.5 182H256.25C256.25 195.916 250.885 220.761 244.198 243.395C240.855 254.708 237.186 265.458 233.698 274.002C231.954 278.274 230.256 281.992 228.669 284.95C227.079 287.915 225.61 290.098 224.328 291.319L224.5 291.5L224.672 291.681C226.015 290.402 227.515 288.16 229.11 285.187C230.708 282.207 232.413 278.473 234.161 274.191C237.657 265.627 241.332 254.861 244.677 243.537C251.365 220.899 256.75 195.994 256.75 182H256.5Z" fill="black"/>
<path d="M229.767 170.025L227.928 175H227.15L225.311 170.025H226.14L227.513 173.99H227.565L228.938 170.025H229.767ZM232.684 175.104C232.204 175.104 231.791 174.998 231.443 174.786C231.098 174.573 230.831 174.275 230.643 173.892C230.458 173.508 230.365 173.061 230.365 172.552C230.365 172.042 230.458 171.593 230.643 171.204C230.831 170.814 231.092 170.509 231.427 170.291C231.764 170.071 232.157 169.961 232.606 169.961C232.865 169.961 233.121 170.004 233.373 170.09C233.626 170.177 233.856 170.317 234.063 170.511C234.271 170.703 234.436 170.958 234.559 171.276C234.682 171.593 234.743 171.984 234.743 172.448V172.772H230.909V172.111H233.966C233.966 171.83 233.91 171.58 233.798 171.36C233.688 171.14 233.53 170.966 233.325 170.838C233.122 170.711 232.882 170.647 232.606 170.647C232.302 170.647 232.038 170.723 231.816 170.874C231.595 171.023 231.426 171.217 231.307 171.457C231.188 171.697 231.129 171.954 231.129 172.228V172.668C231.129 173.044 231.194 173.362 231.323 173.624C231.455 173.883 231.638 174.08 231.871 174.216C232.104 174.35 232.375 174.417 232.684 174.417C232.884 174.417 233.066 174.389 233.228 174.333C233.392 174.275 233.533 174.188 233.652 174.074C233.771 173.957 233.863 173.812 233.927 173.64L234.666 173.847C234.588 174.098 234.457 174.318 234.274 174.508C234.09 174.696 233.864 174.842 233.594 174.948C233.324 175.052 233.02 175.104 232.684 175.104ZM235.906 175V170.025H236.645V170.777H236.696C236.787 170.531 236.951 170.331 237.189 170.178C237.426 170.024 237.694 169.948 237.992 169.948C238.048 169.948 238.118 169.949 238.202 169.951C238.287 169.953 238.35 169.956 238.393 169.961V170.738C238.367 170.731 238.308 170.722 238.215 170.709C238.125 170.694 238.028 170.686 237.927 170.686C237.685 170.686 237.469 170.737 237.279 170.838C237.091 170.938 236.942 171.076 236.832 171.253C236.724 171.428 236.67 171.627 236.67 171.852V175H235.906ZM241.775 170.025V170.673H239.197V170.025H241.775ZM239.948 168.834H240.712V173.575C240.712 173.791 240.744 173.953 240.806 174.061C240.871 174.167 240.953 174.238 241.052 174.275C241.154 174.309 241.261 174.326 241.373 174.326C241.457 174.326 241.526 174.322 241.58 174.313C241.634 174.303 241.677 174.294 241.71 174.288L241.865 174.974C241.813 174.994 241.741 175.013 241.648 175.032C241.555 175.054 241.438 175.065 241.295 175.065C241.079 175.065 240.868 175.018 240.66 174.926C240.455 174.833 240.285 174.691 240.149 174.501C240.015 174.311 239.948 174.072 239.948 173.782V168.834ZM244.956 175.104C244.477 175.104 244.064 174.998 243.716 174.786C243.371 174.573 243.104 174.275 242.916 173.892C242.73 173.508 242.638 173.061 242.638 172.552C242.638 172.042 242.73 171.593 242.916 171.204C243.104 170.814 243.365 170.509 243.7 170.291C244.037 170.071 244.43 169.961 244.879 169.961C245.138 169.961 245.394 170.004 245.646 170.09C245.899 170.177 246.129 170.317 246.336 170.511C246.543 170.703 246.709 170.958 246.832 171.276C246.955 171.593 247.016 171.984 247.016 172.448V172.772H243.182V172.111H246.239C246.239 171.83 246.183 171.58 246.071 171.36C245.96 171.14 245.803 170.966 245.598 170.838C245.395 170.711 245.155 170.647 244.879 170.647C244.574 170.647 244.311 170.723 244.089 170.874C243.868 171.023 243.699 171.217 243.58 171.457C243.461 171.697 243.402 171.954 243.402 172.228V172.668C243.402 173.044 243.467 173.362 243.596 173.624C243.728 173.883 243.91 174.08 244.144 174.216C244.377 174.35 244.648 174.417 244.956 174.417C245.157 174.417 245.339 174.389 245.501 174.333C245.665 174.275 245.806 174.188 245.925 174.074C246.044 173.957 246.135 173.812 246.2 173.64L246.939 173.847C246.861 174.098 246.73 174.318 246.547 174.508C246.363 174.696 246.136 174.842 245.867 174.948C245.597 175.052 245.293 175.104 244.956 175.104ZM248.615 170.025L249.807 172.059L250.999 170.025H251.88L250.274 172.513L251.88 175H250.999L249.807 173.07L248.615 175H247.734L249.315 172.513L247.734 170.025H248.615ZM259.059 171.14L258.373 171.334C258.329 171.219 258.266 171.108 258.181 171C258.099 170.89 257.987 170.799 257.845 170.728C257.702 170.657 257.52 170.621 257.297 170.621C256.993 170.621 256.739 170.692 256.536 170.832C256.335 170.97 256.235 171.146 256.235 171.36C256.235 171.55 256.304 171.7 256.442 171.81C256.58 171.92 256.796 172.012 257.09 172.085L257.828 172.267C258.273 172.375 258.605 172.54 258.823 172.762C259.041 172.982 259.15 173.266 259.15 173.614C259.15 173.899 259.068 174.154 258.904 174.378C258.742 174.603 258.515 174.78 258.224 174.909C257.932 175.039 257.593 175.104 257.207 175.104C256.699 175.104 256.279 174.994 255.947 174.773C255.614 174.553 255.404 174.231 255.315 173.808L256.041 173.627C256.11 173.895 256.24 174.095 256.433 174.229C256.627 174.363 256.881 174.43 257.194 174.43C257.55 174.43 257.833 174.354 258.042 174.203C258.254 174.05 258.36 173.866 258.36 173.653C258.36 173.48 258.299 173.335 258.178 173.219C258.057 173.1 257.872 173.011 257.621 172.953L256.792 172.759C256.337 172.651 256.002 172.484 255.788 172.257C255.577 172.028 255.471 171.742 255.471 171.399C255.471 171.118 255.55 170.87 255.707 170.654C255.867 170.438 256.084 170.268 256.358 170.145C256.634 170.022 256.948 169.961 257.297 169.961C257.79 169.961 258.176 170.069 258.457 170.285C258.74 170.5 258.94 170.785 259.059 171.14ZM261.065 172.008V175H260.3V168.367H261.065V170.803H261.129C261.246 170.546 261.421 170.342 261.654 170.191C261.889 170.037 262.202 169.961 262.593 169.961C262.932 169.961 263.229 170.029 263.484 170.165C263.739 170.299 263.936 170.505 264.077 170.783C264.219 171.06 264.29 171.412 264.29 171.839V175H263.526V171.891C263.526 171.496 263.423 171.19 263.218 170.974C263.015 170.756 262.734 170.647 262.373 170.647C262.123 170.647 261.898 170.7 261.699 170.806C261.503 170.912 261.347 171.066 261.233 171.269C261.121 171.472 261.065 171.718 261.065 172.008ZM267.152 175.117C266.837 175.117 266.551 175.057 266.294 174.938C266.037 174.818 265.833 174.644 265.682 174.417C265.531 174.188 265.455 173.912 265.455 173.588C265.455 173.303 265.512 173.072 265.624 172.895C265.736 172.716 265.886 172.575 266.074 172.474C266.262 172.372 266.469 172.297 266.696 172.247C266.925 172.195 267.155 172.154 267.386 172.124C267.688 172.085 267.933 172.056 268.121 172.037C268.311 172.015 268.449 171.979 268.535 171.93C268.624 171.88 268.668 171.794 268.668 171.671V171.645C268.668 171.325 268.581 171.077 268.406 170.9C268.233 170.723 267.971 170.634 267.619 170.634C267.254 170.634 266.968 170.714 266.761 170.874C266.553 171.034 266.408 171.204 266.323 171.386L265.598 171.127C265.727 170.824 265.9 170.589 266.116 170.421C266.334 170.25 266.572 170.131 266.829 170.064C267.088 169.995 267.342 169.961 267.593 169.961C267.753 169.961 267.936 169.98 268.143 170.019C268.353 170.056 268.555 170.132 268.749 170.249C268.946 170.366 269.109 170.541 269.238 170.777C269.368 171.012 269.432 171.327 269.432 171.723V175H268.668V174.326H268.629C268.577 174.434 268.491 174.55 268.37 174.673C268.249 174.796 268.088 174.901 267.888 174.987C267.687 175.073 267.442 175.117 267.152 175.117ZM267.269 174.43C267.571 174.43 267.826 174.371 268.033 174.252C268.243 174.133 268.4 173.98 268.506 173.792C268.614 173.604 268.668 173.407 268.668 173.199V172.5C268.636 172.539 268.565 172.574 268.454 172.607C268.346 172.637 268.221 172.664 268.079 172.688C267.938 172.709 267.801 172.729 267.667 172.746C267.536 172.761 267.429 172.774 267.347 172.785C267.148 172.811 266.962 172.853 266.79 172.911C266.619 172.967 266.481 173.052 266.375 173.167C266.272 173.279 266.22 173.432 266.22 173.627C266.22 173.892 266.318 174.093 266.514 174.229C266.713 174.363 266.965 174.43 267.269 174.43ZM272.706 175.104C272.291 175.104 271.925 174.999 271.608 174.789C271.291 174.578 271.042 174.28 270.863 173.896C270.684 173.509 270.594 173.053 270.594 172.526C270.594 172.003 270.684 171.55 270.863 171.165C271.042 170.781 271.292 170.484 271.611 170.275C271.931 170.065 272.3 169.961 272.719 169.961C273.043 169.961 273.299 170.015 273.486 170.123C273.676 170.228 273.821 170.349 273.92 170.485C274.022 170.619 274.101 170.729 274.157 170.816H274.222V168.367H274.986V175H274.248V174.236H274.157C274.101 174.326 274.021 174.441 273.917 174.579C273.814 174.715 273.666 174.837 273.473 174.945C273.281 175.051 273.025 175.104 272.706 175.104ZM272.81 174.417C273.116 174.417 273.375 174.337 273.587 174.177C273.798 174.015 273.959 173.792 274.069 173.507C274.18 173.22 274.235 172.888 274.235 172.513C274.235 172.141 274.181 171.816 274.073 171.538C273.965 171.257 273.805 171.039 273.593 170.884C273.382 170.726 273.12 170.647 272.81 170.647C272.486 170.647 272.216 170.73 272 170.897C271.786 171.061 271.625 171.284 271.517 171.567C271.412 171.848 271.359 172.163 271.359 172.513C271.359 172.867 271.413 173.189 271.521 173.478C271.631 173.765 271.793 173.994 272.006 174.164C272.222 174.333 272.49 174.417 272.81 174.417ZM278.578 175.104C278.098 175.104 277.685 174.998 277.337 174.786C276.992 174.573 276.725 174.275 276.537 173.892C276.352 173.508 276.259 173.061 276.259 172.552C276.259 172.042 276.352 171.593 276.537 171.204C276.725 170.814 276.986 170.509 277.321 170.291C277.658 170.071 278.051 169.961 278.5 169.961C278.759 169.961 279.015 170.004 279.267 170.09C279.52 170.177 279.75 170.317 279.957 170.511C280.165 170.703 280.33 170.958 280.453 171.276C280.576 171.593 280.637 171.984 280.637 172.448V172.772H276.803V172.111H279.86C279.86 171.83 279.804 171.58 279.692 171.36C279.582 171.14 279.424 170.966 279.219 170.838C279.016 170.711 278.776 170.647 278.5 170.647C278.195 170.647 277.932 170.723 277.71 170.874C277.489 171.023 277.32 171.217 277.201 171.457C277.082 171.697 277.023 171.954 277.023 172.228V172.668C277.023 173.044 277.088 173.362 277.217 173.624C277.349 173.883 277.531 174.08 277.765 174.216C277.998 174.35 278.269 174.417 278.578 174.417C278.778 174.417 278.96 174.389 279.122 174.333C279.286 174.275 279.427 174.188 279.546 174.074C279.665 173.957 279.756 173.812 279.821 173.64L280.56 173.847C280.482 174.098 280.351 174.318 280.168 174.508C279.984 174.696 279.758 174.842 279.488 174.948C279.218 175.052 278.914 175.104 278.578 175.104ZM281.8 175V170.025H282.538V170.777H282.59C282.681 170.531 282.845 170.331 283.083 170.178C283.32 170.024 283.588 169.948 283.886 169.948C283.942 169.948 284.012 169.949 284.096 169.951C284.18 169.953 284.244 169.956 284.287 169.961V170.738C284.261 170.731 284.202 170.722 284.109 170.709C284.018 170.694 283.922 170.686 283.821 170.686C283.579 170.686 283.363 170.737 283.173 170.838C282.985 170.938 282.836 171.076 282.726 171.253C282.618 171.428 282.564 171.627 282.564 171.852V175H281.8Z" fill="black"/>
<rect x="123" y="23" width="96" height="96" fill="#9B9494"/>
<rect x="123" y="23" width="4" height="4" fill="#D9D9D9"/>
<path d="M123.667 25C123.667 25.7364 124.264 26.3333 125 26.3333C125.736 26.3333 126.333 25.7364 126.333 25C126.333 24.2636 125.736 23.6667 125 23.6667C124.264 23.6667 123.667 24.2636 123.667 25ZM337.107 73.7258C337.232 73.6665 337.285 73.5174 337.226 73.3927L336.26 71.3605C336.201 71.2358 336.052 71.1828 335.927 71.242C335.802 71.3013 335.749 71.4504 335.808 71.5751L336.667 73.3815L334.861 74.24C334.736 74.2993 334.683 74.4484 334.742 74.5731C334.801 74.6978 334.95 74.7509 335.075 74.6916L337.107 73.7258ZM165.5 12.5L165.584 12.2645L165.506 12.2366L165.426 12.2611L165.5 12.5ZM125 25L125.074 25.2389L165.574 12.7389L165.5 12.5L165.426 12.2611L124.926 24.7611L125 25ZM165.5 12.5L165.416 12.7355L336.916 73.7355L337 73.5L337.084 73.2645L165.584 12.2645L165.5 12.5Z" fill="black"/>
<path d="M115.7 9V4.02545H116.438V4.77682H116.49C116.58 4.53068 116.745 4.33097 116.982 4.17767C117.22 4.02437 117.487 3.94773 117.785 3.94773C117.841 3.94773 117.912 3.94881 117.996 3.95097C118.08 3.95312 118.144 3.95636 118.187 3.96068V4.73795C118.161 4.73148 118.102 4.72176 118.009 4.70881C117.918 4.69369 117.822 4.68614 117.72 4.68614C117.479 4.68614 117.263 4.73687 117.073 4.83835C116.885 4.93767 116.736 5.07585 116.626 5.2529C116.518 5.42778 116.464 5.6275 116.464 5.85205V9H115.7ZM120.949 10.9691C120.58 10.9691 120.263 10.9216 119.997 10.8266C119.732 10.7337 119.51 10.6107 119.333 10.4574C119.158 10.3063 119.019 10.1443 118.916 9.97159L119.524 9.54409C119.593 9.63477 119.681 9.73841 119.787 9.855C119.892 9.97375 120.037 10.0763 120.221 10.1627C120.406 10.2512 120.649 10.2955 120.949 10.2955C121.351 10.2955 121.682 10.1983 121.944 10.004C122.205 9.80966 122.336 9.50523 122.336 9.09068V8.08023H122.271C122.215 8.17091 122.135 8.28318 122.031 8.41705C121.93 8.54875 121.783 8.66642 121.591 8.77006C121.401 8.87153 121.144 8.92227 120.82 8.92227C120.418 8.92227 120.058 8.82727 119.738 8.63727C119.421 8.44727 119.169 8.17091 118.984 7.80818C118.8 7.44545 118.708 7.005 118.708 6.48682C118.708 5.97727 118.798 5.53358 118.977 5.15574C119.156 4.77574 119.406 4.4821 119.725 4.27483C120.045 4.0654 120.414 3.96068 120.833 3.96068C121.157 3.96068 121.414 4.01466 121.604 4.12261C121.796 4.22841 121.943 4.34932 122.044 4.48534C122.148 4.6192 122.228 4.72932 122.284 4.81568H122.361V4.02545H123.1V9.1425C123.1 9.57 123.003 9.91761 122.808 10.1853C122.616 10.4552 122.357 10.6528 122.031 10.778C121.707 10.9054 121.347 10.9691 120.949 10.9691ZM120.923 8.23568C121.23 8.23568 121.489 8.16551 121.701 8.02517C121.912 7.88483 122.073 7.68295 122.183 7.41955C122.293 7.15614 122.348 6.84091 122.348 6.47386C122.348 6.11545 122.294 5.79915 122.187 5.52494C122.079 5.25074 121.919 5.03591 121.707 4.88045C121.496 4.725 121.234 4.64727 120.923 4.64727C120.6 4.64727 120.33 4.72932 120.114 4.89341C119.9 5.0575 119.739 5.27773 119.631 5.55409C119.525 5.83045 119.473 6.13705 119.473 6.47386C119.473 6.81932 119.527 7.12483 119.634 7.3904C119.745 7.65381 119.907 7.86108 120.12 8.01222C120.336 8.16119 120.604 8.23568 120.923 8.23568ZM124.603 9V2.36727H125.367V4.81568H125.432C125.488 4.72932 125.566 4.6192 125.665 4.48534C125.766 4.34932 125.911 4.22841 126.099 4.12261C126.289 4.01466 126.546 3.96068 126.87 3.96068C127.288 3.96068 127.658 4.0654 127.977 4.27483C128.297 4.48426 128.546 4.78114 128.725 5.16545C128.905 5.54977 128.994 6.00318 128.994 6.52568C128.994 7.0525 128.905 7.50915 128.725 7.89563C128.546 8.27994 128.298 8.5779 127.98 8.78949C127.663 8.99892 127.297 9.10364 126.883 9.10364C126.563 9.10364 126.307 9.05074 126.115 8.94494C125.923 8.83699 125.775 8.715 125.671 8.57898C125.568 8.4408 125.488 8.32636 125.432 8.23568H125.341V9H124.603ZM125.354 6.51273C125.354 6.88841 125.409 7.21983 125.519 7.50699C125.629 7.79199 125.79 8.01545 126.002 8.17739C126.213 8.33716 126.472 8.41705 126.779 8.41705C127.098 8.41705 127.365 8.33284 127.579 8.16443C127.795 7.99386 127.957 7.765 128.065 7.47784C128.175 7.18852 128.23 6.86682 128.23 6.51273C128.23 6.16295 128.176 5.84773 128.068 5.56705C127.962 5.2842 127.801 5.06074 127.585 4.89665C127.372 4.7304 127.103 4.64727 126.779 4.64727C126.468 4.64727 126.207 4.72608 125.995 4.88369C125.784 5.03915 125.624 5.25722 125.516 5.5379C125.408 5.81642 125.354 6.14136 125.354 6.51273ZM131.627 9.11659C131.312 9.11659 131.026 9.05722 130.769 8.93847C130.512 8.81756 130.308 8.64375 130.157 8.41705C130.006 8.18818 129.93 7.91182 129.93 7.58795C129.93 7.30295 129.986 7.07193 130.099 6.89489C130.211 6.71568 130.361 6.57534 130.549 6.47386C130.737 6.37239 130.944 6.29682 131.171 6.24716C131.399 6.19534 131.629 6.15432 131.86 6.12409C132.163 6.08523 132.408 6.05608 132.596 6.03665C132.786 6.01506 132.924 5.97943 133.01 5.92977C133.099 5.88011 133.143 5.79375 133.143 5.67068V5.64477C133.143 5.32523 133.055 5.07693 132.881 4.89989C132.708 4.72284 132.445 4.63432 132.094 4.63432C131.729 4.63432 131.443 4.7142 131.235 4.87398C131.028 5.03375 130.882 5.20432 130.798 5.38568L130.073 5.12659C130.202 4.82432 130.375 4.58898 130.591 4.42057C130.809 4.25 131.046 4.13125 131.303 4.06432C131.562 3.99523 131.817 3.96068 132.068 3.96068C132.227 3.96068 132.411 3.98011 132.618 4.01898C132.828 4.05568 133.029 4.13233 133.224 4.24892C133.42 4.36551 133.583 4.54148 133.713 4.77682C133.842 5.01216 133.907 5.32739 133.907 5.7225V9H133.143V8.32636H133.104C133.052 8.43432 132.966 8.54983 132.845 8.6729C132.724 8.79597 132.563 8.90068 132.362 8.98705C132.162 9.07341 131.916 9.11659 131.627 9.11659ZM131.744 8.43C132.046 8.43 132.301 8.37063 132.508 8.25188C132.717 8.13313 132.875 7.97983 132.981 7.79199C133.089 7.60415 133.143 7.40659 133.143 7.19932V6.49977C133.11 6.53864 133.039 6.57426 132.929 6.60665C132.821 6.63687 132.696 6.66386 132.553 6.68761C132.413 6.7092 132.276 6.72864 132.142 6.74591C132.01 6.76102 131.904 6.77398 131.821 6.78477C131.623 6.81068 131.437 6.85278 131.264 6.91108C131.094 6.96722 130.956 7.0525 130.85 7.16693C130.746 7.2792 130.694 7.4325 130.694 7.62682C130.694 7.89239 130.793 8.09318 130.989 8.2292C131.188 8.36307 131.439 8.43 131.744 8.43Z" fill="black"/>
<rect x="131" y="23" width="4" height="4" fill="#D9D9D9"/>
<rect x="139" y="23" width="4" height="4" fill="#D9D9D9"/>
<rect x="147" y="23" width="4" height="4" fill="#D9D9D9"/>
<rect x="155" y="23" width="4" height="4" fill="#D9D9D9"/>
<rect x="163" y="23" width="4" height="4" fill="#D9D9D9"/>
<rect x="171" y="23" width="4" height="4" fill="#D9D9D9"/>
<rect x="179" y="23" width="4" height="4" fill="#D9D9D9"/>
<rect x="187" y="23" width="4" height="4" fill="#D9D9D9"/>
<rect x="127" y="23" width="4" height="4" fill="#BA9696"/>
<rect x="135" y="23" width="4" height="4" fill="#BA9696"/>
<rect x="143" y="23" width="4" height="4" fill="#BA9696"/>
<rect x="151" y="23" width="4" height="4" fill="#BA9696"/>
<rect x="159" y="23" width="4" height="4" fill="#BA9696"/>
<rect x="167" y="23" width="4" height="4" fill="#BA9696"/>
<rect x="175" y="23" width="4" height="4" fill="#BA9696"/>
<rect x="183" y="23" width="4" height="4" fill="#BA9696"/>
<rect x="191" y="23" width="4" height="4" fill="#BA9696"/>
<path d="M146.854 7.35355C147.049 7.15829 147.049 6.84171 146.854 6.64645L143.672 3.46447C143.476 3.2692 143.16 3.2692 142.964 3.46447C142.769 3.65973 142.769 3.97631 142.964 4.17157L145.793 7L142.964 9.82843C142.769 10.0237 142.769 10.3403 142.964 10.5355C143.16 10.7308 143.476 10.7308 143.672 10.5355L146.854 7.35355ZM137 7V7.5H146.5V7V6.5H137V7Z" fill="black"/>
<path d="M35.2695 5.02545L36.4614 7.05932L37.6532 5.02545H38.5341L36.9277 7.51273L38.5341 10H37.6532L36.4614 8.06977L35.2695 10H34.3886L35.9691 7.51273L34.3886 5.02545H35.2695ZM40.7647 9.09318L40.7129 9.44295C40.6762 9.68909 40.62 9.9525 40.5445 10.2332C40.4711 10.5139 40.3944 10.7784 40.3145 11.0266C40.2346 11.2749 40.1688 11.4725 40.117 11.6193H39.534C39.5621 11.4811 39.5988 11.2987 39.6441 11.072C39.6895 10.8453 39.7348 10.5916 39.7802 10.3109C39.8277 10.0324 39.8665 9.74739 39.8967 9.45591L39.9356 9.09318H40.7647ZM42.6731 11.8655C42.5435 11.8655 42.428 11.8547 42.3265 11.8331C42.2251 11.8136 42.1549 11.7942 42.116 11.7748L42.3103 11.1011C42.496 11.1486 42.6601 11.1659 42.8026 11.153C42.9451 11.14 43.0714 11.0763 43.1815 10.9619C43.2938 10.8496 43.3964 10.6672 43.4892 10.4145L43.6317 10.0259L41.7922 5.02545H42.6212L43.9944 8.98955H44.0462L45.4194 5.02545H46.2485L44.1369 10.7255C44.0419 10.9824 43.9243 11.1951 43.7839 11.3635C43.6436 11.534 43.4806 11.6603 43.2949 11.7424C43.1114 11.8244 42.9041 11.8655 42.6731 11.8655ZM48.0856 9.09318L48.0338 9.44295C47.9971 9.68909 47.941 9.9525 47.8654 10.2332C47.792 10.5139 47.7154 10.7784 47.6355 11.0266C47.5556 11.2749 47.4897 11.4725 47.4379 11.6193H46.855C46.883 11.4811 46.9197 11.2987 46.9651 11.072C47.0104 10.8453 47.0558 10.5916 47.1011 10.3109C47.1486 10.0324 47.1875 9.74739 47.2177 9.45591L47.2565 9.09318H48.0856ZM49.3592 10V9.41705L52.1833 5.78977V5.73795H49.4499V5.02545H53.1679V5.63432L50.4215 9.23568V9.2875H53.2586V10H49.3592Z" fill="black"/>
<path d="M153.767 4.02545L151.928 9H151.15L149.311 4.02545H150.14L151.513 7.98955H151.565L152.938 4.02545H153.767ZM155.346 4.02545L156.538 6.05932L157.73 4.02545H158.611L157.004 6.51273L158.611 9H157.73L156.538 7.06977L155.346 9H154.465L156.046 6.51273L154.465 4.02545H155.346ZM160.841 8.09318L160.789 8.44295C160.753 8.68909 160.697 8.9525 160.621 9.23318C160.548 9.51386 160.471 9.77835 160.391 10.0266C160.311 10.2749 160.245 10.4725 160.194 10.6193H159.611C159.639 10.4811 159.675 10.2987 159.721 10.072C159.766 9.84528 159.811 9.59159 159.857 9.31091C159.904 9.03239 159.943 8.74739 159.973 8.45591L160.012 8.09318H160.841ZM166.325 4.02545L164.486 9H163.708L161.869 4.02545H162.698L164.071 7.98955H164.123L165.496 4.02545H166.325ZM167.826 10.8655C167.697 10.8655 167.581 10.8547 167.48 10.8331C167.378 10.8136 167.308 10.7942 167.269 10.7748L167.463 10.1011C167.649 10.1486 167.813 10.1659 167.956 10.153C168.098 10.14 168.225 10.0763 168.335 9.96187C168.447 9.8496 168.549 9.66716 168.642 9.41455L168.785 9.02591L166.945 4.02545H167.774L169.148 7.98955H169.199L170.573 4.02545H171.402L169.29 9.72545C169.195 9.98239 169.077 10.1951 168.937 10.3635C168.797 10.534 168.634 10.6603 168.448 10.7424C168.264 10.8244 168.057 10.8655 167.826 10.8655ZM173.239 8.09318L173.187 8.44295C173.15 8.68909 173.094 8.9525 173.019 9.23318C172.945 9.51386 172.868 9.77835 172.789 10.0266C172.709 10.2749 172.643 10.4725 172.591 10.6193H172.008C172.036 10.4811 172.073 10.2987 172.118 10.072C172.164 9.84528 172.209 9.59159 172.254 9.31091C172.302 9.03239 172.341 8.74739 172.371 8.45591L172.41 8.09318H173.239ZM178.723 4.02545L176.883 9H176.106L174.266 4.02545H175.095L176.468 7.98955H176.52L177.893 4.02545H178.723ZM179.589 9V8.41705L182.413 4.78977V4.73795H179.68V4.02545H183.398V4.63432L180.651 8.23568V8.2875H183.488V9H179.589Z" fill="black"/>
<path d="M286 127C286 123.268 286 43.4448 286 4" stroke="black" stroke-width="0.5"/>
<path d="M270.5 119.5H372" stroke="black" stroke-width="0.5"/>
<path d="M343.718 62.8774C343.65 62.7571 343.498 62.7144 343.377 62.7821L341.416 63.8852C341.296 63.9529 341.253 64.1053 341.321 64.2257C341.389 64.346 341.541 64.3887 341.662 64.321L343.405 63.3405L344.385 65.0836C344.453 65.2039 344.605 65.2466 344.726 65.1789C344.846 65.1112 344.889 64.9588 344.821 64.8385L343.718 62.8774ZM336.5 88L336.741 88.0674L343.741 63.0674L343.5 63L343.259 62.9326L336.259 87.9326L336.5 88Z" fill="#BA9696"/>
<path d="M311.91 97.7505C311.22 97.4934 310.452 97.8443 310.195 98.5344C309.938 99.2244 310.289 99.9922 310.979 100.249C311.669 100.506 312.437 100.155 312.694 99.4654C312.951 98.7754 312.6 98.0076 311.91 97.7505ZM318.819 109.479C318.956 109.501 319.084 109.408 319.106 109.272L319.46 107.05C319.482 106.914 319.389 106.785 319.253 106.764C319.117 106.742 318.989 106.835 318.967 106.971L318.651 108.946L316.676 108.631C316.54 108.609 316.412 108.702 316.39 108.838C316.368 108.974 316.461 109.103 316.598 109.124L318.819 109.479ZM311.445 98.9999L311.242 99.1466L318.656 109.379L318.859 109.232L319.061 109.086L311.647 98.8532L311.445 98.9999Z" fill="black"/>
<circle cx="184" cy="186" r="3.5" fill="#D9D9D9" stroke="black"/>
<circle cx="218" cy="296" r="3.5" fill="#D9D9D9" stroke="black"/>
<path d="M180.749 203.024C180.762 202.886 180.661 202.764 180.524 202.751L178.284 202.539C178.146 202.526 178.024 202.627 178.011 202.765C177.998 202.902 178.099 203.024 178.236 203.037L180.228 203.225L180.039 205.216C180.026 205.354 180.127 205.476 180.265 205.489C180.402 205.502 180.524 205.401 180.537 205.264L180.749 203.024ZM99.5 270L99.6593 270.193L180.659 203.193L180.5 203L180.341 202.807L99.3407 269.807L99.5 270Z" fill="black"/>
<path d="M184.249 213.024C184.262 212.887 184.162 212.765 184.024 212.751L181.785 212.532C181.648 212.519 181.525 212.619 181.512 212.757C181.498 212.894 181.599 213.017 181.736 213.03L183.727 213.224L183.532 215.215C183.519 215.352 183.619 215.475 183.757 215.488C183.894 215.502 184.017 215.401 184.03 215.264L184.249 213.024ZM111 273L111.159 273.193L184.159 213.193L184 213L183.841 212.807L110.841 272.807L111 273Z" fill="black"/>
<path d="M193.249 240.026C193.263 239.888 193.163 239.766 193.026 239.751L190.788 239.52C190.65 239.506 190.527 239.605 190.513 239.743C190.499 239.88 190.599 240.003 190.736 240.017L192.726 240.223L192.52 242.212C192.506 242.35 192.605 242.473 192.743 242.487C192.88 242.501 193.003 242.401 193.017 242.264L193.249 240.026ZM145 279L145.158 279.194L193.158 240.194L193 240L192.842 239.806L144.842 278.806L145 279Z" fill="black"/>
<path d="M188.249 222.023C188.262 221.886 188.161 221.764 188.023 221.751L185.783 221.54C185.646 221.528 185.524 221.629 185.511 221.766C185.498 221.903 185.599 222.025 185.736 222.038L187.728 222.226L187.54 224.217C187.528 224.354 187.629 224.476 187.766 224.489C187.903 224.502 188.025 224.401 188.038 224.264L188.249 222.023ZM124 275L124.159 275.193L188.159 222.193L188 222L187.841 221.807L123.841 274.807L124 275Z" fill="black"/>
<path d="M196.249 246.023C196.261 245.885 196.16 245.764 196.023 245.751L193.782 245.547C193.644 245.535 193.523 245.636 193.51 245.774C193.498 245.911 193.599 246.033 193.737 246.045L195.728 246.226L195.547 248.218C195.535 248.356 195.636 248.477 195.774 248.49C195.911 248.502 196.033 248.401 196.045 248.263L196.249 246.023ZM154 281L154.16 281.192L196.16 246.192L196 246L195.84 245.808L153.84 280.808L154 281Z" fill="black"/>
<path d="M191.249 231.024C191.262 230.887 191.162 230.765 191.024 230.751L188.785 230.532C188.648 230.518 188.525 230.619 188.512 230.756C188.498 230.893 188.599 231.016 188.736 231.029L190.727 231.224L190.532 233.215C190.518 233.352 190.619 233.475 190.756 233.488C190.893 233.502 191.016 233.401 191.029 233.264L191.249 231.024ZM135 277L135.159 277.193L191.159 231.193L191 231L190.841 230.807L134.841 276.807L135 277Z" fill="black"/>
<path d="M200.249 254.026C200.263 253.889 200.163 253.766 200.026 253.751L197.788 253.518C197.651 253.503 197.528 253.603 197.514 253.74C197.499 253.878 197.599 254 197.736 254.015L199.725 254.223L199.518 256.212C199.503 256.349 199.603 256.472 199.74 256.486C199.878 256.501 200 256.401 200.015 256.264L200.249 254.026ZM163 284L163.157 284.194L200.157 254.194L200 254L199.843 253.806L162.843 283.806L163 284Z" fill="black"/>
</svg>
