<svg width="516" height="213" viewBox="0 0 516 213" fill="none" xmlns="http://www.w3.org/2000/svg">
<circle cx="64" cy="120.698" r="64" fill="#737070"/>
<circle cx="352" cy="148.698" r="64" fill="#ABAAAA"/>
<path d="M64 120.698H213" stroke="black" stroke-width="5"/>
<path d="M352 148.698L395 0.697504" stroke="black" stroke-width="5"/>
<path d="M300 56.6975L515 119.698" stroke="#9F7373" stroke-width="2" stroke-dasharray="4 4"/>
<path d="M141 140.698L147.5 129.698L154.5 140.698" stroke="black" stroke-width="5"/>
<path d="M485.58 117.692L476.778 108.43L489.274 104.707" stroke="black" stroke-width="5"/>
<path d="M108 140.698L114.5 129.698L121.5 140.698" stroke="black" stroke-width="5"/>
<path d="M75 140.698L81.5 129.698L88.5 140.698" stroke="black" stroke-width="5"/>
<path d="M173 140.698L179.5 129.698L186.5 140.698" stroke="black" stroke-width="5"/>
<path d="M206 140.698L212.5 129.698L219.5 140.698" stroke="black" stroke-width="5"/>
<path d="M378 68.9047L385.559 70.9466L383.122 79.2671" stroke="black" stroke-width="2"/>
<path d="M360.876 76.2152C360.61 75.7314 360.002 75.5551 359.518 75.8215L351.634 80.1622C351.15 80.4285 350.974 81.0367 351.24 81.5205C351.506 82.0043 352.114 82.1806 352.598 81.9142L359.606 78.0558L363.465 85.0639C363.731 85.5477 364.339 85.724 364.823 85.4576C365.307 85.1912 365.483 84.5831 365.217 84.0993L360.876 76.2152ZM340 145.698L340.96 145.976L360.96 76.9759L360 76.6975L359.04 76.4191L339.04 145.419L340 145.698Z" fill="#DF2626"/>
<path d="M487.759 94.6975V85.9702H493.537V87.4915H489.604V89.5711H493.153V91.0924H489.604V94.6975H487.759Z" fill="black"/>
<path d="M335.724 113.698V107.152H337.484V108.294H337.553C337.672 107.888 337.872 107.581 338.153 107.374C338.435 107.163 338.759 107.058 339.125 107.058C339.216 107.058 339.314 107.064 339.419 107.075C339.524 107.087 339.616 107.102 339.696 107.122V108.733C339.611 108.707 339.493 108.685 339.342 108.665C339.192 108.645 339.054 108.635 338.929 108.635C338.662 108.635 338.423 108.693 338.213 108.81C338.006 108.923 337.841 109.082 337.719 109.287C337.599 109.492 337.54 109.727 337.54 109.994V113.698H335.724Z" fill="#DF2626"/>
</svg>
