<svg width="287" height="367" viewBox="0 0 287 367" fill="none" xmlns="http://www.w3.org/2000/svg">
<path d="M143.704 208.16C143.165 208.16 142.684 208.066 142.262 207.879C141.84 207.688 141.506 207.407 141.26 207.037C141.018 206.662 140.897 206.196 140.897 205.639C140.897 205.169 140.983 204.775 141.156 204.455C141.328 204.136 141.563 203.879 141.86 203.685C142.157 203.49 142.495 203.343 142.873 203.244C143.254 203.145 143.654 203.076 144.073 203.035C144.565 202.984 144.961 202.936 145.262 202.892C145.563 202.844 145.781 202.775 145.917 202.683C146.052 202.591 146.12 202.455 146.12 202.276V202.243C146.12 201.894 146.01 201.624 145.79 201.433C145.574 201.243 145.265 201.147 144.865 201.147C144.443 201.147 144.108 201.241 143.858 201.428C143.609 201.611 143.443 201.843 143.363 202.121L141.194 201.945C141.304 201.432 141.521 200.988 141.844 200.613C142.166 200.235 142.583 199.945 143.093 199.744C143.607 199.538 144.201 199.435 144.876 199.435C145.346 199.435 145.796 199.49 146.225 199.6C146.658 199.711 147.041 199.881 147.375 200.112C147.713 200.344 147.979 200.641 148.173 201.004C148.368 201.364 148.465 201.795 148.465 202.298V208H146.241V206.828H146.175C146.04 207.092 145.858 207.325 145.631 207.527C145.403 207.725 145.13 207.881 144.81 207.994C144.491 208.105 144.122 208.16 143.704 208.16ZM144.376 206.541C144.72 206.541 145.025 206.473 145.289 206.338C145.553 206.198 145.761 206.011 145.911 205.776C146.062 205.541 146.137 205.275 146.137 204.978V204.081C146.064 204.129 145.963 204.173 145.834 204.213C145.709 204.25 145.568 204.285 145.41 204.318C145.253 204.347 145.095 204.375 144.937 204.4C144.779 204.422 144.636 204.442 144.508 204.461C144.232 204.501 143.992 204.565 143.787 204.653C143.581 204.741 143.421 204.861 143.308 205.011C143.194 205.158 143.137 205.341 143.137 205.562C143.137 205.881 143.253 206.125 143.484 206.294C143.719 206.459 144.016 206.541 144.376 206.541ZM152.629 196.727V208H150.284V196.727H152.629ZM154.507 211.17V199.545H156.819V200.966H156.924C157.027 200.738 157.175 200.507 157.37 200.272C157.568 200.033 157.825 199.835 158.14 199.678C158.46 199.516 158.856 199.435 159.329 199.435C159.946 199.435 160.514 199.597 161.036 199.92C161.557 200.239 161.973 200.722 162.285 201.367C162.597 202.01 162.753 202.815 162.753 203.784C162.753 204.727 162.601 205.523 162.296 206.173C161.995 206.818 161.584 207.308 161.063 207.642C160.546 207.972 159.966 208.138 159.324 208.138C158.869 208.138 158.482 208.062 158.162 207.912C157.847 207.761 157.588 207.573 157.386 207.345C157.184 207.114 157.03 206.881 156.924 206.646H156.852V211.17H154.507ZM156.803 203.773C156.803 204.275 156.872 204.714 157.012 205.088C157.151 205.463 157.353 205.754 157.617 205.963C157.882 206.169 158.203 206.272 158.581 206.272C158.962 206.272 159.285 206.167 159.549 205.958C159.814 205.745 160.014 205.452 160.149 205.077C160.289 204.699 160.359 204.264 160.359 203.773C160.359 203.285 160.291 202.855 160.155 202.485C160.019 202.114 159.819 201.824 159.555 201.615C159.291 201.406 158.966 201.301 158.581 201.301C158.199 201.301 157.876 201.402 157.612 201.604C157.351 201.806 157.151 202.092 157.012 202.463C156.872 202.833 156.803 203.27 156.803 203.773ZM166.661 203.112V208H164.316V196.727H166.595V201.037H166.694C166.885 200.538 167.193 200.147 167.619 199.865C168.044 199.578 168.578 199.435 169.22 199.435C169.808 199.435 170.319 199.564 170.756 199.821C171.196 200.074 171.538 200.439 171.78 200.916C172.026 201.389 172.147 201.956 172.143 202.617V208H169.798V203.035C169.802 202.514 169.67 202.109 169.402 201.819C169.138 201.529 168.767 201.384 168.29 201.384C167.971 201.384 167.688 201.452 167.443 201.588C167.2 201.723 167.01 201.921 166.87 202.182C166.734 202.439 166.665 202.749 166.661 203.112ZM176.399 208.16C175.86 208.16 175.379 208.066 174.957 207.879C174.535 207.688 174.201 207.407 173.955 207.037C173.713 206.662 173.592 206.196 173.592 205.639C173.592 205.169 173.678 204.775 173.851 204.455C174.023 204.136 174.258 203.879 174.555 203.685C174.853 203.49 175.19 203.343 175.568 203.244C175.95 203.145 176.35 203.076 176.768 203.035C177.26 202.984 177.656 202.936 177.957 202.892C178.258 202.844 178.476 202.775 178.612 202.683C178.748 202.591 178.816 202.455 178.816 202.276V202.243C178.816 201.894 178.706 201.624 178.485 201.433C178.269 201.243 177.961 201.147 177.561 201.147C177.139 201.147 176.803 201.241 176.553 201.428C176.304 201.611 176.139 201.843 176.058 202.121L173.889 201.945C173.999 201.432 174.216 200.988 174.539 200.613C174.862 200.235 175.278 199.945 175.788 199.744C176.302 199.538 176.897 199.435 177.572 199.435C178.041 199.435 178.491 199.49 178.92 199.6C179.353 199.711 179.737 199.881 180.071 200.112C180.408 200.344 180.674 200.641 180.869 201.004C181.063 201.364 181.161 201.795 181.161 202.298V208H178.937V206.828H178.871C178.735 207.092 178.553 207.325 178.326 207.527C178.098 207.725 177.825 207.881 177.506 207.994C177.186 208.105 176.818 208.16 176.399 208.16ZM177.071 206.541C177.416 206.541 177.72 206.473 177.985 206.338C178.249 206.198 178.456 206.011 178.607 205.776C178.757 205.541 178.832 205.275 178.832 204.978V204.081C178.759 204.129 178.658 204.173 178.529 204.213C178.405 204.25 178.263 204.285 178.106 204.318C177.948 204.347 177.79 204.375 177.632 204.4C177.474 204.422 177.331 204.442 177.203 204.461C176.928 204.501 176.687 204.565 176.482 204.653C176.276 204.741 176.117 204.861 176.003 205.011C175.889 205.158 175.832 205.341 175.832 205.562C175.832 205.881 175.948 206.125 176.179 206.294C176.414 206.459 176.711 206.541 177.071 206.541ZM187.095 201.516V199.556H194.697V201.516H187.095ZM187.095 205.171V203.211H194.697V205.171H187.095ZM204.834 208.154C204.012 208.154 203.28 208.013 202.638 207.73C202 207.444 201.495 207.051 201.124 206.552C200.758 206.05 200.569 205.47 200.558 204.813H202.957C202.972 205.088 203.062 205.33 203.227 205.54C203.396 205.745 203.62 205.905 203.899 206.018C204.178 206.132 204.491 206.189 204.84 206.189C205.203 206.189 205.524 206.125 205.803 205.996C206.082 205.868 206.3 205.69 206.458 205.463C206.616 205.235 206.695 204.973 206.695 204.675C206.695 204.375 206.61 204.108 206.442 203.877C206.276 203.642 206.038 203.459 205.726 203.327C205.418 203.195 205.051 203.129 204.625 203.129H203.574V201.378H204.625C204.985 201.378 205.302 201.316 205.577 201.191C205.856 201.066 206.073 200.894 206.227 200.674C206.381 200.45 206.458 200.189 206.458 199.892C206.458 199.61 206.39 199.362 206.254 199.149C206.122 198.933 205.935 198.764 205.693 198.643C205.454 198.522 205.176 198.461 204.856 198.461C204.533 198.461 204.238 198.52 203.97 198.637C203.702 198.751 203.488 198.914 203.326 199.127C203.165 199.34 203.078 199.589 203.067 199.876H200.783C200.794 199.226 200.98 198.654 201.339 198.158C201.699 197.663 202.183 197.276 202.792 196.997C203.405 196.714 204.097 196.573 204.867 196.573C205.645 196.573 206.326 196.714 206.909 196.997C207.493 197.28 207.946 197.661 208.269 198.142C208.596 198.619 208.757 199.155 208.753 199.749C208.757 200.38 208.561 200.907 208.164 201.329C207.772 201.751 207.26 202.019 206.629 202.132V202.221C207.458 202.327 208.089 202.615 208.522 203.085C208.959 203.551 209.175 204.134 209.172 204.835C209.175 205.477 208.99 206.048 208.616 206.547C208.245 207.046 207.733 207.439 207.08 207.725C206.427 208.011 205.678 208.154 204.834 208.154ZM215.305 208.248C214.358 208.244 213.543 208.011 212.861 207.549C212.182 207.086 211.659 206.417 211.292 205.54C210.929 204.663 210.749 203.608 210.753 202.375C210.753 201.145 210.934 200.098 211.298 199.232C211.665 198.366 212.188 197.707 212.866 197.256C213.549 196.801 214.362 196.573 215.305 196.573C216.248 196.573 217.059 196.801 217.738 197.256C218.42 197.711 218.945 198.371 219.312 199.237C219.679 200.1 219.861 201.145 219.857 202.375C219.857 203.611 219.673 204.668 219.306 205.545C218.943 206.422 218.422 207.092 217.743 207.554C217.064 208.017 216.252 208.248 215.305 208.248ZM215.305 206.272C215.951 206.272 216.466 205.947 216.852 205.297C217.237 204.648 217.428 203.674 217.424 202.375C217.424 201.52 217.336 200.808 217.16 200.239C216.987 199.67 216.741 199.243 216.422 198.956C216.107 198.67 215.734 198.527 215.305 198.527C214.663 198.527 214.149 198.848 213.764 199.49C213.378 200.133 213.184 201.094 213.18 202.375C213.18 203.241 213.266 203.964 213.439 204.543C213.615 205.119 213.863 205.552 214.182 205.842C214.501 206.129 214.875 206.272 215.305 206.272Z" fill="black"/>
<path d="M108 195C114.769 199.167 121.538 205 132 205" stroke="black" stroke-width="2"/>
<path d="M29.5927 324.983C29.9649 326.312 31.3444 327.088 32.674 326.716L54.3411 320.651C55.6707 320.279 56.4469 318.899 56.0747 317.569C55.7025 316.24 54.3229 315.464 52.9933 315.836L33.7337 321.227L28.3423 301.968C27.9702 300.638 26.5906 299.862 25.261 300.234C23.9314 300.606 23.1552 301.986 23.5274 303.315L29.5927 324.983ZM130.064 150L127.885 148.774L29.8213 323.083L32.0001 324.309L34.179 325.534L132.243 151.226L130.064 150Z" fill="#E73541"/>
<path d="M97.9139 293.527C98.1798 293.452 98.335 293.176 98.2606 292.91L97.0475 288.577C96.9731 288.311 96.6972 288.156 96.4313 288.23C96.1653 288.305 96.0101 288.581 96.0845 288.847L97.1628 292.699L93.3109 293.777C93.045 293.851 92.8897 294.127 92.9642 294.393C93.0386 294.659 93.3145 294.814 93.5804 294.74L97.9139 293.527ZM82.0913 284.219L81.8461 284.655L97.5339 293.481L97.7791 293.045L98.0242 292.609L82.3365 283.784L82.0913 284.219Z" fill="#E73541"/>
<path d="M254.338 157.513L254.418 149.059L256.763 149.081L256.683 157.535L254.338 157.513ZM255.606 147.98C255.258 147.977 254.96 147.858 254.713 147.625C254.469 147.388 254.349 147.106 254.352 146.779C254.355 146.456 254.48 146.18 254.728 145.952C254.98 145.719 255.28 145.605 255.629 145.608C255.978 145.611 256.274 145.731 256.517 145.969C256.765 146.202 256.887 146.48 256.884 146.803C256.881 147.13 256.753 147.409 256.501 147.642C256.253 147.871 255.955 147.983 255.606 147.98Z" fill="black"/>
<path d="M131.164 23.6991L133.509 23.7427L133.344 32.614C133.331 33.2671 133.193 33.793 132.929 34.1918C132.665 34.5906 132.29 34.8791 131.806 35.0573C131.326 35.2355 130.754 35.3184 130.089 35.3061C130.009 35.3046 129.932 35.3013 129.858 35.2963C129.781 35.2949 129.701 35.2915 129.616 35.2863L129.65 33.4537C129.713 33.4585 129.768 33.4614 129.815 33.4623C129.859 33.4667 129.907 33.4695 129.958 33.4704C130.336 33.4775 130.602 33.4016 130.755 33.243C130.912 33.0881 130.994 32.8511 131 32.5319L131.164 23.6991ZM132.351 22.6311C132.006 22.6247 131.711 22.5036 131.466 22.2678C131.221 22.0284 131.101 21.7454 131.107 21.4189C131.113 21.096 131.243 20.8213 131.497 20.5948C131.751 20.3647 132.05 20.2528 132.395 20.2592C132.747 20.2657 133.044 20.3887 133.286 20.6281C133.531 20.8639 133.65 21.1432 133.644 21.466C133.638 21.7926 133.508 22.0709 133.255 22.3011C133.004 22.5277 132.703 22.6377 132.351 22.6311Z" fill="#181318"/>
<path d="M77.6444 301.223L83.1717 291.399L87.0478 293.579C87.793 293.999 88.3478 294.498 88.7121 295.078C89.0783 295.654 89.2576 296.271 89.2502 296.928C89.2478 297.583 89.063 298.237 88.696 298.89C88.3289 299.542 87.8643 300.038 87.3022 300.379C86.7401 300.72 86.1137 300.879 85.4231 300.857C84.7357 300.836 84.0146 300.614 83.2599 300.189L80.7893 298.799L81.7258 297.134L83.8605 298.335C84.2603 298.56 84.6284 298.677 84.9648 298.685C85.3062 298.692 85.6102 298.608 85.8766 298.434C86.1481 298.258 86.3747 298.009 86.5564 297.686C86.7399 297.36 86.8345 297.038 86.8401 296.721C86.8507 296.403 86.7627 296.103 86.576 295.821C86.3912 295.536 86.0972 295.28 85.6943 295.054L84.2935 294.265L79.7216 302.392L77.6444 301.223Z" fill="#E73541"/>
<path d="M264.524 140.962C264.721 140.769 264.724 140.452 264.531 140.255L261.379 137.043C261.186 136.846 260.869 136.843 260.672 137.036C260.475 137.23 260.472 137.546 260.665 137.744L263.467 140.599L260.612 143.4C260.415 143.594 260.412 143.91 260.605 144.107C260.798 144.304 261.115 144.307 261.312 144.114L264.524 140.962ZM246.175 140.435L246.17 140.935L264.169 141.105L264.174 140.605L264.179 140.105L246.18 139.935L246.175 140.435Z" fill="black"/>
<path d="M141.344 15.6948C141.543 15.5032 141.549 15.1866 141.357 14.9878L138.235 11.7472C138.043 11.5483 137.727 11.5424 137.528 11.734C137.329 11.9256 137.323 12.2422 137.515 12.441L140.29 15.3216L137.409 18.0969C137.211 18.2885 137.205 18.605 137.396 18.8039C137.588 19.0027 137.904 19.0086 138.103 18.817L141.344 15.6948ZM123 15L122.991 15.4999L140.988 15.8346L140.997 15.3347L141.006 14.8348L123.009 14.5001L123 15Z" fill="black"/>
<path d="M241.737 151.599C242.711 150.62 242.707 149.037 241.728 148.063L225.781 132.191C224.802 131.217 223.219 131.221 222.245 132.199C221.271 133.178 221.275 134.761 222.253 135.735L236.429 149.843L222.321 164.019C221.347 164.998 221.35 166.581 222.329 167.555C223.308 168.529 224.89 168.525 225.864 167.546L241.737 151.599ZM131.738 150.092L131.744 152.592L239.971 152.335L239.965 149.835L239.959 147.335L131.732 147.592L131.738 150.092Z" fill="black"/>
<path d="M133.768 44.2329C132.793 43.2562 131.21 43.2556 130.233 44.2316L114.317 60.1353C113.34 61.1113 113.34 62.6942 114.316 63.6709C115.291 64.6476 116.874 64.6482 117.851 63.6722L131.999 49.5355L146.135 63.6831C147.111 64.6598 148.694 64.6604 149.671 63.6845C150.648 62.7085 150.648 61.1256 149.672 60.1489L133.768 44.2329ZM131.959 152.644L134.459 152.645L134.5 46.001L132 46L129.5 45.999L129.459 152.643L131.959 152.644Z" fill="black"/>
<path d="M133.5 151V342" stroke="black" stroke-width="2" stroke-dasharray="4 4"/>
<path d="M132 150L14 150" stroke="black" stroke-width="2" stroke-dasharray="4 4"/>
<path d="M135 328L32 328" stroke="#E73541" stroke-width="2" stroke-dasharray="4 4"/>
<path d="M32 308L32 150" stroke="#E73541" stroke-width="2" stroke-dasharray="4 4"/>
</svg>
